<svg xmlns="http://www.w3.org/2000/svg" xmlns:xlink="http://www.w3.org/1999/xlink" width="100" height="100" viewBox="0 0 100 100"><defs><clipPath id="a"><rect width="100" height="100" transform="translate(0.666 0.867)" fill="#fff"/></clipPath></defs><g transform="translate(-0.667 -0.867)" clip-path="url(#a)"><path d="M90.9,4.683H87.464A3.033,3.033,0,0,0,87.64,3.8a2.934,2.934,0,0,0-5.869,0,2.757,2.757,0,0,0,.18.882H70.715a2.927,2.927,0,0,0,.177-.882,2.937,2.937,0,0,0-5.875,0,2.839,2.839,0,0,0,.18.882H53.961a2.925,2.925,0,0,0,.177-.882,2.936,2.936,0,0,0-5.872,0,2.927,2.927,0,0,0,.177.882H37.207a2.925,2.925,0,0,0,.177-.882,2.936,2.936,0,0,0-5.872,0,2.835,2.835,0,0,0,.177.882H20.453A2.837,2.837,0,0,0,20.63,3.8a2.934,2.934,0,0,0-5.869,0,2.927,2.927,0,0,0,.177.882H11.506a8.4,8.4,0,0,0-8.4,8.4V92.47a8.4,8.4,0,0,0,8.4,8.4H81.415L99.293,82.989V13.08A8.4,8.4,0,0,0,90.9,4.683ZM94.712,81.09l-.949.95H86.569a6.122,6.122,0,0,0-6.107,6.106v7.191l-.947.949H11.506A3.822,3.822,0,0,1,7.69,92.47V28.348H94.712Z" transform="translate(-0.534 0)" fill="#fff"/><path d="M28.057,82.046a4.347,4.347,0,0,1-2.25-.6,2.758,2.758,0,0,1-1.31-1.914H16.906c.168,4.366,4.333,8.095,10.715,8.095,6.65,0,11.322-2.724,11.322-8.333,0-8.8-13.908-6.553-13.908-10.177,0-.873.772-1.377,2.519-1.377a4.386,4.386,0,0,1,2.049.437,2.138,2.138,0,0,1,1.142,1.652h7.524c-.571-4.232-3.627-7.661-10.345-7.661-6.046,0-10.482,2.586-10.482,7.728,0,9.237,13.908,6.717,13.908,10.376C31.349,81.408,30.039,82.046,28.057,82.046Z" transform="translate(-3.552 -13.408)" fill="#fff"/><path d="M59.042,87.8c8.027,0,11.621-3.392,11.621-11.151V62.975h-7.93V77.451c0,2.62-.837,4.437-3.692,4.437-3.258,0-3.728-2.049-3.728-4.437V62.975h-7.93V76.612C47.384,84.944,51.549,87.8,59.042,87.8Z" transform="translate(-10.219 -13.586)" fill="#fff"/><path d="M88.6,79.506l-.308-5.511,8.638,13.166h7.423V62.975H96.759v7.692l.3,5.508-8.635-13.2H81V87.161H88.6Z" transform="translate(-17.574 -13.586)" fill="#fff"/></g></svg>