<?xml version="1.0" encoding="utf-8"?>
<!-- Generator: Adobe Illustrator 16.0.0, SVG Export Plug-In . SVG Version: 6.00 Build 0)  -->
<!DOCTYPE svg PUBLIC "-//W3C//DTD SVG 1.1//EN" "http://www.w3.org/Graphics/SVG/1.1/DTD/svg11.dtd">
<svg version="1.1" id="Layer_1" xmlns="http://www.w3.org/2000/svg" xmlns:xlink="http://www.w3.org/1999/xlink" x="0px" y="0px"
	 width="13px" height="14.58px" viewBox="0 0 13 14.58" enable-background="new 0 0 13 14.58" xml:space="preserve">
<g id="calendar-interface-symbol-tool" transform="translate(-1.974)">
	<g id="Group_753" transform="translate(1.974)">
		<path id="Path_3508" fill="#630348" d="M11.301,1.579h-0.439V1.1c0.025-0.59-0.432-1.089-1.021-1.114S8.751,0.418,8.726,1.007
			c-0.001,0.031-0.001,0.062,0,0.093v0.479H7.625V1.1c0.025-0.59-0.432-1.089-1.021-1.114S5.516,0.418,5.49,1.007
			c-0.001,0.031-0.001,0.062,0,0.093v0.479h-1.1V1.1c0.025-0.59-0.432-1.089-1.022-1.114S2.279,0.418,2.254,1.008
			c-0.001,0.03-0.001,0.062,0,0.092v0.479H1.7c-0.939,0-1.7,0.761-1.7,1.7l0,0v9.6c0,0.938,0.761,1.7,1.7,1.7h9.599
			c0.939,0,1.701-0.762,1.701-1.7v-9.6C13,2.34,12.239,1.58,11.301,1.579z M9.327,1.1C9.309,0.842,9.504,0.618,9.763,0.602
			c0.259-0.017,0.481,0.179,0.499,0.437c0.001,0.021,0.001,0.041,0,0.062v1.959c0.017,0.258-0.18,0.481-0.438,0.499
			C9.566,3.575,9.342,3.379,9.327,3.12c-0.002-0.021-0.002-0.041,0-0.061V1.1z M6.094,1.1C6.065,0.843,6.25,0.61,6.507,0.581
			s0.49,0.156,0.519,0.413c0.004,0.035,0.004,0.071,0,0.106v1.959c0.018,0.258-0.179,0.481-0.438,0.499
			C6.33,3.575,6.107,3.379,6.09,3.12C6.089,3.1,6.089,3.08,6.09,3.059L6.094,1.1z M2.861,1.1C2.844,0.842,3.04,0.618,3.298,0.602
			C3.557,0.584,3.78,0.78,3.797,1.039c0.001,0.021,0.001,0.041,0,0.062v1.959c0.017,0.258-0.179,0.481-0.438,0.499
			C3.101,3.575,2.878,3.379,2.861,3.12C2.86,3.1,2.86,3.08,2.861,3.059V1.1z M12,12.88c0,0.387-0.313,0.7-0.699,0.7h-9.6
			c-0.387,0-0.7-0.313-0.7-0.7v-8.8h11V12.88z"/>
		<rect id="Rectangle_762" x="1.9" y="5.851" fill="#630348" width="1.838" height="1.636"/>
		<rect id="Rectangle_763" x="4.354" y="5.851" fill="#630348" width="1.839" height="1.636"/>
		<rect id="Rectangle_764" x="6.809" y="5.851" fill="#630348" width="1.838" height="1.636"/>
		<rect id="Rectangle_765" x="9.262" y="5.851" fill="#630348" width="1.839" height="1.636"/>
		<rect id="Rectangle_766" x="1.9" y="8.034" fill="#630348" width="1.838" height="1.635"/>
		<rect id="Rectangle_767" x="4.354" y="8.034" fill="#630348" width="1.839" height="1.635"/>
		<rect id="Rectangle_768" x="6.809" y="8.034" fill="#630348" width="1.838" height="1.635"/>
		<rect id="Rectangle_769" x="9.262" y="8.034" fill="#630348" width="1.839" height="1.635"/>
		<rect id="Rectangle_770" x="1.9" y="10.217" fill="#630348" width="1.838" height="1.636"/>
		<rect id="Rectangle_771" x="4.354" y="10.217" fill="#630348" width="1.839" height="1.636"/>
		<rect id="Rectangle_772" x="6.809" y="10.217" fill="#630348" width="1.838" height="1.636"/>
		<rect id="Rectangle_773" x="9.262" y="10.217" fill="#630348" width="1.839" height="1.636"/>
	</g>
</g>
</svg>
