<svg xmlns="http://www.w3.org/2000/svg" width="94" height="30" viewBox="0 0 94 30"><g transform="translate(-1622 -1536)"><g transform="translate(1622 1536)" fill="none" stroke="#630348" stroke-width="2"><rect width="94" height="30" rx="5" stroke="none"/><rect x="1" y="1" width="92" height="28" rx="4" fill="none"/></g><path d="M12.278-6.548a6.328,6.328,0,0,1-1.806,4.86A7.365,7.365,0,0,1,5.256,0H1.617V-12.85H5.651a6.793,6.793,0,0,1,4.887,1.661A6.11,6.11,0,0,1,12.278-6.548Zm-2.83.07q0-4.14-3.656-4.14H4.342V-2.25H5.511Q9.448-2.25,9.448-6.478Zm11.2-3.533a4.323,4.323,0,0,1,.905.079l-.2,2.514a3.071,3.071,0,0,0-.791-.088,2.843,2.843,0,0,0-2,.659A2.383,2.383,0,0,0,17.843-5V0H15.162V-9.826h2.03l.4,1.652h.132a3.694,3.694,0,0,1,1.235-1.332A3.045,3.045,0,0,1,20.647-10.011Zm3.007-2.355q0-1.31,1.459-1.31t1.459,1.31a1.277,1.277,0,0,1-.365.971,1.533,1.533,0,0,1-1.094.347Q23.654-11.048,23.654-12.366ZM26.449,0H23.768V-9.826h2.681Zm5.582,0L28.287-9.826h2.8l1.9,5.6a9.99,9.99,0,0,1,.4,2.013h.053a8.752,8.752,0,0,1,.4-2.013l1.89-5.6h2.8L34.782,0Zm12.4-8.1a1.7,1.7,0,0,0-1.336.541,2.5,2.5,0,0,0-.554,1.534h3.762a2.235,2.235,0,0,0-.519-1.534A1.756,1.756,0,0,0,44.434-8.1ZM44.812.176A5.072,5.072,0,0,1,41.1-1.134a4.959,4.959,0,0,1-1.336-3.709A5.454,5.454,0,0,1,41-8.662a4.4,4.4,0,0,1,3.415-1.349A4.328,4.328,0,0,1,47.66-8.824a4.489,4.489,0,0,1,1.16,3.278v1.3H42.483a2.58,2.58,0,0,0,.677,1.784,2.381,2.381,0,0,0,1.775.642A7.37,7.37,0,0,0,46.614-2a8.4,8.4,0,0,0,1.652-.589V-.519a6.294,6.294,0,0,1-1.5.523A9.476,9.476,0,0,1,44.812.176Zm5.749-3.9v-2.2h4.72v2.2ZM57.866,0V-12.85h2.725V0Zm15.25,0H70.436V-5.739a2.757,2.757,0,0,0-.378-1.6,1.375,1.375,0,0,0-1.2-.532,1.81,1.81,0,0,0-1.626.751,4.66,4.66,0,0,0-.5,2.492V0H64.046V-9.826h2.048l.36,1.257H66.6a2.833,2.833,0,0,1,1.235-1.077,4.2,4.2,0,0,1,1.789-.365,3.436,3.436,0,0,1,2.6.927,3.721,3.721,0,0,1,.888,2.676Z" transform="translate(1632 1558)" fill="#630348"/></g></svg>