<svg xmlns="http://www.w3.org/2000/svg" width="24.304" height="24.304" viewBox="0 0 24.304 24.304"><path d="M16.392,8H10.811A2.814,2.814,0,0,0,8,10.811v5.582A2.814,2.814,0,0,0,10.811,19.2h5.582A2.814,2.814,0,0,0,19.2,16.392V10.811A2.814,2.814,0,0,0,16.392,8Zm.912,8.392a.913.913,0,0,1-.912.912H10.811a.913.913,0,0,1-.912-.912V10.811a.913.913,0,0,1,.912-.912h5.582a.913.913,0,0,1,.912.912Z" transform="translate(-8 -8)"/><path d="M27.137,8H21.63a2.851,2.851,0,0,0-2.848,2.848v5.506A2.851,2.851,0,0,0,21.63,19.2h5.507a2.851,2.851,0,0,0,2.848-2.848V10.848A2.851,2.851,0,0,0,27.137,8Zm.949,8.354a.95.95,0,0,1-.949.949H21.63a.95.95,0,0,1-.949-.949V10.848A.95.95,0,0,1,21.63,9.9h5.507a.951.951,0,0,1,.949.949Z" transform="translate(-5.68 -8)"/><path d="M16.392,18.782H10.811A2.814,2.814,0,0,0,8,21.592v5.582a2.814,2.814,0,0,0,2.811,2.811h5.582A2.814,2.814,0,0,0,19.2,27.174V21.592A2.814,2.814,0,0,0,16.392,18.782Zm.912,8.392a.913.913,0,0,1-.912.912H10.811a.913.913,0,0,1-.912-.912V21.592a.913.913,0,0,1,.912-.912h5.582a.913.913,0,0,1,.912.912Z" transform="translate(-8 -5.68)"/><path d="M27.137,18.782H21.63a2.851,2.851,0,0,0-2.848,2.848v5.506a2.851,2.851,0,0,0,2.848,2.848h5.507a2.851,2.851,0,0,0,2.848-2.848V21.63A2.851,2.851,0,0,0,27.137,18.782Zm.949,8.354a.95.95,0,0,1-.949.949H21.63a.95.95,0,0,1-.949-.949V21.63a.95.95,0,0,1,.949-.949h5.507a.95.95,0,0,1,.949.949Z" transform="translate(-5.68 -5.68)"/></svg>