<svg xmlns="http://www.w3.org/2000/svg" width="80.011" height="80" viewBox="0 0 80.011 80">
  <g id="Group_24855" data-name="Group 24855" transform="translate(0.009)">
    <path id="Icon_material-location-on" data-name="Icon material-location-on" d="M21.84,3.557c-8.82,0-14.927,6.87-14.927,16.052,0,12.457,15.477,31.965,15.477,31.965S39.408,32.067,39.408,19.61C39.408,10.427,30.661,3.557,21.84,3.557Zm.848,25.953c-3.145,0-9.754-3.52-9.754-8.481s5.761-10.3,8.906-10.3,9.838,4.665,10.178,8.885S25.834,29.511,22.688,29.511Z" transform="translate(40.594 -3)" fill="#ec2323"/>
    <g id="Group_24839" data-name="Group 24839" transform="translate(4.252 44.375)">
      <path id="Path_53507" data-name="Path 53507" d="M64.775,71.125H4.65a1.181,1.181,0,0,1-1.25-1.25V36.75A1.181,1.181,0,0,1,4.65,35.5,1.181,1.181,0,0,1,5.9,36.75V68.625H63.525V43.875a1.25,1.25,0,1,1,2.5,0v26A1.181,1.181,0,0,1,64.775,71.125Z" transform="translate(-3.4 -35.5)"/>
    </g>
    <g id="Group_24840" data-name="Group 24840" transform="translate(13.825 18.125)">
      <path id="Path_53508" data-name="Path 53508" d="M25.86,32.5H12.235a1.113,1.113,0,0,1-1-.625,2.056,2.056,0,0,1-.125-1.25l7-15.375a1.2,1.2,0,0,1,1.125-.75h9a1.419,1.419,0,0,1,1,.375.972.972,0,0,1,.25,1L27.11,31.25A1.339,1.339,0,0,1,25.86,32.5ZM14.235,30h10.5l2-12.875h-6.75Z" transform="translate(-11.059 -14.5)"/>
    </g>
    <g id="Group_24841" data-name="Group 24841" transform="translate(38.752 18.25)">
      <path id="Path_53509" data-name="Path 53509" d="M40.375,32.475h-5.75a1.329,1.329,0,0,1-1.25-1.125l-.625-4.375L31,16.1a1.347,1.347,0,0,1,.25-1,1.543,1.543,0,0,1,1-.5h2.375a1.25,1.25,0,0,1,0,2.5H33.75l2,12.875h4.625a1.25,1.25,0,1,1,0,2.5Z" transform="translate(-31 -14.6)"/>
    </g>
    <g id="Group_24842" data-name="Group 24842" transform="translate(-0.009 18.25)">
      <path id="Path_53510" data-name="Path 53510" d="M15,32.475H1.252a1.2,1.2,0,0,1-1.125-.75,1.125,1.125,0,0,1,.125-1.25L10.877,16.6a4.541,4.541,0,0,1,4-2H22a1.113,1.113,0,0,1,1,.625,2.056,2.056,0,0,1,.125,1.25l-7,15.375A1.313,1.313,0,0,1,15,32.475Zm-11.25-2.5H14.127L20,17.1H14.877a2.419,2.419,0,0,0-2,.875Z" transform="translate(0.009 -14.6)"/>
    </g>
    <g id="Group_24843" data-name="Group 24843" transform="translate(27.328 18.375)">
      <path id="Path_53511" data-name="Path 53511" d="M36.91,32.45H23.16a1.419,1.419,0,0,1-1-.375.972.972,0,0,1-.25-1L24.285,15.7a1.217,1.217,0,0,1,1.25-1h9a1.346,1.346,0,0,1,1.25,1L38.16,31.075a1.347,1.347,0,0,1-.25,1A1.419,1.419,0,0,1,36.91,32.45Zm-12.25-2.5H35.535l-2-12.875H26.66Z" transform="translate(-21.861 -14.7)"/>
    </g>
    <g id="Group_24844" data-name="Group 24844" transform="translate(13.752 33.625)">
      <path id="Path_53512" data-name="Path 53512" d="M19.125,40.525A8.273,8.273,0,0,1,11,32.4V28.15a1.181,1.181,0,0,1,1.25-1.25H26a1.181,1.181,0,0,1,1.25,1.25V32.4A8.273,8.273,0,0,1,19.125,40.525ZM13.5,29.4v3a5.767,5.767,0,0,0,5.625,5.625A5.767,5.767,0,0,0,24.75,32.4v-3Z" transform="translate(-11 -26.9)"/>
    </g>
    <g id="Group_24845" data-name="Group 24845" transform="translate(41.127 33.625)">
      <path id="Path_53513" data-name="Path 53513" d="M41.025,40.525A8.273,8.273,0,0,1,32.9,32.4V28.15a1.181,1.181,0,0,1,1.25-1.25H39.9a1.25,1.25,0,0,1,0,2.5H35.4v3a5.767,5.767,0,0,0,5.625,5.625,5.4,5.4,0,0,0,3.25-1.125,1.25,1.25,0,0,1,1.5,2A8.069,8.069,0,0,1,41.025,40.525Z" transform="translate(-32.9 -26.9)"/>
    </g>
    <g id="Group_24846" data-name="Group 24846" transform="translate(0.002 33.625)">
      <path id="Path_53514" data-name="Path 53514" d="M8.125,40.525A8.273,8.273,0,0,1,0,32.4V28.15A1.181,1.181,0,0,1,1.25,26.9H15a1.181,1.181,0,0,1,1.25,1.25V32.4A8.273,8.273,0,0,1,8.125,40.525ZM2.5,29.4v3a5.767,5.767,0,0,0,5.625,5.625A5.767,5.767,0,0,0,13.75,32.4v-3Z" transform="translate(0 -26.9)"/>
    </g>
    <g id="Group_24847" data-name="Group 24847" transform="translate(27.377 33.625)">
      <path id="Path_53515" data-name="Path 53515" d="M30.025,40.525A8.273,8.273,0,0,1,21.9,32.4V28.15a1.181,1.181,0,0,1,1.25-1.25H36.9a1.181,1.181,0,0,1,1.25,1.25V32.4A8.273,8.273,0,0,1,30.025,40.525ZM24.4,29.4v3a5.625,5.625,0,0,0,11.25,0v-3Z" transform="translate(-21.9 -26.9)"/>
    </g>
    <g id="Group_24848" data-name="Group 24848" transform="translate(37.127 53.375)">
      <path id="Path_53516" data-name="Path 53516" d="M48.45,69.325H30.95a1.181,1.181,0,0,1-1.25-1.25V46.825A4.007,4.007,0,0,1,33.825,42.7H45.45a4.189,4.189,0,0,1,4.25,4.125v21.25A1.181,1.181,0,0,1,48.45,69.325Zm-16.25-2.5h15v-20A1.682,1.682,0,0,0,45.45,45.2H33.825A1.51,1.51,0,0,0,32.2,46.825Z" transform="translate(-29.7 -42.7)"/>
    </g>
    <g id="Group_24849" data-name="Group 24849" transform="translate(41.252 58.375)">
      <path id="Path_53517" data-name="Path 53517" d="M43.5,55.075H34.25A1.181,1.181,0,0,1,33,53.825V47.95a1.181,1.181,0,0,1,1.25-1.25H43.5a1.181,1.181,0,0,1,1.25,1.25v5.875A1.181,1.181,0,0,1,43.5,55.075Zm-8-2.5h6.75V49.2H35.5Z" transform="translate(-33 -46.7)"/>
    </g>
    <g id="Group_24850" data-name="Group 24850" transform="translate(0.502 77.5)">
      <path id="Path_53518" data-name="Path 53518" d="M69.15,64.5H1.65a1.25,1.25,0,0,1,0-2.5h67.5a1.25,1.25,0,0,1,0,2.5Z" transform="translate(-0.4 -62)"/>
    </g>
    <g id="Group_24851" data-name="Group 24851" transform="translate(45.877)">
      <path id="Path_53519" data-name="Path 53519" d="M53.7,49.375a4.415,4.415,0,0,1-3.875-2.25C43.825,36.75,36.7,23.125,36.7,17a17.018,17.018,0,0,1,17-17A17.29,17.29,0,0,1,70.825,17c0,6.125-7.125,19.75-13.125,30.125A4.777,4.777,0,0,1,53.7,49.375ZM53.7,2.5A14.51,14.51,0,0,0,39.2,17c0,4.375,4.5,14.625,12.875,28.875a2.031,2.031,0,0,0,3.5,0c8.25-14.25,12.75-24.5,12.75-28.875A14.783,14.783,0,0,0,53.7,2.5Z" transform="translate(-36.7)"/>
    </g>
    <g id="Group_24852" data-name="Group 24852" transform="translate(52.002 6)">
      <path id="Path_53520" data-name="Path 53520" d="M52.6,26.8a11,11,0,1,1,11-11A10.937,10.937,0,0,1,52.6,26.8Zm0-19.5a8.5,8.5,0,1,0,8.5,8.5A8.509,8.509,0,0,0,52.6,7.3Z" transform="translate(-41.6 -4.8)"/>
    </g>
    <g id="Group_24853" data-name="Group 24853" transform="translate(11.252 54)">
      <path id="Path_53521" data-name="Path 53521" d="M26.25,59.95H12.75A3.683,3.683,0,0,1,9,56.2V46.95a3.683,3.683,0,0,1,3.75-3.75h13.5A3.683,3.683,0,0,1,30,46.95V56.2A3.683,3.683,0,0,1,26.25,59.95ZM12.75,45.7a1.181,1.181,0,0,0-1.25,1.25V56.2a1.181,1.181,0,0,0,1.25,1.25h13.5A1.181,1.181,0,0,0,27.5,56.2V46.95a1.181,1.181,0,0,0-1.25-1.25Z" transform="translate(-9 -43.2)"/>
    </g>
    <g id="Group_24854" data-name="Group 24854" transform="translate(41.127 69.375)">
      <path id="Path_53522" data-name="Path 53522" d="M34.15,59.625a1.181,1.181,0,0,1-1.25-1.25V56.75a1.25,1.25,0,0,1,2.5,0v1.625A1.181,1.181,0,0,1,34.15,59.625Z" transform="translate(-32.9 -55.5)"/>
    </g>
  </g>
</svg>
