<svg xmlns="http://www.w3.org/2000/svg" width="74.03" height="80.742" viewBox="0 0 74.03 80.742">
  <g id="Group_24858" data-name="Group 24858" transform="translate(-19.054)">
    <path id="Path_53523" data-name="Path 53523" d="M99.234,244.006a1.172,1.172,0,0,0-1.172,1.172v2.654a1.172,1.172,0,1,0,2.344,0v-2.654A1.172,1.172,0,0,0,99.234,244.006Z" transform="translate(-66.663 -205.88)"/>
    <path id="Path_53524" data-name="Path 53524" d="M189.284,249a1.172,1.172,0,0,0,1.172-1.172v-2.654a1.172,1.172,0,1,0-2.344,0v2.654A1.172,1.172,0,0,0,189.284,249Z" transform="translate(-142.643 -205.88)"/>
    <path id="Path_53525" data-name="Path 53525" d="M127.73,295.231A4.238,4.238,0,0,0,131.963,291a1.172,1.172,0,0,0-2.344,0,1.889,1.889,0,0,1-3.778,0,1.172,1.172,0,0,0-2.344,0A4.238,4.238,0,0,0,127.73,295.231Z" transform="translate(-88.124 -244.54)"/>
    <path id="Path_53526" data-name="Path 53526" d="M341.491,153.012a1.671,1.671,0,0,0-1.669-1.669h-7.831a1.671,1.671,0,0,0-1.669,1.669v3.236a1.671,1.671,0,0,0,1.669,1.669h7.831a1.671,1.671,0,0,0,1.669-1.669Zm-2.344,2.561h-6.481v-1.887h6.481Z" transform="translate(-262.632 -127.695)"/>
    <path id="Path_53527" data-name="Path 53527" d="M339.822,203.991h-7.831a1.671,1.671,0,0,0-1.669,1.669V208.9a1.671,1.671,0,0,0,1.669,1.669h7.831a1.671,1.671,0,0,0,1.669-1.669V205.66A1.671,1.671,0,0,0,339.822,203.991Zm-.675,4.23h-6.481v-1.887h6.481Z" transform="translate(-262.632 -172.117)"/>
    <path id="Path_53528" data-name="Path 53528" d="M310.684,13.933h1.679v6.416A1.648,1.648,0,0,0,314.009,22h7.876a1.648,1.648,0,0,0,1.646-1.646V13.933h1.679a1.645,1.645,0,0,0,1.36-2.575L324.544,8.39a1.172,1.172,0,1,0-1.936,1.321l1.282,1.878h-1.53a1.172,1.172,0,0,0-1.172,1.172v6.89h-6.481v-6.89a1.172,1.172,0,0,0-1.172-1.172H312l5.943-8.707,1.578,2.312a1.172,1.172,0,1,0,1.936-1.321L319.307.718a1.647,1.647,0,0,0-2.72,0l-7.263,10.641a1.645,1.645,0,0,0,1.36,2.574Z" transform="translate(-244.673 0)"/>
    <path id="Path_53530" data-name="Path 53530" d="M53.449,135.018s-.59-.052-.888-.052H50.923L46.75,132.7v-1.9a15.572,15.572,0,0,0,8.04-10.326A6.074,6.074,0,0,0,58.4,110.251a1.165,1.165,0,0,0,.224-.687v-8.683a9.307,9.307,0,0,0-8.513-9.233A7.229,7.229,0,0,0,44.3,88.739H32.572a12,12,0,0,0-11.988,11.988v8.837a1.166,1.166,0,0,0,.224.687,6.074,6.074,0,0,0,3.613,10.219,15.571,15.571,0,0,0,8.04,10.326v1.9l-4.174,2.268H26.7a7.65,7.65,0,0,0-7.641,7.641V153.7a1.172,1.172,0,0,0,1.172,1.172h3.792a1.172,1.172,0,0,0,0-2.344H21.4v-9.923a5.3,5.3,0,0,1,5.3-5.3h1.5l6.81,5.076a1.182,1.182,0,0,0,.807.227l.04-.005.6,2.346-1.488,7.577H29.487a1.172,1.172,0,0,0,0,2.344H59.031c.647,0,1.757.054,1.757-.593.053-.046.053-11.765,0-11.673,0,0,.4-7.865-7.184-7.429C53.647,135.264,53.449,135.018,53.449,135.018Zm-15.607,5.894,1.765-1.842,1.765,1.842-.723,2.835H38.565Zm3.578-3.337,4.22-2.813,2.817,1.53-4.823,3.595-2.214-2.312ZM22.929,100.726a9.655,9.655,0,0,1,9.644-9.644H44.3a4.907,4.907,0,0,1,4.186,2.327,1.172,1.172,0,0,0,.978.552,6.949,6.949,0,0,1,6.823,6.92v7.511H52a4.327,4.327,0,0,1-3.4-1.643,1.173,1.173,0,0,0-1.7-.143,6.984,6.984,0,0,1-4.668,1.786h-19.3Zm3.619,18.422a1.172,1.172,0,0,0-1.2-.978,3.721,3.721,0,0,1-.325-7.435H42.229a9.322,9.322,0,0,0,5.339-1.677A6.65,6.65,0,0,0,52,110.735h2.195a3.721,3.721,0,0,1-.325,7.435,1.176,1.176,0,0,0-1.2.978,13.243,13.243,0,0,1-26.116,0Zm13.058,13.384a15.739,15.739,0,0,0,4.8-.755v.991l-4.8,3.2-4.8-3.2v-.991A15.732,15.732,0,0,0,39.606,132.532Zm-6.034,2.23,4.22,2.813-2.214,2.312-4.823-3.595Zm3.781,17.768,1.265-6.438h1.974l1.265,6.438Zm21.353,0H44.246l-1.488-7.575.6-2.347a1.176,1.176,0,0,0,.846-.221h0l6.81-5.076h1.546a5.306,5.306,0,0,1,.888.075c0,.242,5.651-.148,4.954,5.228,0,1.193.292,5.067.224,5.125l.08,4.793Z" transform="translate(0 -74.873)"/>
    <g id="Group_24859" data-name="Group 24859" transform="translate(-4.153 -5.809)">
      <g id="Rectangle_3724" data-name="Rectangle 3724" transform="translate(57.618 46.933)" fill="#d7b865" stroke="#b88610" stroke-width="2">
        <rect width="39.618" height="39.618" rx="19.809" stroke="none"/>
        <rect x="1" y="1" width="37.618" height="37.618" rx="18.809" fill="none"/>
      </g>
      <path id="Icon_awesome-star" data-name="Icon awesome-star" d="M10.679.688,8.153,5.81,2.5,6.634a1.239,1.239,0,0,0-.685,2.112l4.089,3.985-.967,5.629a1.237,1.237,0,0,0,1.795,1.3l5.056-2.658,5.056,2.658a1.238,1.238,0,0,0,1.795-1.3l-.967-5.629,4.089-3.985a1.239,1.239,0,0,0-.685-2.112L15.426,5.81,12.9.688a1.239,1.239,0,0,0-2.221,0Z" transform="translate(65.636 56.839)"/>
    </g>
  </g>
</svg>
