<svg width="31" height="30" viewBox="0 0 31 30" fill="none" xmlns="http://www.w3.org/2000/svg">
<path d="M25.1357 2.90039C26.7753 2.90061 28.0996 4.2944 28.0996 6V24C28.0996 25.7056 26.7753 27.0994 25.1357 27.0996H5.86426C4.22468 27.0994 2.90039 25.7056 2.90039 24V6C2.90043 4.2944 4.22469 2.90061 5.86426 2.90039H25.1357ZM5.86426 4.73633C5.20625 4.73655 4.66215 5.29933 4.66211 6V24C4.66211 24.7007 5.20621 25.2635 5.86426 25.2637H25.1357C25.7938 25.2635 26.3379 24.7007 26.3379 24V6C26.3379 5.29933 25.7937 4.73655 25.1357 4.73633H5.86426Z" fill="black" stroke="black" style="fill:black;fill-opacity:1;stroke:black;stroke-opacity:1;" stroke-width="0.2"/>
<path d="M27.2188 11.1758C27.7052 11.1758 28.0996 11.5702 28.0996 12.0566C28.0996 12.5431 27.7052 12.9375 27.2188 12.9375H3.78125C3.29477 12.9375 2.90039 12.5431 2.90039 12.0566C2.90039 11.5702 3.29477 11.1758 3.78125 11.1758H27.2188Z" fill="black" stroke="black" style="fill:black;fill-opacity:1;stroke:black;stroke-opacity:1;" stroke-width="0.2"/>
<path d="M27.2188 18.2212C27.7052 18.2212 28.0996 18.6156 28.0996 19.1021C28.0996 19.5885 27.7052 19.9829 27.2188 19.9829H3.78125C3.29477 19.9829 2.90039 19.5885 2.90039 19.1021C2.90039 18.6156 3.29477 18.2212 3.78125 18.2212H27.2188Z" fill="black" stroke="black" style="fill:black;fill-opacity:1;stroke:black;stroke-opacity:1;" stroke-width="0.2"/>
<path d="M11.5562 11.1758C12.0367 11.1758 12.4369 11.5434 12.437 12.0098V26.2109C12.437 26.6773 12.0367 27.0449 11.5562 27.0449C11.0756 27.0449 10.6753 26.6773 10.6753 26.2109V12.0098C10.6754 11.5434 11.0756 11.1758 11.5562 11.1758Z" fill="black" stroke="black" style="fill:black;fill-opacity:1;stroke:black;stroke-opacity:1;" stroke-width="0.2"/>
<path d="M19.125 11.1758C19.6055 11.1758 20.0058 11.5434 20.0059 12.0098V26.2109C20.0058 26.6773 19.6056 27.0449 19.125 27.0449C18.6444 27.0449 18.2442 26.6773 18.2441 26.2109V12.0098C18.2442 11.5434 18.6445 11.1758 19.125 11.1758Z" fill="black" stroke="black" style="fill:black;fill-opacity:1;stroke:black;stroke-opacity:1;" stroke-width="0.2"/>
</svg>
