<svg width="64" height="64" viewBox="0 0 64 64" fill="none" xmlns="http://www.w3.org/2000/svg">
<path d="M32 42C37.5228 42 42 37.5228 42 32C42 26.4772 37.5228 22 32 22C26.4772 22 22 26.4772 22 32C22 37.5228 26.4772 42 32 42Z" stroke="#D7B865" style="stroke:#D7B865;stroke:color(display-p3 0.8431 0.7216 0.3961);stroke-opacity:1;" stroke-width="4" stroke-miterlimit="10"/>
<path d="M44 8H20C13.3726 8 8 13.3726 8 20V44C8 50.6274 13.3726 56 20 56H44C50.6274 56 56 50.6274 56 44V20C56 13.3726 50.6274 8 44 8Z" stroke="#D7B865" style="stroke:#D7B865;stroke:color(display-p3 0.8431 0.7216 0.3961);stroke-opacity:1;" stroke-width="4" stroke-linecap="round" stroke-linejoin="round"/>
<path d="M45 22C46.6569 22 48 20.6569 48 19C48 17.3431 46.6569 16 45 16C43.3431 16 42 17.3431 42 19C42 20.6569 43.3431 22 45 22Z" fill="#D7B865" style="fill:#D7B865;fill:color(display-p3 0.8431 0.7216 0.3961);fill-opacity:1;"/>
</svg>
