<svg width="64" height="64" viewBox="0 0 64 64" fill="none" xmlns="http://www.w3.org/2000/svg">
<path d="M54 8H10C8.89543 8 8 8.89543 8 10V54C8 55.1046 8.89543 56 10 56H54C55.1046 56 56 55.1046 56 54V10C56 8.89543 55.1046 8 54 8Z" stroke="#D7B865" style="stroke:#D7B865;stroke:color(display-p3 0.8431 0.7216 0.3961);stroke-opacity:1;" stroke-width="4" stroke-linecap="round" stroke-linejoin="round"/>
<path d="M30 28V44" stroke="#D7B865" style="stroke:#D7B865;stroke:color(display-p3 0.8431 0.7216 0.3961);stroke-opacity:1;" stroke-width="4" stroke-linecap="round" stroke-linejoin="round"/>
<path d="M22 28V44" stroke="#D7B865" style="stroke:#D7B865;stroke:color(display-p3 0.8431 0.7216 0.3961);stroke-opacity:1;" stroke-width="4" stroke-linecap="round" stroke-linejoin="round"/>
<path d="M30 35C30 33.1435 30.7375 31.363 32.0503 30.0503C33.363 28.7375 35.1435 28 37 28C38.8565 28 40.637 28.7375 41.9497 30.0503C43.2625 31.363 44 33.1435 44 35V44" stroke="#D7B865" style="stroke:#D7B865;stroke:color(display-p3 0.8431 0.7216 0.3961);stroke-opacity:1;" stroke-width="4" stroke-linecap="round" stroke-linejoin="round"/>
<path d="M22 24C23.6569 24 25 22.6569 25 21C25 19.3431 23.6569 18 22 18C20.3431 18 19 19.3431 19 21C19 22.6569 20.3431 24 22 24Z" fill="#D7B865" style="fill:#D7B865;fill:color(display-p3 0.8431 0.7216 0.3961);fill-opacity:1;"/>
</svg>
