<?xml version="1.0" encoding="utf-8"?>
<!-- Generator: Adobe Illustrator 16.0.0, SVG Export Plug-In . SVG Version: 6.00 Build 0)  -->
<!DOCTYPE svg PUBLIC "-//W3C//DTD SVG 1.1//EN" "http://www.w3.org/Graphics/SVG/1.1/DTD/svg11.dtd">
<svg version="1.1" id="Layer_1" xmlns="http://www.w3.org/2000/svg" xmlns:xlink="http://www.w3.org/1999/xlink" x="0px" y="0px"
	 width="612px" height="792px" viewBox="0 0 612 792" enable-background="new 0 0 612 792" xml:space="preserve">
<g>
	<g>
		<path fill="#FFFFFF" d="M373.412,328.543c-7.25-7.293-15.288-13.757-23.966-19.275c-22.983-14.717-49.704-22.538-76.996-22.538
			c-37.881-0.071-74.223,14.98-100.962,41.813L41.768,458.365C15.074,485.11,0.07,521.347,0.046,559.133
			c-0.05,78.854,63.831,142.815,142.683,142.866c37.822,0.131,74.13-14.848,100.86-41.608L350.67,553.31
			c1.946-1.929,3.032-4.561,3.017-7.3c-0.032-5.633-4.625-10.171-10.257-10.139h-4.079c-22.372,0.078-44.545-4.218-65.268-12.646
			c-3.818-1.572-8.207-0.685-11.116,2.243l-76.997,77.098c-23.909,23.909-62.673,23.909-86.583,0
			c-23.909-23.909-23.909-62.673,0-86.582l130.231-130.128c23.89-23.86,62.591-23.86,86.48,0c16.101,15.153,41.214,15.153,57.313,0
			c6.927-6.933,11.126-16.128,11.83-25.904C385.988,348.27,381.68,336.83,373.412,328.543z"/>
	</g>
</g>
<g>
	<g>
		<path fill="#FFFFFF" d="M570.135,131.82c-55.76-55.76-146.164-55.76-201.924,0L261.231,238.696
			c-2.938,2.952-3.785,7.392-2.142,11.219c1.625,3.837,5.42,6.3,9.586,6.22h3.773c22.346-0.041,44.483,4.29,65.167,12.748
			c3.818,1.572,8.207,0.685,11.115-2.243l76.793-76.69c23.908-23.909,62.673-23.909,86.582,0s23.909,62.673,0,86.583l-95.659,95.556
			l-0.816,0.918l-33.449,33.247c-23.891,23.86-62.591,23.86-86.481,0c-16.1-15.153-41.214-15.153-57.313,0
			c-6.971,6.985-11.174,16.261-11.831,26.106c-0.746,11.683,3.563,23.123,11.831,31.411c11.804,11.854,25.614,21.521,40.792,28.555
			c2.142,1.02,4.283,1.835,6.425,2.753c2.142,0.918,4.385,1.632,6.527,2.448c2.142,0.815,4.385,1.529,6.526,2.142l6.017,1.631
			c4.079,1.02,8.159,1.836,12.339,2.549c5.036,0.748,10.108,1.226,15.196,1.429h7.138h0.612l6.118-0.714
			c2.243-0.102,4.59-0.611,7.241-0.611h3.467l7.037-1.02l3.264-0.612l5.915-1.224h1.122c25.051-6.292,47.925-19.263,66.186-37.529
			l129.822-129.823C625.895,277.984,625.895,187.58,570.135,131.82z"/>
	</g>
</g>
</svg>
