<svg xmlns="http://www.w3.org/2000/svg" width="24.304" height="24.304" viewBox="0 0 24.304 24.304"><defs><style>.a{fill-rule:evenodd;}</style></defs><g transform="translate(0)"><path d="M51.517,8H45.9A2.855,2.855,0,0,0,43,10.8V16.2A2.855,2.855,0,0,0,45.9,19h5.614a2.855,2.855,0,0,0,2.9-2.8V10.8A2.855,2.855,0,0,0,51.517,8Zm.968,8.2c0,.514-.968.932-.968.932H45.9a.952.952,0,0,1-.968-.932V10.8a.952.952,0,0,1,.968-.932h5.614a.952.952,0,0,1,.968.932Z" transform="translate(-43 -8)"/><path d="M51.517,18.948H45.9a2.855,2.855,0,0,0-2.9,2.8v5.407a2.855,2.855,0,0,0,2.9,2.8h5.614a2.855,2.855,0,0,0,2.9-2.8V21.745A2.855,2.855,0,0,0,51.517,18.948Zm.968,8.2a.952.952,0,0,1-.968.932H45.9a.952.952,0,0,1-.968-.932V21.745a.952.952,0,0,1,.968-.932h5.614a.952.952,0,0,1,.968.932Z" transform="translate(-43 -5.644)"/><path class="a" d="M52.817,10.87a.924.924,0,0,1,.941-.906h3.763a.907.907,0,1,1,0,1.812H53.758A.924.924,0,0,1,52.817,10.87Z" transform="translate(-40.43 -7.577)"/><path class="a" d="M52.817,13.852a.924.924,0,0,1,.941-.906H63.794a.907.907,0,1,1,0,1.812H53.758A.924.924,0,0,1,52.817,13.852Z" transform="translate(-40.43 -6.936)"/><path class="a" d="M52.817,22.651a.924.924,0,0,1,.941-.906h3.763a.907.907,0,1,1,0,1.812H53.758A.924.924,0,0,1,52.817,22.651Z" transform="translate(-40.43 -5.042)"/><path class="a" d="M52.817,25.633a.924.924,0,0,1,.941-.906H63.794a.907.907,0,1,1,0,1.812H53.758A.924.924,0,0,1,52.817,25.633Z" transform="translate(-40.43 -4.4)"/></g></svg>