<svg xmlns="http://www.w3.org/2000/svg" width="135.36" height="150" viewBox="0 0 135.36 150">
  <g id="icon_2" data-name="icon 2" transform="translate(-24.986)">
    <g id="Group_24867" data-name="Group 24867" transform="translate(24.986 0)">
      <path id="Path_53579" data-name="Path 53579" d="M28.69,41.227H62.5a3.716,3.716,0,0,0,3.573-2.719h83.86a2.2,2.2,0,0,0,1.947-1.178l8.215-15.7a2.2,2.2,0,0,0,0-2.037L151.88,3.889a2.2,2.2,0,0,0-1.947-1.179H113.455a2.2,2.2,0,0,0,0,4.395H148.6l7.065,13.508-7.065,13.5H66.212V7.1h36.966a2.2,2.2,0,0,0,0-4.395H66.073A3.715,3.715,0,0,0,62.5,0H28.69a3.708,3.708,0,0,0-3.7,3.7V37.515a3.713,3.713,0,0,0,3.7,3.712Zm.691-36.833H61.818V36.833H29.381Z" transform="translate(-24.986 0)" fill="#b88610"/>
      <path id="Path_53580" data-name="Path 53580" d="M151.88,189.513a2.2,2.2,0,0,0-1.947-1.179H66.071a3.716,3.716,0,0,0-3.571-2.71H28.69a3.713,3.713,0,0,0-3.7,3.712v33.811a3.708,3.708,0,0,0,3.7,3.7H62.5a3.715,3.715,0,0,0,3.572-2.71h83.861a2.2,2.2,0,0,0,1.947-1.179l8.215-15.706a2.2,2.2,0,0,0,0-2.037ZM61.818,222.457H29.381V190.019H61.818Zm86.785-2.71H66.212V192.729H148.6l7.066,13.509Z" transform="translate(-24.986 -131.242)"/>
      <path id="Path_53581" data-name="Path 53581" d="M87.584,35.251H84.125a2.2,2.2,0,0,0,0,4.395h1.262V53.617a2.2,2.2,0,1,0,4.395,0V37.448A2.2,2.2,0,0,0,87.584,35.251Z" transform="translate(-65.246 -24.924)" fill="#d7b865"/>
      <path id="Path_53582" data-name="Path 53582" d="M83.726,236.806c-1.361.018-2.8.03-4.067.035.855-1.154,1.974-2.7,3.411-4.75a12.7,12.7,0,0,0,2.066-4.269,2.212,2.212,0,0,0,.042-.24l.076-.631a2.178,2.178,0,0,0,.016-.262,6.336,6.336,0,0,0-12.552-1.22,2.2,2.2,0,0,0,4.313.84,1.942,1.942,0,0,1,3.841.272l-.041.341a8.649,8.649,0,0,1-1.361,2.648c-2.568,3.67-4.093,5.664-4.912,6.736-1.016,1.329-1.576,2.062-1.214,3.253a2.276,2.276,0,0,0,1.474,1.5c.293.1.542.181,3.7.181,1.243,0,2.937-.013,5.262-.043a2.2,2.2,0,0,0-.056-4.394Z" transform="translate(-58.705 -155.801)"/>
      <path id="Path_53583" data-name="Path 53583" d="M80.05,405.869a6.361,6.361,0,0,0-6.22,5.11,2.2,2.2,0,0,0,4.31.858,1.941,1.941,0,1,1,1.91,2.314,2.2,2.2,0,0,0,0,4.395,1.94,1.94,0,1,1-1.92,2.233,2.225,2.225,0,0,1-.024-.3,2.2,2.2,0,1,0-4.395,0,6.532,6.532,0,0,0,.063.881,6.333,6.333,0,1,0,11.063-5.016,6.335,6.335,0,0,0-4.788-10.478Z" transform="translate(-59.437 -286.962)"/>
      <path id="Path_53584" data-name="Path 53584" d="M194.014,49.415h13.551a2.2,2.2,0,1,0,0-4.395H194.014a2.2,2.2,0,1,0,0,4.395Z" transform="translate(-142.941 -31.831)" fill="#d7b865"/>
      <path id="Path_53585" data-name="Path 53585" d="M194.014,86.247h27.548a2.2,2.2,0,1,0,0-4.395H194.014a2.2,2.2,0,0,0,0,4.395Z" transform="translate(-142.941 -57.872)" fill="#d7b865"/>
      <path id="Path_53586" data-name="Path 53586" d="M194.014,233.833h13.551a2.2,2.2,0,1,0,0-4.395H194.014a2.2,2.2,0,0,0,0,4.395Z" transform="translate(-142.941 -162.22)"/>
      <path id="Path_53587" data-name="Path 53587" d="M221.562,266.3H194.014a2.2,2.2,0,0,0,0,4.395h27.548a2.2,2.2,0,1,0,0-4.395Z" transform="translate(-142.941 -188.281)"/>
      <path id="Path_53588" data-name="Path 53588" d="M194.014,420.635h13.551a2.2,2.2,0,1,0,0-4.395H194.014a2.2,2.2,0,0,0,0,4.395Z" transform="translate(-142.941 -294.295)"/>
      <path id="Path_53589" data-name="Path 53589" d="M194.014,457.467h27.548a2.2,2.2,0,1,0,0-4.395H194.014a2.2,2.2,0,1,0,0,4.395Z" transform="translate(-142.941 -320.336)"/>
      <path id="Path_53590" data-name="Path 53590" d="M151.88,375.168a2.2,2.2,0,0,0-1.947-1.179H113.455a2.2,2.2,0,0,0,0,4.395H148.6l7.065,13.508-7.065,13.5H66.212V378.384h36.966a2.2,2.2,0,1,0,0-4.395H66.073a3.715,3.715,0,0,0-3.572-2.71H28.69a3.708,3.708,0,0,0-3.7,3.7v33.811a3.712,3.712,0,0,0,3.7,3.712H62.5a3.716,3.716,0,0,0,3.573-2.719h83.86a2.2,2.2,0,0,0,1.947-1.178l8.215-15.7a2.2,2.2,0,0,0,0-2.037ZM61.818,408.111H29.381V375.673H61.818Z" transform="translate(-24.986 -262.506)"/>
    </g>
  </g>
</svg>
