<svg width="26" height="26" viewBox="0 0 26 26" fill="none" xmlns="http://www.w3.org/2000/svg">
<path d="M25.4425 16.7762C24.6349 19.4124 23.0165 21.7267 20.8175 23.3899C18.8868 24.843 16.5894 25.7292 14.183 25.9491C11.7767 26.169 9.35666 25.7139 7.19461 24.6348C5.03255 23.5557 3.21403 21.8954 1.94317 19.8402C0.672316 17.785 -0.000585054 15.4163 1.41765e-07 12.9999C-0.00868781 10.1795 0.9082 7.43408 2.61 5.18491C4.27317 2.9859 6.58753 1.36746 9.22375 0.559906C9.3975 0.506407 9.58254 0.501284 9.75898 0.545088C9.93542 0.588893 10.0966 0.679968 10.2251 0.808518C10.3537 0.937069 10.4448 1.09823 10.4886 1.27467C10.5324 1.45111 10.5272 1.63616 10.4738 1.80991C9.8973 3.71669 9.84897 5.74415 10.3339 7.67624C10.8188 9.60833 11.8189 11.3727 13.2274 12.7812C14.636 14.1898 16.4003 15.1898 18.3324 15.6748C20.2645 16.1597 22.292 16.1114 24.1987 15.5349C24.3725 15.4814 24.5575 15.4763 24.734 15.5201C24.9104 15.5639 25.0716 15.655 25.2001 15.7835C25.3287 15.9121 25.4198 16.0732 25.4636 16.2497C25.5074 16.4261 25.5022 16.6112 25.4487 16.7849L25.4425 16.7762Z" fill="#343330"/>
</svg>
