<?xml version="1.0" encoding="utf-8"?>
<!-- Generator: Adobe Illustrator 16.0.0, SVG Export Plug-In . SVG Version: 6.00 Build 0)  -->
<!DOCTYPE svg PUBLIC "-//W3C//DTD SVG 1.1//EN" "http://www.w3.org/Graphics/SVG/1.1/DTD/svg11.dtd">
<svg version="1.1" id="Layer_1" xmlns="http://www.w3.org/2000/svg" xmlns:xlink="http://www.w3.org/1999/xlink" x="0px" y="0px"
	 width="861px" height="276px" viewBox="0 0 861 276" enable-background="new 0 0 861 276" xml:space="preserve">
<g>
	<defs>
		<rect id="SVGID_1_" x="-128" y="-54.261" width="1080" height="404.261"/>
	</defs>
	<clipPath id="SVGID_2_">
		<use xlink:href="#SVGID_1_"  overflow="visible"/>
	</clipPath>
	<path clip-path="url(#SVGID_2_)" fill="#FFFEFD" d="M260.357,147.87c0,68.288-55.088,123.646-123.042,123.646
		S14.273,216.157,14.273,147.87c0-68.288,55.088-123.646,123.042-123.646S260.357,79.582,260.357,147.87"/>
</g>
<g>
	<defs>
		<rect id="SVGID_3_" x="-128" y="-54.261" width="1080" height="404.261"/>
	</defs>
	<clipPath id="SVGID_4_">
		<use xlink:href="#SVGID_3_"  overflow="visible"/>
	</clipPath>
	<path clip-path="url(#SVGID_4_)" fill="#282726" d="M327.309,80.825c-9.435-1.98-12.114-3.844-12.114-7.455
		c0-4.309,5.708-6.639,12.114-6.639c7.609-0.162,14.975,2.684,20.499,7.921l8.153-14.676c-10.366-9.551-25.857-10.017-28.419-10.017
		c-19.452,0-30.983,11.648-30.983,25.392c0,13.511,9.784,20.965,30.75,24.576c10.249,1.747,13.045,4.076,13.045,7.804
		c0,4.309-3.611,7.454-13.977,7.454c-6.523,0-15.491-2.679-24.111-11.182l-8.502,14.909c8.857,8.275,20.493,12.929,32.613,13.045
		c21.198,0,32.613-10.948,32.613-25.391C358.99,89.793,345.712,84.785,327.309,80.825 M424.449,115.185
		c-13.37,0.011-24.217-10.819-24.228-24.189c0-0.013,0-0.025,0-0.038c-0.01-13.369,10.819-24.216,24.189-24.227
		c0.013,0,0.024,0,0.038,0c7.353-0.041,14.314,3.311,18.869,9.085l7.221-16.539c-6.755-6.057-17.122-9.318-26.09-9.318
		c-23.646,0-42.863,18.403-42.863,40.999c0,22.596,19.218,40.999,42.863,40.999c8.968,0,19.335-3.377,26.09-9.434l-7.221-16.423
		C438.73,111.832,431.791,115.174,424.449,115.185 M541.157,130.094l-19.802-26.906c10.366-4.077,16.074-14.21,16.074-25.275
		c0-15.142-9.435-26.09-29.817-26.09h-31.682v78.271h18.636v-25.159h7.688l17.471,25.159H541.157z M494.566,68.595h12.93
		c6.173,0,11.298,2.795,11.298,9.784c0,6.173-5.125,9.784-11.298,9.784h-12.93V68.595z M616.866,68.595V51.823h-50.318v78.271
		h50.318v-16.773h-31.683V99.344h26.091V82.572h-26.091V68.595H616.866z M695.37,68.595V51.823h-50.317v78.271h50.317v-16.773
		h-31.682V99.344h26.091V82.572h-26.091V68.595H695.37z M777.601,51.823v48.453l-35.407-48.453h-18.637v78.271h18.637V81.64
		l35.407,48.454h18.636V51.823H777.601z M327.192,168.298h-29.701v78.271h29.701c26.207,0,41.116-17.472,41.116-39.136
		S354.098,168.298,327.192,168.298z M328.473,229.797h-12.346V185.07h12.346c10.949,0,21.199,10.017,21.199,22.363
		S339.422,229.797,328.473,229.797z M417.693,166.435c-23.179,0-41.932,18.402-41.932,40.999c0,22.596,18.753,40.999,41.932,40.999
		s41.931-18.403,41.931-40.999C459.624,184.837,440.872,166.435,417.693,166.435 M417.693,231.66
		c-12.813,0-23.295-10.832-23.295-24.227s10.483-24.228,23.295-24.228s23.295,10.833,23.295,24.228S430.506,231.66,417.693,231.66
		 M488.51,229.797v-61.499h-18.636v78.271h48.454v-16.772H488.51z M548.145,229.797v-61.499h-18.636v78.271h48.454v-16.772H548.145z
		 M646.916,246.569h20.5l-32.38-78.271h-17.239l-32.38,78.271h20.5l4.892-13.045h31.215L646.916,246.569z M617.215,216.751
		l9.202-24.226l9.201,24.226H617.215z M740.096,246.569l-19.8-26.906c10.366-4.076,16.073-14.21,16.073-25.275
		c0-15.142-9.435-26.09-29.817-26.09H674.87v78.271h18.636V221.41h7.688l17.472,25.159H740.096z M693.506,185.07h12.929
		c6.173,0,11.298,2.796,11.298,9.784c0,6.173-5.125,9.783-11.298,9.783h-12.929V185.07z M779.231,197.3
		c-9.435-1.979-12.112-3.844-12.112-7.454c0-4.31,5.707-6.639,12.112-6.639c7.609-0.162,14.977,2.684,20.5,7.92l8.153-14.676
		c-10.366-9.551-25.857-10.017-28.42-10.017c-19.451,0-30.982,11.647-30.982,25.392c0,13.511,9.783,20.965,30.749,24.576
		c10.25,1.747,13.046,4.077,13.046,7.804c0,4.309-3.611,7.454-13.978,7.454c-6.522,0-15.491-2.679-24.11-11.181l-8.503,14.907
		c8.857,8.275,20.493,12.93,32.613,13.046c21.199,0,32.613-10.948,32.613-25.392C810.913,206.27,797.635,201.26,779.231,197.3"/>
</g>
<g>
	<defs>
		<rect id="SVGID_5_" x="-128" y="-54.261" width="1080" height="404.261"/>
	</defs>
	<clipPath id="SVGID_6_">
		<use xlink:href="#SVGID_5_"  overflow="visible"/>
	</clipPath>
	<path clip-path="url(#SVGID_6_)" fill="#B88610" d="M190.554,209.928c-3.855-12.161-5.956-23.674-19.309-27.746
		c-26.935-9.871-53.832-19.884-80.743-29.847l-0.125-0.042c-27.235-7.425-36.828-27.726-30.626-55.12
		c6.888-30.532,32.042-48.079,60.203-52.862V25.257C52.239,34.602,4.919,97.07,14.264,164.785
		c7.58,54.928,50.764,98.111,105.69,105.69v-19.159c-11.433-2.052-22.402-6.15-32.38-12.096
		c-18.102-10.067-30.467-24.963-34.413-45.885c-1.54-7.911-1.568-18.199,9.013-17.344c14.317-0.103,28.635-0.042,44.219-0.035
		c0.93,0,1.684,0.754,1.684,1.684c0,0.176-0.028,0.351-0.082,0.518c-3.7,11.26-7.095,21.606-10.483,31.894
		c-0.288,0.877,0.188,1.82,1.065,2.109c0.464,0.153,0.971,0.096,1.388-0.157l43.146-26.156c0.532-0.32,1.198-0.32,1.731,0
		c14.024,8.434,28.062,16.876,43.254,26.009c0.789,0.478,1.816,0.225,2.294-0.563C190.638,210.882,190.698,210.385,190.554,209.928"
		/>
	<path clip-path="url(#SVGID_6_)" fill="#B88610" d="M153.759,25.258v19.354c28.052,5.241,53.101,23.078,60.047,53.287
		c1.842,7.877-1.585,12.435-9.642,12.556c-14.911,0.226-29.83,0.073-45.328,0.066c-0.715-0.002-1.352-0.456-1.586-1.132
		c-3.737-11.009-7.448-21.925-11.58-34.093c-0.301-0.876-1.254-1.341-2.13-1.04c-0.488,0.167-0.872,0.551-1.04,1.04
		c-4.025,11.85-7.68,22.618-11.502,33.885c-0.231,0.679-0.868,1.137-1.585,1.139H90.047c-0.923-0.004-1.674,0.742-1.677,1.665
		c-0.003,0.699,0.43,1.326,1.085,1.571c33.581,12.584,67.941,23.732,102.097,34.73c0.06,0.018,0.119,0.04,0.176,0.065
		c59.058,25.888,20.877,91.143-37.969,102.62v19.51c67.715-9.344,115.034-71.813,105.69-139.528
		c-7.58-54.927-50.764-98.111-105.69-105.69V25.258z"/>
</g>
<g>
	<defs>
		<rect id="SVGID_7_" x="-128" y="-54.261" width="1080" height="404.261"/>
	</defs>
	<clipPath id="SVGID_8_">
		<use xlink:href="#SVGID_7_"  overflow="visible"/>
	</clipPath>
	<path clip-path="url(#SVGID_8_)" fill="#282726" d="M830.381,59.174c-15.025,0-27.25-12.224-27.25-27.25s12.225-27.25,27.25-27.25
		s27.25,12.224,27.25,27.25S845.406,59.174,830.381,59.174 M830.381,9.674c-12.269,0-22.25,9.981-22.25,22.25
		s9.981,22.25,22.25,22.25c12.27,0,22.25-9.981,22.25-22.25S842.65,9.674,830.381,9.674"/>
	<path clip-path="url(#SVGID_8_)" fill="#282726" d="M834.958,44.299l-5.637-9.954h-2.415v9.954h-5.122V18.758h9.586
		c1.977,0,3.659,0.347,5.05,1.042c1.392,0.696,2.434,1.635,3.13,2.819c0.693,1.184,1.042,2.506,1.042,3.969
		c0,1.684-0.487,3.203-1.465,4.556c-0.974,1.354-2.427,2.287-4.354,2.799l6.11,10.356H834.958z M826.906,30.504h4.282
		c1.391,0,2.427-0.335,3.108-1.006c0.686-0.67,1.024-1.604,1.024-2.8c0-1.17-0.339-2.08-1.024-2.726
		c-0.682-0.646-1.718-0.969-3.108-0.969h-4.282V30.504z"/>
</g>
</svg>
