<svg xmlns="http://www.w3.org/2000/svg" width="395.221" height="93.734" viewBox="0 0 395.221 93.734"><g transform="translate(0 0)"><g transform="translate(-797.965 -547.5)"><path d="M13.12-17.343C9.8-18.04,8.856-18.7,8.856-19.967c0-1.517,2.009-2.337,4.264-2.337a10.174,10.174,0,0,1,7.216,2.788l2.87-5.166c-3.649-3.362-9.1-3.526-10-3.526-6.847,0-10.906,4.1-10.906,8.938,0,4.756,3.444,7.38,10.824,8.651,3.608.615,4.592,1.435,4.592,2.747,0,1.517-1.271,2.624-4.92,2.624A12.314,12.314,0,0,1,4.305-9.184L1.312-3.936A17.057,17.057,0,0,0,12.792.656c7.462,0,11.48-3.854,11.48-8.938C24.272-14.186,19.6-15.949,13.12-17.343Zm34.194,12.1a8.521,8.521,0,0,1-8.528-8.528A8.521,8.521,0,0,1,47.314-22.3a8.4,8.4,0,0,1,6.642,3.2L56.5-24.928a14.392,14.392,0,0,0-9.184-3.28c-8.323,0-15.088,6.478-15.088,14.432S38.991.656,47.314.656A14.432,14.432,0,0,0,56.5-2.665L53.956-8.446A8.524,8.524,0,0,1,47.314-5.248ZM88.4,0l-6.97-9.471a9.248,9.248,0,0,0,5.658-8.9c0-5.33-3.321-9.184-10.5-9.184H65.436V0H72V-8.856H74.7L80.852,0ZM72-21.648h4.551c2.173,0,3.977.984,3.977,3.444,0,2.173-1.8,3.444-3.977,3.444H72Zm43.05,0v-5.9H97.334V0h17.712V-5.9H103.894v-4.92h9.184v-5.9h-9.184v-4.92Zm27.634,0v-5.9H124.968V0H142.68V-5.9H131.528v-4.92h9.184v-5.9h-9.184v-4.92Zm28.946-5.9V-10.5L159.162-27.552H152.6V0h6.56V-17.056L171.626,0h6.56V-27.552Zm-158.547,41H2.624V41H13.079c9.225,0,14.473-6.15,14.473-13.776S22.55,13.448,13.079,13.448ZM13.53,35.1H9.184V19.352H13.53a7.883,7.883,0,0,1,0,15.744Zm31.406-22.3a14.6,14.6,0,0,0-14.76,14.432,14.764,14.764,0,0,0,29.52,0A14.6,14.6,0,0,0,44.936,12.792Zm0,22.96a8.378,8.378,0,0,1-8.2-8.528,8.206,8.206,0,1,1,16.4,0A8.378,8.378,0,0,1,44.936,35.752ZM69.864,35.1V13.448H63.3V41H80.36V35.1Zm20.992,0V13.448H84.3V41h17.056V35.1ZM125.624,41h7.216l-11.4-27.552h-6.068L103.976,41h7.216l1.722-4.592H123.9ZM115.169,30.5l3.239-8.528,3.239,8.528ZM158.424,41l-6.97-9.471a9.248,9.248,0,0,0,5.658-8.9c0-5.33-3.321-9.184-10.5-9.184H135.464V41h6.56V32.144h2.706L150.88,41Zm-16.4-21.648h4.551c2.173,0,3.977.984,3.977,3.444,0,2.173-1.8,3.444-3.977,3.444h-4.551ZM172.2,23.657c-3.321-.7-4.264-1.353-4.264-2.624,0-1.517,2.009-2.337,4.264-2.337a10.174,10.174,0,0,1,7.216,2.788l2.87-5.166c-3.649-3.362-9.1-3.526-10-3.526-6.847,0-10.906,4.1-10.906,8.938,0,4.756,3.444,7.38,10.824,8.651,3.608.615,4.592,1.435,4.592,2.747,0,1.517-1.271,2.624-4.92,2.624a12.314,12.314,0,0,1-8.487-3.936l-2.993,5.248a17.057,17.057,0,0,0,11.48,4.592c7.462,0,11.48-3.854,11.48-8.938C183.352,26.814,178.678,25.051,172.2,23.657Z" transform="translate(902.842 588.5)"/><g transform="translate(797.965 547.5)"><circle cx="46.867" cy="46.867" r="46.867" transform="translate(0 0)" fill="#fff"/><g transform="translate(0 0.434)"><path d="M567.789,196.334c-1.46-4.606-2.256-8.965-7.312-10.508-10.2-3.738-20.386-7.53-30.578-11.3l-.047-.016c-10.314-2.811-13.947-10.5-11.6-20.874,2.608-11.563,12.135-18.208,22.8-20.019V126.4a46.873,46.873,0,0,0,0,92.866v-7.253a36.583,36.583,0,0,1-12.263-4.581c-6.855-3.813-11.538-9.454-13.032-17.377-.583-3-.594-6.894,3.413-6.568,5.422-.039,10.845-.016,16.747-.013a.637.637,0,0,1,.6.834c-1.4,4.264-2.687,8.183-3.967,12.078a.633.633,0,0,0,.929.739l16.339-9.9a.636.636,0,0,1,.655,0l16.381,9.85A.632.632,0,0,0,567.789,196.334Z" transform="translate(-500.587 -126.396)" fill="#b88610"/><path d="M742.83,126.4v7.329c10.623,1.986,20.11,8.74,22.74,20.181.7,2.983-.6,4.709-3.652,4.755-5.647.085-11.3.028-17.166.025a.637.637,0,0,1-.6-.429c-1.416-4.169-2.821-8.3-4.386-12.912a.634.634,0,0,0-1.2,0c-1.524,4.488-2.908,8.565-4.357,12.833a.636.636,0,0,1-.6.431H718.7a.633.633,0,0,0-.224,1.226c12.718,4.766,25.73,8.986,38.665,13.153a.5.5,0,0,1,.067.025c22.366,9.8,7.906,34.514-14.379,38.863v7.387a46.873,46.873,0,0,0,0-92.866Z" transform="translate(-689.563 -126.396)" fill="#b88610"/></g></g></g><g transform="translate(-676 -1035.886)"><rect width="98.72" height="36.864" rx="5" transform="translate(972.501 1085.412)" fill="#b88610"/><path d="M13.776-27.552H2.624V0h6.56V-8.856h5.9c5.822,0,9.184-4.51,9.184-9.512C24.272-23.7,20.951-27.552,13.776-27.552ZM13.735-14.76H9.184v-6.888h4.551c2.173,0,3.977.984,3.977,3.444C17.712-16.031,15.908-14.76,13.735-14.76ZM50.512,0l-6.97-9.471a9.248,9.248,0,0,0,5.658-8.9c0-5.33-3.321-9.184-10.5-9.184H27.552V0h6.56V-8.856h2.706L42.968,0Zm-16.4-21.648h4.551c2.173,0,3.977.984,3.977,3.444,0,2.173-1.8,3.444-3.977,3.444H34.112Zm32.472-6.56a14.6,14.6,0,0,0-14.76,14.432A14.6,14.6,0,0,0,66.584.656a14.6,14.6,0,0,0,14.76-14.432A14.6,14.6,0,0,0,66.584-28.208Zm0,22.96a8.378,8.378,0,0,1-8.2-8.528,8.378,8.378,0,0,1,8.2-8.528,8.378,8.378,0,0,1,8.2,8.528A8.378,8.378,0,0,1,66.584-5.248Z" transform="translate(979.877 1117.62)" fill="#fff"/></g></g></svg>