<?xml version="1.0" encoding="utf-8"?>
<!-- Generator: Adobe Illustrator 16.0.0, SVG Export Plug-In . SVG Version: 6.00 Build 0)  -->
<!DOCTYPE svg PUBLIC "-//W3C//DTD SVG 1.1//EN" "http://www.w3.org/Graphics/SVG/1.1/DTD/svg11.dtd">
<svg version="1.1" id="Layer_1" xmlns="http://www.w3.org/2000/svg" xmlns:xlink="http://www.w3.org/1999/xlink" x="0px" y="0px"
	 width="13.542px" height="12.187px" viewBox="-0.332 -0.712 13.542 12.187" enable-background="new -0.332 -0.712 13.542 12.187"
	 xml:space="preserve">
<path id="Path_49927" fill="#FFFFFF" d="M10.245,6.831C9.574,6.833,8.942,7.147,8.534,7.68L4.333,6.063
	c0-0.055,0.017-0.108,0.017-0.164C4.347,5.797,4.336,5.695,4.319,5.594l4.309-1.989C9.464,4.6,10.95,4.727,11.944,3.889
	s1.121-2.322,0.284-3.317c-0.837-0.994-2.322-1.122-3.317-0.284c-0.637,0.536-0.942,1.369-0.805,2.19L3.798,4.467
	C3.007,3.564,1.634,3.474,0.731,4.265C-0.171,5.056-0.261,6.429,0.53,7.332c0.791,0.903,2.164,0.993,3.066,0.202
	C3.704,7.44,3.801,7.334,3.888,7.222l4.2,1.616c0,0.056-0.018,0.109-0.018,0.164c0,1.201,0.973,2.174,2.174,2.174
	c1.199,0,2.172-0.973,2.172-2.174C12.417,7.803,11.444,6.831,10.245,6.831L10.245,6.831L10.245,6.831z"/>
</svg>
