<?xml version="1.0" encoding="utf-8"?>
<!-- Generator: Adobe Illustrator 16.0.0, SVG Export Plug-In . SVG Version: 6.00 Build 0)  -->
<!DOCTYPE svg PUBLIC "-//W3C//DTD SVG 1.1//EN" "http://www.w3.org/Graphics/SVG/1.1/DTD/svg11.dtd">
<svg version="1.1" id="Layer_1" xmlns="http://www.w3.org/2000/svg" xmlns:xlink="http://www.w3.org/1999/xlink" x="0px" y="0px"
	 width="30px" height="33px" viewBox="0 0 30 33" enable-background="new 0 0 30 33" xml:space="preserve">
<g id="Icon_feather-share-2" transform="translate(1.5 1.5)">
	<path id="Path_53229" fill="none" stroke="#000000" stroke-width="3" stroke-linecap="round" stroke-linejoin="round" d="M27,4.5
		C27,6.985,24.985,9,22.5,9S18,6.985,18,4.5S20.015,0,22.5,0S27,2.015,27,4.5z"/>
	<path id="Path_53230" fill="none" stroke="#000000" stroke-width="3" stroke-linecap="round" stroke-linejoin="round" d="M9,15
		c0,2.485-2.015,4.5-4.5,4.5S0,17.485,0,15s2.015-4.5,4.5-4.5S9,12.515,9,15z"/>
	<path id="Path_53231" fill="none" stroke="#000000" stroke-width="3" stroke-linecap="round" stroke-linejoin="round" d="M27,25.5
		c0,2.485-2.015,4.5-4.5,4.5S18,27.985,18,25.5s2.015-4.5,4.5-4.5l0,0C24.985,21,27,23.015,27,25.5z"/>
	<path id="Path_53232" fill="none" stroke="#000000" stroke-width="3" stroke-linecap="round" stroke-linejoin="round" d="
		M8.385,17.266l10.245,5.969"/>
	<path id="Path_53233" fill="none" stroke="#000000" stroke-width="3" stroke-linecap="round" stroke-linejoin="round" d="
		M18.615,6.765l-10.23,5.97"/>
</g>
</svg>
