<svg xmlns="http://www.w3.org/2000/svg" width="182.15" height="150" viewBox="0 0 182.15 150">
  <g id="Group_24869" data-name="Group 24869" transform="translate(0 -45.18)">
    <path id="Path_53591" data-name="Path 53591" d="M168.807,45.18H44.611a2.669,2.669,0,1,0,0,5.337h124.2a8.015,8.015,0,0,1,8.006,8.006v18.8H5.337v-18.8a8.015,8.015,0,0,1,8.006-8.006H32.827a2.669,2.669,0,1,0,0-5.337H13.343A13.358,13.358,0,0,0,0,58.523V181.837A13.358,13.358,0,0,0,13.343,195.18H124.98a2.669,2.669,0,1,0,0-5.337H13.343a8.015,8.015,0,0,1-8.006-8.006V82.663H176.813v99.174a8.015,8.015,0,0,1-8.006,8.006H136.764a2.669,2.669,0,1,0,0,5.337h32.044a13.358,13.358,0,0,0,13.343-13.343V58.523A13.358,13.358,0,0,0,168.807,45.18Z"/>
    <path id="Path_53592" data-name="Path 53592" d="M30.117,83.32a8.027,8.027,0,1,0,8.027-8.027A8.036,8.036,0,0,0,30.117,83.32Zm10.716,0a2.69,2.69,0,1,1-2.69-2.69A2.693,2.693,0,0,1,40.833,83.32Z" transform="translate(-19.401 -19.399)"/>
    <path id="Path_53593" data-name="Path 53593" d="M90.353,83.32a8.027,8.027,0,1,0,8.027-8.027A8.036,8.036,0,0,0,90.353,83.32Zm8.026-2.69a2.69,2.69,0,1,1-2.69,2.69A2.693,2.693,0,0,1,98.379,80.63Z" transform="translate(-58.205 -19.399)"/>
    <path id="Path_53594" data-name="Path 53594" d="M166.64,83.32a8.027,8.027,0,1,0-8.027,8.027A8.036,8.036,0,0,0,166.64,83.32Zm-10.716,0a2.69,2.69,0,1,1,2.69,2.69A2.693,2.693,0,0,1,155.923,83.32Z" transform="translate(-97.007 -19.399)"/>
    <path id="Path_53595" data-name="Path 53595" d="M47.849,208.217a2.668,2.668,0,0,0-2.669,2.669v4.661a8.015,8.015,0,0,0,8.006,8.006H80.017a8.015,8.015,0,0,0,8.006-8.006V188.716a8.015,8.015,0,0,0-8.006-8.006H53.186a8.015,8.015,0,0,0-8.006,8.006v10.389a2.669,2.669,0,0,0,5.337,0V188.716a2.671,2.671,0,0,1,2.669-2.669H80.017a2.671,2.671,0,0,1,2.669,2.669v26.831a2.671,2.671,0,0,1-2.669,2.669H53.186a2.671,2.671,0,0,1-2.669-2.669v-4.661A2.668,2.668,0,0,0,47.849,208.217Z" transform="translate(-29.105 -87.308)" fill="#b88610"/>
    <path id="Path_53596" data-name="Path 53596" d="M289.518,210.823H198.433a2.669,2.669,0,1,0,0,5.337h91.086a2.669,2.669,0,1,0,0-5.337Z" transform="translate(-126.11 -106.706)" fill="#b88610"/>
    <path id="Path_53597" data-name="Path 53597" d="M198.433,261.336h56.259a2.669,2.669,0,1,0,0-5.337H198.433a2.669,2.669,0,1,0,0,5.337Z" transform="translate(-126.11 -135.809)" fill="#b88610"/>
    <path id="Path_53598" data-name="Path 53598" d="M410.779,256H386.668a2.669,2.669,0,0,0,0,5.337h24.111a2.669,2.669,0,1,0,0-5.337Z" transform="translate(-247.37 -135.809)" fill="#b88610"/>
    <path id="Path_53599" data-name="Path 53599" d="M262.3,328.479a4.092,4.092,0,0,0,7.5,1.217l2.089-3.481,12.116,12.116a6.234,6.234,0,0,0,8.806,0L299.152,332a6.234,6.234,0,0,0,0-8.806l-12.117-12.117,3.482-2.089a4.092,4.092,0,0,0-1.218-7.5l-27.886-6.2a4.447,4.447,0,0,0-5.306,5.306Zm22.79-22.463-1.782,1.069a4.448,4.448,0,0,0-.857,6.958l12.922,12.922a.89.89,0,0,1,0,1.258l-6.334,6.334a.89.89,0,0,1-1.258,0l-12.922-12.922a4.415,4.415,0,0,0-3.135-1.3,4.521,4.521,0,0,0-.553.034,4.419,4.419,0,0,0-3.271,2.126l-1.068,1.781L261.62,300.8Z" transform="translate(-164.914 -161.048)" fill="#d7b865"/>
    <path id="Path_53600" data-name="Path 53600" d="M62.9,331.293a2.669,2.669,0,0,0,0,5.337h26.79a2.669,2.669,0,1,0,0-5.337Z" transform="translate(-38.802 -184.313)" fill="#b88610"/>
    <path id="Path_53601" data-name="Path 53601" d="M62.9,381.807h42.864a2.669,2.669,0,0,0,0-5.337H62.9a2.669,2.669,0,0,0,0,5.337Z" transform="translate(-38.802 -213.416)" fill="#b88610"/>
  </g>
</svg>
