<svg xmlns="http://www.w3.org/2000/svg" width="149.062" height="150" viewBox="0 0 149.062 150">
  <g id="icon_3" data-name="icon 3" transform="translate(-1.2 -1)">
    <g id="Group_24901" data-name="Group 24901" transform="translate(1.2 1)">
      <g id="Group_24870" data-name="Group 24870" transform="translate(111.797 98.906)">
        <path id="Path_53602" data-name="Path 53602" d="M78.2,80.231A8.511,8.511,0,0,1,72.1,77.653L49.6,53.513a2.32,2.32,0,0,1,3.281-3.281l22.5,24.141a3.254,3.254,0,0,0,2.344,1.172,3.009,3.009,0,0,0,2.344-.937,4.915,4.915,0,0,0,.938-2.578,4.164,4.164,0,0,0-.937-2.344l-23.906-22.5A2.32,2.32,0,0,1,59.447,43.9L83.588,66.4a7.487,7.487,0,0,1,2.578,5.625,9,9,0,0,1-2.109,5.859A9.248,9.248,0,0,1,78.2,80.231Z" transform="translate(-48.9 -43.2)"/>
      </g>
      <g id="Group_24871" data-name="Group 24871" transform="translate(74.531 61.406)">
        <path id="Path_53603" data-name="Path 53603" d="M58.781,78.762A25.781,25.781,0,1,1,84.563,52.981,25.707,25.707,0,0,1,58.781,78.762Zm0-46.875A21.094,21.094,0,1,0,79.875,52.981,21.006,21.006,0,0,0,58.781,31.888Z" transform="translate(-33 -27.2)"/>
      </g>
      <g id="Group_24872" data-name="Group 24872" transform="translate(88.594 94.453)">
        <path id="Path_53604" data-name="Path 53604" d="M50.719,49.738A15.408,15.408,0,0,1,39.7,45.284,2.32,2.32,0,0,1,42.984,42a11.035,11.035,0,0,0,15.469,0,2.32,2.32,0,0,1,3.281,3.281A16.457,16.457,0,0,1,50.719,49.738Z" transform="translate(-39 -41.3)"/>
      </g>
      <g id="Group_24873" data-name="Group 24873" transform="translate(115.313 108.75)">
        <path id="Path_53605" data-name="Path 53605" d="M52.744,62.166A2.214,2.214,0,0,1,50.4,59.822V49.744a2.344,2.344,0,0,1,4.688,0V59.822A2.214,2.214,0,0,1,52.744,62.166Z" transform="translate(-50.4 -47.4)"/>
      </g>
      <g id="Group_24876" data-name="Group 24876">
        <g id="Group_24874" data-name="Group 24874">
          <path id="Path_53606" data-name="Path 53606" d="M91.669,151H12.919A11.6,11.6,0,0,1,1.2,139.281V12.719A11.6,11.6,0,0,1,12.919,1h96.562A11.6,11.6,0,0,1,121.2,12.719V71.547a2.344,2.344,0,0,1-4.687,0V12.719a6.906,6.906,0,0,0-7.031-7.031H12.919a6.906,6.906,0,0,0-7.031,7.031V139.281a6.906,6.906,0,0,0,7.031,7.031h78.75a2.344,2.344,0,0,1,0,4.688Z" transform="translate(-1.2 -1)"/>
        </g>
        <g id="Group_24875" data-name="Group 24875" transform="translate(88.359 118.828)">
          <path id="Path_53607" data-name="Path 53607" d="M41.478,82.872A2.285,2.285,0,0,1,38.9,80.528V62.716A11,11,0,0,1,49.916,51.7H67.963a2.05,2.05,0,0,1,2.109,1.406,2.139,2.139,0,0,1-.469,2.578L43.119,82.169a2.128,2.128,0,0,1-1.641.7Zm8.438-26.484a6.3,6.3,0,0,0-6.328,6.328V75.137l18.75-18.75Z" transform="translate(-38.9 -51.7)"/>
        </g>
      </g>
      <g id="Group_24900" data-name="Group 24900" transform="translate(11.484 11.484)">
        <g id="Group_24877" data-name="Group 24877">
          <path id="Path_53608" data-name="Path 53608" d="M22.975,25.119H8.444A2.214,2.214,0,0,1,6.1,22.775V8.244A2.214,2.214,0,0,1,8.444,5.9H22.975a2.214,2.214,0,0,1,2.344,2.344V22.775A2.214,2.214,0,0,1,22.975,25.119ZM10.787,20.431h9.844V10.588H10.787Z" transform="translate(-6.1 -5.9)"/>
        </g>
        <g id="Group_24878" data-name="Group 24878" transform="translate(0 24.609)">
          <path id="Path_53609" data-name="Path 53609" d="M22.975,35.619H8.444A2.214,2.214,0,0,1,6.1,33.275V18.744A2.214,2.214,0,0,1,8.444,16.4H22.975a2.214,2.214,0,0,1,2.344,2.344V33.275a2.214,2.214,0,0,1-2.344,2.344ZM10.787,30.931h9.844V21.088H10.787Z" transform="translate(-6.1 -16.4)"/>
        </g>
        <g id="Group_24879" data-name="Group 24879" transform="translate(0 49.219)">
          <path id="Path_53610" data-name="Path 53610" d="M22.975,46.119H8.444A2.214,2.214,0,0,1,6.1,43.775V29.244A2.214,2.214,0,0,1,8.444,26.9H22.975a2.214,2.214,0,0,1,2.344,2.344V43.775A2.214,2.214,0,0,1,22.975,46.119ZM10.787,41.431h9.844V31.587H10.787Z" transform="translate(-6.1 -26.9)"/>
        </g>
        <g id="Group_24880" data-name="Group 24880" transform="translate(0 73.828)">
          <path id="Path_53611" data-name="Path 53611" d="M22.975,56.619H8.444A2.214,2.214,0,0,1,6.1,54.275V39.744A2.214,2.214,0,0,1,8.444,37.4H22.975a2.214,2.214,0,0,1,2.344,2.344V54.275A2.214,2.214,0,0,1,22.975,56.619ZM10.787,51.931h9.844V42.087H10.787Z" transform="translate(-6.1 -37.4)"/>
        </g>
        <g id="Group_24883" data-name="Group 24883" transform="translate(30.937 94.922)">
          <g id="Group_24881" data-name="Group 24881">
            <path id="Path_53612" data-name="Path 53612" d="M36.409,80.619A17.109,17.109,0,1,1,53.519,63.509,17.205,17.205,0,0,1,36.409,80.619Zm0-29.531a12.422,12.422,0,0,0,0,24.844A12.21,12.21,0,0,0,48.831,63.509,12.5,12.5,0,0,0,36.409,51.087Z" transform="translate(-19.3 -46.4)"/>
          </g>
          <g id="Group_24882" data-name="Group 24882" transform="translate(7.734 9.844)">
            <path id="Path_53613" data-name="Path 53613" d="M29.163,64.9a2.128,2.128,0,0,1-1.641-.7L23.3,59.975a2.32,2.32,0,0,1,3.281-3.281l2.578,2.578L37.131,51.3a2.32,2.32,0,0,1,3.281,3.281L30.8,64.194a2.128,2.128,0,0,1-1.641.7Z" transform="translate(-22.6 -50.6)"/>
          </g>
        </g>
        <g id="Group_24887" data-name="Group 24887" transform="translate(23.437 2.578)">
          <g id="Group_24884" data-name="Group 24884">
            <path id="Path_53614" data-name="Path 53614" d="M55.241,11.688h-36.8A2.214,2.214,0,0,1,16.1,9.344,2.214,2.214,0,0,1,18.444,7h36.8a2.214,2.214,0,0,1,2.344,2.344A2.214,2.214,0,0,1,55.241,11.688Z" transform="translate(-16.1 -7)"/>
          </g>
          <g id="Group_24886" data-name="Group 24886" transform="translate(0 9.375)">
            <g id="Group_24885" data-name="Group 24885">
              <path id="Path_53615" data-name="Path 53615" d="M87.35,15.688H18.444A2.214,2.214,0,0,1,16.1,13.344,2.214,2.214,0,0,1,18.444,11H87.35a2.214,2.214,0,0,1,2.344,2.344A2.214,2.214,0,0,1,87.35,15.688Z" transform="translate(-16.1 -11)"/>
            </g>
          </g>
        </g>
        <g id="Group_24891" data-name="Group 24891" transform="translate(23.437 27.187)">
          <g id="Group_24888" data-name="Group 24888">
            <path id="Path_53616" data-name="Path 53616" d="M55.241,22.188h-36.8A2.214,2.214,0,0,1,16.1,19.844,2.214,2.214,0,0,1,18.444,17.5h36.8a2.214,2.214,0,0,1,2.344,2.344A2.214,2.214,0,0,1,55.241,22.188Z" transform="translate(-16.1 -17.5)"/>
          </g>
          <g id="Group_24890" data-name="Group 24890" transform="translate(0 9.375)">
            <g id="Group_24889" data-name="Group 24889">
              <path id="Path_53617" data-name="Path 53617" d="M87.35,26.188H18.444A2.214,2.214,0,0,1,16.1,23.844,2.214,2.214,0,0,1,18.444,21.5H87.35a2.214,2.214,0,0,1,2.344,2.344A2.214,2.214,0,0,1,87.35,26.188Z" transform="translate(-16.1 -21.5)"/>
            </g>
          </g>
        </g>
        <g id="Group_24895" data-name="Group 24895" transform="translate(23.437 51.797)">
          <g id="Group_24892" data-name="Group 24892">
            <path id="Path_53618" data-name="Path 53618" d="M53.6,32.688H18.444a2.344,2.344,0,0,1,0-4.687H53.6a2.344,2.344,0,0,1,0,4.688Z" transform="translate(-16.1 -28)"/>
          </g>
          <g id="Group_24894" data-name="Group 24894" transform="translate(0 9.375)">
            <g id="Group_24893" data-name="Group 24893">
              <path id="Path_53619" data-name="Path 53619" d="M47.506,36.688H18.444a2.344,2.344,0,1,1,0-4.687H47.506a2.344,2.344,0,1,1,0,4.688Z" transform="translate(-16.1 -32)"/>
            </g>
          </g>
        </g>
        <g id="Group_24899" data-name="Group 24899" transform="translate(23.437 76.406)">
          <g id="Group_24896" data-name="Group 24896" transform="translate(0)">
            <path id="Path_53620" data-name="Path 53620" d="M46.8,43.188H18.444a2.344,2.344,0,1,1,0-4.687H46.8a2.344,2.344,0,1,1,0,4.688Z" transform="translate(-16.1 -38.5)"/>
          </g>
          <g id="Group_24898" data-name="Group 24898" transform="translate(0 9.375)">
            <g id="Group_24897" data-name="Group 24897">
              <path id="Path_53621" data-name="Path 53621" d="M49.616,47.188H18.444a2.344,2.344,0,0,1,0-4.687H49.616a2.344,2.344,0,0,1,0,4.688Z" transform="translate(-16.1 -42.5)"/>
            </g>
          </g>
        </g>
      </g>
    </g>
    <g id="Group_24933" data-name="Group 24933" transform="translate(1.2 1)">
      <g id="Group_24902" data-name="Group 24902" transform="translate(111.797 98.906)">
        <path id="Path_53622" data-name="Path 53622" d="M78.2,80.231A8.511,8.511,0,0,1,72.1,77.653L49.6,53.513a2.32,2.32,0,0,1,3.281-3.281l22.5,24.141a3.254,3.254,0,0,0,2.344,1.172,3.009,3.009,0,0,0,2.344-.937,4.915,4.915,0,0,0,.938-2.578,4.164,4.164,0,0,0-.937-2.344l-23.906-22.5A2.32,2.32,0,0,1,59.447,43.9L83.588,66.4a7.487,7.487,0,0,1,2.578,5.625,9,9,0,0,1-2.109,5.859A9.248,9.248,0,0,1,78.2,80.231Z" transform="translate(-48.9 -43.2)"/>
      </g>
      <g id="Group_24903" data-name="Group 24903" transform="translate(74.531 61.406)">
        <path id="Path_53623" data-name="Path 53623" d="M58.781,78.762A25.781,25.781,0,1,1,84.563,52.981,25.707,25.707,0,0,1,58.781,78.762Zm0-46.875A21.094,21.094,0,1,0,79.875,52.981,21.006,21.006,0,0,0,58.781,31.888Z" transform="translate(-33 -27.2)"/>
      </g>
      <g id="Group_24904" data-name="Group 24904" transform="translate(88.594 94.453)">
        <path id="Path_53624" data-name="Path 53624" d="M50.719,49.738A15.408,15.408,0,0,1,39.7,45.284,2.32,2.32,0,0,1,42.984,42a11.035,11.035,0,0,0,15.469,0,2.32,2.32,0,0,1,3.281,3.281A16.457,16.457,0,0,1,50.719,49.738Z" transform="translate(-39 -41.3)"/>
      </g>
      <g id="Group_24905" data-name="Group 24905" transform="translate(115.313 108.75)">
        <path id="Path_53625" data-name="Path 53625" d="M52.744,62.166A2.214,2.214,0,0,1,50.4,59.822V49.744a2.344,2.344,0,0,1,4.688,0V59.822A2.214,2.214,0,0,1,52.744,62.166Z" transform="translate(-50.4 -47.4)"/>
      </g>
      <g id="Group_24908" data-name="Group 24908">
        <g id="Group_24906" data-name="Group 24906">
          <path id="Path_53626" data-name="Path 53626" d="M91.669,151H12.919A11.6,11.6,0,0,1,1.2,139.281V12.719A11.6,11.6,0,0,1,12.919,1h96.562A11.6,11.6,0,0,1,121.2,12.719V71.547a2.344,2.344,0,0,1-4.687,0V12.719a6.906,6.906,0,0,0-7.031-7.031H12.919a6.906,6.906,0,0,0-7.031,7.031V139.281a6.906,6.906,0,0,0,7.031,7.031h78.75a2.344,2.344,0,0,1,0,4.688Z" transform="translate(-1.2 -1)"/>
        </g>
        <g id="Group_24907" data-name="Group 24907" transform="translate(88.359 118.828)">
          <path id="Path_53627" data-name="Path 53627" d="M41.478,82.872A2.285,2.285,0,0,1,38.9,80.528V62.716A11,11,0,0,1,49.916,51.7H67.963a2.05,2.05,0,0,1,2.109,1.406,2.139,2.139,0,0,1-.469,2.578L43.119,82.169a2.128,2.128,0,0,1-1.641.7Zm8.438-26.484a6.3,6.3,0,0,0-6.328,6.328V75.137l18.75-18.75Z" transform="translate(-38.9 -51.7)"/>
        </g>
      </g>
      <g id="Group_24932" data-name="Group 24932" transform="translate(11.484 11.484)">
        <g id="Group_24909" data-name="Group 24909">
          <path id="Path_53628" data-name="Path 53628" d="M22.975,25.119H8.444A2.214,2.214,0,0,1,6.1,22.775V8.244A2.214,2.214,0,0,1,8.444,5.9H22.975a2.214,2.214,0,0,1,2.344,2.344V22.775A2.214,2.214,0,0,1,22.975,25.119ZM10.787,20.431h9.844V10.588H10.787Z" transform="translate(-6.1 -5.9)" fill="#b88610"/>
        </g>
        <g id="Group_24910" data-name="Group 24910" transform="translate(0 24.609)">
          <path id="Path_53629" data-name="Path 53629" d="M22.975,35.619H8.444A2.214,2.214,0,0,1,6.1,33.275V18.744A2.214,2.214,0,0,1,8.444,16.4H22.975a2.214,2.214,0,0,1,2.344,2.344V33.275a2.214,2.214,0,0,1-2.344,2.344ZM10.787,30.931h9.844V21.088H10.787Z" transform="translate(-6.1 -16.4)"/>
        </g>
        <g id="Group_24911" data-name="Group 24911" transform="translate(0 49.219)">
          <path id="Path_53630" data-name="Path 53630" d="M22.975,46.119H8.444A2.214,2.214,0,0,1,6.1,43.775V29.244A2.214,2.214,0,0,1,8.444,26.9H22.975a2.214,2.214,0,0,1,2.344,2.344V43.775A2.214,2.214,0,0,1,22.975,46.119ZM10.787,41.431h9.844V31.587H10.787Z" transform="translate(-6.1 -26.9)"/>
        </g>
        <g id="Group_24912" data-name="Group 24912" transform="translate(0 73.828)">
          <path id="Path_53631" data-name="Path 53631" d="M22.975,56.619H8.444A2.214,2.214,0,0,1,6.1,54.275V39.744A2.214,2.214,0,0,1,8.444,37.4H22.975a2.214,2.214,0,0,1,2.344,2.344V54.275A2.214,2.214,0,0,1,22.975,56.619ZM10.787,51.931h9.844V42.087H10.787Z" transform="translate(-6.1 -37.4)"/>
        </g>
        <g id="Group_24915" data-name="Group 24915" transform="translate(30.937 94.922)">
          <g id="Group_24913" data-name="Group 24913">
            <path id="Path_53632" data-name="Path 53632" d="M36.409,80.619A17.109,17.109,0,1,1,53.519,63.509,17.205,17.205,0,0,1,36.409,80.619Zm0-29.531a12.422,12.422,0,0,0,0,24.844A12.21,12.21,0,0,0,48.831,63.509,12.5,12.5,0,0,0,36.409,51.087Z" transform="translate(-19.3 -46.4)" fill="#b88610"/>
          </g>
          <g id="Group_24914" data-name="Group 24914" transform="translate(7.734 9.844)">
            <path id="Path_53633" data-name="Path 53633" d="M29.163,64.9a2.128,2.128,0,0,1-1.641-.7L23.3,59.975a2.32,2.32,0,0,1,3.281-3.281l2.578,2.578L37.131,51.3a2.32,2.32,0,0,1,3.281,3.281L30.8,64.194a2.128,2.128,0,0,1-1.641.7Z" transform="translate(-22.6 -50.6)" fill="#d7b865"/>
          </g>
        </g>
        <g id="Group_24919" data-name="Group 24919" transform="translate(23.437 2.578)">
          <g id="Group_24916" data-name="Group 24916">
            <path id="Path_53634" data-name="Path 53634" d="M55.241,11.688h-36.8A2.214,2.214,0,0,1,16.1,9.344,2.214,2.214,0,0,1,18.444,7h36.8a2.214,2.214,0,0,1,2.344,2.344A2.214,2.214,0,0,1,55.241,11.688Z" transform="translate(-16.1 -7)" fill="#d7b865"/>
          </g>
          <g id="Group_24918" data-name="Group 24918" transform="translate(0 9.375)">
            <g id="Group_24917" data-name="Group 24917">
              <path id="Path_53635" data-name="Path 53635" d="M87.35,15.688H18.444A2.214,2.214,0,0,1,16.1,13.344,2.214,2.214,0,0,1,18.444,11H87.35a2.214,2.214,0,0,1,2.344,2.344A2.214,2.214,0,0,1,87.35,15.688Z" transform="translate(-16.1 -11)" fill="#d7b865"/>
            </g>
          </g>
        </g>
        <g id="Group_24923" data-name="Group 24923" transform="translate(23.437 27.187)">
          <g id="Group_24920" data-name="Group 24920">
            <path id="Path_53636" data-name="Path 53636" d="M55.241,22.188h-36.8A2.214,2.214,0,0,1,16.1,19.844,2.214,2.214,0,0,1,18.444,17.5h36.8a2.214,2.214,0,0,1,2.344,2.344A2.214,2.214,0,0,1,55.241,22.188Z" transform="translate(-16.1 -17.5)"/>
          </g>
          <g id="Group_24922" data-name="Group 24922" transform="translate(0 9.375)">
            <g id="Group_24921" data-name="Group 24921">
              <path id="Path_53637" data-name="Path 53637" d="M87.35,26.188H18.444A2.214,2.214,0,0,1,16.1,23.844,2.214,2.214,0,0,1,18.444,21.5H87.35a2.214,2.214,0,0,1,2.344,2.344A2.214,2.214,0,0,1,87.35,26.188Z" transform="translate(-16.1 -21.5)"/>
            </g>
          </g>
        </g>
        <g id="Group_24927" data-name="Group 24927" transform="translate(23.437 51.797)">
          <g id="Group_24924" data-name="Group 24924">
            <path id="Path_53638" data-name="Path 53638" d="M53.6,32.688H18.444a2.344,2.344,0,0,1,0-4.687H53.6a2.344,2.344,0,0,1,0,4.688Z" transform="translate(-16.1 -28)"/>
          </g>
          <g id="Group_24926" data-name="Group 24926" transform="translate(0 9.375)">
            <g id="Group_24925" data-name="Group 24925">
              <path id="Path_53639" data-name="Path 53639" d="M47.506,36.688H18.444a2.344,2.344,0,1,1,0-4.687H47.506a2.344,2.344,0,1,1,0,4.688Z" transform="translate(-16.1 -32)"/>
            </g>
          </g>
        </g>
        <g id="Group_24931" data-name="Group 24931" transform="translate(23.437 76.406)">
          <g id="Group_24928" data-name="Group 24928" transform="translate(0)">
            <path id="Path_53640" data-name="Path 53640" d="M46.8,43.188H18.444a2.344,2.344,0,1,1,0-4.687H46.8a2.344,2.344,0,1,1,0,4.688Z" transform="translate(-16.1 -38.5)"/>
          </g>
          <g id="Group_24930" data-name="Group 24930" transform="translate(0 9.375)">
            <g id="Group_24929" data-name="Group 24929">
              <path id="Path_53641" data-name="Path 53641" d="M49.616,47.188H18.444a2.344,2.344,0,0,1,0-4.687H49.616a2.344,2.344,0,0,1,0,4.688Z" transform="translate(-16.1 -42.5)"/>
            </g>
          </g>
        </g>
      </g>
    </g>
  </g>
</svg>
