<svg xmlns="http://www.w3.org/2000/svg" width="12.128" height="12.129" viewBox="0 0 12.128 12.129">
  <g id="tag" transform="translate(-0.004)">
    <g id="Group_18834" data-name="Group 18834" transform="translate(0.004)">
      <path id="Path_49926" data-name="Path 49926" d="M11.7,0H6.935a.433.433,0,0,0-.306.127l-6.5,6.5a.433.433,0,0,0,0,.613h0L4.9,12a.433.433,0,0,0,.612,0l6.5-6.5a.433.433,0,0,0,.127-.307V.433A.433.433,0,0,0,11.7,0ZM9.1,3.9a.866.866,0,1,1,.866-.866A.866.866,0,0,1,9.1,3.9Z" transform="translate(-0.004)"/>
    </g>
  </g>
</svg>
