<?xml version="1.0" encoding="utf-8"?>
<!-- Generator: Adobe Illustrator 16.0.0, SVG Export Plug-In . SVG Version: 6.00 Build 0)  -->
<!DOCTYPE svg PUBLIC "-//W3C//DTD SVG 1.1//EN" "http://www.w3.org/Graphics/SVG/1.1/DTD/svg11.dtd">
<svg version="1.1" id="Layer_1" xmlns="http://www.w3.org/2000/svg" xmlns:xlink="http://www.w3.org/1999/xlink" x="0px" y="0px"
	 width="12.128px" height="12.129px" viewBox="0 0 12.128 12.129" enable-background="new 0 0 12.128 12.129" xml:space="preserve">
<g id="tag" transform="translate(-0.004)">
	<g id="Group_18834" transform="translate(0.004)">
		<path id="Path_49926" fill="#FFFFFF" d="M11.696,0H6.931C6.816,0,6.707,0.046,6.625,0.127l-6.5,6.5
			c-0.169,0.169-0.169,0.443,0,0.612c0,0.001,0,0.001,0,0.001l0,0L4.896,12c0.169,0.169,0.443,0.169,0.612,0l6.5-6.5
			c0.082-0.082,0.128-0.192,0.127-0.307v-4.76C12.135,0.194,11.941,0,11.703,0C11.701,0,11.699,0,11.696,0z M9.096,3.9
			C8.618,3.9,8.23,3.512,8.23,3.034c0-0.479,0.388-0.866,0.866-0.866c0.478,0,0.866,0.388,0.866,0.866
			C9.962,3.512,9.574,3.9,9.096,3.9L9.096,3.9z"/>
	</g>
</g>
</svg>
