<?xml version="1.0" encoding="utf-8"?>
<!-- Generator: Adobe Illustrator 16.0.0, SVG Export Plug-In . SVG Version: 6.00 Build 0)  -->
<!DOCTYPE svg PUBLIC "-//W3C//DTD SVG 1.1//EN" "http://www.w3.org/Graphics/SVG/1.1/DTD/svg11.dtd">
<svg version="1.1" id="Layer_1" xmlns="http://www.w3.org/2000/svg" xmlns:xlink="http://www.w3.org/1999/xlink" x="0px" y="0px"
	 width="30px" height="30px" viewBox="0 0 30 30" enable-background="new 0 0 30 30" xml:space="preserve">
<g id="Group_22766" transform="translate(-1150 224)">
	<g id="Icons_Tomatometer-_-AS_fresh" transform="translate(1150 -224)">
		<g id="Group">
			<g id="RT_Fresh_Tomato_RGB-_1_" transform="translate(0.498 0.076)">
				<g id="Group-3" transform="translate(0 6.116)">
					<path id="Fill-1" fill="#FA320A" d="M28.88,10.053C28.748,5.839,26.389,2.011,22.684,0c0.02,0.113-0.08,0.254-0.195,0.2
						c-2.321-1.016-6.26,2.271-9.012,0.55c0.021,0.618-0.1,3.631-4.344,3.806C9.079,4.57,9.024,4.538,9.01,4.484
						C9.001,4.448,9.012,4.41,9.04,4.385c0.568-0.647,1.141-2.287,0.317-3.16C7.592,2.81,6.567,3.405,3.183,2.62
						C0.855,5.1-0.294,8.462,0.03,11.848c0.492,7.884,7.877,12.392,15.314,11.927C22.781,23.311,29.372,17.933,28.88,10.053"/>
				</g>
				<path id="Fill-4" fill="#00912D" d="M15.327,4.224c1.528-0.364,5.924-0.035,7.332,1.833c0.085,0.112-0.034,0.324-0.171,0.265
					c-2.321-1.016-6.26,2.271-9.012,0.55c0.021,0.618-0.1,3.631-4.344,3.806c-0.053,0.014-0.108-0.019-0.122-0.072
					c-0.009-0.036,0.002-0.074,0.03-0.099c0.568-0.647,1.141-2.287,0.317-3.16c-1.921,1.721-2.965,2.274-7.138,1.15
					C2.082,8.46,2.129,8.241,2.274,8.185c1.382-0.807,2.806-1.542,4.265-2.2C6.85,5.876,7.17,5.793,7.495,5.739
					C6.214,5.504,4.911,5.421,3.611,5.492c-0.08,0.011-0.155-0.045-0.166-0.125C3.44,5.328,3.45,5.288,3.474,5.257
					c1.595-2.06,4.533-2.681,6.346-1.59C8.703,2.283,7.827,1.178,7.827,1.178l2.074-1.181l1.48,3.307
					c1.543-2.279,4.413-2.49,5.626-0.872c0.046,0.066,0.03,0.157-0.035,0.204c-0.026,0.018-0.057,0.027-0.088,0.026
					c-0.854,0.021-1.543,0.704-1.571,1.557h0.014"/>
			</g>
		</g>
	</g>
</g>
</svg>
