<svg xmlns="http://www.w3.org/2000/svg" width="10.436" height="12.509" viewBox="0 0 10.436 12.509">
  <g id="user_2_" data-name="user (2)" transform="translate(0 0)">
    <path id="Path_49924" data-name="Path 49924" d="M90.045,6.026a2.915,2.915,0,0,0,2.13-.883,2.915,2.915,0,0,0,.883-2.13,2.916,2.916,0,0,0-.883-2.13,3.012,3.012,0,0,0-4.26,0,2.915,2.915,0,0,0-.883,2.13,2.915,2.915,0,0,0,.883,2.13A2.916,2.916,0,0,0,90.045,6.026Zm0,0" transform="translate(-84.906)"/>
    <path id="Path_49925" data-name="Path 49925" d="M10.411,250.893a7.441,7.441,0,0,0-.1-.79,6.225,6.225,0,0,0-.194-.795,3.924,3.924,0,0,0-.327-.741,2.8,2.8,0,0,0-.493-.642,2.172,2.172,0,0,0-.708-.445,2.446,2.446,0,0,0-.9-.163.917.917,0,0,0-.49.208c-.147.1-.318.206-.51.329a2.922,2.922,0,0,1-.66.291,2.563,2.563,0,0,1-1.615,0,2.916,2.916,0,0,1-.66-.291c-.19-.121-.362-.232-.511-.329a.916.916,0,0,0-.489-.208,2.443,2.443,0,0,0-.9.164,2.171,2.171,0,0,0-.708.445,2.8,2.8,0,0,0-.492.642,3.932,3.932,0,0,0-.327.741,6.242,6.242,0,0,0-.194.795,7.416,7.416,0,0,0-.1.791c-.017.239-.025.488-.025.739A2.077,2.077,0,0,0,.617,253.2a2.221,2.221,0,0,0,1.59.58H8.229a2.22,2.22,0,0,0,1.59-.58,2.076,2.076,0,0,0,.617-1.572c0-.252-.009-.5-.025-.739Zm0,0" transform="translate(0 -241.274)"/>
  </g>
</svg>
