<?xml version="1.0" encoding="utf-8"?>
<!-- Generator: Adobe Illustrator 16.0.0, SVG Export Plug-In . SVG Version: 6.00 Build 0)  -->
<!DOCTYPE svg PUBLIC "-//W3C//DTD SVG 1.1//EN" "http://www.w3.org/Graphics/SVG/1.1/DTD/svg11.dtd">
<svg version="1.1" id="Layer_1" xmlns="http://www.w3.org/2000/svg" xmlns:xlink="http://www.w3.org/1999/xlink" x="0px" y="0px"
	 width="10.436px" height="12.508px" viewBox="0 0 10.436 12.508" enable-background="new 0 0 10.436 12.508" xml:space="preserve">
<g id="user_2_" transform="translate(0 0)">
	<path id="Path_49924" fill="#FFFFFF" d="M5.139,6.026C5.94,6.037,6.71,5.718,7.269,5.143c0.575-0.559,0.895-1.329,0.883-2.13
		c0.011-0.801-0.309-1.572-0.883-2.13c-1.176-1.176-3.083-1.176-4.26,0l0,0c-0.574,0.559-0.894,1.329-0.883,2.13
		c-0.011,0.801,0.309,1.571,0.883,2.13C3.568,5.717,4.338,6.037,5.139,6.026z"/>
	<path id="Path_49925" fill="#FFFFFF" d="M10.411,9.62c-0.02-0.266-0.053-0.529-0.101-0.791c-0.047-0.269-0.111-0.534-0.193-0.795
		c-0.084-0.258-0.193-0.506-0.327-0.74C9.657,7.056,9.491,6.84,9.297,6.651C9.092,6.458,8.852,6.307,8.589,6.206
		c-0.287-0.11-0.593-0.166-0.9-0.163c-0.18,0.02-0.351,0.092-0.489,0.208c-0.147,0.1-0.318,0.206-0.511,0.329
		C6.482,6.704,6.26,6.801,6.029,6.872c-0.523,0.174-1.09,0.174-1.614,0c-0.231-0.07-0.453-0.167-0.66-0.292
		c-0.19-0.121-0.362-0.232-0.511-0.329c-0.14-0.116-0.31-0.188-0.489-0.208c-0.308-0.002-0.613,0.053-0.9,0.164
		C1.591,6.308,1.351,6.459,1.146,6.652C0.951,6.84,0.786,7.057,0.654,7.293C0.52,7.53,0.41,7.778,0.327,8.036
		C0.245,8.295,0.18,8.561,0.133,8.831c-0.048,0.262-0.081,0.525-0.1,0.791C0.016,9.86,0.008,10.109,0.008,10.36
		c-0.026,0.584,0.194,1.153,0.609,1.566c0.433,0.395,1.004,0.604,1.59,0.58h6.021c0.586,0.023,1.157-0.185,1.59-0.58
		c0.42-0.413,0.644-0.984,0.617-1.572c0-0.252-0.009-0.5-0.024-0.739V9.62z"/>
</g>
</svg>
