<svg width="64" height="64" viewBox="0 0 64 64" fill="none" xmlns="http://www.w3.org/2000/svg">
<path d="M40 32L28 24V40L40 32Z" stroke="#D7B865" style="stroke:#D7B865;stroke:color(display-p3 0.8431 0.7216 0.3961);stroke-opacity:1;" stroke-width="4" stroke-linecap="round" stroke-linejoin="round"/>
<path d="M6 32.0002C6 39.4777 6.7675 43.8627 7.3525 46.1177C7.5072 46.7311 7.80516 47.299 8.22193 47.7749C8.6387 48.2508 9.16238 48.621 9.75 48.8552C18.13 52.0877 32 52.0002 32 52.0002C32 52.0002 45.87 52.0877 54.25 48.8552C54.8395 48.6223 55.3652 48.2526 55.7837 47.7767C56.2023 47.3007 56.5018 46.7321 56.6575 46.1177C57.2425 43.8677 58.01 39.4777 58.01 32.0002C58.01 24.5227 57.2425 20.1377 56.6575 17.8827C56.5036 17.266 56.2049 16.6949 55.7862 16.2167C55.3675 15.7384 54.8409 15.3669 54.25 15.1327C45.87 11.9127 32 12.0002 32 12.0002C32 12.0002 18.13 11.9127 9.75 15.1452C9.15908 15.3794 8.63247 15.7509 8.21379 16.2292C7.79512 16.7074 7.49644 17.2785 7.3425 17.8952C6.7675 20.1352 6 24.5227 6 32.0002Z" stroke="#D7B865" style="stroke:#D7B865;stroke:color(display-p3 0.8431 0.7216 0.3961);stroke-opacity:1;" stroke-width="4" stroke-linecap="round" stroke-linejoin="round"/>
</svg>
