<?xml version="1.0" encoding="UTF-8"?>
<svg id="Layer_1" data-name="Layer 1" xmlns="http://www.w3.org/2000/svg" viewBox="0 0 1080 1080">
  <defs>
    <style>
      .cls-1 {
        fill: #1a1a1a;
      }
    </style>
  </defs>
  <path class="cls-1" d="M847.37,340.21H232.63c-8.45,0-15.37,6.92-15.37,15.37v368.84c0,8.45,6.92,15.37,15.37,15.37h614.74c8.45,0,15.37-6.92,15.37-15.37v-368.84c0-8.45-6.92-15.37-15.37-15.37ZM739.79,370.95h30.74v30.74h-30.74v-30.74ZM678.32,370.95h30.74v30.74h-30.74v-30.74ZM616.84,370.95h30.74v30.74h-30.74v-30.74ZM555.37,370.95h30.74v30.74h-30.74v-30.74ZM432.42,370.95h30.74v30.74h-30.74v-30.74ZM370.95,370.95h30.74v30.74h-30.74v-30.74ZM309.47,370.95h30.74v30.74h-30.74v-30.74ZM248,370.95h30.74v30.74h-30.74v-30.74ZM278.73,709.05h-30.74v-30.74h30.74v30.74ZM340.21,709.05h-30.74v-30.74h30.74v30.74ZM401.68,709.05h-30.74v-30.74h30.74v30.74ZM463.16,709.05h-30.74v-30.74h30.74v30.74ZM524.63,709.05h-30.74v-30.74h30.74v30.74ZM524.63,647.58H248v-215.16h276.63v215.16ZM524.63,401.68h-30.74v-30.74h30.74v30.74ZM586.11,709.05h-30.74v-30.74h30.74v30.74ZM647.58,709.05h-30.74v-30.74h30.74v30.74ZM709.05,709.05h-30.74v-30.74h30.74v30.74ZM770.53,709.05h-30.74v-30.74h30.74v30.74ZM832,709.05h-30.74v-30.74h30.74v30.74ZM832,647.58h-276.63v-215.16h276.63v215.16ZM832,401.68h-30.74v-30.74h30.74v30.74Z"/>
</svg>