<?xml version="1.0" encoding="UTF-8"?>
<svg id="Layer_1" data-name="Layer 1" xmlns="http://www.w3.org/2000/svg" viewBox="0 0 1080 1080">
  <defs>
    <style>
      .cls-1 {
        fill: #1a1a1a;
      }
    </style>
  </defs>
  <path class="cls-1" d="M593.6,746.47c-3.96,0-7.79-1.16-11.08-3.35l-42.53-28.35-42.53,28.35c-3.29,2.2-7.12,3.36-11.08,3.36h-235.45c-28.99,0-52.57-23.58-52.57-52.57v-184.99c0-22.62,16.04-41.95,42.9-51.71,51.27-18.62,201.13-73.78,202.64-74.33,9.02-3.31,18.44-4.98,27.97-4.98,25.9,0,50.46,12.5,65.68,33.44l2.43,3.34,2.43-3.34c15.22-20.94,39.77-33.44,65.67-33.44,9.54,0,18.96,1.68,27.99,4.99,1.54.56,153.87,55.89,202.6,74.32,12.91,4.88,42.94,19.69,42.94,51.72v184.99c0,28.99-23.58,52.57-52.57,52.57h-235.45ZM540,670.78c3.96,0,7.79,1.16,11.08,3.36l48.58,32.38h229.4c5.92,0,10.91-4.1,12.26-9.62h.36v-187.99c0-6.96-5.66-12.62-12.61-12.62H250.95c-6.96,0-12.62,5.66-12.62,12.62v184.99c0,6.96,5.66,12.62,12.62,12.62h229.4l48.58-32.38c3.29-2.2,7.12-3.36,11.08-3.36ZM608.1,417.86c-15.75,0-29.91,8.76-36.96,22.86l-7.82,15.64h140.22l1.03-5.82-82.24-30.14c-4.59-1.68-9.38-2.54-14.23-2.54ZM471.91,417.85c-4.85,0-9.65.85-14.24,2.54l-82.25,30.15,1.03,5.82h140.22l-7.82-15.64c-7.05-14.1-21.21-22.86-36.95-22.86Z"/>
  <path class="cls-1" d="M289.83,675c-11.01,0-19.97-8.96-19.97-19.97v-107.21c0-11.01,8.96-19.98,19.97-19.98h178.69c11.01,0,19.97,8.96,19.97,19.98v107.21c0,11.01-8.96,19.97-19.97,19.97h-178.69ZM309.81,635.05h138.74v-67.27h-138.74v67.27Z"/>
  <path class="cls-1" d="M611.48,675c-11.01,0-19.97-8.96-19.97-19.97v-107.21c0-11.01,8.96-19.98,19.97-19.98h178.69c11.01,0,19.97,8.96,19.97,19.98v107.21c0,11.01-8.96,19.97-19.97,19.97h-178.69ZM631.45,635.05h138.74v-67.27h-138.74v67.27Z"/>
</svg>