<?xml version="1.0" encoding="UTF-8"?>
<svg id="Layer_1" data-name="Layer 1" xmlns="http://www.w3.org/2000/svg" viewBox="0 0 1080 1080">
  <g>
    <path d="M860.65,472.99v7.84c-6.63,120.21-55.57,200.54-184.17,207-52.77,2.65-107.79-2.11-160.78-.06v-98.76h165.42c14.56,0,38.69-16.24,47.79-27.47,32.05-39.57,28.39-118.01,18.87-165.35l112.88,76.81Z"/>
    <path d="M685.04,239.41l45.2,7.33c75.36,18.62,113.77,72.85,125.47,147.33l4.95,47.57v4.7l-330.84-206.93h155.23Z"/>
    <g>
      <path d="M498.45,239.41l1.57,253.96h167.77l-50.96,83.09h-116.81v109.74c-4.3-1.28-9.06-5.69-12.57-8.6-28.95-24.07-55.92-50.9-84.65-75.27v-25.87h-181.89v-71.33c0-6.07,8.63-21.17,11.73-27.47,41.65-69.9,74.79-147.95,116.58-217.36,5.97-9.91,10.03-17.75,22.22-20.89h127.01ZM402.8,493.37v-155.2l-81.54,155.2h81.54Z"/>
      <polygon points="656.81 339.74 617.62 339.74 617.62 479.26 515.7 479.26 515.7 242.55 656.81 339.74"/>
    </g>
  </g>
  <polygon points="440.25 741.25 467.87 811.62 495.34 741.06 500.11 741.75 517.26 827.27 506.28 827.29 496.1 764.56 470.96 825.67 466.31 827.3 438.88 764.58 429.44 827.27 418.48 827.27 435.82 741.12 440.25 741.25"/>
  <polygon points="368.31 741.06 368.31 750.47 333.81 750.47 333.81 775.55 366.74 775.55 366.74 784.95 333.81 784.95 333.81 817.87 368.31 817.87 368.31 827.28 324.4 827.28 324.4 741.06 368.31 741.06"/>
  <path d="M588.11,800.37c0,15.71-12.74,28.45-28.46,28.45s-28.46-12.74-28.46-28.45,12.74-28.45,28.46-28.45,28.46,12.74,28.46,28.45ZM573.18,785.48c-1.75-1.67-6.44-4.06-8.78-4.57-29.44-6.38-33.87,44.07.6,38.43,14.28-2.34,18-24.49,8.18-33.86Z"/>
  <path d="M734.93,800.31c0,15.7-12.73,28.42-28.43,28.42s-28.43-12.72-28.43-28.42,12.73-28.42,28.43-28.42,28.43,12.72,28.43,28.42ZM726.08,800.15c0-10.83-8.78-19.62-19.62-19.62s-19.62,8.78-19.62,19.62,8.78,19.62,19.62,19.62,19.62-8.78,19.62-19.62Z"/>
  <path d="M797.93,827.28h-7.84v-35.27c0-9.69-12.74-15.81-20.33-9.35-.86.73-4.75,7.33-4.75,7.79v36.84h-9.41v-53.3l9.33.13.86,4.57c5.25-7.96,21.33-8.95,27.48-2.38.8.85,4.67,7.42,4.67,7.87v43.11Z"/>
  <polygon points="606.64 781.82 602.14 781.7 601.83 774.83 606.75 773.12 606.63 753.59 615.15 753.57 616.04 773.99 625.46 773.97 625.46 781.83 616.05 781.82 616.05 827.28 606.64 827.28 606.64 781.82"/>
  <rect x="648.97" y="773.98" width="9.41" height="53.3"/>
  <rect x="382.42" y="777.12" width="25.09" height="7.84"/>
  <circle cx="653.35" cy="753.14" r="6.48"/>
</svg>