<?xml version="1.0" encoding="UTF-8"?>
<svg id="Layer_1" data-name="Layer 1" xmlns="http://www.w3.org/2000/svg" viewBox="0 0 1080 1080">
  <path d="M867.18,336c-.48.08-1.16.68-1.44,1.28-.32.6-1.36,1.8-2.31,2.63-1.52,1.32-8.86,8.26-15.84,14.96-1.28,1.2-4.55,4.27-7.22,6.78-4.59,4.23-7.14,6.66-15.76,14.84-5.9,5.59-7.3,6.9-11.37,10.69-2.23,2.07-5.03,4.71-6.14,5.78-2.67,2.67-16.52,15.72-19.79,18.71-1.44,1.28-4.47,4.15-6.78,6.38-2.35,2.23-6.98,6.62-10.37,9.81-3.35,3.19-6.78,6.42-7.54,7.18-.8.76-4.15,3.91-7.42,6.98s-7.86,7.38-10.17,9.57-6.06,5.74-8.3,7.9c-2.27,2.11-4.67,4.15-5.31,4.51q-1.2.6-3.87-1.68c-1.48-1.24-3.03-2.63-3.47-3.11s-1.95-1.84-3.39-3.03c-1.44-1.2-3.47-3.03-4.59-4.03-1.08-1.04-2.79-2.55-3.79-3.35s-2.19-1.84-2.63-2.31c-.48-.48-1.99-1.88-3.39-3.07s-3.51-3.11-4.75-4.23c-2.11-1.95-12.17-10.85-13.72-12.13-.4-.32-1.32-1.16-1.99-1.8-2.19-2.03-8.22-7.5-12.21-10.97-2.07-1.84-3.95-3.55-4.19-3.83-.2-.28-1.91-1.8-3.79-3.35-1.88-1.6-3.75-3.23-4.19-3.63-2.07-1.91-12.13-10.81-13.32-11.77-.56-.48-1.76-1.08-2.63-1.32-1.12-.32-18.23-.44-58.88-.44-55.93,0-57.33,0-58.25.76-.96.76-.96.8-.24,2.03.44.68,1.52,1.95,2.39,2.79.92.84,2.47,2.31,3.47,3.23,1,.96,3.95,3.83,6.58,6.34s8.66,8.34,13.4,12.97c8.7,8.46,26.29,25.53,35.23,34.19,2.67,2.59,7.54,7.34,10.89,10.57,9.65,9.42,20.94,20.23,22.54,21.62.8.72,2.07,1.44,2.79,1.68.8.2,16,.36,37.62.36s36.54.16,36.86.36c.48.32.52.68.2,1.72-.28,1-1.95,2.83-6.54,7.06-7.02,6.5-10.05,9.38-20.19,19.03-3.91,3.75-11.01,10.41-15.72,14.76-4.71,4.39-9.06,8.42-9.61,8.94-1.64,1.6-7.9,7.46-12.09,11.37-3.83,3.59-5.43,5.07-11.85,11.17-1.84,1.76-6.22,5.9-9.73,9.18s-6.74,6.3-7.22,6.78c-.44.44-3.03,2.87-5.74,5.39s-5.51,5.11-6.22,5.78c-.68.64-3.47,3.27-6.18,5.78s-6.7,6.3-8.9,8.38c-9.89,9.38-12.53,11.89-14.56,13.76-1.2,1.08-2.83,2.63-3.63,3.39s-3.59,3.35-6.18,5.78c-2.59,2.39-5.31,4.91-5.98,5.59-3.15,2.99-16.08,15.16-26.29,24.73-3.31,3.07-6.54,6.1-7.22,6.78-6.42,6.1-12.97,12.25-13.76,12.89-1.48,1.2-2.67,3.55-2.03,4.19.36.36,17.43.52,77.36.6,42.29.04,77.44,0,78.11-.12,2.35-.4,4.51-2.47,23.5-22.18,5.35-5.59,23.06-23.86,26.93-27.85,1.88-1.91,7.18-7.42,11.77-12.21,15.64-16.24,13.96-14.68,15.36-14.36.92.2,4.39,3.47,14.08,13.29,7.06,7.14,14.56,14.72,16.64,16.8s10.25,10.37,18.11,18.39c15.88,16.2,55.65,56.45,73.41,74.36,6.34,6.38,12.85,13.09,14.52,14.88h0l2.99,3.31h87.65c67.62,0,87.73-.12,88.09-.48.28-.28.48-.96.48-1.6,0-.88-.52-1.48-2.67-3.11-1.48-1.12-3.67-2.95-4.91-4.11s-3.03-2.71-3.95-3.47-2.15-1.84-2.79-2.39c-2.39-2.11-5.67-4.91-6.7-5.7-1.68-1.32-11.53-9.65-14.48-12.29-1.44-1.24-5.74-4.95-9.57-8.18-3.83-3.23-9.14-7.78-11.77-10.05-2.63-2.31-5.67-4.95-6.78-5.86-7.14-6.1-22.38-19.07-24.73-21.06-1.52-1.28-3.31-2.83-3.99-3.43-1.56-1.4-9.1-7.86-11.01-9.42-.84-.68-3.99-3.35-7.02-5.98-3.03-2.67-7.1-6.14-9.1-7.78-1.95-1.6-4.59-3.83-5.82-4.95s-2.91-2.59-3.71-3.23c-.84-.68-1.88-1.56-2.35-2.03-.48-.44-3.75-3.23-7.26-6.14s-6.82-5.7-7.38-6.18c-.56-.52-2.07-1.88-3.39-3.07s-4.11-3.59-6.18-5.31c-2.07-1.72-4.11-3.39-4.47-3.75s-1.36-1.2-2.19-1.88c-2.39-1.99-16.6-14.16-17.35-14.88-.36-.36-1.36-1.2-2.19-1.91-.84-.68-5.31-4.47-9.93-8.42-4.63-3.95-9.26-7.62-10.29-8.22h0l-1.88-1.04h-38.62c-36.9,0-38.66-.04-39.26-.72-.4-.4-.68-.96-.68-1.24,0-.44,3.63-4.23,20.15-21.06,4.59-4.71,8.46-8.74,8.62-8.94.12-.2,4.07-4.31,8.78-9.06,4.71-4.79,12.17-12.45,16.6-17.04,4.43-4.63,11.89-12.29,16.56-17.04,8.38-8.54,26.09-26.77,28.45-29.24.68-.68,4.51-4.67,8.58-8.82,20.15-20.63,24.85-25.49,33.71-34.67,5.27-5.47,13.72-14.16,18.79-19.31,5.07-5.19,11.97-12.29,15.36-15.76,8.42-8.7,21.1-21.74,29.36-30.16,15.04-15.36,15.28-15.64,15.28-17.15,0-.8-.2-1.64-.48-1.91-.36-.36-14.08-.48-59.52-.44-32.51.04-59.48.16-60,.24Z"/>
  <path d="M239.96,412.28c-1.04.32-4.23,2.35-6.98,4.39-.88.68-2.47,1.84-3.59,2.63-1.88,1.32-5.11,3.67-8.18,5.98-1.91,1.44-7.42,5.51-9.38,6.9-.88.64-2.95,2.11-4.59,3.31s-4.15,3.03-5.59,4.07c-2.83,2.03-3.87,2.79-8.54,6.3-1.76,1.28-3.51,2.43-3.91,2.59-.4.12-.72.36-.72.56,0,.16-1.12,1.08-2.47,2.03-1.4.92-3.23,2.27-4.07,3.03-.88.72-1.76,1.32-1.95,1.32s-.96.48-1.68,1.08c-.72.64-2.71,2.11-4.39,3.31s-3.75,2.71-4.59,3.39c-.88.64-2.51,1.88-3.67,2.71-1.16.84-4.27,3.11-6.9,5.07s-5.31,3.91-5.98,4.39c-1.12.76-2.91,2.03-11.81,8.58-1.8,1.32-3.51,2.47-3.75,2.59-.28.12-1.08.72-1.84,1.32-2.55,2.07-5.82,4.59-7.38,5.63-1.76,1.2-2.71,1.91-6.98,5.11-1.68,1.28-3.19,2.31-3.35,2.31s-.88.48-1.64,1.08c-1.36,1.16-2.27,1.84-7.54,5.7-1.76,1.28-3.63,2.67-4.19,3.07-.56.44-2.15,1.56-3.59,2.51-1.44,1-3.23,2.31-4.03,2.99-.8.64-2.83,2.19-4.55,3.39-1.68,1.2-3.63,2.63-4.31,3.19-.72.56-1.99,1.52-2.87,2.11s-2.31,1.64-3.19,2.31c-1.95,1.48-3.55,2.59-5.82,4.15-1.52,1.04-7.1,5.15-11.93,8.78-5.82,4.39-7.78,5.78-8.02,5.78-.16,0-1,.6-1.88,1.28-.92.72-2.99,2.31-4.67,3.51s-3.87,2.87-4.83,3.67c-1,.84-1.95,1.52-2.11,1.52-.44,0-5.47,3.95-7.42,5.86-.88.88-2.23,2.55-2.99,3.75h0l-1.4,2.15-.12,25.97c-.04,16.16.04,26.37.28,27.01.28.72.88,1.16,1.91,1.44,1.04.32,28.52.44,87.73.44,79.71,0,86.29.04,86.77.68.44.52.6,4.87.68,23.7h0l.08,23.06,1.24,1,1.24,1.04h48.47l.44-1c.36-.8.48-31.68.48-124.63h0v-123.59l-1.44-2.75c-1.68-3.11-2.99-4.55-6.14-6.54-2.11-1.36-2.27-1.4-6.78-1.48-2.51-.04-5.03.04-5.59.24ZM206.96,495.98c.16.08.64.88,1.08,1.72.8,1.52.8,2.43.8,38.9,0,40.13.04,38.98-1.95,40.09-1.04.52-101.01.56-102.89.04-.72-.24-1.99-.96-2.87-1.64-1.4-1.12-1.6-1.48-1.6-2.95s.24-1.88,1.52-3.07c1.36-1.28,4.99-4.07,10.33-7.86,5.19-3.71,8.26-5.94,9.22-6.7.6-.44,2.47-1.8,4.19-2.99s3.75-2.67,4.59-3.27c.8-.6,2.39-1.72,3.47-2.47,1.12-.76,2.71-1.91,3.59-2.55.88-.68,2.03-1.52,2.59-1.91s2.07-1.52,3.39-2.51c4.11-3.07,7.5-5.51,10.61-7.58.84-.56,2.55-1.8,3.87-2.79,1.28-1,3.75-2.79,5.47-3.99,1.68-1.2,4.55-3.27,6.34-4.59,1.76-1.32,3.67-2.71,4.23-3.07.56-.4,2.55-1.84,4.47-3.19,1.91-1.4,4.75-3.43,6.3-4.51,1.56-1.12,3.87-2.79,5.11-3.79,2.23-1.8,4.47-3.39,7.02-4.99.68-.44,2.27-1.56,3.55-2.51,1.24-.92,2.67-1.88,3.19-2.07.8-.32,3.63-.16,4.39.28Z"/>
  <path d="M314.12,419.02c-4.15,1.08-7.3,3.99-9.42,8.62h0l-1.32,2.95.08,93.47.12,93.51,1.32,2.39c2.11,3.83,4.59,6.18,8.22,7.74h0l2.43,1.04h58.65c52.94,0,59.08-.08,63.23-.68,2.51-.36,5.74-.8,7.14-.96,1.44-.12,3.55-.6,4.75-1s3.59-.92,5.35-1.16c1.76-.2,4.15-.8,5.27-1.36,1.12-.52,2.75-1.08,3.63-1.24,1.52-.28,8.7-3.07,9.53-3.75.24-.2,1.12-.56,1.99-.84.84-.28,2.15-.92,2.95-1.44.76-.52,1.6-.96,1.88-.96.8,0,10.05-6.14,15.12-10.05,3.27-2.55,15.32-14.52,17.63-17.55,1.68-2.19,3.55-4.91,6.3-9.26,2.15-3.39,6.62-12.13,6.62-12.97,0-.36.36-1.4.84-2.23,1-1.91,3.31-8.78,3.95-11.57.24-1.12.76-2.79,1.16-3.79.44-1.08.92-3.83,1.2-6.78.24-2.75.72-6.42,1.04-8.18.76-4.23.76-14.76.04-18.71-.32-1.64-.8-5.23-1.04-7.9-.24-2.91-.8-6.22-1.4-8.1-3.11-10.25-4.03-12.93-4.87-14.52-.52-.96-.92-2.07-.92-2.43,0-.64-2.35-5.47-4.87-9.97-.56-1-1.6-2.83-2.27-4.11-.72-1.24-1.44-2.27-1.6-2.27s-.68-.68-1.16-1.52c-1.6-2.83-7.06-9.34-12.25-14.6-4.35-4.43-9.53-8.66-16.16-13.21-3.95-2.67-14.24-7.94-17.95-9.18-1.2-.4-2.83-1.04-3.59-1.4-.76-.4-2.63-1-4.19-1.32-1.52-.36-3.55-.92-4.47-1.24-4.47-1.56-13.84-3.07-23.86-3.83-3.47-.24-26.37-.4-61.04-.36-51.07,0-55.65.08-58.09.68ZM434.84,466.06c5.94,1.16,12.85,3.03,14.92,4.11.96.48,2.47,1.12,3.39,1.44s2.27,1,3.03,1.52,2.47,1.6,3.79,2.43c4.35,2.79,11.09,8.86,13.36,12.01,3.63,5.07,7.02,10.81,7.54,12.81.24.92.64,1.8.8,1.91.56.32,2.71,7.26,3.27,10.57.72,3.95.72,17.63.04,21.34-.64,3.39-1.8,7.1-3.27,10.57-.6,1.44-1.24,3.03-1.4,3.51-.28.96-1.6,3.23-4.15,7.26-4.39,6.9-11.25,13.52-18.79,18.15-1.2.72-2.75,1.68-3.43,2.11-.72.44-2.23,1.12-3.39,1.48-1.16.4-2.67,1.04-3.39,1.48-.68.4-2.59,1-4.19,1.32-1.64.32-3.83.84-4.87,1.16-3.99,1.28-11.53,1.48-45.44,1.36-33.15-.12-33.39-.12-34.51-.96-.6-.44-1.52-1.44-1.99-2.15h0l-.92-1.32v-53.82c0-44.68.08-54.02.56-55.09.6-1.52,3.15-3.71,4.63-3.99.56-.12,16.52-.16,35.51-.12,33.15.08,34.67.12,38.9.92Z"/>
</svg>