<svg xmlns="http://www.w3.org/2000/svg" width="102" height="102" viewBox="0 0 102 102"><g transform="translate(-724 -758)"><g transform="translate(724 758)" fill="#fff" stroke="#707070" stroke-width="1"><rect width="102" height="102" rx="5" stroke="none"/><rect x="0.5" y="0.5" width="101" height="101" rx="4.5" fill="none"/></g><g transform="translate(735 793)"><path d="M347.156-40.78a.193.193,0,0,0-.113.1.989.989,0,0,1-.182.207c-.119.1-.7.648-1.244,1.175l-.567.533c-.36.332-.561.523-1.237,1.165-.464.439-.573.542-.893.84-.175.163-.395.37-.482.454-.21.21-1.3,1.234-1.554,1.469-.113.1-.351.326-.533.5s-.548.52-.814.771-.533.5-.592.564l-.583.548c-.257.241-.617.58-.8.752s-.476.451-.652.62a4.255,4.255,0,0,1-.417.354c-.094.047-.094.047-.3-.132-.116-.1-.238-.207-.273-.244s-.154-.144-.266-.238-.273-.238-.36-.316-.219-.2-.3-.263a2.45,2.45,0,0,1-.207-.182c-.038-.038-.157-.147-.266-.241s-.276-.244-.373-.332c-.166-.153-.955-.852-1.078-.952-.031-.025-.1-.091-.157-.141-.172-.16-.645-.589-.959-.861-.163-.144-.31-.279-.329-.3a3.939,3.939,0,0,0-.3-.263c-.147-.125-.294-.254-.329-.285-.163-.15-.952-.849-1.046-.924a.64.64,0,0,0-.207-.1c-.088-.025-1.432-.034-4.624-.034-4.392,0-4.5,0-4.574.06s-.075.063-.019.16a1.537,1.537,0,0,0,.188.219c.072.066.194.182.273.254s.31.3.517.5.68.655,1.053,1.018c.683.664,2.064,2,2.766,2.685.21.2.592.576.855.83.758.739,1.645,1.588,1.77,1.7a.753.753,0,0,0,.219.132c.063.016,1.256.028,2.954.028,1.667,0,2.869.013,2.895.028s.041.053.016.135-.154.222-.514.554c-.551.511-.789.736-1.585,1.494-.307.294-.865.818-1.234,1.159l-.755.7c-.128.125-.62.586-.949.893-.3.282-.426.4-.93.877-.144.138-.489.464-.764.72s-.529.495-.567.533-.238.226-.451.423l-.489.454c-.053.05-.273.257-.486.454s-.526.495-.7.658c-.777.736-.984.934-1.143,1.081-.094.085-.222.207-.285.266l-.486.454c-.2.188-.417.385-.47.439-.247.235-1.262,1.19-2.064,1.942-.26.241-.514.479-.567.533-.5.479-1.018.962-1.081,1.012-.116.094-.21.279-.16.329.028.028,1.369.041,6.074.047,3.321,0,6.08,0,6.134-.009.185-.031.354-.194,1.845-1.742.42-.439,1.811-1.873,2.114-2.187.147-.15.564-.583.924-.959,1.228-1.275,1.1-1.153,1.206-1.128a7.573,7.573,0,0,1,1.106,1.043c.554.561,1.143,1.156,1.306,1.319s.805.814,1.422,1.444c1.247,1.272,4.37,4.433,5.764,5.839.5.5,1.009,1.027,1.14,1.168h0l.235.26h6.882c5.31,0,6.888-.009,6.917-.038a.2.2,0,0,0,.038-.125c0-.069-.041-.116-.21-.244-.116-.088-.288-.232-.385-.323s-.238-.213-.31-.273-.169-.144-.219-.188c-.188-.166-.445-.385-.526-.448-.132-.1-.905-.758-1.137-.965-.113-.1-.451-.388-.752-.642s-.717-.611-.924-.789-.445-.388-.533-.46c-.561-.479-1.757-1.5-1.942-1.654-.119-.1-.26-.222-.313-.269-.122-.11-.714-.617-.865-.739-.066-.053-.313-.263-.551-.47s-.558-.482-.714-.611-.36-.3-.457-.388-.229-.2-.291-.254-.147-.122-.185-.16-.294-.254-.57-.482-.536-.448-.58-.486l-.266-.241c-.1-.094-.323-.282-.486-.417s-.323-.266-.351-.294-.107-.094-.172-.147c-.188-.157-1.3-1.112-1.363-1.168-.028-.028-.107-.094-.172-.15s-.417-.351-.78-.661-.727-.6-.808-.645h0l-.147-.081h-3.032c-2.9,0-3.035,0-3.082-.056a.178.178,0,0,1-.053-.1c0-.034.285-.332,1.582-1.654.36-.37.664-.686.677-.7s.32-.338.689-.711.955-.977,1.3-1.338.934-.965,1.3-1.338c.658-.67,2.049-2.1,2.234-2.3.053-.053.354-.367.673-.692,1.582-1.62,1.952-2,2.647-2.722.414-.429,1.078-1.112,1.475-1.516l1.206-1.237c.661-.683,1.657-1.707,2.306-2.368,1.181-1.206,1.2-1.228,1.2-1.347a.256.256,0,0,0-.038-.15c-.028-.028-1.106-.038-4.674-.034C349.314-40.8,347.2-40.787,347.156-40.78Z" transform="translate(-281.465 40.8)"/><path d="M105.038-3.469a3.155,3.155,0,0,0-.548.345c-.069.053-.194.144-.282.207-.147.1-.4.288-.642.47-.15.113-.583.432-.736.542-.069.05-.232.166-.36.26l-.439.32c-.222.16-.3.219-.67.495a2.936,2.936,0,0,1-.307.2c-.031.009-.056.028-.056.044a.953.953,0,0,1-.194.16,3.257,3.257,0,0,0-.32.238.611.611,0,0,1-.154.1A.432.432,0,0,0,100.2,0c-.056.05-.213.166-.345.26s-.294.213-.36.266-.2.147-.288.213-.335.244-.542.4-.417.307-.47.345c-.088.06-.229.16-.927.673-.141.1-.276.194-.294.2a1.158,1.158,0,0,0-.144.1c-.2.163-.457.36-.58.442-.138.094-.213.15-.548.4a2,2,0,0,1-.263.182.532.532,0,0,0-.128.085c-.107.091-.179.144-.592.448l-.329.241c-.044.034-.169.122-.282.2s-.254.182-.316.235-.222.172-.357.266-.285.207-.338.251-.157.119-.226.166-.182.128-.251.182c-.153.116-.279.2-.457.326-.119.081-.558.4-.937.689a6.244,6.244,0,0,1-.63.454.774.774,0,0,0-.147.1c-.072.056-.235.182-.367.276s-.3.226-.379.288a.819.819,0,0,1-.166.119,4.024,4.024,0,0,0-.583.46,2.061,2.061,0,0,0-.235.294h0l-.11.169L88.6,10.775c0,1.269,0,2.071.022,2.121a.2.2,0,0,0,.15.113c.081.025,2.24.034,6.888.034,6.259,0,6.776,0,6.813.053a11.108,11.108,0,0,1,.053,1.861h0l.006,1.811.1.078.1.081h3.806l.034-.078c.028-.063.038-2.487.038-9.786h0v-9.7l-.113-.216a1.172,1.172,0,0,0-.482-.514c-.166-.107-.179-.11-.533-.116A2.367,2.367,0,0,0,105.038-3.469ZM102.447,3.1a.593.593,0,0,1,.085.135c.063.119.063.191.063,3.054,0,3.151,0,3.061-.153,3.148-.081.041-7.932.044-8.079,0a.944.944,0,0,1-.226-.128c-.11-.088-.125-.116-.125-.232s.019-.147.119-.241a9.86,9.86,0,0,1,.811-.617q.611-.437.724-.526c.047-.034.194-.141.329-.235s.294-.21.36-.257.188-.135.273-.194.213-.15.282-.2.16-.119.2-.15.163-.119.266-.2c.323-.241.589-.432.833-.6.066-.044.2-.141.3-.219s.294-.219.429-.313.357-.257.5-.36.288-.213.332-.241l.351-.251c.15-.11.373-.269.495-.354s.3-.219.4-.3a5.591,5.591,0,0,1,.551-.392c.053-.034.179-.122.279-.2a1.734,1.734,0,0,1,.251-.163A.678.678,0,0,1,102.447,3.1Z" transform="translate(-88.597 9.478)"/><path d="M222.888-.349a1.124,1.124,0,0,0-.739.677h0l-.1.232.006,7.34.009,7.343.1.188a1.276,1.276,0,0,0,.645.608h0l.191.081h4.6c4.157,0,4.639-.006,4.965-.053.2-.028.451-.063.561-.075a1.913,1.913,0,0,0,.373-.078,2.847,2.847,0,0,1,.42-.091,1.526,1.526,0,0,0,.413-.107,1.463,1.463,0,0,1,.285-.1,4.439,4.439,0,0,0,.749-.294.676.676,0,0,1,.157-.066,1.216,1.216,0,0,0,.232-.113.453.453,0,0,1,.147-.075,9.148,9.148,0,0,0,1.187-.789,15.981,15.981,0,0,0,1.385-1.378c.132-.172.279-.385.495-.727a7.133,7.133,0,0,0,.52-1.018.517.517,0,0,1,.066-.175,6.272,6.272,0,0,0,.31-.908,2.194,2.194,0,0,1,.091-.3,2.477,2.477,0,0,0,.094-.533c.019-.216.056-.5.081-.642a6.231,6.231,0,0,0,0-1.469c-.025-.128-.063-.41-.081-.62a3.318,3.318,0,0,0-.11-.636,8.358,8.358,0,0,0-.382-1.14.621.621,0,0,1-.072-.191,5.2,5.2,0,0,0-.382-.783c-.044-.078-.125-.222-.179-.323a.7.7,0,0,0-.125-.179.336.336,0,0,1-.091-.119,7.812,7.812,0,0,0-.962-1.147A8.448,8.448,0,0,0,236.487.957a9.1,9.1,0,0,0-1.41-.72c-.094-.031-.222-.081-.282-.11a1.58,1.58,0,0,0-.329-.1c-.119-.028-.279-.072-.351-.1a8.941,8.941,0,0,0-1.873-.3c-.273-.019-2.071-.031-4.793-.028C223.44-.4,223.079-.4,222.888-.349Zm9.479,3.693a6.392,6.392,0,0,1,1.172.323,2.7,2.7,0,0,0,.266.113,1.209,1.209,0,0,1,.238.119c.06.041.194.125.3.191a5.119,5.119,0,0,1,1.049.943,4.932,4.932,0,0,1,.592,1.006.45.45,0,0,0,.063.15,3.5,3.5,0,0,1,.257.83,8.562,8.562,0,0,1,0,1.676,4.135,4.135,0,0,1-.257.83c-.047.113-.1.238-.11.276a3.6,3.6,0,0,1-.326.57,4.725,4.725,0,0,1-1.475,1.425c-.094.056-.216.132-.269.166a1.437,1.437,0,0,1-.266.116,1.683,1.683,0,0,0-.266.116,1.412,1.412,0,0,1-.329.1c-.128.025-.3.066-.382.091a17.953,17.953,0,0,1-3.568.107c-2.6-.009-2.622-.009-2.71-.075a.817.817,0,0,1-.157-.169h0l-.072-.1V7.921c0-3.508.006-4.241.044-4.326a.669.669,0,0,1,.363-.313c.044-.009,1.3-.013,2.788-.009A19.558,19.558,0,0,1,232.367,3.344Z" transform="translate(-200.624 6.888)"/></g></g></svg>