<svg width="102" height="102" viewBox="0 0 102 102" fill="none" xmlns="http://www.w3.org/2000/svg">
<rect x="0.5" y="0.5" width="101" height="101" rx="4.5" stroke="#707070"/>
<path d="M90.5277 19.403C90.3801 19.2362 90.2074 19.1167 90.0222 19.0529C89.837 18.9892 89.6438 18.9829 89.4566 19.0345C76.7952 22.5372 63.9141 24.312 51 24.3334C38.0859 24.312 25.2048 22.5372 12.5434 19.0345C12.3562 18.9829 12.163 18.9892 11.9778 19.0529C11.7925 19.1167 11.6199 19.2362 11.4723 19.403C11.3246 19.5697 11.2057 19.7796 11.124 20.0173C11.0423 20.2551 11 20.5148 11 20.7779V81.2221C11 81.4852 11.0423 81.7449 11.124 81.9827C11.2057 82.2204 11.3246 82.4303 11.4723 82.597C11.6199 82.7638 11.7925 82.8833 11.9778 82.9471C12.163 83.0108 12.3562 83.0171 12.5434 82.9655C25.2048 79.4628 38.0859 77.688 51 77.6666C63.9141 77.688 76.7952 79.4628 89.4566 82.9655C89.6438 83.0171 89.837 83.0108 90.0222 82.9471C90.2074 82.8833 90.3801 82.7638 90.5277 82.597C90.6754 82.4303 90.7943 82.2204 90.876 81.9827C90.9577 81.7449 91 81.4852 91 81.2221V20.7779C91 20.5148 90.9576 20.2551 90.876 20.0173C90.7943 19.7796 90.6754 19.5697 90.5277 19.403ZM88.4194 79.0622C76.0876 75.7884 63.5586 74.1306 51 74.1111C38.4414 74.1306 25.9124 75.7884 13.5806 79.0622V22.9378C25.9124 26.2116 38.4414 27.8694 51 27.8889C63.5586 27.8694 76.0876 26.2116 88.4194 22.9378V79.0622Z" fill="black"/>
<path d="M30.7063 56L34.1653 48.4395H29.6227V46.8014H36.2318V48.0237L32.7477 56H30.7063Z" fill="black"/>
<path d="M43.5529 51.3944C43.5529 53.0031 43.2883 54.1939 42.759 54.9668C42.234 55.7396 41.4233 56.126 40.3271 56.126C39.2644 56.126 38.4621 55.727 37.9203 54.929C37.3827 54.1309 37.1139 52.9527 37.1139 51.3944C37.1139 49.7689 37.3764 48.5718 37.9014 47.8032C38.4264 47.0303 39.235 46.6439 40.3271 46.6439C41.3897 46.6439 42.192 47.0471 42.7338 47.8536C43.2799 48.6601 43.5529 49.8403 43.5529 51.3944ZM39.0481 51.3944C39.0481 52.5243 39.1447 53.3349 39.3379 53.8264C39.5353 54.3136 39.865 54.5572 40.3271 54.5572C40.7807 54.5572 41.1083 54.3094 41.3099 53.8138C41.5115 53.3181 41.6123 52.5117 41.6123 51.3944C41.6123 50.2646 41.5094 49.4539 41.3036 48.9625C41.102 48.4668 40.7765 48.219 40.3271 48.219C39.8692 48.219 39.5416 48.4668 39.3442 48.9625C39.1468 49.4539 39.0481 50.2646 39.0481 51.3944Z" fill="black"/>
<path d="M54.6857 56H52.7641V51.8859C52.7641 51.3776 52.678 50.9975 52.5057 50.7455C52.3377 50.4893 52.071 50.3612 51.7056 50.3612C51.2142 50.3612 50.8571 50.5418 50.6345 50.903C50.4119 51.2642 50.3006 51.8586 50.3006 52.686V56H48.379V48.9562H49.847L50.1053 49.8571H50.2124C50.4014 49.5337 50.6744 49.2817 51.0315 49.1011C51.3885 48.9163 51.798 48.8239 52.26 48.8239C53.3143 48.8239 54.0283 49.1683 54.4022 49.8571H54.5723C54.7613 49.5295 55.0385 49.2754 55.4039 49.0948C55.7736 48.9142 56.1894 48.8239 56.6514 48.8239C57.4495 48.8239 58.0522 49.0297 58.4596 49.4413C58.8713 49.8487 59.0771 50.504 59.0771 51.407V56H57.1491V51.8859C57.1491 51.3776 57.063 50.9975 56.8908 50.7455C56.7228 50.4893 56.4561 50.3612 56.0907 50.3612C55.6202 50.3612 55.2674 50.5292 55.0322 50.8652C54.8012 51.2012 54.6857 51.7346 54.6857 52.4655V56Z" fill="black"/>
<path d="M67.3621 56H65.4405V51.8859C65.4405 51.3776 65.3544 50.9975 65.1822 50.7455C65.0141 50.4893 64.7474 50.3612 64.382 50.3612C63.8906 50.3612 63.5335 50.5418 63.3109 50.903C63.0883 51.2642 62.977 51.8586 62.977 52.686V56H61.0554V48.9562H62.5234L62.7817 49.8571H62.8888C63.0778 49.5337 63.3508 49.2817 63.7079 49.1011C64.0649 48.9163 64.4744 48.8239 64.9364 48.8239C65.9907 48.8239 66.7048 49.1683 67.0786 49.8571H67.2487C67.4377 49.5295 67.7149 49.2754 68.0803 49.0948C68.45 48.9142 68.8658 48.8239 69.3278 48.8239C70.1259 48.8239 70.7286 49.0297 71.136 49.4413C71.5477 49.8487 71.7535 50.504 71.7535 51.407V56H69.8256V51.8859C69.8256 51.3776 69.7394 50.9975 69.5672 50.7455C69.3992 50.4893 69.1325 50.3612 68.7671 50.3612C68.2967 50.3612 67.9438 50.5292 67.7086 50.8652C67.4776 51.2012 67.3621 51.7346 67.3621 52.4655V56Z" fill="black"/>
</svg>
