<?xml version="1.0" encoding="UTF-8"?>
<svg id="Layer_1" data-name="Layer 1" xmlns="http://www.w3.org/2000/svg" viewBox="0 0 1080 1080">
  <path d="M380.51,353.79h318.97c7.52-.02,13.62-6.12,13.64-13.64v-50.19c-.02-7.52-6.12-13.62-13.64-13.64h-318.97c-7.52.02-13.62,6.12-13.64,13.64v50.19c.02,7.52,6.12,13.62,13.64,13.64ZM584.83,315.06c-.07,5.02-4.2,9.03-9.23,8.96-4.92-.07-8.89-4.04-8.96-8.96.08-5.02,4.21-9.03,9.23-8.96,4.91.07,8.88,4.04,8.96,8.96h0ZM549.09,315.06c-.08,5.02-4.21,9.03-9.23,8.96-4.92-.07-8.88-4.04-8.96-8.96.08-5.02,4.21-9.03,9.23-8.95,4.91.08,8.88,4.04,8.95,8.95h0ZM504.27,305.96c5.02.07,9.04,4.19,8.97,9.21-.07,4.93-4.04,8.91-8.97,8.97-5.02-.14-8.98-4.32-8.84-9.34.13-4.83,4.01-8.71,8.84-8.84Z"/>
  <path d="M339.87,653.92v42.83c-.01,13.69,11.08,24.81,24.77,24.82.02,0,.03,0,.05,0h350.62c13.69.01,24.81-11.08,24.82-24.77,0-.02,0-.03,0-.05v-42.83h-400.26Z"/>
  <path d="M733.77,635.74l-46.37-54.1c-2.15-2.47-3.31-5.64-3.27-8.91v-200.75h-288.24v200.75c.04,3.27-1.13,6.44-3.27,8.91l-46.37,54.1h387.53ZM502.54,579v22.91c-.02,5.02-4.1,9.08-9.12,9.06-5-.02-9.05-4.06-9.06-9.06v-22.91c-15.01-3.41-26.83-14.98-30.55-29.91-.63-2.23-1.03-4.51-1.18-6.82h-10.55c-4.29-.04-7.74-3.53-7.73-7.82v-121.93c-.04-4.28,3.39-7.78,7.66-7.82.02,0,.04,0,.06,0h195.86c4.28,0,7.74,3.48,7.73,7.76,0,.02,0,.04,0,.06v121.93c.01,4.29-3.44,7.78-7.73,7.82h-103.66c-1.45,17.85-14.28,32.71-31.73,36.73h0ZM560.46,611h-15.37c-5.02-.07-9.04-4.19-8.97-9.21.07-4.93,4.04-8.91,8.97-8.97h15.37c5.02.08,9.03,4.22,8.94,9.24-.08,4.91-4.04,8.86-8.94,8.94h0ZM611.38,611h-15.37c-5.02-.07-9.04-4.19-8.97-9.21.07-4.93,4.04-8.91,8.97-8.97h15.37c5.02,0,9.1,4.07,9.1,9.09s-4.07,9.1-9.1,9.1h0s0,0,0,0Z"/>
  <path d="M493.45,516.44c-12.55.13-22.63,10.41-22.5,22.96.13,12.38,10.13,22.38,22.5,22.5,12.55-.22,22.55-10.58,22.33-23.13-.21-12.24-10.09-22.12-22.33-22.33Z"/>
  <path d="M372.33,739.76l6.46,51.92c.82,6.82,6.59,11.96,13.46,12h295.51c6.87-.04,12.64-5.18,13.46-12l6.46-51.92h-335.34Z"/>
</svg>