<?xml version="1.0" encoding="UTF-8"?>
<svg id="Layer_1" data-name="Layer 1" xmlns="http://www.w3.org/2000/svg" viewBox="0 0 1080 1080">
  <path d="M497.33,283.96c-52.82,0-103.47,20.98-140.81,58.33-37.35,37.35-58.33,88-58.33,140.81,0,7.54,3,14.78,8.33,20.12,5.34,5.34,12.57,8.33,20.12,8.33s14.78-3,20.12-8.33,8.33-12.57,8.33-20.12c0-37.73,14.99-73.91,41.66-100.58,26.68-26.68,62.86-41.66,100.58-41.66s73.91,14.99,100.58,41.66c26.68,26.68,41.66,62.86,41.66,100.58-.09,25.74-7.06,50.98-20.2,73.11l-101.28,211.37c-4.99,8.64-12.16,15.82-20.8,20.81-8.64,4.99-18.44,7.63-28.42,7.64-15.09,0-29.56-5.99-40.23-16.66-10.67-10.67-16.66-25.14-16.66-40.23,0-7.55-3-14.78-8.33-20.12s-12.57-8.33-20.12-8.33-14.78,3-20.12,8.33-8.33,12.57-8.33,20.12c0,30.18,11.99,59.12,33.33,80.46,21.34,21.34,50.28,33.33,80.46,33.33,20.35-.02,40.31-5.49,57.83-15.85,17.51-10.36,31.93-25.22,41.74-43.04l101.28-211.37c17.59-30.23,26.82-64.6,26.74-99.57,0-52.82-20.98-103.47-58.33-140.81-37.35-37.35-88-58.33-140.81-58.33ZM298.19,625.35c-5.63,0-11.13,1.67-15.81,4.79-4.68,3.13-8.32,7.57-10.48,12.77-2.15,5.2-2.72,10.92-1.62,16.44,1.1,5.52,3.81,10.59,7.79,14.57,3.98,3.98,9.05,6.69,14.57,7.79,5.52,1.1,11.24.53,16.44-1.62,5.2-2.15,9.64-5.8,12.77-10.48,3.13-4.68,4.79-10.18,4.79-15.8,0-7.55-3-14.78-8.33-20.12-5.34-5.34-12.57-8.33-20.12-8.33ZM684.8,232.76c-2.99-2.24-6.39-3.87-10.01-4.8-3.62-.93-7.39-1.13-11.08-.6s-7.26,1.78-10.47,3.68-6.02,4.42-8.26,7.41c-2.24,2.99-3.87,6.39-4.8,10.01s-1.13,7.39-.6,11.08c.53,3.7,1.78,7.26,3.68,10.47,1.9,3.21,4.42,6.02,7.41,8.26,31.85,23.82,57.72,54.73,75.54,90.29,17.83,35.55,27.12,74.77,27.16,114.54,0,7.54,3,14.78,8.33,20.12,5.34,5.34,12.57,8.33,20.12,8.33s14.78-3,20.12-8.33,8.33-12.57,8.33-20.12c-.16-48.58-11.58-96.47-33.34-139.9-21.77-43.43-53.29-81.24-92.11-110.45ZM497.33,454.65c7.54,0,14.78,3,20.12,8.33,5.34,5.34,8.33,12.57,8.33,20.12s3,14.78,8.33,20.12,12.57,8.33,20.12,8.33,14.78-3,20.12-8.33c5.34-5.34,8.33-12.57,8.33-20.12,0-22.64-8.99-44.34-25-60.35-16.01-16.01-37.71-25-60.35-25s-44.34,8.99-60.35,25c-16.01,16.01-25,37.71-25,60.35-.04,17.02,5.01,33.66,14.51,47.79,3.92,5.56,8.4,10.71,13.37,15.36l5.69,6.26c3.12,4.67,4.78,10.17,4.78,15.79s-1.66,11.11-4.78,15.79c-4.29,6.19-5.95,13.83-4.62,21.24,1.33,7.41,5.55,13.99,11.73,18.3,4.76,3.32,10.41,5.11,16.22,5.12,4.59,0,9.1-1.12,13.17-3.25,4.06-2.13,7.55-5.21,10.16-8.98,9.72-14.2,14.93-31.01,14.93-48.22s-5.2-34.02-14.93-48.22c-2.99-4.24-6.32-8.24-9.96-11.95l-3.98-3.98c-1.66-1.57-3.19-3.28-4.55-5.12-3.17-4.71-4.85-10.26-4.84-15.93,0-7.55,3-14.78,8.33-20.12,5.34-5.34,12.57-8.33,20.12-8.33ZM383.53,625.35c5.63,0,11.13-1.67,15.81-4.79,4.68-3.13,8.32-7.57,10.48-12.77,2.15-5.2,2.72-10.92,1.62-16.44-1.1-5.52-3.81-10.59-7.78-14.57-3.98-3.98-9.05-6.69-14.57-7.78-5.52-1.1-11.24-.53-16.44,1.62-5.2,2.15-9.64,5.8-12.77,10.48-3.13,4.68-4.79,10.18-4.79,15.81,0,7.54,3,14.78,8.33,20.12,5.34,5.34,12.57,8.33,20.12,8.33Z"/>
</svg>