<svg width="102" height="102" viewBox="0 0 102 102" fill="none" xmlns="http://www.w3.org/2000/svg">
<rect x="0.5" y="0.5" width="101" height="101" rx="4.5" stroke="#707070"/>
<g clip-path="url(#clip0_1139_371)">
<path d="M89.6661 47H70.9996C70.2633 47 69.6663 47.597 69.6663 48.3334V60.3333C69.6721 64.6763 72.3082 68.5832 76.3329 70.2147V79.8507L69.9755 87.4789C69.6435 87.876 69.5719 88.4294 69.7913 88.8988C70.0107 89.3675 70.482 89.667 70.9996 89.6664H89.6661C90.1837 89.667 90.655 89.3675 90.8744 88.8988C91.0938 88.4294 91.0222 87.876 90.6902 87.4789L84.3328 79.8507V70.2147C88.3575 68.5832 90.9936 64.6763 90.9994 60.3333V48.3334C90.9994 47.597 90.4024 47 89.6661 47ZM88.3328 49.6667V56.3333H72.3329V49.6667H88.3328ZM81.9754 81.1879L86.8198 86.9997H73.8459L78.6903 81.1879C78.8902 80.9483 78.9995 80.6456 78.9995 80.3331V70.9081C79.8843 71.0311 80.7814 71.0311 81.6662 70.9081V80.3331C81.6662 80.6456 81.7756 80.9483 81.9754 81.1879ZM88.3328 60.3333C88.3328 64.7518 84.7508 68.3332 80.3329 68.3332C75.9149 68.3332 72.3329 64.7518 72.3329 60.3333V58.9999H88.3328V60.3333Z" fill="black"/>
<path d="M65.6662 60.3333C66.4026 60.3333 66.9996 59.7369 66.9996 58.9999C66.9996 58.2636 66.4026 57.6666 65.6662 57.6666C61.9846 57.6666 58.9996 60.6516 58.9996 64.3332C58.9996 68.0155 61.9846 70.9999 65.6662 70.9999C66.4026 70.9999 66.9996 70.4035 66.9996 69.6665C66.9996 68.9302 66.4026 68.3332 65.6662 68.3332C63.4573 68.3332 61.6663 66.5429 61.6663 64.3332C61.6663 62.1243 63.4573 60.3333 65.6662 60.3333Z" fill="black"/>
<path d="M65.6662 86.9997H54.9997V76.3331H70.9995C71.7359 76.3331 72.3329 75.7368 72.3329 74.9998C72.3329 74.2635 71.7359 73.6665 70.9995 73.6665H54.9997V55H65.6662C66.4026 55 66.9996 54.4036 66.9996 53.6667C66.9996 52.9303 66.4026 52.3333 65.6662 52.3333H54.9997V47C54.9997 44.0547 57.3877 41.6667 60.3329 41.6667H73.6662C74.4025 41.6667 74.9995 41.0704 74.9995 40.3334C74.9995 39.5971 74.4025 39.0001 73.6662 39.0001H70.9995V25.6669C72.4722 25.6669 73.6662 24.4735 73.6662 23.0002V15.0003C73.6662 13.5276 72.4722 12.3336 70.9995 12.3336H60.3329C58.8603 12.3336 57.6663 13.5276 57.6663 15.0003V23.0002C57.6663 24.4735 58.8603 25.6669 60.3329 25.6669V39.0001C55.9163 39.0047 52.3376 42.5841 52.333 47V88.3331C52.333 89.07 52.93 89.6664 53.6663 89.6664H65.6662C66.4026 89.6664 66.9996 89.07 66.9996 88.3331C66.9996 87.5967 66.4026 86.9997 65.6662 86.9997ZM60.3329 15.0003H70.9995V23.0002H60.3329V15.0003ZM62.9996 25.6669H68.3329V39.0001H62.9996V25.6669Z" fill="black"/>
<path d="M24.3332 68.3332C25.0695 68.3332 25.6665 67.7369 25.6665 66.9999C25.6665 66.2636 25.0695 65.6666 24.3332 65.6666H17.6666C16.9303 65.6666 16.3333 66.2636 16.3333 66.9999V76.3331C16.3333 77.0701 16.9303 77.6665 17.6666 77.6665H24.3332C25.0695 77.6665 25.6665 77.0701 25.6665 76.3331V72.3332C25.6665 71.5969 25.0695 70.9999 24.3332 70.9999C23.5969 70.9999 22.9999 71.5969 22.9999 72.3332V74.9998H18.9999V68.3332H24.3332Z" fill="black"/>
<path d="M30.9998 66.9999C30.2635 66.9999 29.6665 67.5969 29.6665 68.3332V81.6664C29.6665 82.4034 30.2635 82.9998 30.9998 82.9998C31.7361 82.9998 32.3332 82.4034 32.3332 81.6664V68.3332C32.3332 67.5969 31.7361 66.9999 30.9998 66.9999Z" fill="black"/>
<path d="M36.3331 72.3332C35.5968 72.3332 34.9998 72.9302 34.9998 73.6665V78.9998C34.9998 79.7367 35.5968 80.3331 36.3331 80.3331C37.0694 80.3331 37.6664 79.7367 37.6664 78.9998V73.6665C37.6664 72.9302 37.0694 72.3332 36.3331 72.3332Z" fill="black"/>
<path d="M41.6665 69.6665C40.9301 69.6665 40.3331 70.2635 40.3331 70.9999V81.6664C40.3331 82.4034 40.9301 82.9998 41.6665 82.9998C42.4028 82.9998 42.9998 82.4034 42.9998 81.6664V70.9999C42.9998 70.2635 42.4028 69.6665 41.6665 69.6665Z" fill="black"/>
<path d="M23.6132 58.7896C24.0077 59.0449 24.5077 59.0735 24.9283 58.8652C25.3495 58.6568 25.6301 58.2421 25.6665 57.7734C25.6737 57.7161 25.6776 57.6581 25.6783 57.6002C25.6789 56.9667 25.233 56.4205 24.6119 56.2936C23.6073 56.0898 22.9192 55.1588 23.0194 54.1386C23.119 53.1185 23.9745 52.3385 24.9999 52.3333C25.7115 52.3346 26.3684 52.7181 26.7186 53.3379C27.0422 53.8912 27.7147 54.136 28.3182 53.9205C28.731 53.7662 29.1665 53.681 29.6066 53.6666C29.6515 53.6666 29.6958 53.6738 29.7316 53.6738C30.3944 53.6731 30.9562 53.1855 31.0506 52.5299C31.2505 51.071 32.3892 49.9193 33.8455 49.7031C35.3019 49.487 36.7264 50.2585 37.3409 51.5963C37.5349 52.041 37.9542 52.345 38.4373 52.3913C38.9197 52.4375 39.3891 52.2174 39.6632 51.8177C39.9373 51.418 39.9731 50.9004 39.7556 50.4668C38.7276 48.2448 36.4471 46.8744 34.0018 47.0104C31.5571 47.1459 29.4426 48.7604 28.6665 51.0827C28.5721 51.0989 28.4758 51.1178 28.3801 51.1374C27.0396 49.7064 24.9472 49.2656 23.1431 50.0345C21.3391 50.8034 20.2089 52.6185 20.3137 54.5768C20.4185 56.5351 21.7362 58.2187 23.6119 58.7909L23.6132 58.7896Z" fill="black"/>
<path d="M44.3331 52.3333C43.6365 52.332 42.9464 52.4681 42.3025 52.7337C41.6215 53.0143 41.2973 53.7942 41.5785 54.4752C41.8591 55.1556 42.6391 55.4798 43.3201 55.1992C43.641 55.0664 43.9854 54.9993 44.3331 55C45.8057 55 46.9997 56.194 46.9997 57.6666C46.9997 59.1399 45.8057 60.3333 44.3331 60.3333C42.8604 60.3333 41.6664 59.1399 41.6664 57.6666C41.6664 56.9303 41.0694 56.3333 40.3331 56.3333C39.5968 56.3333 38.9998 56.9303 38.9998 57.6666V64.3332C38.9998 65.0702 38.4028 65.6666 37.6665 65.6666C36.9301 65.6666 36.3331 65.0702 36.3331 64.3332V60.9843C36.3331 60.4791 36.048 60.0175 35.5962 59.7916C35.1443 59.5657 34.604 59.6145 34.1997 59.9172C33.8559 60.1829 33.4341 60.3281 32.9998 60.3294C32.0493 60.33 31.2297 59.6607 31.0396 58.7298C30.8807 58.1022 30.3143 57.6634 29.6665 57.6666C28.9302 57.6666 28.3332 58.2636 28.3332 58.9999V61.6666C28.3332 62.4036 27.7362 62.9999 26.9999 62.9999C26.2636 62.9999 25.6666 62.4036 25.6666 61.6666C25.6666 60.9303 25.0696 60.3333 24.3332 60.3333H17.6666C13.9863 60.3378 11.0046 63.3202 11 66.9999V76.3331C11.0046 80.0134 13.9863 82.9958 17.6666 82.9998H22.9999C23.0045 86.6801 25.9862 89.6625 29.6665 89.6664H42.9998C46.6801 89.6625 49.6618 86.6801 49.6664 82.9998V57.6666C49.6664 54.7213 47.2784 52.3333 44.3331 52.3333ZM42.9998 86.9997H29.6665C27.4576 86.9997 25.6666 85.2094 25.6666 82.9998V81.6664C25.6666 80.9301 25.0696 80.3331 24.3332 80.3331H17.6666C15.4576 80.3331 13.6666 78.5428 13.6666 76.3331V66.9999C13.6666 64.7909 15.4576 62.9999 17.6666 62.9999H23.2453C23.8378 64.688 25.4817 65.7746 27.2668 65.6587C29.0513 65.5435 30.5415 64.2538 30.912 62.5045C31.7629 62.9302 32.7238 63.0865 33.6665 62.9524V64.3332C33.6665 66.5428 35.4575 68.3332 37.6665 68.3332C39.8754 68.3332 41.6664 66.5428 41.6664 64.3332V62.2844C43.3162 63.248 45.3591 63.2382 46.9997 62.259V82.9998C46.9997 85.2094 45.2087 86.9997 42.9998 86.9997Z" fill="black"/>
</g>
<defs>
<clipPath id="clip0_1139_371">
<rect width="80" height="80" fill="white" transform="translate(11 11)"/>
</clipPath>
</defs>
</svg>
