<?xml version="1.0" encoding="UTF-8"?>
<svg id="Layer_1" data-name="Layer 1" xmlns="http://www.w3.org/2000/svg" viewBox="0 0 1080 1080">
  <path d="M750.07,402.75h-146.38c-6.03,0-11.07,4.59-11.63,10.6l-20.71,222.09c0,47.14,47.24,85.37,105.52,85.37s105.52-38.22,105.52-85.37l-20.71-222.09c-.55-6.01-5.59-10.6-11.62-10.6h0ZM617.87,505.59l6.39-68.58h105.24l6.39,68.58h-118.03Z"/>
  <path d="M718.65,825.63h-7.51c-9.46,0-17.13-7.67-17.13-17.13v-54.43c-12.64,1.33-21.8,1.31-34.26,0v54.43c0,9.46-7.67,17.13-17.13,17.13h-7.51c-9.46,0-17.13,7.67-17.13,17.13s7.67,17.13,17.13,17.13h83.53c9.46,0,17.13-7.67,17.13-17.13s-7.67-17.13-17.13-17.13Z"/>
  <path d="M377.4,701.93c0,33.64,21.06,57.1,39.97,57.1s39.97-23.45,39.97-57.1-21.06-57.1-39.97-57.1-39.97,23.45-39.97,57.1Z"/>
  <path d="M445.4,220.11c15.26,0,23.17,18.77,11.6,29.56,8.54,102.32,8.19,118.45,19.03,153.08l49.27,166.31c7.82,24.98,11.8,51,11.8,77.18v38.56h-46.93c-6.55-42.2-36.66-74.22-72.82-74.22s-66.27,32.03-72.82,74.22h-46.93v-38.56c0-26.18,3.98-52.2,11.8-77.18l49.27-166.31c10.73-34.27,10.34-48.99,19.03-153.08-11.56-10.79-3.65-29.56,11.61-29.56h56.08Z"/>
  <path d="M490.18,719.06c-6.55,42.2-36.66,74.22-72.82,74.22s-66.27-32.03-72.82-74.22h-46.94v94.74c0,25.46,22.4,46.09,50.03,46.09h139.43c27.63,0,50.03-20.64,50.03-46.09v-94.74h-46.92Z"/>
</svg>