<?xml version="1.0" encoding="UTF-8"?>
<svg id="Layer_1" data-name="Layer 1" xmlns="http://www.w3.org/2000/svg" viewBox="0 0 1080 1080">
  <g id="Line">
    <path d="M719.3,493.19c-9.02-29.25-6.17-57.64-6.1-58.51h-65.53c1.76,19.78-.35,39.67-6.2,58.51h77.83Z"/>
    <path d="M633.64,329.37c0,41.52,10.18,81.91,10.18,81.91h73.25s10.17-37.06,10.17-81.91c0-25.81-20.99-46.81-46.8-46.81s-46.81,21.57-46.81,46.81h0Z"/>
    <path d="M598.54,651.28c0,78.38,37.42,141.52,38.15,142.32,2.2,2.39,5.32,3.84,8.66,3.84h70.2c6.75,0,9.91-5.36,10.48-6.53,0,0,36.28-57.91,36.28-139.66,0-76.14-33.68-134.65-33.68-134.65h-96.39s-33.7,58.51-33.7,134.69h0Z"/>
    <path d="M516.63,797.44c30.1,0,59.3-6.87,86-19.75-17.93-39.55-27.6-82.95-27.49-126.4.16-63.15,16.73-105.19,41.78-158.09,6.52-13.76,9.61-41.06,6.76-61.98-31.69-20.31-68.69-31.63-107.05-31.63-109.69,0-198.93,89.24-198.93,198.93s89.24,198.93,198.93,198.93ZM475.67,469.79c9.68,0,17.55,7.88,17.55,17.55s-7.88,17.55-17.55,17.55-17.55-7.88-17.55-17.55,7.88-17.55,17.55-17.55ZM475.67,540c9.68,0,17.55,7.88,17.55,17.55s-7.88,17.55-17.55,17.55-17.55-7.88-17.55-17.55,7.88-17.55,17.55-17.55ZM428.86,504.89c9.68,0,17.55,7.88,17.55,17.55s-7.88,17.55-17.55,17.55-17.55-7.88-17.55-17.55,7.88-17.55,17.55-17.55Z"/>
  </g>
</svg>