<?xml version="1.0" encoding="UTF-8"?>
<svg id="Layer_1" data-name="Layer 1" xmlns="http://www.w3.org/2000/svg" viewBox="0 0 1080 1080">
  <path d="M257.02,480.06c-13.85-9.24-37.91-13.85-74.37-13.85H55.79l-16.77,152.38h129.05c40.83,0,67.32-5.59,80.93-16.77,13.37-10.69,19.93-21.14,26.25-71.45,3.16-24.06-3.65-40.59-18.23-50.31M203.8,578.49c-4.37,3.65-15.31,8.02-42.29,8.02h-62.7c1.46-8.75,9.48-81.66,10.21-88.22h66.35c26.98,0,35.73,4.37,37.91,6.56,12.64,12.39.73,65.13-9.48,73.64M787.56,478.6c-13.37-9.24-41.56-13.85-88.22-13.85-52.49,0-85.06,4.62-99.89,13.85-15.31,9.72-25.03,24.06-29.16,67.81-3.16,31.35,2.19,50.31,16.04,59.79,13.12,8.75,42.29,13.12,88.95,13.12,51.04,0,83.85-4.37,98.43-13.12,15.31-9.24,25.03-30.62,29.16-65.62,3.89-32.08-1.46-52.25-15.31-61.97M745.27,541.3c-3.16,29.16-8.51,36.45-11.67,39.37-2.92,2.92-13.85,6.56-51.04,6.56s-48.61-2.92-51.77-5.83c-1.94-1.7-6.32-7.29-3.65-32.81,3.89-35.73,8.99-42.77,11.67-45.2,2.67-2.43,13.85-6.56,53.95-6.56s48.85,4.37,51.04,5.83c2.43,1.46,4.86,7.29,1.46,38.64M1042.74,465.48h-68.53l-53.95,48.12-43.02-47.39h-68.53l70.72,74.37-94.05,77.28h69.99l59.06-50.31,47.39,50.31h69.99l-76.55-78.01,87.49-74.37ZM547.93,501.93c0-13.12-5.1-21.87-14.58-27.71-10.94-5.83-30.62-8.02-60.51-8.02h-126.13l-7.29,59.06h-29.16l-28.43,29.89h54.68l-7.29,63.43h134.15c28.43,0,48.12-3.4,60.51-9.48,15.31-7.29,22.6-23.09,22.6-39.37,0-15.31-10.45-25.52-24.06-30.62,17.01-6.56,25.52-19.44,25.52-37.18M483.77,523.08c-3.65,1.7-12.39,2.92-35,2.92h-21.87l-26.25,29.16h48.85c26.25,0,34.51,1.7,37.18,2.92,1.46.49,4.62,2.19,3.65,11.67-.49,6.56-3.65,11.18-7.29,13.12-2.92,1.46-9.72,3.89-28.68,3.65-21.87,0-43.5-.24-65.38-.24,3.16-29.16,6.08-59.06,10.21-88.22h62.7c19.44,0,28.92,1.94,28.43,9.24-.24,6.08-.73,12.88-6.56,15.8"/>
</svg>