<?xml version="1.0" encoding="UTF-8"?>
<svg id="Layer_1" data-name="Layer 1" xmlns="http://www.w3.org/2000/svg" viewBox="0 0 1080 1080">
  <defs>
    <style>
      .cls-1 {
        fill: #1a1a1a;
        fill-rule: evenodd;
      }
    </style>
  </defs>
  <path class="cls-1" d="M280.64,918.07l55.03-22.85c6.44-2.61,9.54-9.94,6.93-16.37-.03-.07-.06-.15-.09-.22l-93.15-223.67c-2.7-6.46-10.13-9.52-16.6-6.84l-55,22.84c-6.35,2.38-9.57,9.47-7.19,15.82.11.3.24.6.37.89l93.1,223.56c2.7,6.46,10.13,9.52,16.6,6.84h0ZM358.48,485.1h497.23c-6.63-132.3-116.08-236.22-248.61-236.22s-241.98,103.91-248.61,236.22h0ZM885.3,506.68H328.88c-13.49-.26-24.64,10.46-24.91,23.96-.26,13.49,10.46,24.64,23.96,24.91.32,0,.63,0,.95,0h556.43c13.49.26,24.64-10.46,24.91-23.96.26-13.49-10.46-24.64-23.96-24.91-.32,0-.63,0-.95,0h0ZM578.48,228.8c19.02-2,38.2-2,57.22,0,9.12-15.8,3.71-36.01-12.1-45.13-15.8-9.12-36.01-3.71-45.13,12.1-5.9,10.22-5.9,22.81,0,33.03ZM652.88,723.77c-5.46,20.19-26.22,32.17-46.43,26.79l-137.86-36.94c-5.75-1.54-11.66,1.88-13.19,7.63-1.54,5.75,1.88,11.66,7.63,13.19l137.27,36.77c31.22,8.37,64.57-11.38,73.22-41.23,1.8-6.88,2.47-14.02,1.97-21.12l143.92-42.22c23.8-6.98,78.43-18.43,88.83,15.27,7.2,23.34-10.73,52.12-32.46,60.5l-214.72,82.74c-30.96,11.92-75.08,31.01-108.04,21.44l-114.4-33.22c-18.54-5.67-38.54-3.97-55.86,4.74l-35.03,17.04-64.54-154.98c27.97-13.21,55.85-26.58,83.64-40.11,26.97-13.19,48.97-23.09,71.67-23.68,22.56-.58,47.18,7.96,80.39,31.51,1.04.75,2.21,1.31,3.46,1.64l103.74,27.8c20.19,5.46,32.17,26.22,26.79,46.44h0Z"/>
</svg>