<?xml version="1.0" encoding="UTF-8"?>
<svg id="Layer_1" data-name="Layer 1" xmlns="http://www.w3.org/2000/svg" viewBox="0 0 1080 1080">
  <path d="M540,465.65c0-106.18-48.47-192.27-108.15-192.27s-108.15,86.09-108.15,192.27c0,46.21,29.13,85.36,69.89,100.83l-9.81,235.64c0,26.55,21.52,48.07,48.07,48.07s48.07-21.52,48.07-48.07l-9.81-235.62c40.8-15.49,69.89-54.64,69.89-100.85Z"/>
  <path d="M756.3,447.63l-6.01-174.25h-30.04l-6.01,174.25h-24.04l-6.01-174.25h-36.05l-6.01,174.25h-24.04l-6.01-174.25h-30.04l-6.01,174.25c0,36.66,21.97,68.06,53.42,82.14l-11.36,272.35c0,26.55,21.52,48.07,48.07,48.07s48.07-21.52,48.07-48.07l-11.36-272.35c31.45-14.09,53.42-45.49,53.42-82.14Z"/>
</svg>