<svg xmlns="http://www.w3.org/2000/svg" width="102" height="102" viewBox="0 0 102 102"><g transform="translate(-478 -758)"><g transform="translate(478 758)" fill="#fff" stroke="#707070" stroke-width="1"><rect width="102" height="102" rx="5" stroke="none"/><rect x="0.5" y="0.5" width="101" height="101" rx="4.5" fill="none"/></g><g transform="translate(18140 17520)"><rect width="80" height="80" transform="translate(-17651 -16751)" fill="none"/><g transform="translate(-17651 -16749.566)"><g transform="translate(15.311 12.444)"><path d="M38.441,62.187A24.936,24.936,0,1,1,63.389,37.251,24.965,24.965,0,0,1,38.441,62.187Zm0-47.463A22.527,22.527,0,1,0,60.98,37.251,22.552,22.552,0,0,0,38.441,14.724Z" transform="translate(-13.505 -12.315)"/></g><g transform="translate(23.016 20.147)"><path d="M37.134,53.176A17.233,17.233,0,1,1,54.375,35.943,17.253,17.253,0,0,1,37.134,53.176Zm0-32.057A14.824,14.824,0,1,0,51.966,35.943,14.841,14.841,0,0,0,37.134,21.119Z" transform="translate(-19.901 -18.709)"/></g><g transform="translate(0 0.386)"><path d="M9.131,79.052a4.248,4.248,0,0,1-4.252-4.307L5.46,26.959a6.11,6.11,0,0,0-2.443-4.77A5.915,5.915,0,0,1,.795,17.556V3.51a1.2,1.2,0,0,1,2.409,0V17.556a3.519,3.519,0,0,0,1.322,2.755,8.5,8.5,0,0,1,3.343,6.676l-.581,47.79a1.824,1.824,0,0,0,.528,1.316,1.9,1.9,0,0,0,2.631,0,1.847,1.847,0,0,0,.539-1.323L10.394,26.99a8.495,8.495,0,0,1,3.343-6.678,3.521,3.521,0,0,0,1.321-2.755V3.51a1.2,1.2,0,0,1,2.409,0V17.556a5.922,5.922,0,0,1-2.22,4.633,6.1,6.1,0,0,0-2.443,4.77L13.4,74.748a4.267,4.267,0,0,1-4.264,4.3Z" transform="translate(-0.795 -2.305)"/></g><g transform="translate(7.132 0.105)"><path d="M7.92,16.82a1.2,1.2,0,0,1-1.2-1.2V3.276a1.2,1.2,0,1,1,2.409,0V15.616A1.2,1.2,0,0,1,7.92,16.82Z" transform="translate(-6.715 -2.072)"/></g><g transform="translate(68.087 0)"><path d="M64.96,79.117a4.272,4.272,0,0,1-4.284-4.275V48.393a4.883,4.883,0,0,0-1.349-3.377,7.358,7.358,0,0,1-2.008-5.256l.845-28.238a9.828,9.828,0,0,1,9.86-9.536,1.2,1.2,0,0,1,1.2,1.2V74.67A4.406,4.406,0,0,1,65.384,79.1q-.213.021-.425.021Zm1.86-74.627A7.424,7.424,0,0,0,60.572,11.6l-.845,28.234a4.936,4.936,0,0,0,1.346,3.524,7.279,7.279,0,0,1,2.011,5.036V74.842A1.864,1.864,0,0,0,65.147,76.7a1.98,1.98,0,0,0,1.672-2.028Z" transform="translate(-57.316 -1.985)"/></g></g></g></g></svg>