<?xml version="1.0" encoding="UTF-8"?>
<svg id="Layer_1" data-name="Layer 1" xmlns="http://www.w3.org/2000/svg" viewBox="0 0 1080 1080">
  <defs>
    <style>
      .cls-1 {
        fill: #1a1a1a;
      }
    </style>
  </defs>
  <path class="cls-1" d="M40.09,560.67v-194.42c30.54-.63,58.97-.41,84.69,17.87,51.92,36.89,55.98,112.05,7.45,153.65-27.2,23.32-57.65,24.2-92.14,22.9Z"/>
  <path class="cls-1" d="M691.98,493.7c0,37.21-30.22,67.38-67.5,67.38s-67.5-30.17-67.5-67.38,30.22-67.38,67.5-67.38,67.5,30.17,67.5,67.38ZM664.42,493.43c0-22.02-17.88-39.87-39.94-39.87s-39.94,17.85-39.94,39.87,17.88,39.87,39.94,39.87,39.94-17.85,39.94-39.87Z"/>
  <path class="cls-1" d="M317.12,366.25v194.42h-44.26c-2.42,0-18.02-5.44-21.33-6.78-73.76-29.81-82.2-129.43-15.55-172.48,24.5-15.82,52.87-15.91,81.15-15.16Z"/>
  <path class="cls-1" d="M375.45,560.67v-194.42c21.98.75,44.21-.99,66.18-.04,11.16.48,22.94,1.54,33.58,4.94,72.62,23.21,90.9,117.97,32.52,167.18-38.73,32.65-85.53,19.89-132.28,22.34ZM405.65,531.56c22.71-3,44.45,2.89,65.99-6.39,39.55-17.03,52.88-65.31,28.2-100.63-9.97-14.27-33.29-28.14-50.96-28.14h-43.22v135.16Z"/>
  <path class="cls-1" d="M1006.59,426.55h33.33l-77.94,174.32c-12,20.35-40.06,23.66-58.41,10.06l11.36-25.91c9.51,2.51,15.99,4.96,22.92-4.08,2.67-3.49,13-25.36,14.11-29.6.31-1.19.74-2.3.47-3.56l-54.15-121.22h32.81l38.53,83.15,36.97-83.15Z"/>
  <path class="cls-1" d="M795.16,367.29v69.66c53.42-32.29,118.83,13.4,102.58,74.85-11.77,44.52-64.1,62.41-102.57,38.48-.5,3.71,1.4,8.69-1.57,11.44h-28.12l-1.56-1.56v-192.86h31.24ZM872.68,493.47c0-22.02-17.88-39.87-39.94-39.87s-39.94,17.85-39.94,39.87,17.88,39.87,39.94,39.87,39.94-17.85,39.94-39.87Z"/>
  <rect class="cls-1" x="710.8" y="367.29" width="30.2" height="194.42"/>
  <polygon class="cls-1" points="638.42 649.04 663.95 714.54 689.97 649.04 710.8 649.04 710.8 736.37 697.26 736.37 697.26 665.67 667.63 736.44 659.25 735.34 631.65 666.71 631.65 736.37 619.15 736.37 619.15 649.04 638.42 649.04"/>
  <polygon class="cls-1" points="429.6 649.04 473.33 715.58 474.38 649.03 487.93 649.04 487.93 736.37 470.74 736.37 425.45 667.75 424.4 736.38 411.9 736.37 411.9 649.04 429.6 649.04"/>
  <path class="cls-1" d="M827.44,736.37l-14.6-.49-9-20.34-41.08.69-8.18,19.67-14.62.47,37.66-87.15c3.59.13,11.08-1.6,13.28,1.47l36.53,85.68ZM784.74,665.67c-2.39-.44-1.66.16-2.31,1.33-5.72,10.24-8.71,25.39-14.34,36.09,1.57,1.57,29.05,1.59,30.18-.02l-13.53-37.4Z"/>
  <polygon class="cls-1" points="583.74 649.04 583.74 660.48 538.96 660.48 538.96 685.43 580.62 685.43 580.62 696.86 540.52 696.86 538.96 698.42 538.96 724.93 585.83 724.93 585.83 736.37 526.46 736.37 526.46 649.04 583.74 649.04"/>
  <path class="cls-1" d="M295.07,648.28c11.16-.39,26.01,3.3,32.51,12.71l-8,7.68c-12.74-9.82-26.73-13.56-40.44-2.97-22.69,17.53-13.93,58.51,16.67,60.27,10.31.59,17.46-4.13,24.07-11.36l9.27,6.14c1.62,2.5-7,8.59-8.98,9.82-22,13.66-54.63,4.67-63.95-20.2-11.07-29.52,6.3-60.94,38.86-62.09Z"/>
  <rect class="cls-1" x="359.82" y="649.04" width="13.54" height="87.33"/>
</svg>