<?xml version="1.0" encoding="UTF-8"?>
<svg id="Layer_1" data-name="Layer 1" xmlns="http://www.w3.org/2000/svg" viewBox="0 0 1080 1080">
  <defs>
    <style>
      .cls-1 {
        fill: #1a1a1a;
      }
    </style>
  </defs>
  <g id="layer1">
    <path id="path4606" class="cls-1" d="M778.13,611.32l-28.05,52.87-27.1-52.87h-25.39c4.72,8.94,37.96,74.02,37.96,74.02,0,0,.01,37.03.01,42.9h27.26c.02-5.85.01-42.73.01-42.73,0,0,34.54-65.18,39.42-74.19h-24.13Z"/>
    <path id="path4612" class="cls-1" d="M484.37,617.84c-7.72-5.61-20.78-8.56-37.72-8.56s-28.57,2.4-37.8,8.61c-9.62,6.47-14.17,17.3-14.17,34.25v36.82c0,16.99,4.73,28.47,14.06,34.17,7.57,5.49,19.91,8.09,37.91,8.09s30.43-2.67,37.67-7.95c9.39-6.06,14.28-17.89,14.28-34.32v-36.82c0-16.14-4.79-27.68-14.23-34.3M473.15,687.33c0,20.74-6.96,25.48-26.5,25.48s-26.51-4.74-26.51-25.48v-35.03c0-20.23,6.95-24.6,26.51-24.6s26.5,4.37,26.5,24.6v35.03Z"/>
    <path id="path4618" class="cls-1" d="M333.84,611.32h-56.28v116.91h60.21c29.69,0,40.72-12.58,40.72-46.49v-25.69c0-32.19-12.5-44.74-44.66-44.74M353.33,684.56c0,20.47-10.5,25.63-19.29,25.63h-31.12v-81.7h31.12c8.8,0,19.29,5.16,19.29,24.21v31.86h0Z"/>
    <path id="path4624" class="cls-1" d="M542.57,611.32h-25.36v116.91h72.19v-19.44h-46.83v-97.48Z"/>
    <path id="path4630" class="cls-1" d="M651.58,711.25h-22.91v-83.17h24.96c8.44,0,13.71,6.99,13.71,16.52,0,14.68-6.81,15.05-26.25,15.77v13.55c17.37-.07,31.29-1.15,31.29,17.57,0,9.39-5.77,19.75-20.8,19.75M665.04,666.38c19.94-1.9,24.26-12.04,24.26-26.67,0-12.88-5.24-19.43-10.98-23.12-4.82-3.14-10.51-5.26-22.45-5.26h-52.55v116.91h53.25c16.35,0,23.16-3.33,26.33-5.59,5.41-3.78,12.43-12.13,12.43-25.42,0-15.72-5.23-31.46-30.28-30.85"/>
    <path id="path4636" class="cls-1" d="M740.71,511.95h-60.03c-62.17,0-114.05-63.01-114.05-140.99s51.88-139.89,114.05-139.89h60.03v280.88h0ZM399.29,511.95h-59.78V231.07h59.78c62.14,0,114.03,64.19,114.03,139.89s-51.88,140.99-114.03,140.99M277.56,561.04h524.92V182.01H277.56v379.04h0Z"/>
    <path id="path4642" class="cls-1" d="M305.88,855.77h39.32l-13.86-42.24c-2.58-8.05-3.87-12.58-5.64-18.46h-.32c-1.77,5.88-3.06,10.41-5.64,18.46,0,0-13.86,42.24-13.86,42.24ZM349.23,867.68h-47.37l-9.18,28h-15.15l38.83-113.68h18.37l38.99,113.68h-15.15l-9.35-28h0Z"/>
    <path id="path4648" class="cls-1" d="M420.88,895.68h-14.66v-101.77h-32.39v-11.92h79.44v11.92h-32.39v101.77Z"/>
    <path id="path4654" class="cls-1" d="M562.67,782h18.85v113.68h-14.5v-31.86c0-19.95.81-43.42.97-63.38h-.48c-4.03,9.56-6.93,16.94-11.28,25.82l-22.24,45.61h-11.12l-22.23-45.61c-4.36-8.89-7.26-16.26-11.29-25.82h-.48c.16,19.96.97,43.43.97,63.38v31.86h-14.49v-113.68h18.84l34,69.42h.48l34-69.42Z"/>
    <path id="path4660" class="cls-1" d="M655.6,885.12c24.49,0,31.26-14.92,31.26-46.28s-6.77-46.27-31.26-46.27-31.26,14.92-31.26,46.27,6.77,46.28,31.26,46.28M655.6,897.69c-36.42,0-46.57-22.12-46.57-58.85s10.15-58.84,46.57-58.84,46.56,22.12,46.56,58.84-10.14,58.85-46.56,58.85"/>
    <path id="path4666" class="cls-1" d="M786.43,864.16c0-18.1-11.76-19.44-27.39-19.94-19.01-.68-34.32-7.22-34.32-31.87s20.3-32.35,41.57-32.35c5.32,0,18.21.5,27.23,3.85v12.58c-10.31-3.51-20.62-3.85-27.55-3.85-16.44,0-25.78,6.54-25.78,18.61,0,17.27,11.76,16.92,26.59,17.93,17.72,1.18,35.12,5.88,35.12,33.38s-22.4,35.2-44.46,35.2c-5.32,0-22.4-.67-31.74-4.69v-13.24c10.47,4.01,25.14,4.68,32.07,4.68,20.62,0,28.68-8.22,28.68-20.29"/>
  </g>
</svg>