<?xml version="1.0" encoding="UTF-8"?>
<svg id="Layer_1" data-name="Layer 1" xmlns="http://www.w3.org/2000/svg" viewBox="0 0 1080 1080">
  <defs>
    <style>
      .cls-1 {
        fill: #1a1a1a;
      }
    </style>
  </defs>
  <g id="g39">
    <path id="path15" class="cls-1" d="M664.1,569.03l-30.12-30.04c-3.93-3.92-6.22-9.47-6.22-15.35,0-12.08,9.82-21.88,21.94-21.88h15.06c4.91,0,8.84-3.92,8.84-8.82v-16.33h-124.75c-20.96,0-38.31,16.98-38.31,38.2,0,10.45,4.26,19.92,11.13,26.77l30.45,30.37c3.93,3.92,6.22,9.47,6.22,15.35,0,12.08-9.82,21.88-21.94,21.88h-46.82c-18.34,0-33.4-15.02-33.4-33.31v-73.79h28.81c4.91,0,8.84-3.92,8.84-8.82v-16.33h-37.65v-81.3l-97.9,42.77v38.53h-47.48v-93.06h-72.69c-14.08,0-25.21,11.1-25.21,25.14v67.92h-52.39c-54.68,0-92.99,29.39-92.99,78.69,0,44.08,44.86,78.69,92.99,78.69h116.56c18.34,0,33.4-15.02,33.4-33.31v-98.94h47.48v64.32c0,36.57,21.94,67.92,67.12,67.92h211.85c20.96,0,38.31-16.98,38.31-38.2,0-10.45-4.26-19.92-11.13-27.1h0ZM212.9,603.64c0,2.94-2.29,5.55-5.57,5.55h-3.27c-34.05,0-46.49-23.51-46.82-53.55.33-31.35,13.42-53.55,46.82-53.55h8.84v101.55Z"/>
    <g id="g21">
      <path id="path17" class="cls-1" d="M1002.66,622.9c1.96-.65,2.95-1.96,2.95-3.92h0c0-1.31-.33-1.96-.98-2.61-.98-.98-2.29-1.31-3.93-1.31h-5.89v13.06h2.62v-4.57h2.62l3.27,4.57h2.95l-3.6-5.22ZM997.42,620.94v-4.24h3.27c1.64,0,2.62.65,2.62,1.96h0c0,1.31-.98,1.96-2.62,1.96h-3.27v.33Z"/>
      <path id="path19" class="cls-1" d="M1000.04,609.19c-7.2,0-12.77,5.88-12.77,12.73h0c0,6.86,5.57,12.41,12.44,12.41s12.77-5.88,12.77-12.73h0c0-6.86-5.24-12.41-12.44-12.41ZM1010.51,621.6c0,5.88-4.58,10.78-10.81,10.78s-10.48-4.9-10.48-10.78h0c0-5.88,4.58-10.78,10.81-10.78,5.89,0,10.48,4.9,10.48,10.78Z"/>
    </g>
    <g id="g37">
      <polygon id="polygon28" class="cls-1" points="814.38 476.62 729.91 476.62 802.27 548.78 844.51 506.66 814.38 476.62"/>
      <polygon id="polygon35" class="cls-1" points="887.73 634 972.2 634 899.52 561.84 1010.19 451.48 929.64 451.48 721.07 659.15 801.94 659.15 857.28 603.96 887.73 634"/>
    </g>
  </g>
</svg>