<svg width="102" height="102" viewBox="0 0 102 102" fill="none" xmlns="http://www.w3.org/2000/svg">
<rect x="0.5" y="0.5" width="101" height="101" rx="4.5" stroke="#707070"/>
<path d="M29.6668 44.3333H28.3335C27.5971 44.3333 27.0002 44.9302 27.0002 45.6666C27.0002 46.403 27.5971 46.9998 28.3335 46.9998H29.6668C30.4032 46.9998 31.0001 46.403 31.0001 45.6666C31.0001 44.9302 30.4032 44.3333 29.6668 44.3333Z" fill="black"/>
<path d="M37.6668 47H36.3335C35.5971 47 35.0002 47.5969 35.0002 48.3333C35.0002 49.0697 35.5971 49.6666 36.3335 49.6666H37.6668C38.4032 49.6666 39.0001 49.0697 39.0001 48.3333C39.0001 47.5969 38.4032 47 37.6668 47Z" fill="black"/>
<path d="M45.6668 44.3333H44.3335C43.5971 44.3333 43.0002 44.9302 43.0002 45.6666C43.0002 46.403 43.5973 46.9998 44.3335 46.9998H45.6668C46.4032 46.9998 47.0001 46.403 47.0001 45.6666C47.0001 44.9302 46.4032 44.3333 45.6668 44.3333Z" fill="black"/>
<path d="M89.6668 88.3333H83.4082L88.3082 56.3906C88.4082 55.7078 88.2051 55.0153 87.7523 54.4947C87.2953 53.9675 86.6314 53.6652 85.9337 53.6667H84.7911C84.6337 53.6667 84.4831 53.6908 84.3284 53.7V49.3733C84.3276 48.0648 83.2687 47.0036 81.9604 47H77.6672V44.3333C77.6672 43.5969 77.0703 43 76.3339 43H71.0001V42.7067C70.9978 41.5967 70.2272 40.6362 69.1442 40.3934L70.8536 25.6667H72.3336C73.07 25.6667 73.6668 25.0697 73.6668 24.3334V20.3334C73.6668 18.1244 71.8759 16.3334 69.6668 16.3334V15C69.6668 12.7909 67.8761 11 65.6668 11H35.0001C32.7909 11 31.0001 12.7908 31.0001 15V16.3333C28.7911 16.3333 27.0001 18.1241 27.0001 20.3333V24.3333C27.0001 25.0697 27.597 25.6666 28.3334 25.6666H29.8134L31.2093 37.6666H28.3334C20.2372 37.6761 13.6762 44.237 13.6667 52.3333V53.6666C13.6667 55.1394 14.8606 56.3333 16.3334 56.3333H17.6667V60.5227C15.1687 61.1488 13.4859 63.4844 13.6826 66.052C13.8834 68.3055 15.4776 70.19 17.6667 70.7614V75H16.3334C14.8606 75 13.6667 76.1939 13.6667 77.6667V81.6667C13.6664 84.1775 14.6811 86.5819 16.48 88.3334H12.3334C11.597 88.3334 11.0001 88.9303 11.0001 89.6667C11.0001 90.4031 11.597 91 12.3334 91H89.6667C90.4031 91 91 90.4031 91 89.6667C91 88.9303 90.4032 88.3333 89.6668 88.3333ZM77.6668 49.6667H81.6668V54.4453C80.2957 55.1559 79.2251 56.335 78.6495 57.768C78.3768 58.4394 78.0481 59.0866 77.6668 59.7027V49.6667ZM71.0001 45.6667H75.0001V61.6667V61.68V62.6906C73.8123 63.618 72.4529 64.3012 71.0001 64.7012V45.6667ZM33.6668 15C33.6668 14.2636 34.2639 13.6667 35.0001 13.6667H65.6668C66.4032 13.6667 67.0001 14.2636 67.0001 15V16.3333H33.6668V15ZM29.6668 23V20.3333C29.6668 19.5969 30.2637 19 31.0001 19H69.6668C70.4032 19 71.0001 19.5969 71.0001 20.3333V23H29.6668ZM64.3334 43H68.3334V65.1414C67.892 65.1761 67.4561 65.2228 67.0001 65.2228C66.1057 65.217 65.2137 65.1345 64.3334 64.9761V43ZM64.0401 40.3333C63.2464 40.3339 62.5054 40.7312 62.0654 41.3919C59.5534 39.1311 56.3303 37.8195 52.9534 37.6839C52.7467 37.6666 52.5401 37.6666 52.3334 37.6666H33.8934L32.4975 25.6666H68.1695L66.4668 40.3333H64.0401ZM16.3334 53.6667V52.3334C16.3415 45.7094 21.7093 40.3416 28.3334 40.3334H52.3334C52.4734 40.3334 52.6122 40.3334 52.8028 40.3455C55.377 40.445 57.8495 41.3766 59.8495 43.0002H57.3736C56.0631 43.0009 55.0009 44.063 55.0003 45.3734V48.3334H50.707C49.3965 48.3342 48.3343 49.3963 48.3337 50.7067V53.6667H16.3334ZM61.6668 45.6667V64.24C60.142 63.6298 58.7747 62.6831 57.6668 61.4706V45.6667H61.6668ZM55.0001 51V57.0759C54.1525 55.5227 52.7078 54.3823 51.0001 53.9186V51H55.0001ZM46.2961 60.3333H42.2134C41.5087 60.3338 40.8328 60.6133 40.3334 61.1106L33.6667 67.7773L27.0001 61.1106C26.5007 60.6133 25.8248 60.3338 25.1201 60.3333H20.3334V56.3333H45.6907C45.6907 56.3586 45.6907 56.3839 45.6907 56.4092L46.2961 60.3333ZM46.7081 63L47.5201 68.3333H36.8842L42.2175 63H46.7081ZM47.9334 71L49.3307 80.1227L48.3334 81.1147L43.0001 75.7814C42.5015 75.2827 41.8254 75.0016 41.1201 75.0002H20.3334V71H47.9334ZM16.3428 65.86C16.2798 65.0872 16.5631 64.3262 17.1161 63.7827C17.614 63.2803 18.2926 62.9983 19.0001 63H25.1107L30.444 68.3333H19.2268C17.7728 68.3723 16.5259 67.303 16.3428 65.86ZM23.0001 88.3306C19.3211 88.3262 16.3393 85.3456 16.3334 81.6666V77.6666H19.0001H41.1081L47.3881 83.9466C47.9087 84.467 48.7528 84.467 49.2734 83.9466L49.8228 83.3972L50.5801 88.3305L23.0001 88.3306ZM53.2787 88.3333L48.38 56.3331L49.1947 56.3333C50.7972 56.3225 52.2476 57.2805 52.8667 58.7586C53.4528 60.2431 54.2748 61.6231 55.3014 62.8453C55.3486 62.9114 55.4022 62.9725 55.4614 63.028C58.4029 66.27 62.6253 68.0489 67 67.8894C73.6667 67.8894 78.8132 64.5561 81.1332 58.7573C81.7514 57.2828 83.1972 56.3261 84.7959 56.3333L85.6186 56.3331L80.7106 88.3333H53.2787Z" fill="black"/>
<path d="M66.3334 71C63.3673 71 60.6934 72.7867 59.5583 75.527C58.4233 78.2673 59.0506 81.4216 61.148 83.5189C63.2453 85.6163 66.3995 86.2436 69.1398 85.1086C71.8802 83.9736 73.6669 81.2995 73.6669 78.3334C73.6623 74.285 70.3817 71.0044 66.3334 71ZM66.3334 83C63.7561 83 61.6667 80.9106 61.6667 78.3333C61.6667 75.7559 63.7561 73.6666 66.3334 73.6666C68.9108 73.6666 71.0002 75.7559 71.0002 78.3333C71.0002 80.9106 68.9108 83 66.3334 83Z" fill="black"/>
</svg>
