<?xml version="1.0" encoding="UTF-8"?>
<svg id="Layer_1" data-name="Layer 1" xmlns="http://www.w3.org/2000/svg" viewBox="0 0 1080 1080">
  <path d="M849.99,215.05c-12.11-12.72-32.08-18.92-53.42-16.58-32.14,3.53-60.31,22.55-83.73,56.54-15.15,21.98-28.18,49.86-39.83,85.23-24.68,74.9-31.05,153.94-18.74,223.53,56.65,17.75,106.63,41.61,144.79,69.61l62.45-378.28c2.46-15.43-1.63-29.65-11.53-40.04h0Z"/>
  <path d="M783.51,669.46c-48.96-38.37-122.88-69.05-206.72-86.33,2.78,20.34,7.26,41,11.84,62.08,11.41,52.55,23.14,106.62,9.25,161.87h157.26c9.38,0,17.37-6.81,18.85-16.07l16.59-103.5c1.1-6.85-1.61-13.76-7.07-18.04h0Z"/>
  <path d="M551.32,653.3c-5.51-25.39-11.1-51.13-13.83-77.18-27.26-4.11-54.48-6.68-81.12-7.77,2.32,25.11,7.85,50.66,13.54,76.85,11.41,52.55,23.14,106.62,9.25,161.87h79.04c15.71-49.7,4.71-100.39-6.88-153.77Z"/>
  <path d="M313.87,653.3c-5.16-23.75-10.37-47.8-13.26-72.14-10.72,2.5-21.05,5.34-30.88,8.53-37.58,12.21-59.38,51.5-49.62,89.44.06.23.12.46.19.69l33.78,113.59c2.41,8.1,9.85,13.65,18.3,13.65h48.38c15.71-49.7,4.71-100.39-6.88-153.77h0Z"/>
  <path d="M432.6,653.3c-6.1-28.08-12.27-56.59-14.6-85.48-27.78.38-54.58,2.47-79.79,6.22,2.58,23.28,7.71,46.94,12.97,71.17,11.41,52.55,23.14,106.62,9.25,161.87h79.04c15.71-49.7,4.71-100.39-6.88-153.77Z"/>
  <path d="M337.3,526.83c3.63,4.85,9.34,7.66,15.29,7.66,2.5,0,5.04-.5,7.48-1.54,9.7-4.14,14.2-15.35,10.06-25.05l-20.05-46.98c-2.29-5.37-6.92-9.4-12.56-10.93-5.64-1.53-11.67-.39-16.36,3.09l-39.94,29.6c-8.47,6.28-10.25,18.23-3.97,26.7,5.37,7.25,14.9,9.58,22.85,6.17-2.8,22.08-2.07,43.96.5,65.62,12.05-2.81,24.61-5.2,37.61-7.13-1.76-15.9-2.32-31.62-.91-47.2h0Z"/>
  <path d="M456.36,568.35c-1.29-13.96-1.57-27.79-.33-41.51,3.63,4.85,9.34,7.65,15.28,7.65,2.5,0,5.04-.5,7.48-1.54,9.7-4.14,14.2-15.35,10.06-25.05l-20.05-46.98c-2.29-5.37-6.92-9.4-12.56-10.93-5.64-1.53-11.67-.39-16.36,3.09l-39.94,29.6c-8.47,6.28-10.25,18.23-3.97,26.7,5.37,7.25,14.9,9.58,22.85,6.17-2.22,17.56-2.22,34.99-.83,52.28,12.61-.17,25.42,0,38.36.53h0Z"/>
  <path d="M576.79,583.12c-2.6-19.01-3.72-37.74-2.04-56.29,3.63,4.85,9.34,7.65,15.29,7.65,2.5,0,5.04-.5,7.48-1.54,9.7-4.14,14.2-15.35,10.06-25.05l-20.05-46.98c-2.29-5.37-6.92-9.4-12.56-10.93-5.64-1.53-11.67-.39-16.36,3.09l-39.94,29.6c-8.47,6.28-10.25,18.23-3.97,26.7,5.37,7.25,14.89,9.58,22.84,6.17-2.58,20.37-2.16,40.56-.06,60.57.24.04.48.07.72.11,13.06,1.98,25.93,4.29,38.59,6.9h0Z"/>
  <path d="M552.46,822.4c-4.2,9.67.24,20.91,9.91,25.11,2.48,1.08,5.05,1.58,7.59,1.58,7.37,0,14.4-4.3,17.52-11.49,4.44-10.22,7.85-20.4,10.39-30.54h-39.68c-1.62,5.12-3.52,10.23-5.74,15.33Z"/>
  <path d="M433.74,822.4c-4.2,9.67.24,20.91,9.91,25.11,2.48,1.08,5.05,1.58,7.59,1.58,7.37,0,14.4-4.3,17.52-11.49,4.44-10.22,7.85-20.4,10.39-30.54h-39.68c-1.62,5.12-3.52,10.23-5.74,15.33Z"/>
  <path d="M315.02,822.4c-4.2,9.67.24,20.91,9.91,25.11,2.48,1.08,5.05,1.58,7.59,1.58,7.37,0,14.4-4.3,17.52-11.49,4.44-10.22,7.85-20.4,10.39-30.54h-39.68c-1.62,5.12-3.52,10.23-5.74,15.33Z"/>
</svg>