<?xml version="1.0" encoding="UTF-8"?>
<svg id="Layer_1" data-name="Layer 1" xmlns="http://www.w3.org/2000/svg" viewBox="0 0 1080 1080">
  <defs>
    <style>
      .cls-1 {
        fill: #1a1a1a;
        fill-rule: evenodd;
      }
    </style>
  </defs>
  <path class="cls-1" d="M194.59,650.12l.07-136.73h10.68l66.86,136.58h44.6l66.9-136.58h10.88v136.73s53.4,0,53.4,0v-189.04h-96.21l-57.01,113.03-57.56-112.88-95.77.3-.15,188.6h53.3ZM39.55,650.11h59.81v-189.04h-59.81v189.04ZM554.58,461.08l-96.08,189.04h63.9l16.72-32.15h119.4l16.29,32.15h64.06l-96.13-189.04h-88.15ZM601.71,504.05h-5.88l-36.37,71.6h78.22l-35.97-71.6ZM829.89,461.08h-74.24l74.93,88.72-89.48,100.32h79.13l60.21-68.3,59.53,68.3h78.88l-88.96-100.41,74.5-88.64h-72.91l-51.54,61.42-50.05-61.42ZM1040.45,474.89c0,7.95-6.44,14.4-14.39,14.4s-14.39-6.45-14.39-14.4,6.45-14.39,14.39-14.39,14.39,6.46,14.39,14.39ZM1037.97,474.89c0-6.58-5.33-11.91-11.92-11.91s-11.92,5.33-11.92,11.91,5.34,11.91,11.92,11.91c6.58,0,11.92-5.33,11.92-11.91ZM1027.15,469.48h-4.21v5.28h4.28c.53,0,.93-.04,1.21-.13.28-.08.56-.23.76-.47.31-.36.44-1.06.44-2.12,0-.98-.11-1.66-.35-2-.18-.25-.47-.39-.8-.46-.33-.07-.78-.1-1.33-.1h0ZM1027.68,466.92c2.02,0,3.39.4,4.1,1.18.64.7.95,1.86.95,3.45,0,1.74-.24,2.87-.69,3.41-.42.5-.96.84-1.94,1.02v.06c.92.09,1.51.36,1.94.93.41.56.56,1.48.56,2.65v2.77h-3.09v-2.17c0-.54-.03-1-.08-1.35-.04-.33-.18-.64-.4-.89-.2-.23-.46-.39-.76-.47-.29-.07-.68-.1-1.16-.1h-4.16v4.98h-3l.03-15.49h7.7,0Z"/>
</svg>