<svg xmlns="http://www.w3.org/2000/svg" width="102" height="102" viewBox="0 0 102 102"><g transform="translate(-601 -758)"><g transform="translate(601 758)" fill="#fff" stroke="#707070" stroke-width="1"><rect width="102" height="102" rx="5" stroke="none"/><rect x="0.5" y="0.5" width="101" height="101" rx="4.5" fill="none"/></g><g transform="translate(612 593.83)"><path d="M56.086,224.373V213.655h.789l5.239,10.717h3.4l5.239-10.717.833-.022-.044,10.739h4.208l-.022-14.662-7.32.022-4.6,8.636-4.339-8.658-7.562.022v14.641Z" transform="translate(-43.791 -1.299)" fill="#231f20"/><rect width="4.975" height="14.927" transform="translate(0 208.17)" fill="#231f20"/><path d="M217.905,209.312l-7.5,14.706,4.713.044,1.491-2.652,9.294-.044,1.294,2.586,4.909.044-7.5-14.706h-6.706v.022Zm3.355,3.134,3.134,5.742-6.072.044Z" transform="translate(-177.533 -0.945)" fill="#231f20"/><path d="M358.84,209.474l-5.523.022,5.677,6.706-6.9,7.934,5.939.022,4.844-5.391,4.6,5.391,6.116-.022-6.9-7.891,5.677-6.706-5.7-.109-3.792,4.756Z" transform="translate(-297.076 -1.063)" fill="#231f20"/><path d="M493.884,216.21h.548a.7.7,0,0,0,.417-.088.367.367,0,0,0,.131-.306.412.412,0,0,0-.044-.175.58.58,0,0,0-.109-.131l-.131-.066a.755.755,0,0,0-.262-.022h-.548l0,.788Zm-.264,1.206V215.18h.767a1.668,1.668,0,0,1,.372.022,1.016,1.016,0,0,1,.2.066.55.55,0,0,1,.284.525.6.6,0,0,1-.087.35.435.435,0,0,1-.263.175c.087.022.153.044.175.109a1.041,1.041,0,0,1,.088.394l.022.328a.164.164,0,0,0,.022.109c0,.022.022.044.044.066v.066h-.284c-.022-.044-.022-.066-.044-.109,0-.044-.022-.088-.022-.131l-.022-.284a.9.9,0,0,0-.087-.372.484.484,0,0,0-.306-.066h-.614v.986Z" transform="translate(-416.492 -5.915)"/><path d="M489.116,211.1h-.153a1.8,1.8,0,1,1-.527-1.294,1.82,1.82,0,0,1,.527,1.294h.306a2.1,2.1,0,1,0-2.1,2.1,2.106,2.106,0,0,0,2.1-2.1Z" transform="translate(-409.269 -0.7)"/></g></g></svg>