<svg width="102" height="102" viewBox="0 0 102 102" fill="none" xmlns="http://www.w3.org/2000/svg">
<rect x="0.5" y="0.5" width="101" height="101" rx="4.5" stroke="#707070"/>
<path d="M63.4125 74C63.3045 73.8258 63.1577 73.679 62.9836 73.571H63.0234L56.0831 69.2184V36.043C56.0834 35.8749 56.0519 35.7082 55.9902 35.552L46.7011 11.8382C46.5576 11.4751 46.2615 11.1934 45.8916 11.0685C45.5247 10.9458 45.1223 10.9894 44.7902 11.1879L28.7067 20.6496L24.2214 23.7282C23.68 24.052 23.4415 24.7122 23.6508 25.3074L30.883 45.9823V67.4136L16.1664 75.88C15.5361 76.2541 15.3284 77.0682 15.7023 77.6984C15.8158 77.8894 15.9753 78.049 16.1664 78.1625L36.921 90.8222C37.3315 91.0593 37.8374 91.0593 38.248 90.8222L62.9836 75.8269C63.6066 75.4409 63.7987 74.623 63.4125 74ZM44.7504 14.2402L53.4423 36.2687V73.2129L38.9115 82.3162V46.009C38.9126 45.8649 38.8903 45.7214 38.8451 45.5844L30.9892 22.3881L44.7504 14.2402ZM26.4906 25.3872L28.6935 23.8744L36.2575 46.2346V82.4356L33.5371 80.8698V45.7038C33.5354 45.5544 33.5085 45.4064 33.4574 45.2659L26.4906 25.3872ZM37.5845 88.1684L19.4309 77.0612L30.883 70.4261V81.5863C30.8479 82.1191 31.1355 82.6211 31.6129 82.8603L36.921 85.8726L37.12 85.9522H37.2262H37.4385H37.5712C37.6813 85.9662 37.7928 85.9662 37.903 85.9522H38.0224L38.2347 85.8593L55.4992 75.084C55.888 74.841 56.1239 74.4145 56.1229 73.956V72.3769L59.8253 74.6991L37.5845 88.1684Z" fill="black"/>
<path d="M51.6508 35.7246L45.4006 18.6194C45.137 17.9355 44.369 17.5948 43.6853 17.8582C43.6411 17.8751 43.598 17.8945 43.556 17.9161L34.1077 23.2905C33.542 23.6136 33.2947 24.2997 33.5238 24.9095L39.9996 42.1607C40.098 42.5553 40.3719 42.8829 40.7428 43.0498C41.1176 43.1808 41.5315 43.1369 41.8707 42.9303L51.0935 37.3171C51.6362 36.9878 51.8698 36.3203 51.6508 35.7246ZM41.7911 39.8517L36.284 25.1218L43.3968 21.0478L48.7049 35.645L41.7911 39.8517Z" fill="black"/>
<path d="M51.6814 41.0342C51.3178 40.6009 50.7195 40.4458 50.1912 40.6479L41.8309 45.7967C41.2696 46.268 41.1965 47.105 41.6677 47.6663C42.0313 48.0996 42.6296 48.2547 43.158 48.0526L51.5182 42.9038C52.0795 42.4325 52.1526 41.5955 51.6814 41.0342Z" fill="black"/>
<mask id="mask0_1144_1068" style="mask-type:alpha" maskUnits="userSpaceOnUse" x="43" y="26" width="44" height="44">
<path d="M47.4999 60.8669C47.5635 60.9306 47.6391 60.9812 47.7222 61.0156C47.8054 61.0501 47.8946 61.0679 47.9846 61.0679C48.0747 61.0679 48.1638 61.0501 48.247 61.0156C48.3302 60.9812 48.4057 60.9306 48.4694 60.8669C48.7142 60.6107 49.0077 60.4059 49.3327 60.2647C49.6578 60.1235 50.0078 60.0486 50.3621 60.0446C50.7165 60.0405 51.0681 60.1073 51.3963 60.2411C51.7245 60.3748 52.0226 60.5728 52.2732 60.8234C52.5238 61.074 52.7218 61.3722 52.8556 61.7004C52.9893 62.0285 53.0561 62.3801 53.0521 62.7345C53.048 63.0889 52.9732 63.4389 52.832 63.7639C52.6908 64.089 52.486 64.3825 52.2298 64.6273C52.1661 64.691 52.1156 64.7665 52.0811 64.8497C52.0467 64.9329 52.029 65.022 52.029 65.112C52.029 65.2021 52.0467 65.2912 52.0811 65.3744C52.1156 65.4576 52.1661 65.5331 52.2298 65.5968L55.7669 69.1339C56.263 69.6291 56.9353 69.9072 57.6363 69.9072C58.3373 69.9072 59.0096 69.6291 59.5057 69.1339L65.0441 63.5952L85.709 42.9345C85.9546 42.6891 86.1495 42.3977 86.2824 42.0769C86.4153 41.7561 86.4837 41.4123 86.4837 41.0651C86.4837 40.7179 86.4153 40.3741 86.2824 40.0533C86.1495 39.7325 85.9546 39.4411 85.709 39.1957L82.1723 35.6586C82.0437 35.5301 81.8693 35.4579 81.6876 35.4579C81.5058 35.4579 81.3314 35.5301 81.2028 35.6586C80.958 35.9148 80.6645 36.1196 80.3394 36.2608C80.0144 36.402 79.6644 36.4768 79.31 36.4809C78.9557 36.4849 78.604 36.4181 78.2759 36.2844C77.9477 36.1506 77.6495 35.9526 77.3989 35.702C77.1483 35.4514 76.9503 35.1533 76.8166 34.8251C76.6829 34.4969 76.616 34.1453 76.6201 33.7909C76.6241 33.4366 76.699 33.0866 76.8402 32.7615C76.9814 32.4365 77.1862 32.143 77.4424 31.8982C77.5708 31.7695 77.6429 31.5952 77.6429 31.4134C77.6429 31.2317 77.5708 31.0573 77.4424 30.9287L73.9049 27.3916C73.6594 27.146 73.3679 26.9513 73.0471 26.8184C72.7263 26.6855 72.3825 26.6171 72.0353 26.6171C71.6881 26.6171 71.3442 26.6855 71.0235 26.8184C70.7027 26.9513 70.4112 27.146 70.1657 27.3916L43.9628 53.5909C43.4678 54.0872 43.1898 54.7595 43.1898 55.4604C43.1898 56.1613 43.4678 56.8335 43.9628 57.3298L47.4999 60.8669ZM44.9322 54.5604L49.9872 49.5074L50.4722 49.9923C50.6007 50.1209 50.7751 50.1931 50.9569 50.1931C51.1387 50.1931 51.3131 50.1209 51.4416 49.9923C51.5702 49.8638 51.6424 49.6894 51.6424 49.5076C51.6424 49.3258 51.5702 49.1514 51.4416 49.0228L50.9567 48.5359L65.1103 34.3824L65.5948 34.8673C65.7234 34.9959 65.8977 35.0681 66.0796 35.0681C66.2614 35.0681 66.4357 34.9959 66.5643 34.8673C66.6929 34.7387 66.7651 34.5644 66.7651 34.3826C66.7651 34.2008 66.6929 34.0264 66.5643 33.8978L66.0794 33.4129L71.1324 28.3599C71.375 28.1279 71.6977 27.9984 72.0333 27.9984C72.369 27.9984 72.6917 28.1279 72.9343 28.3599L76.0287 31.4543C75.4807 32.2309 75.2247 33.176 75.3057 34.123C75.3868 35.07 75.7998 35.9579 76.4718 36.6299C77.1439 37.302 78.0317 37.7151 78.9787 37.7962C79.9257 37.8774 80.8708 37.6214 81.6474 37.0734L84.7419 40.1679C84.8602 40.286 84.9541 40.4263 85.0182 40.5807C85.0822 40.7351 85.1152 40.9007 85.1152 41.0678C85.1152 41.235 85.0822 41.4006 85.0182 41.555C84.9541 41.7094 84.8602 41.8497 84.7419 41.9678L79.6889 47.0228L79.2039 46.5378C79.074 46.419 78.9032 46.3548 78.7272 46.3585C78.5511 46.3621 78.3832 46.4334 78.2583 46.5575C78.1334 46.6816 78.061 46.8491 78.0562 47.0251C78.0514 47.2011 78.1145 47.3723 78.2325 47.503L78.7155 47.9876L64.5619 62.1411L64.0773 61.6582C64.0137 61.5945 63.9382 61.544 63.855 61.5095C63.7719 61.475 63.6827 61.4572 63.5927 61.4572C63.5027 61.4571 63.4135 61.4748 63.3303 61.5093C63.2471 61.5437 63.1716 61.5941 63.1079 61.6578C63.0442 61.7214 62.9937 61.797 62.9592 61.8801C62.9247 61.9633 62.9069 62.0524 62.9069 62.1424C62.9069 62.2325 62.9245 62.3216 62.959 62.4048C62.9934 62.488 63.0438 62.5636 63.1075 62.6272L63.5924 63.1122L58.5394 68.1672C58.3003 68.4059 57.9763 68.54 57.6385 68.54C57.3006 68.54 56.9766 68.4059 56.7375 68.1672L53.643 65.0727C54.1899 64.2962 54.4452 63.3516 54.3638 62.4054C54.2824 61.4591 53.8696 60.572 53.1981 59.9004C52.5267 59.2287 51.6397 58.8156 50.6934 58.734C49.7472 58.6523 48.8025 58.9073 48.0259 59.454L44.9315 56.3595C44.6936 56.1205 44.5601 55.797 44.5602 55.4598C44.5604 55.1226 44.6942 54.7992 44.9322 54.5604Z" fill="black"/>
<path d="M57.6925 57.2106C57.821 57.3392 57.9954 57.4114 58.1772 57.4114C58.359 57.4114 58.5334 57.3392 58.6619 57.2106C58.7905 57.0821 58.8627 56.9077 58.8627 56.7259C58.8627 56.5441 58.7905 56.3697 58.6619 56.2412L56.8566 54.4362C56.7929 54.3725 56.7174 54.3221 56.6342 54.2876C56.5511 54.2532 56.462 54.2355 56.372 54.2355C56.282 54.2355 56.1929 54.2532 56.1098 54.2876C56.0266 54.3221 55.9511 54.3725 55.8875 54.4362C55.8238 54.4998 55.7734 54.5754 55.7389 54.6585C55.7045 54.7416 55.6868 54.8307 55.6868 54.9207C55.6868 55.0107 55.7045 55.0998 55.7389 55.183C55.7734 55.2661 55.8238 55.3416 55.8875 55.4053L57.6925 57.2106Z" fill="black"/>
<path d="M61.3025 60.8206C61.4311 60.9491 61.6054 61.0214 61.7872 61.0214C61.969 61.0214 62.1434 60.9491 62.272 60.8206C62.4005 60.692 62.4728 60.5176 62.4728 60.3358C62.4728 60.154 62.4005 59.9797 62.272 59.8511L60.467 58.0465C60.3377 57.9216 60.1646 57.8525 59.9848 57.854C59.8051 57.8555 59.6332 57.9276 59.506 58.0547C59.3789 58.1817 59.3068 58.3536 59.3052 58.5334C59.3036 58.7131 59.3727 58.8863 59.4975 59.0156L61.3025 60.8206Z" fill="black"/>
<path d="M72.8155 42.0872C72.9448 42.2121 73.1179 42.2812 73.2976 42.2797C73.4774 42.2781 73.6493 42.2061 73.7764 42.079C73.9036 41.952 73.9757 41.78 73.9773 41.6003C73.9789 41.4206 73.9098 41.2474 73.785 41.1181L71.9796 39.3131C71.916 39.2495 71.8404 39.199 71.7573 39.1646C71.6742 39.1301 71.585 39.1124 71.4951 39.1124C71.4051 39.1124 71.316 39.1301 71.2328 39.1646C71.1497 39.199 71.0741 39.2495 71.0105 39.3131C70.9469 39.3767 70.8964 39.4523 70.862 39.5354C70.8275 39.6185 70.8098 39.7077 70.8098 39.7976C70.8098 39.8876 70.8275 39.9767 70.862 40.0599C70.8964 40.143 70.9469 40.2186 71.0105 40.2822L72.8155 42.0872Z" fill="black"/>
<path d="M76.4258 45.6976C76.4895 45.7612 76.565 45.8117 76.6482 45.8461C76.7313 45.8806 76.8204 45.8983 76.9104 45.8983C77.0004 45.8983 77.0895 45.8806 77.1726 45.8461C77.2558 45.8117 77.3313 45.7612 77.3949 45.6976C77.4586 45.6339 77.509 45.5584 77.5435 45.4753C77.5779 45.3921 77.5956 45.303 77.5956 45.213C77.5956 45.123 77.5779 45.0339 77.5435 44.9508C77.509 44.8677 77.4586 44.7921 77.3949 44.7285L75.5899 42.9231C75.4614 42.7945 75.287 42.7223 75.1052 42.7223C74.9234 42.7223 74.749 42.7945 74.6205 42.9231C74.4919 43.0517 74.4197 43.226 74.4197 43.4078C74.4197 43.5897 74.4919 43.764 74.6205 43.8926L76.4258 45.6976Z" fill="black"/>
<path d="M69.2051 38.4772C69.2688 38.5409 69.3444 38.5914 69.4275 38.6258C69.5107 38.6603 69.5998 38.678 69.6899 38.678C69.7799 38.678 69.869 38.6603 69.9522 38.6258C70.0354 38.5914 70.1109 38.5409 70.1746 38.4772C70.2383 38.4136 70.2888 38.338 70.3232 38.2548C70.3577 38.1717 70.3754 38.0825 70.3754 37.9925C70.3754 37.9025 70.3577 37.8133 70.3232 37.7302C70.2888 37.647 70.2383 37.5714 70.1746 37.5078L68.3696 35.7028C68.3064 35.6373 68.2307 35.5851 68.1471 35.5492C68.0634 35.5133 67.9735 35.4944 67.8825 35.4936C67.7914 35.4928 67.7012 35.5102 67.617 35.5447C67.5327 35.5792 67.4562 35.6301 67.3918 35.6945C67.3275 35.7588 67.2766 35.8354 67.2422 35.9196C67.2077 36.0039 67.1904 36.0942 67.1912 36.1852C67.192 36.2762 67.2109 36.3661 67.2469 36.4498C67.2828 36.5334 67.335 36.609 67.4005 36.6722L69.2051 38.4772Z" fill="black"/>
<path d="M61.6241 52.5838L63.1748 52.3378C63.2723 52.322 63.3722 52.3377 63.4602 52.3824C63.5481 52.4272 63.6195 52.4989 63.6641 52.5869L64.377 53.9861C64.5266 54.2886 64.758 54.543 65.0449 54.7206C65.3318 54.8982 65.6628 54.9918 66.0002 54.9908C66.1012 54.9908 66.2021 54.9828 66.3018 54.9669C66.6868 54.9102 67.0433 54.731 67.3184 54.4559C67.5936 54.1807 67.7728 53.8243 67.8295 53.4393L68.0755 51.8881C68.0907 51.7907 68.1365 51.7007 68.2062 51.631C68.2759 51.5613 68.3659 51.5156 68.4633 51.5003L70.0141 51.2547C70.3974 51.1942 70.7517 51.0138 71.0263 50.7395C71.3008 50.4652 71.4815 50.111 71.5424 49.7277C71.6032 49.3444 71.5412 48.9516 71.3652 48.6058C71.1892 48.2599 70.9082 47.9786 70.5625 47.8022L69.1633 47.0893C69.0753 47.0447 69.0038 46.9733 68.9591 46.8855C68.9143 46.7976 68.8986 46.6978 68.9141 46.6005L69.1597 45.0493C69.2205 44.666 69.1584 44.2732 68.9822 43.9274C68.8061 43.5816 68.5249 43.3004 68.1791 43.1242C67.8333 42.948 67.4405 42.8858 67.0572 42.9466C66.6739 43.0074 66.3196 43.188 66.0453 43.4625L64.9352 44.573C64.8654 44.6427 64.7754 44.6885 64.678 44.7039C64.5807 44.7193 64.4809 44.7035 64.3931 44.6588L62.9939 43.9459C62.6481 43.7695 62.2554 43.7072 61.872 43.7679C61.4886 43.8286 61.1343 44.0091 60.8599 44.2835C60.5854 44.558 60.4049 44.9123 60.3442 45.2957C60.2836 45.679 60.3459 46.0718 60.5222 46.4175L61.2351 47.8167C61.28 47.9046 61.2959 48.0044 61.2804 48.1018C61.2649 48.1992 61.2189 48.2892 61.1489 48.3588L60.0388 49.4689C59.7646 49.7433 59.5842 50.0974 59.5235 50.4805C59.4628 50.8636 59.5248 51.2561 59.7008 51.6018C59.8767 51.9475 60.1575 52.2287 60.503 52.4051C60.8485 52.5814 61.2409 52.644 61.6241 52.5838ZM61.0067 50.4384L62.1168 49.3283C62.3919 49.0543 62.5729 48.6999 62.6337 48.3164C62.6944 47.9329 62.6318 47.5399 62.4549 47.1943L61.7416 45.7939C61.6976 45.7062 61.6823 45.6069 61.698 45.5101C61.7136 45.4132 61.7594 45.3237 61.8287 45.2544C61.8981 45.185 61.9876 45.1392 62.0844 45.1236C62.1813 45.1079 62.2806 45.1232 62.3683 45.1672L63.7675 45.8801C64.1132 46.0569 64.5061 46.1194 64.8896 46.0586C65.273 45.9979 65.6274 45.817 65.9015 45.5421L67.0116 44.432C67.0813 44.3622 67.1713 44.3163 67.2686 44.3008C67.366 44.2854 67.4658 44.3012 67.5536 44.3459C67.6415 44.3907 67.7129 44.4621 67.7576 44.55C67.8023 44.6379 67.818 44.7377 67.8025 44.835L67.5569 46.3858C67.4954 46.769 67.5571 47.1619 67.7331 47.5078C67.9091 47.8538 68.1902 48.135 68.5361 48.311L69.9353 49.024C70.0232 49.0686 70.0946 49.14 70.1394 49.2278C70.1842 49.3156 70.2 49.4153 70.1846 49.5127C70.1692 49.61 70.1234 49.7 70.0537 49.7697C69.984 49.8394 69.894 49.8852 69.7967 49.9006L68.2455 50.1462C67.8619 50.2064 67.5074 50.3867 67.2328 50.6612C66.9583 50.9357 66.778 51.2903 66.7178 51.6739L66.4722 53.225C66.4567 53.3223 66.4108 53.4123 66.3411 53.4819C66.2714 53.5515 66.1814 53.5973 66.0841 53.6127C65.9867 53.6281 65.887 53.6123 65.7992 53.5676C65.7114 53.5228 65.64 53.4515 65.5952 53.3637L64.8823 51.9645C64.7292 51.6625 64.4954 51.4088 64.2069 51.2317C63.9183 51.0545 63.5863 50.9608 63.2477 50.961C62.6296 51.0173 62.015 51.107 61.4067 51.2297C61.3093 51.2449 61.2097 51.229 61.1219 51.1842C61.0342 51.1394 60.9629 51.068 60.9182 50.9802C60.8735 50.8924 60.8578 50.7927 60.8732 50.6954C60.8886 50.5981 60.9344 50.5081 61.004 50.4384H61.0067Z" fill="black"/>
</mask>
<g mask="url(#mask0_1144_1068)">
<path d="M54.3865 73.1211V38.4528L72.0524 23.1921L88.723 41.1068L60.6069 71.7941L54.3865 73.1211Z" fill="black" stroke="black"/>
</g>
</svg>
