<?xml version="1.0" encoding="UTF-8"?>
<svg id="Layer_1" data-name="Layer 1" xmlns="http://www.w3.org/2000/svg" viewBox="0 0 1080 1080">
  <g id="Layer_1-2" data-name="Layer 1">
    <path d="M322.09,423.61c3.85,0,7.68-.37,11.46-1.1v179.78h-24.35v-180.08c4.23.93,8.55,1.4,12.89,1.4h0ZM793.96,614.08h-507.91c-10.62,0-19.22,8.61-19.22,19.22s8.61,19.22,19.22,19.22h507.9c10.62,0,19.22-8.61,19.22-19.22s-8.61-19.22-19.22-19.22h0ZM303.82,803.62c.02,13.44,10.91,24.34,24.36,24.36h423.64c13.44-.02,24.34-10.91,24.36-24.36v-139.32h-472.36v139.32ZM660.87,602.29v-18.03h40.62c1.63,0,2.96-1.32,2.96-2.96h0v-65.79c0-1.63-1.32-2.96-2.96-2.96h-95.58c-1.63,0-2.96,1.32-2.96,2.96h0v65.79c0,1.63,1.32,2.96,2.96,2.96h42.83v18.03h12.14ZM743.96,421.98v180.32h24.35v-179.6c-8.08,1.43-16.37,1.18-24.35-.72ZM322.09,411.83c26.82-.03,48.56-21.77,48.59-48.59,0-3.25,2.64-5.89,5.89-5.89s5.89,2.64,5.89,5.89c0,26.83,21.75,48.59,48.59,48.59s48.59-21.75,48.59-48.59c0-3.25,2.64-5.89,5.89-5.89s5.89,2.64,5.89,5.89c0,26.83,21.75,48.59,48.58,48.6,26.83,0,48.59-21.75,48.6-48.58h0c0-3.27,2.64-5.91,5.89-5.91s5.89,2.64,5.89,5.89c0,26.83,21.75,48.59,48.58,48.6,26.83,0,48.59-21.75,48.6-48.58h0c0-3.27,2.64-5.91,5.89-5.91s5.89,2.64,5.89,5.89c-.02,26.83,21.72,48.6,48.56,48.61,26.83.02,48.6-21.72,48.61-48.56v-.06c0-17.46-14.14-48.47-39.83-87.34-9.86-14.94-26.58-23.91-44.47-23.87h-365.99c-18.52-.06-35.73,9.54-45.41,25.33-24.05,38.92-37.29,69.42-37.29,85.88.03,26.82,21.77,48.56,48.59,48.59h0Z"/>
  </g>
</svg>