<?xml version="1.0" encoding="UTF-8"?>
<svg id="Layer_1" data-name="Layer 1" xmlns="http://www.w3.org/2000/svg" viewBox="0 0 1080 1080">
  <defs>
    <style>
      .cls-1 {
        fill: #1a1a1a;
      }
    </style>
  </defs>
  <g id="_07_video_projector" data-name=" 07 video projector">
    <path class="cls-1" d="M452.28,707.38c62.32,0,112.84-50.52,112.84-112.83s-50.52-112.83-112.83-112.83-112.83,50.52-112.83,112.83c.07,62.29,50.55,112.76,112.83,112.83h0ZM362.01,594.53c0-49.86,40.41-90.27,90.27-90.27,12.46,0,22.57,10.11,22.57,22.57s-10.11,22.57-22.57,22.57c-24.93,0-45.13,20.21-45.13,45.13,0,12.46-10.11,22.57-22.57,22.57s-22.57-10.11-22.57-22.57h0ZM790.81,526.83h-196c37.64,78.71,4.35,173.03-74.36,210.68-78.71,37.64-173.03,4.35-210.68-74.36-20.61-43.1-20.61-93.21,0-136.31h-15.46c-37.39,0-67.7,30.31-67.7,67.7v180.55c0,37.39,30.31,67.7,67.7,67.7v22.57c0,12.46,10.11,22.57,22.57,22.57s22.57-10.11,22.57-22.57v-22.57h406.23v22.57c0,12.46,10.11,22.57,22.57,22.57s22.57-10.11,22.57-22.57v-22.57c37.39,0,67.7-30.31,67.7-67.7v-180.55c0-37.39-30.31-67.7-67.7-67.7h0ZM768.24,752.51h-135.41c-12.46,0-22.57-10.11-22.57-22.57s10.11-22.57,22.57-22.57h135.41c12.46,0,22.57,10.11,22.57,22.57s-10.11,22.57-22.57,22.57ZM768.24,662.24h-90.27c-12.46,0-22.57-10.11-22.57-22.57s10.11-22.57,22.57-22.57h90.27c12.46,0,22.57,10.11,22.57,22.57s-10.11,22.57-22.57,22.57Z"/>
  </g>
  <rect class="cls-1" x="439.05" y="400.87" width="26.46" height="24.85"/>
  <path class="cls-1" d="M439.05,439.52h26.46v20.27c-4.35-.42-8.76-.64-13.22-.64s-8.88.22-13.24.64v-20.27Z"/>
  <path class="cls-1" d="M571.8,285.03c0,7.3-5.93,13.23-13.23,13.23h-59.47c-1.04,3.7-2.51,7.21-4.36,10.5l42.05,42.06c5.17,5.17,5.17,13.54,0,18.71-5.17,5.17-13.55,5.17-18.71,0l-42.06-42.05c-3.29,1.84-6.81,3.31-10.51,4.36v55.22h-26.46v-55.22c-3.7-1.04-7.21-2.51-10.5-4.36l-42.06,42.05c-5.16,5.17-13.54,5.16-18.71,0-5.17-5.17-5.17-13.55,0-18.72l42.05-42.05c-1.84-3.29-3.31-6.81-4.36-10.5h-59.46c-7.31,0-13.23-5.93-13.23-13.23s5.92-13.23,13.23-13.23h59.46c1.05-3.7,2.51-7.22,4.37-10.51l-42.06-42.05c-5.17-5.17-5.17-13.55,0-18.72,2.58-2.58,5.97-3.87,9.36-3.87s6.77,1.29,9.35,3.87l42.06,42.06c3.29-1.85,6.81-3.32,10.5-4.37v-59.46c0-7.31,5.93-13.23,13.23-13.23s13.23,5.92,13.23,13.23v59.46c3.7,1.05,7.22,2.51,10.51,4.37l42.06-42.06c2.58-2.58,5.96-3.87,9.35-3.87s6.77,1.29,9.36,3.87c5.17,5.17,5.17,13.55,0,18.72l-42.05,42.05c1.84,3.29,3.32,6.81,4.36,10.51h59.47c7.3,0,13.23,5.92,13.23,13.23Z"/>
</svg>