<?xml version="1.0" encoding="UTF-8"?>
<svg id="Layer_1" data-name="Layer 1" xmlns="http://www.w3.org/2000/svg" viewBox="0 0 1080 1080">
  <defs>
    <style>
      .cls-1 {
        fill-rule: evenodd;
      }

      .cls-1, .cls-2 {
        fill: #1a1a1a;
      }
    </style>
  </defs>
  <g>
    <path class="cls-1" d="M278.51,618.57c22.81-10.82,45.59-21.73,68.28-32.83,32.71-16,58.16-27.88,88.19-23.82,20.04,2.71,41.9,12.49,69.26,31.91,1.18.84,2.51,1.46,3.91,1.83l108.11,28.96c20.47,5.48,32.75,26.73,27.26,47.19-5.48,20.46-26.71,32.74-47.17,27.22h-.02s-143.69-38.48-143.69-38.48c-6.51-1.74-13.2,2.13-14.95,8.63-1.74,6.51,2.13,13.21,8.63,14.95l143.69,38.48c33.42,9.01,68.13-11.05,77.09-44.48,1.87-6.98,2.47-14.02,1.95-20.87l149.21-43.77c25.61-7.51,45.54-9.41,60.65-7.08,12.52,1.92,21.24,6.75,26.4,13.72,6.07,8.21,7.02,18.94,4.75,29.45-3.74,17.29-16.24,34.3-33.65,41.01l-223.77,86.23c-17.19,6.62-37.22,14.86-57.57,20.07-18.63,4.77-37.53,7.13-54.42,2.23l-119.22-34.59c-20.35-5.94-39.88-4.29-58.98,5.01l-17.54,8.53c-23.89-57.39-40.35-96.86-66.41-159.5h0Z"/>
    <path class="cls-1" d="M318.03,851.34l-57.32,23.76c-12.42,5.2-26.81-.75-31.96-13.17-32.34-77.7-49.76-119.47-82.09-197.17-2.62-6.18-2.62-12.46-.05-18.7,2.58-6.23,7.03-10.68,13.22-13.26l57.36-23.81c12.42-5.16,26.76.75,31.96,13.17,32.34,77.7,49.76,119.47,82.1,197.17,2.58,6.23,2.58,12.51.05,18.75-2.58,6.18-7.03,10.64-13.26,13.26h0Z"/>
  </g>
  <path class="cls-2" d="M642.74,271.79c-69.94,0-126.84,56.9-126.84,126.84s56.9,126.84,126.84,126.84,126.84-56.9,126.84-126.84-56.9-126.84-126.84-126.84ZM637.05,387.16h11.38c23.26,0,42.19,18.93,42.19,42.19,0,21.3-15.88,38.96-36.42,41.78v23.36h-22.92v-23.36c-20.54-2.83-36.42-20.48-36.42-41.78h22.92c0,10.62,8.64,19.27,19.27,19.27h11.38c10.62,0,19.27-8.64,19.27-19.27s-8.64-19.27-19.27-19.27h-11.38c-23.26,0-42.19-18.93-42.19-42.19,0-21.3,15.88-38.96,36.42-41.78v-23.36h22.92v23.36c20.54,2.83,36.42,20.48,36.42,41.78h-22.92c0-10.62-8.64-19.27-19.27-19.27h-11.38c-10.62,0-19.27,8.64-19.27,19.27s8.64,19.27,19.27,19.27Z"/>
  <path class="cls-2" d="M781.05,260.31c-36.95-36.95-86.07-57.29-138.32-57.29s-101.37,20.35-138.32,57.29c-36.95,36.95-57.29,86.07-57.29,138.32s20.35,101.37,57.29,138.32c36.95,36.95,86.07,57.29,138.32,57.29s101.37-20.35,138.32-57.29c36.95-36.95,57.29-86.07,57.29-138.32s-20.35-101.37-57.29-138.32ZM642.74,548.39c-82.58,0-149.76-67.18-149.76-149.76s67.18-149.76,149.76-149.76,149.76,67.18,149.76,149.76-67.18,149.76-149.76,149.76Z"/>
</svg>