<?xml version="1.0" encoding="UTF-8"?>
<svg id="Layer_1" data-name="Layer 1" xmlns="http://www.w3.org/2000/svg" viewBox="0 0 1080 1080">
  <path d="M481.53,518.26l38.98-62.23,31.77-50.72s.03,0,.05,0l6.96-11.11h-84.83c-12.24,17.63-21.18,39.68-33.42,56.97-1.68,2.38-3.25,6.96-6.66,6.99l-39.57-64.51-171.16-.12-42.01,149.84-45.23-150.01H35.66v262.49h70.01c-1.25-2.56-1.73-4.66-1.8-7.57-1.26-50.22.55-100.81.92-150.97l2.57-1.68,45.24,158.54,54.48,1.79,48.85-160.33v160.22h127.2l48.52-82.44,3.54-1.07,87.97,143.18h84.52l-126.14-197.26ZM329.07,610.41l-4.84,2.84v-194.31l4.83,2.84,61.48,93.73-61.47,94.89Z"/>
  <path d="M739.15,393.37v162.78c5.24,4.16,18.86,4.1,23.91,0v-162.78c86.98,5.21,213.4-24.64,265.38,66.61,24.02,42.18,20.97,108.62-10.09,146.47-57.51,70.08-175.65,44.32-255.29,49.41v-46.02h-23.91v46.02h-87.08v-46.02h-96.47l-35.95-54.69,105.95-161.78h113.55ZM851.85,597.91h41.83c4.7,0,23.48-6.51,28.54-9.01,47.52-23.43,43.53-108.48-4.85-130.55-3.94-1.8-20.32-7.03-23.69-7.03h-39.27l-2.56,2.56v144.03ZM658.9,471.78l-58.06,86.93h53.79c.56,0,2.59-2.26,4.27-1.7v-85.22Z"/>
  <polygon points="477.89 671.2 394.24 671.19 436.07 596.24 477.89 671.2"/>
</svg>