<?xml version="1.0" encoding="UTF-8"?>
<svg id="Layer_1" data-name="Layer 1" xmlns="http://www.w3.org/2000/svg" viewBox="0 0 1080 1080">
  <g id="Layer_2" data-name="Layer 2">
    <g id="Layer_2_copy_15" data-name="Layer 2 copy 15">
      <g id="_148" data-name=" 148">
        <path d="M666.2,672.53v18.39c0,17.37-14.21,31.58-31.58,31.58h-244.2c-17.37,0-31.58-14.21-31.58-31.58v-375.6c0-17.37,14.21-31.58,31.58-31.58h244.2c17.37,0,31.58,14.21,31.58,31.58v18.95c5.19-.45,10.49-.79,15.79-.79,5.98,0,12.07.34,18.05.9v-19.06c0-36.09-29.33-65.42-65.42-65.42h-244.2c-36.09,0-65.42,29.33-65.42,65.42v446.66c0,36.09,29.33,65.42,65.42,65.42h244.2c36.09,0,65.42-29.33,65.42-65.42v-89.67c-5.98.68-12.07,1.02-18.05,1.02-5.41,0-10.6-.34-15.79-.79h0ZM538.63,793.56h-52.34c-10.38-.23-18.5-8.8-18.27-19.17.23-9.93,8.23-18.05,18.27-18.27h52.45c10.38-.23,18.95,7.9,19.17,18.27.23,10.38-7.9,18.95-18.27,19.17h-1.02Z"/>
        <path d="M681.99,350.51c-84.48,0-152.95,68.47-152.95,152.95s68.47,152.95,152.95,152.95,152.84-68.58,152.84-152.95-68.47-152.95-152.84-152.95h0ZM768.84,482.02l-90.46,90.46c-10.83,10.83-28.31,10.83-39.03,0l-49.85-49.85c-10.6-10.94-10.38-28.42.56-39.03,10.72-10.49,27.86-10.49,38.58,0l30.23,30.23,70.83-70.95c10.83-10.83,28.31-10.83,39.14,0,10.72,10.83,10.72,28.31,0,39.14h0Z"/>
      </g>
    </g>
  </g>
</svg>