<svg width="102" height="102" viewBox="0 0 102 102" fill="none" xmlns="http://www.w3.org/2000/svg">
<rect x="0.5" y="0.5" width="101" height="101" rx="4.5" stroke="#707070"/>
<path d="M36.9828 61.1756C37.0342 61.2271 37.0952 61.2679 37.1624 61.2958C37.2296 61.3236 37.3017 61.338 37.3744 61.338C37.4472 61.338 37.5192 61.3236 37.5865 61.2958C37.6537 61.2679 37.7147 61.2271 37.7661 61.1756C37.9639 60.9685 38.2011 60.8031 38.4638 60.689C38.7265 60.5748 39.0093 60.5144 39.2956 60.5111C39.582 60.5078 39.8661 60.5618 40.1313 60.6699C40.3965 60.778 40.6374 60.9379 40.8399 61.1404C41.0424 61.3429 41.2023 61.5839 41.3104 61.849C41.4185 62.1142 41.4725 62.3984 41.4692 62.6847C41.4659 62.9711 41.4055 63.2539 41.2914 63.5165C41.1772 63.7792 41.0118 64.0164 40.8047 64.2142C40.7533 64.2656 40.7125 64.3267 40.6846 64.3939C40.6568 64.4611 40.6425 64.5331 40.6425 64.6059C40.6425 64.6786 40.6568 64.7506 40.6846 64.8179C40.7125 64.8851 40.7533 64.9461 40.8047 64.9976L43.6629 67.8557C44.0638 68.2559 44.6071 68.4806 45.1735 68.4806C45.7399 68.4806 46.2832 68.2559 46.6841 67.8557L51.1594 63.3801L67.8577 46.6853C68.0562 46.487 68.2136 46.2515 68.321 45.9923C68.4284 45.7331 68.4837 45.4553 68.4837 45.1747C68.4837 44.8941 68.4284 44.6163 68.321 44.3571C68.2136 44.0979 68.0562 43.8624 67.8577 43.6641L64.9998 40.8059C64.8959 40.7021 64.755 40.6438 64.6081 40.6438C64.4613 40.6438 64.3204 40.7021 64.2165 40.8059C64.0186 41.013 63.7814 41.1785 63.5188 41.2926C63.2561 41.4067 62.9733 41.4671 62.687 41.4704C62.4006 41.4737 62.1165 41.4197 61.8513 41.3116C61.5861 41.2036 61.3452 41.0436 61.1427 40.8411C60.9402 40.6386 60.7802 40.3977 60.6722 40.1325C60.5641 39.8673 60.5101 39.5832 60.5134 39.2968C60.5167 39.0105 60.5771 38.7277 60.6912 38.465C60.8053 38.2024 60.9708 37.9652 61.1779 37.7673C61.2816 37.6634 61.3399 37.5225 61.3399 37.3756C61.3399 37.2288 61.2816 37.0879 61.1779 36.984L58.3194 34.1258C58.121 33.9274 57.8854 33.77 57.6262 33.6626C57.367 33.5553 57.0892 33.5 56.8086 33.5C56.528 33.5 56.2502 33.5553 55.991 33.6626C55.7318 33.77 55.4963 33.9274 55.2979 34.1258L34.1246 55.2962C33.7246 55.6972 33.5 56.2405 33.5 56.8068C33.5 57.3732 33.7246 57.9164 34.1246 58.3174L36.9828 61.1756ZM34.908 56.0796L38.9927 51.9965L39.3845 52.3884C39.4884 52.4922 39.6293 52.5506 39.7762 52.5506C39.9231 52.5506 40.064 52.4922 40.1679 52.3884C40.2718 52.2845 40.3301 52.1436 40.3301 51.9967C40.3301 51.8497 40.2718 51.7088 40.1679 51.605L39.776 51.2115L51.2129 39.7747L51.6044 40.1666C51.7083 40.2704 51.8492 40.3288 51.9961 40.3288C52.143 40.3288 52.2839 40.2704 52.3878 40.1666C52.4917 40.0627 52.55 39.9218 52.55 39.7749C52.55 39.628 52.4917 39.4871 52.3878 39.3832L51.9959 38.9913L56.079 34.9082C56.2751 34.7208 56.5358 34.6162 56.807 34.6162C57.0782 34.6162 57.339 34.7208 57.535 34.9082L60.0355 37.4087C59.5927 38.0362 59.3858 38.7999 59.4513 39.5651C59.5168 40.3303 59.8505 41.0478 60.3936 41.5909C60.9366 42.1339 61.6541 42.4677 62.4192 42.5333C63.1844 42.5989 63.9482 42.392 64.5757 41.9492L67.0762 44.4497C67.1718 44.5451 67.2477 44.6585 67.2994 44.7833C67.3512 44.9081 67.3778 45.0418 67.3778 45.1769C67.3778 45.312 67.3512 45.4458 67.2994 45.5706C67.2477 45.6953 67.1718 45.8087 67.0762 45.9041L62.9931 49.9888L62.6013 49.597C62.4962 49.501 62.3583 49.4491 62.216 49.452C62.0737 49.455 61.9381 49.5126 61.8371 49.6129C61.7362 49.7132 61.6777 49.8485 61.6738 49.9907C61.6699 50.1329 61.721 50.2712 61.8163 50.3769L62.2066 50.7684L50.7697 62.2052L50.3782 61.815C50.3268 61.7635 50.2657 61.7227 50.1985 61.6948C50.1313 61.6669 50.0593 61.6526 49.9866 61.6526C49.9138 61.6525 49.8418 61.6668 49.7746 61.6946C49.7073 61.7224 49.6463 61.7632 49.5948 61.8146C49.5434 61.8661 49.5025 61.9271 49.4747 61.9943C49.4468 62.0615 49.4324 62.1335 49.4324 62.2063C49.4324 62.279 49.4467 62.351 49.4745 62.4183C49.5023 62.4855 49.5431 62.5466 49.5945 62.598L49.9863 62.9899L45.9032 67.0746C45.7101 67.2675 45.4482 67.3758 45.1752 67.3758C44.9022 67.3758 44.6404 67.2675 44.4472 67.0746L41.9467 64.5741C42.3887 63.9466 42.5949 63.1834 42.5292 62.4187C42.4634 61.6541 42.1298 60.9373 41.5872 60.3946C41.0447 59.8518 40.3279 59.518 39.5633 59.4521C38.7987 59.3861 38.0354 59.5921 37.4078 60.0339L34.9073 57.5334C34.7151 57.3403 34.6073 57.0788 34.6074 56.8064C34.6075 56.5339 34.7156 56.2726 34.908 56.0796Z" fill="black"/>
<path d="M45.219 58.2212C45.3229 58.3251 45.4638 58.3834 45.6107 58.3834C45.7576 58.3834 45.8985 58.3251 46.0024 58.2212C46.1062 58.1173 46.1646 57.9764 46.1646 57.8295C46.1646 57.6826 46.1062 57.5417 46.0024 57.4378L44.5435 55.9793C44.4921 55.9279 44.4311 55.8871 44.3639 55.8593C44.2967 55.8314 44.2247 55.8171 44.152 55.8171C44.0793 55.8171 44.0073 55.8314 43.9401 55.8593C43.8729 55.8871 43.8119 55.9279 43.7604 55.9793C43.709 56.0307 43.6682 56.0917 43.6404 56.1589C43.6126 56.2261 43.5983 56.2981 43.5983 56.3708C43.5983 56.4435 43.6126 56.5155 43.6404 56.5827C43.6682 56.6499 43.709 56.7109 43.7604 56.7624L45.219 58.2212Z" fill="black"/>
<path d="M45.219 58.2212C45.3229 58.3251 45.4638 58.3834 45.6107 58.3834C45.7576 58.3834 45.8985 58.3251 46.0024 58.2212C46.1062 58.1173 46.1646 57.9764 46.1646 57.8295C46.1646 57.6826 46.1062 57.5417 46.0024 57.4378L44.5435 55.9793C44.4921 55.9279 44.4311 55.8871 44.3639 55.8593C44.2967 55.8314 44.2247 55.8171 44.152 55.8171C44.0793 55.8171 44.0073 55.8314 43.9401 55.8593C43.8729 55.8871 43.8119 55.9279 43.7604 55.9793C43.709 56.0307 43.6682 56.0917 43.6404 56.1589C43.6126 56.2261 43.5983 56.2981 43.5983 56.3708C43.5983 56.4435 43.6126 56.5155 43.6404 56.5827C43.6682 56.6499 43.709 56.7109 43.7604 56.7624L45.219 58.2212Z" stroke="black"/>
<path d="M42.3016 55.3038C42.406 55.4047 42.5459 55.4606 42.6911 55.4594C42.8364 55.4581 42.9753 55.3999 43.078 55.2972C43.1808 55.1945 43.239 55.0556 43.2403 54.9104C43.2416 54.7652 43.1858 54.6252 43.0849 54.5207L41.6264 53.0619C41.5225 52.958 41.3816 52.8997 41.2347 52.8997C41.0878 52.8997 40.9469 52.958 40.843 53.0619C40.7391 53.1658 40.6808 53.3067 40.6808 53.4536C40.6808 53.6005 40.7391 53.7414 40.843 53.8453L42.3016 55.3038Z" fill="black"/>
<path d="M42.3016 55.3038C42.406 55.4047 42.5459 55.4606 42.6911 55.4594C42.8364 55.4581 42.9753 55.3999 43.078 55.2972C43.1808 55.1945 43.239 55.0556 43.2403 54.9104C43.2416 54.7652 43.1858 54.6252 43.0849 54.5207L41.6264 53.0619C41.5225 52.958 41.3816 52.8997 41.2347 52.8997C41.0878 52.8997 40.9469 52.958 40.843 53.0619C40.7391 53.1658 40.6808 53.3067 40.6808 53.4536C40.6808 53.6005 40.7391 53.7414 40.843 53.8453L42.3016 55.3038Z" stroke="black"/>
<path d="M48.136 61.1382C48.2399 61.2421 48.3808 61.3005 48.5277 61.3005C48.6746 61.3005 48.8155 61.2421 48.9194 61.1382C49.0233 61.0343 49.0817 60.8934 49.0817 60.7465C49.0817 60.5996 49.0233 60.4587 48.9194 60.3548L47.4609 58.8966C47.3564 58.7957 47.2165 58.7398 47.0713 58.7411C46.9261 58.7423 46.7871 58.8005 46.6844 58.9032C46.5817 59.0059 46.5234 59.1448 46.5221 59.29C46.5208 59.4353 46.5766 59.5752 46.6775 59.6797L48.136 61.1382Z" fill="black"/>
<path d="M48.136 61.1382C48.2399 61.2421 48.3808 61.3005 48.5277 61.3005C48.6746 61.3005 48.8155 61.2421 48.9194 61.1382C49.0233 61.0343 49.0817 60.8934 49.0817 60.7465C49.0817 60.5996 49.0233 60.4587 48.9194 60.3548L47.4609 58.8966C47.3564 58.7957 47.2165 58.7398 47.0713 58.7411C46.9261 58.7423 46.7871 58.8005 46.6844 58.9032C46.5817 59.0059 46.5234 59.1448 46.5221 59.29C46.5208 59.4353 46.5766 59.5752 46.6775 59.6797L48.136 61.1382Z" stroke="black"/>
<path d="M57.4391 46.0007C57.5435 46.1016 57.6834 46.1574 57.8287 46.1562C57.9739 46.155 58.1128 46.0968 58.2155 45.9941C58.3183 45.8914 58.3765 45.7525 58.3778 45.6073C58.3791 45.462 58.3233 45.3221 58.2225 45.2176L56.7636 43.7591C56.7122 43.7077 56.6512 43.6669 56.584 43.639C56.5168 43.6112 56.4448 43.5969 56.3721 43.5969C56.2994 43.5969 56.2274 43.6112 56.1602 43.639C56.093 43.6669 56.032 43.7077 55.9805 43.7591C55.9291 43.8105 55.8883 43.8715 55.8605 43.9387C55.8327 44.0059 55.8184 44.0779 55.8184 44.1506C55.8184 44.2233 55.8327 44.2953 55.8605 44.3625C55.8883 44.4297 55.9291 44.4907 55.9805 44.5421L57.4391 46.0007Z" fill="black"/>
<path d="M57.4391 46.0007C57.5435 46.1016 57.6834 46.1574 57.8287 46.1562C57.9739 46.155 58.1128 46.0968 58.2155 45.9941C58.3183 45.8914 58.3765 45.7525 58.3778 45.6073C58.3791 45.462 58.3233 45.3221 58.2225 45.2176L56.7636 43.7591C56.7122 43.7077 56.6512 43.6669 56.584 43.639C56.5168 43.6112 56.4448 43.5969 56.3721 43.5969C56.2994 43.5969 56.2274 43.6112 56.1602 43.639C56.093 43.6669 56.032 43.7077 55.9805 43.7591C55.9291 43.8105 55.8883 43.8715 55.8605 43.9387C55.8327 44.0059 55.8184 44.0779 55.8184 44.1506C55.8184 44.2233 55.8327 44.2953 55.8605 44.3625C55.8883 44.4297 55.9291 44.4907 55.9805 44.5421L57.4391 46.0007Z" stroke="black"/>
<path d="M60.3564 48.918C60.4079 48.9695 60.4689 49.0102 60.5361 49.0381C60.6033 49.0659 60.6753 49.0802 60.748 49.0802C60.8207 49.0802 60.8927 49.0659 60.9599 49.0381C61.0271 49.0102 61.0881 48.9695 61.1395 48.918C61.1909 48.8666 61.2317 48.8056 61.2595 48.7384C61.2874 48.6712 61.3017 48.5992 61.3017 48.5265C61.3017 48.4538 61.2874 48.3818 61.2595 48.3146C61.2317 48.2474 61.1909 48.1864 61.1395 48.135L59.681 46.6761C59.5771 46.5722 59.4362 46.5139 59.2893 46.5139C59.1424 46.5139 59.0015 46.5722 58.8976 46.6761C58.7937 46.78 58.7354 46.9209 58.7354 47.0678C58.7354 47.2147 58.7937 47.3556 58.8976 47.4595L60.3564 48.918Z" fill="black"/>
<path d="M60.3564 48.918C60.4079 48.9695 60.4689 49.0102 60.5361 49.0381C60.6033 49.0659 60.6753 49.0802 60.748 49.0802C60.8207 49.0802 60.8927 49.0659 60.9599 49.0381C61.0271 49.0102 61.0881 48.9695 61.1395 48.918C61.1909 48.8666 61.2317 48.8056 61.2595 48.7384C61.2874 48.6712 61.3017 48.5992 61.3017 48.5265C61.3017 48.4538 61.2874 48.3818 61.2595 48.3146C61.2317 48.2474 61.1909 48.1864 61.1395 48.135L59.681 46.6761C59.5771 46.5722 59.4362 46.5139 59.2893 46.5139C59.1424 46.5139 59.0015 46.5722 58.8976 46.6761C58.7937 46.78 58.7354 46.9209 58.7354 47.0678C58.7354 47.2147 58.7937 47.3556 58.8976 47.4595L60.3564 48.918Z" stroke="black"/>
<path d="M54.5218 43.0836C54.5732 43.135 54.6343 43.1758 54.7015 43.2037C54.7687 43.2315 54.8407 43.2458 54.9135 43.2458C54.9862 43.2458 55.0583 43.2315 55.1255 43.2037C55.1927 43.1758 55.2537 43.135 55.3052 43.0836C55.3566 43.0322 55.3974 42.9711 55.4253 42.9039C55.4531 42.8367 55.4674 42.7647 55.4674 42.6919C55.4674 42.6192 55.4531 42.5471 55.4253 42.4799C55.3974 42.4127 55.3566 42.3517 55.3052 42.3002L53.8467 40.8417C53.7956 40.7888 53.7344 40.7466 53.6668 40.7176C53.5993 40.6886 53.5266 40.6733 53.453 40.6727C53.3795 40.6721 53.3065 40.6861 53.2385 40.714C53.1704 40.7418 53.1086 40.783 53.0566 40.835C53.0046 40.887 52.9635 40.9489 52.9356 41.0169C52.9078 41.085 52.8938 41.158 52.8944 41.2315C52.8951 41.3051 52.9104 41.3777 52.9394 41.4453C52.9685 41.5129 53.0107 41.574 53.0636 41.6251L54.5218 43.0836Z" fill="black"/>
<path d="M54.5218 43.0836C54.5732 43.135 54.6343 43.1758 54.7015 43.2037C54.7687 43.2315 54.8407 43.2458 54.9135 43.2458C54.9862 43.2458 55.0583 43.2315 55.1255 43.2037C55.1927 43.1758 55.2537 43.135 55.3052 43.0836C55.3566 43.0322 55.3974 42.9711 55.4253 42.9039C55.4531 42.8367 55.4674 42.7647 55.4674 42.6919C55.4674 42.6192 55.4531 42.5471 55.4253 42.4799C55.3974 42.4127 55.3566 42.3517 55.3052 42.3002L53.8467 40.8417C53.7956 40.7888 53.7344 40.7466 53.6668 40.7176C53.5993 40.6886 53.5266 40.6733 53.453 40.6727C53.3795 40.6721 53.3065 40.6861 53.2385 40.714C53.1704 40.7418 53.1086 40.783 53.0566 40.835C53.0046 40.887 52.9635 40.9489 52.9356 41.0169C52.9078 41.085 52.8938 41.158 52.8944 41.2315C52.8951 41.3051 52.9104 41.3777 52.9394 41.4453C52.9685 41.5129 53.0107 41.574 53.0636 41.6251L54.5218 43.0836Z" stroke="black"/>
<path d="M48.3958 54.4825L49.6489 54.2837C49.7277 54.2709 49.8084 54.2836 49.8795 54.3198C49.9506 54.356 50.0083 54.4138 50.0443 54.485L50.6203 55.6156C50.7412 55.86 50.9282 56.0656 51.1601 56.2091C51.3919 56.3527 51.6593 56.4283 51.932 56.4275C52.0136 56.4274 52.0951 56.421 52.1757 56.4082C52.4868 56.3624 52.7749 56.2176 52.9972 55.9952C53.2195 55.7729 53.3643 55.4848 53.4102 55.1738L53.6089 53.9203C53.6212 53.8416 53.6582 53.7689 53.7145 53.7126C53.7709 53.6563 53.8436 53.6193 53.9223 53.607L55.1754 53.4085C55.4851 53.3596 55.7715 53.2138 55.9933 52.9922C56.2151 52.7705 56.3611 52.4843 56.4103 52.1746C56.4595 51.8649 56.4094 51.5475 56.2672 51.268C56.1249 50.9885 55.8979 50.7612 55.6185 50.6187L54.4879 50.0426C54.4169 50.0066 54.3591 49.9489 54.3229 49.8779C54.2867 49.8069 54.274 49.7263 54.2866 49.6476L54.4851 48.3942C54.5342 48.0845 54.484 47.7671 54.3416 47.4877C54.1993 47.2082 53.9721 46.981 53.6926 46.8386C53.4132 46.6963 53.0959 46.646 52.7861 46.6951C52.4764 46.7442 52.1901 46.8902 51.9684 47.112L51.0714 48.0093C51.015 48.0656 50.9423 48.1027 50.8636 48.1151C50.7849 48.1276 50.7043 48.1148 50.6333 48.0786L49.5027 47.5026C49.2233 47.3601 48.906 47.3098 48.5962 47.3588C48.2864 47.4078 48.0001 47.5536 47.7783 47.7754C47.5565 47.9972 47.4107 48.2835 47.3617 48.5933C47.3127 48.9031 47.363 49.2204 47.5055 49.4998L48.0815 50.6304C48.1178 50.7014 48.1306 50.7821 48.1181 50.8608C48.1056 50.9395 48.0684 51.0123 48.0119 51.0685L47.1149 51.9655C46.8933 52.1872 46.7476 52.4733 46.6985 52.7829C46.6494 53.0925 46.6996 53.4096 46.8417 53.689C46.9839 53.9683 47.2108 54.1955 47.49 54.338C47.7691 54.4806 48.0862 54.5311 48.3958 54.4825ZM47.897 52.7489L48.794 51.8519C49.0163 51.6304 49.1626 51.3441 49.2116 51.0342C49.2607 50.7243 49.2102 50.4068 49.0672 50.1275L48.4908 48.9959C48.4552 48.9251 48.4429 48.8448 48.4556 48.7665C48.4682 48.6883 48.5052 48.616 48.5612 48.5599C48.6173 48.5039 48.6896 48.4669 48.7678 48.4542C48.8461 48.4416 48.9264 48.4539 48.9972 48.4895L50.1278 49.0655C50.4072 49.2084 50.7246 49.2589 51.0345 49.2098C51.3444 49.1607 51.6307 49.0146 51.8522 48.7924L52.7493 47.8954C52.8055 47.839 52.8783 47.8019 52.9569 47.7894C53.0356 47.7769 53.1162 47.7897 53.1872 47.8258C53.2582 47.862 53.3159 47.9198 53.352 47.9908C53.3882 48.0618 53.4009 48.1424 53.3883 48.2211L53.1899 49.4742C53.1402 49.7838 53.1901 50.1013 53.3323 50.3808C53.4744 50.6604 53.7016 50.8876 53.9812 51.0299L55.1118 51.6059C55.1828 51.642 55.2405 51.6997 55.2767 51.7706C55.3129 51.8416 55.3257 51.9222 55.3132 52.0008C55.3008 52.0795 55.2637 52.1522 55.2074 52.2085C55.1511 52.2648 55.0784 52.3019 54.9997 52.3143L53.7463 52.5128C53.4364 52.5614 53.1499 52.7071 52.928 52.9289C52.7062 53.1508 52.5605 53.4373 52.5119 53.7472L52.3134 55.0006C52.3009 55.0793 52.2638 55.1519 52.2074 55.2082C52.1511 55.2645 52.0784 55.3015 51.9997 55.3139C51.9211 55.3263 51.8405 55.3136 51.7696 55.2774C51.6986 55.2413 51.6409 55.1836 51.6047 55.1127L51.0287 53.9821C50.905 53.738 50.716 53.533 50.4829 53.3899C50.2497 53.2467 49.9814 53.171 49.7078 53.1711C49.2084 53.2166 48.7118 53.2891 48.2202 53.3883C48.1415 53.4006 48.061 53.3877 47.9901 53.3515C47.9192 53.3153 47.8616 53.2576 47.8255 53.1866C47.7894 53.1157 47.7766 53.0351 47.7891 52.9565C47.8015 52.8779 47.8385 52.8052 47.8948 52.7489H47.897Z" fill="black"/>
<path d="M48.3958 54.4825L49.6489 54.2837C49.7277 54.2709 49.8084 54.2836 49.8795 54.3198C49.9506 54.356 50.0083 54.4138 50.0443 54.485L50.6203 55.6156C50.7412 55.86 50.9282 56.0656 51.1601 56.2091C51.3919 56.3527 51.6593 56.4283 51.932 56.4275C52.0136 56.4274 52.0951 56.421 52.1757 56.4082C52.4868 56.3624 52.7749 56.2176 52.9972 55.9952C53.2195 55.7729 53.3643 55.4848 53.4102 55.1738L53.6089 53.9203C53.6212 53.8416 53.6582 53.7689 53.7145 53.7126C53.7709 53.6563 53.8436 53.6193 53.9223 53.607L55.1754 53.4085C55.4851 53.3596 55.7715 53.2138 55.9933 52.9922C56.2151 52.7705 56.3611 52.4843 56.4103 52.1746C56.4595 51.8649 56.4094 51.5475 56.2672 51.268C56.1249 50.9885 55.8979 50.7612 55.6185 50.6187L54.4879 50.0426C54.4169 50.0066 54.3591 49.9489 54.3229 49.8779C54.2867 49.8069 54.274 49.7263 54.2866 49.6476L54.4851 48.3942C54.5342 48.0845 54.484 47.7671 54.3416 47.4877C54.1993 47.2082 53.9721 46.981 53.6926 46.8386C53.4132 46.6963 53.0959 46.646 52.7861 46.6951C52.4764 46.7442 52.1901 46.8902 51.9684 47.112L51.0714 48.0093C51.015 48.0656 50.9423 48.1027 50.8636 48.1151C50.7849 48.1276 50.7043 48.1148 50.6333 48.0786L49.5027 47.5026C49.2233 47.3601 48.906 47.3098 48.5962 47.3588C48.2864 47.4078 48.0001 47.5536 47.7783 47.7754C47.5565 47.9972 47.4107 48.2835 47.3617 48.5933C47.3127 48.9031 47.363 49.2204 47.5055 49.4998L48.0815 50.6304C48.1178 50.7014 48.1306 50.7821 48.1181 50.8608C48.1056 50.9395 48.0684 51.0123 48.0119 51.0685L47.1149 51.9655C46.8933 52.1872 46.7476 52.4733 46.6985 52.7829C46.6494 53.0925 46.6996 53.4096 46.8417 53.689C46.9839 53.9683 47.2108 54.1955 47.49 54.338C47.7691 54.4806 48.0862 54.5311 48.3958 54.4825ZM47.897 52.7489L48.794 51.8519C49.0163 51.6304 49.1626 51.3441 49.2116 51.0342C49.2607 50.7243 49.2102 50.4068 49.0672 50.1275L48.4908 48.9959C48.4552 48.9251 48.4429 48.8448 48.4556 48.7665C48.4682 48.6883 48.5052 48.616 48.5612 48.5599C48.6173 48.5039 48.6896 48.4669 48.7678 48.4542C48.8461 48.4416 48.9264 48.4539 48.9972 48.4895L50.1278 49.0655C50.4072 49.2084 50.7246 49.2589 51.0345 49.2098C51.3444 49.1607 51.6307 49.0146 51.8522 48.7924L52.7493 47.8954C52.8055 47.839 52.8783 47.8019 52.9569 47.7894C53.0356 47.7769 53.1162 47.7897 53.1872 47.8258C53.2582 47.862 53.3159 47.9198 53.352 47.9908C53.3882 48.0618 53.4009 48.1424 53.3883 48.2211L53.1899 49.4742C53.1402 49.7838 53.1901 50.1013 53.3323 50.3808C53.4744 50.6604 53.7016 50.8876 53.9812 51.0299L55.1118 51.6059C55.1828 51.642 55.2405 51.6997 55.2767 51.7706C55.3129 51.8416 55.3257 51.9222 55.3132 52.0008C55.3008 52.0795 55.2637 52.1522 55.2074 52.2085C55.1511 52.2648 55.0784 52.3019 54.9997 52.3143L53.7463 52.5128C53.4364 52.5614 53.1499 52.7071 52.928 52.9289C52.7062 53.1508 52.5605 53.4373 52.5119 53.7472L52.3134 55.0006C52.3009 55.0793 52.2638 55.1519 52.2074 55.2082C52.1511 55.2645 52.0784 55.3015 51.9997 55.3139C51.9211 55.3263 51.8405 55.3136 51.7696 55.2774C51.6986 55.2413 51.6409 55.1836 51.6047 55.1127L51.0287 53.9821C50.905 53.738 50.716 53.533 50.4829 53.3899C50.2497 53.2467 49.9814 53.171 49.7078 53.1711C49.2084 53.2166 48.7118 53.2891 48.2202 53.3883C48.1415 53.4006 48.061 53.3877 47.9901 53.3515C47.9192 53.3153 47.8616 53.2576 47.8255 53.1866C47.7894 53.1157 47.7766 53.0351 47.7891 52.9565C47.8015 52.8779 47.8385 52.8052 47.8948 52.7489H47.897Z" stroke="black"/>
<path d="M68.1875 11H33.8125C30.5816 11 27.9531 13.6284 27.9531 16.8594V85.1406C27.9531 88.3716 30.5816 91 33.8125 91H68.1875C71.4184 91 74.0469 88.3716 74.0469 85.1406V16.8594C74.0469 13.6284 71.4184 11 68.1875 11ZM71.7031 74.5938H38.5C37.8528 74.5938 37.3281 75.1184 37.3281 75.7656C37.3281 76.4128 37.8528 76.9375 38.5 76.9375H71.7031V85.1406C71.7031 87.0792 70.1261 88.6562 68.1875 88.6562H33.8125C31.8739 88.6562 30.2969 87.0792 30.2969 85.1406V76.9375H33.8125C34.4597 76.9375 34.9844 76.4128 34.9844 75.7656C34.9844 75.1184 34.4597 74.5938 33.8125 74.5938H30.2969V22.7188H71.7031V74.5938ZM71.7031 20.375H30.2969V16.8594C30.2969 14.9208 31.8739 13.3438 33.8125 13.3438H68.1875C70.1261 13.3438 71.7031 14.9208 71.7031 16.8594V20.375Z" fill="black"/>
<path d="M55.6875 15.6875H51C50.3528 15.6875 49.8281 16.2122 49.8281 16.8594C49.8281 17.5066 50.3528 18.0312 51 18.0312H55.6875C56.3347 18.0312 56.8594 17.5066 56.8594 16.8594C56.8594 16.2122 56.3347 15.6875 55.6875 15.6875Z" fill="black"/>
<path d="M51 79.2812C49.0614 79.2812 47.4844 80.8583 47.4844 82.7969C47.4844 84.7355 49.0614 86.3125 51 86.3125C52.9386 86.3125 54.5156 84.7355 54.5156 82.7969C54.5156 80.8583 52.9386 79.2812 51 79.2812ZM51 83.9688C50.3537 83.9688 49.8281 83.4431 49.8281 82.7969C49.8281 82.1506 50.3537 81.625 51 81.625C51.6463 81.625 52.1719 82.1506 52.1719 82.7969C52.1719 83.4431 51.6463 83.9688 51 83.9688Z" fill="black"/>
<path d="M46.3125 18.0312C46.9597 18.0312 47.4844 17.5066 47.4844 16.8594C47.4844 16.2122 46.9597 15.6875 46.3125 15.6875C45.6653 15.6875 45.1406 16.2122 45.1406 16.8594C45.1406 17.5066 45.6653 18.0312 46.3125 18.0312Z" fill="black"/>
</svg>
