<svg width="102" height="102" viewBox="0 0 102 102" fill="none" xmlns="http://www.w3.org/2000/svg">
<rect x="0.5" y="0.5" width="101" height="101" rx="4.5" stroke="#707070"/>
<path d="M88.3333 33.0023H33.6667C32.9303 33.0023 32.3333 33.5992 32.3333 34.3356C32.3333 35.072 32.9303 35.669 33.6667 35.669H41.7267C35.8095 39.4342 32.2572 45.9891 32.3333 53.0023C32.2572 60.0155 35.8095 66.5704 41.7267 70.3356H13.6667V35.669H27C27.7364 35.669 28.3333 35.072 28.3333 34.3356C28.3333 33.5992 27.7364 33.0023 27 33.0023H13.6667C12.1939 33.0023 11 34.1962 11 35.669V70.3356C11 71.8084 12.1939 73.0023 13.6667 73.0023H88.3333C89.8061 73.0023 91 71.8084 91 70.3356V35.669C91 34.1962 89.8061 33.0023 88.3333 33.0023ZM35 53.0023C35 43.445 42.1773 35.669 51 35.669C59.8227 35.669 67 43.445 67 53.0023C67 62.5596 59.8227 70.3356 51 70.3356C42.1773 70.3356 35 62.5596 35 53.0023ZM88.3333 70.3356H60.2733C66.1906 66.5704 69.7428 60.0155 69.6667 53.0023C69.7428 45.9891 66.1906 39.4342 60.2733 35.669H88.3333V70.3356Z" fill="black"/>
<path d="M81.3146 18.6156C80.6834 18.2997 79.9527 18.247 79.2826 18.469L50.5626 28.0943C49.8631 28.3285 49.4858 29.0854 49.72 29.785C49.9541 30.4845 50.7111 30.8618 51.4106 30.6276L80.1226 21.0023L83.0693 29.7876C83.2205 30.2402 83.6017 30.5776 84.0692 30.6729C84.5368 30.7682 85.0196 30.6068 85.3359 30.2496C85.6522 29.8924 85.7539 29.3935 85.6026 28.941L82.6546 20.161C82.435 19.486 81.9516 18.9287 81.3146 18.6156Z" fill="black"/>
<path d="M50.5894 75.3783L21.8774 85.0023L18.9307 76.2169C18.6969 75.5174 17.9403 75.1398 17.2407 75.3736C16.5411 75.6074 16.1636 76.3641 16.3974 77.0636L19.34 85.841C19.5581 86.5147 20.0389 87.0718 20.6734 87.3863C21.0425 87.5699 21.4491 87.6657 21.8614 87.6663C22.148 87.6667 22.4328 87.6217 22.7054 87.5329L51.4254 77.9076C52.1249 77.6734 52.5022 76.9165 52.268 76.2169C52.0339 75.5174 51.2769 75.1401 50.5774 75.3743L50.5894 75.3783Z" fill="black"/>
<path d="M55 48.3356C55 49.072 55.597 49.669 56.3334 49.669C57.0698 49.669 57.6667 49.072 57.6667 48.3356C57.538 45.3468 55.2956 42.8751 52.3334 42.457V42.3356C52.3334 41.5992 51.7364 41.0023 51 41.0023C50.2637 41.0023 49.6667 41.5992 49.6667 42.3356V42.457C46.7045 42.8751 44.4621 45.3468 44.3334 48.3356C44.4621 51.3244 46.7045 53.7961 49.6667 54.2143V60.797C48.1829 60.4603 47.0976 59.1873 47 57.669C47 56.9326 46.4031 56.3356 45.6667 56.3356C44.9303 56.3356 44.3334 56.9326 44.3334 57.669C44.4621 60.6578 46.7045 63.1295 49.6667 63.5476V63.669C49.6667 64.4053 50.2637 65.0023 51 65.0023C51.7364 65.0023 52.3334 64.4053 52.3334 63.669V63.5476C55.2956 63.1295 57.538 60.6578 57.6667 57.669C57.538 54.6802 55.2956 52.2085 52.3334 51.7903V45.2076C53.8172 45.5442 54.9024 46.8173 55 48.3356ZM47 48.3356C47.0976 46.8173 48.1829 45.5442 49.6667 45.2076V51.4636C48.1829 51.127 47.0976 49.854 47 48.3356ZM55 57.669C54.9024 59.1873 53.8172 60.4603 52.3334 60.797V54.541C53.8172 54.8776 54.9024 56.1506 55 57.669Z" fill="black"/>
<path d="M79 67.669H84.3333C85.0697 67.669 85.6666 67.072 85.6666 66.3356V61.0023C85.6666 60.2659 85.0697 59.669 84.3333 59.669C83.5969 59.669 83 60.2659 83 61.0023V65.0023H79C78.2636 65.0023 77.6666 65.5993 77.6666 66.3356C77.6666 67.072 78.2636 67.669 79 67.669Z" fill="black"/>
<path d="M17.6667 59.669C16.9303 59.669 16.3334 60.2659 16.3334 61.0023V66.3356C16.3334 67.072 16.9303 67.669 17.6667 67.669H23C23.7364 67.669 24.3334 67.072 24.3334 66.3356C24.3334 65.5993 23.7364 65.0023 23 65.0023H19V61.0023C19 60.2659 18.4031 59.669 17.6667 59.669Z" fill="black"/>
<path d="M23 38.3356H17.6667C16.9303 38.3356 16.3334 38.9326 16.3334 39.669V45.0023C16.3334 45.7387 16.9303 46.3356 17.6667 46.3356C18.4031 46.3356 19 45.7387 19 45.0023V41.0023H23C23.7364 41.0023 24.3334 40.4053 24.3334 39.669C24.3334 38.9326 23.7364 38.3356 23 38.3356Z" fill="black"/>
<path d="M79 41.0023H83V45.0023C83 45.7387 83.5969 46.3356 84.3333 46.3356C85.0697 46.3356 85.6666 45.7387 85.6666 45.0023V39.669C85.6666 38.9326 85.0697 38.3356 84.3333 38.3356H79C78.2636 38.3356 77.6666 38.9326 77.6666 39.669C77.6666 40.4053 78.2636 41.0023 79 41.0023Z" fill="black"/>
</svg>
