<?xml version="1.0" encoding="UTF-8"?>
<svg id="Layer_1" data-name="Layer 1" xmlns="http://www.w3.org/2000/svg" viewBox="0 0 1080 1080">
  <circle cx="344.48" cy="606.18" r="9.78"/>
  <path d="M540,498.65c-59.29,0-107.53,48.24-107.53,107.53s48.24,107.53,107.53,107.53,107.53-48.24,107.53-107.53-48.24-107.53-107.53-107.53h0ZM540.48,596.41c21.34.26,38.62,17.7,38.62,39.1,0,17.54-11.61,32.42-27.55,37.36-1.04.32-1.78,1.26-1.78,2.35v8.83c0,5.21-3.93,9.75-9.12,10.09-5.69.37-10.43-4.14-10.43-9.76v-9.13c0-1.08-.68-2.05-1.71-2.37-15.75-4.85-27.29-19.4-27.61-36.65-.1-5.44,3.9-10.27,9.33-10.5,5.6-.24,10.21,4.22,10.21,9.77,0,11.09,9.28,20.05,20.49,19.53,9.95-.47,18.13-8.65,18.59-18.59.52-11.2-8.44-20.49-19.53-20.49-21.56,0-39.1-17.54-39.1-39.1,0-17.54,11.61-32.42,27.55-37.36,1.04-.32,1.78-1.26,1.78-2.35v-8.83c0-5.21,3.93-9.75,9.12-10.09,5.69-.37,10.43,4.14,10.43,9.76v9.13c0,1.08.68,2.05,1.71,2.37,15.75,4.85,27.29,19.4,27.61,36.65.1,5.44-3.9,10.27-9.33,10.5-5.6.24-10.21-4.22-10.21-9.77,0-10.78-8.77-19.55-19.55-19.55s-19.67,8.88-19.55,19.76c.11,10.79,9.24,19.21,20.03,19.34h0Z"/>
  <path d="M823.5,439.99H256.5c-16.17,0-29.33,13.16-29.33,29.33v273.72c0,16.17,13.16,29.33,29.33,29.33h567c16.17,0,29.33-13.16,29.33-29.33v-273.72c0-16.17-13.16-29.33-29.33-29.33h0ZM432.47,733.26h-127.09c-5.37,0-9.8-4.33-9.78-9.7.04-10.84-8.79-19.66-19.62-19.62-5.37.02-9.7-4.4-9.7-9.78v-175.96c0-5.37,4.33-9.8,9.7-9.78,10.84.04,19.66-8.79,19.62-19.62-.02-5.37,4.4-9.7,9.78-9.7h126.75c5.21,0,9.75,3.93,10.09,9.12.37,5.69-4.14,10.43-9.76,10.43h-115.82c-1.58,0-2.97,1.01-3.47,2.51-3.88,11.69-13.14,20.96-24.84,24.84-1.5.5-2.51,1.89-2.51,3.47v153.43c0,1.58,1.01,2.97,2.51,3.47,11.69,3.88,20.96,13.14,24.84,24.84.5,1.5,1.89,2.51,3.47,2.51h115.48c5.21,0,9.75,3.93,10.09,9.12.37,5.69-4.14,10.43-9.75,10.43h0ZM373.81,606.18c0,16.17-13.16,29.33-29.33,29.33s-29.33-13.16-29.33-29.33,13.16-29.33,29.33-29.33,29.33,13.16,29.33,29.33ZM540,733.26c-70.08,0-127.09-57.01-127.09-127.09s57.01-127.09,127.09-127.09,127.09,57.01,127.09,127.09-57.01,127.09-127.09,127.09ZM813.72,694.16c0,5.37-4.33,9.8-9.7,9.78-10.84-.04-19.66,8.79-19.62,19.62.02,5.37-4.4,9.7-9.78,9.7h-126.75c-5.21,0-9.75-3.93-10.09-9.12-.37-5.69,4.14-10.43,9.76-10.43h115.82c1.58,0,2.97-1.01,3.47-2.51,3.88-11.69,13.14-20.96,24.84-24.84,1.5-.5,2.51-1.89,2.51-3.47v-153.43c0-1.58-1.01-2.97-2.51-3.47-11.69-3.88-20.96-13.14-24.84-24.84-.5-1.5-1.89-2.51-3.47-2.51h-115.48c-5.21,0-9.75-3.93-10.09-9.12-.37-5.69,4.14-10.43,9.76-10.43h127.09c5.37,0,9.8,4.33,9.78,9.7-.04,10.84,8.79,19.66,19.62,19.62,5.37-.02,9.7,4.4,9.7,9.78v175.96h0ZM706.19,606.18c0-16.17,13.16-29.33,29.33-29.33s29.33,13.16,29.33,29.33-13.16,29.33-29.33,29.33-29.33-13.16-29.33-29.33Z"/>
  <circle cx="735.52" cy="606.18" r="9.78"/>
  <path d="M816.11,390c-2.01-16.16-16.82-27.66-33.16-25.4l-373.44,53.41c-1.5.22-1.34,2.43.17,2.43h407.47c1.47,0,2.61-1.29,2.43-2.75l-3.46-27.69Z"/>
  <path d="M761.35,347.93c1.43-.21,2.37-1.6,2.01-3.01l-3.77-15.08c-3.96-15.89-20.16-25.49-36.17-21.18l-307.31,86.18c-1.47.41-1.02,2.6.49,2.39,77.22-11.04,287.87-41.16,344.73-49.3Z"/>
</svg>