<?xml version="1.0" encoding="UTF-8"?>
<svg id="Layer_1" data-name="Layer 1" xmlns="http://www.w3.org/2000/svg" viewBox="0 0 1080 1080">
  <path d="M690.5,491.94c-2.32,0-4.69.33-7.07.98l-26.86,7.4-27.89-67.94c-7.9-19.25-31.26-34.91-52.06-34.91h-261c-20.81,0-44.16,15.66-52.06,34.91l-27.85,67.84-26.53-7.31c-2.37-.65-4.75-.98-7.07-.98-12.69,0-21.91,9.7-21.91,23.06v15.83c0,15.59,12.69,28.28,28.28,28.28h3.04l-4.5,10.97c-7.34,17.88-13.32,48.15-13.32,67.48v134.96c0,15.59,12.69,28.28,28.28,28.28h36.94c15.59,0,28.28-12.69,28.28-28.28v-33.7h317.79v33.7c0,15.59,12.69,28.28,28.28,28.28h36.93c15.59,0,28.28-12.69,28.28-28.28v-134.96c0-19.33-5.98-49.6-13.32-67.48l-4.5-10.97h3.42c15.59,0,28.28-12.69,28.28-28.28v-15.83c0-13.36-9.21-23.06-21.9-23.06ZM255.99,543.75l42.19-102.76c4.73-11.51,18.77-20.93,31.22-20.93h233.46c12.44,0,26.49,9.42,31.22,20.93l42.19,102.76c4.72,11.51-1.59,20.93-14.03,20.93h-352.2c-12.45,0-18.76-9.42-14.04-20.93ZM350.17,673.73c0,6.22-5.09,11.31-11.31,11.31h-80.14c-6.22,0-11.31-5.09-11.31-11.31v-38.46c0-6.22,5.09-11.31,11.31-11.31h80.14c6.22,0,11.31,5.09,11.31,11.31v38.46ZM644.09,673.73c0,6.22-5.09,11.31-11.31,11.31h-80.14c-6.22,0-11.31-5.09-11.31-11.31v-38.46c0-6.22,5.09-11.31,11.31-11.31h80.14c6.22,0,11.31,5.09,11.31,11.31v38.46Z"/>
  <g>
    <path d="M864.41,279.2h-133.96c-19.51,0-35.38,15.87-35.38,35.38v133.96c0,19.51,15.87,35.38,35.38,35.38h53.78v300.67c0,7.29,5.91,13.2,13.2,13.2s13.2-5.91,13.2-13.2v-300.66h53.78c19.51,0,35.38-15.87,35.38-35.38v-133.96c0-19.51-15.87-35.38-35.38-35.38ZM834.07,390.27c-7.7,6.94-19.05,10.45-33.73,10.45h-19.4c-2.33,0-4.22,1.9-4.22,4.23v32.71c0,3.55-2.89,6.44-6.45,6.44h-14.69c-3.56,0-6.45-2.89-6.45-6.44v-112.2c0-3.56,2.89-6.45,6.45-6.45h37.01c24.52,0,33.67,3.69,41.19,10.08,7.93,6.73,11.95,17.04,11.95,30.64,0,13.29-3.92,23.57-11.66,30.54Z"/>
    <path d="M813.07,346.1c-3.58-2.7-9.91-4.08-18.82-4.08h-13.3c-2.33,0-4.22,1.9-4.22,4.22v26.88c0,2.33,1.9,4.22,4.22,4.22h7.97c2.93,0,7.66-.22,10.55-.48,2.8-.26,10.71-1.4,13.61-3.59,3.48-2.64,5.25-7.19,5.25-13.54s-1.77-11-5.25-13.63Z"/>
  </g>
</svg>