<svg width="102" height="102" viewBox="0 0 102 102" fill="none" xmlns="http://www.w3.org/2000/svg">
<rect x="0.5" y="0.5" width="101" height="101" rx="4.5" stroke="#707070"/>
<g clip-path="url(#clip0_1144_868)">
<path d="M65.5482 61.1698C65.2987 60.4772 64.535 60.1182 63.8426 60.3678C63.15 60.6173 62.791 61.381 63.0406 62.0734C63.0467 62.0904 63.0532 62.1073 63.0601 62.1241C64.2756 65.2962 64.3635 67.7219 63.3 68.7882C62.0098 70.0757 58.7964 69.6731 54.702 67.7139C49.2204 64.8677 44.2379 61.1495 39.9491 56.7049C29.5091 46.2636 25.2015 36.0183 27.8658 33.354C28.7159 32.6826 29.821 32.4247 30.8806 32.6502C31.6146 32.7042 32.2536 32.1528 32.3075 31.4187C32.3597 30.7092 31.8454 30.0837 31.1392 29.9979C29.286 29.6701 27.3848 30.2103 25.9812 31.464C21.0977 36.3461 28.5628 49.0812 38.0645 58.5841C42.5662 63.2426 47.7972 67.1363 53.5518 70.1116C54.5939 70.6106 55.6678 71.0403 56.7665 71.3978L47.2969 74.9884C34.6518 70.1809 25.5488 58.9706 23.4395 45.6078C23.3254 44.8806 22.6433 44.3835 21.9161 44.4976C21.1889 44.6117 20.6917 45.2938 20.8058 46.021C21.0151 47.3538 21.295 48.6866 21.6375 49.9901C24.7067 61.6188 32.7903 71.2792 43.6956 76.3505L28.1097 82.2482C28.0382 82.129 27.9482 82.022 27.8431 81.931C23.882 78.7508 21.3966 74.0868 20.9658 69.0254L20.3474 61.5363C20.2987 60.8108 19.671 60.262 18.9452 60.3106C18.9314 60.3116 18.9176 60.3126 18.9039 60.3141C18.1702 60.3724 17.6226 61.0147 17.6809 61.7484C17.6811 61.7514 17.6814 61.7546 17.6817 61.7576L18.3108 69.244C18.7793 74.654 21.303 79.6787 25.3627 83.2852L14.2444 87.4942L16.2436 79.2894C16.4181 78.5738 15.9796 77.8525 15.264 77.678C14.5485 77.5036 13.8271 77.9421 13.6526 78.6576L11.0523 89.3202C10.877 90.035 11.3145 90.7568 12.0296 90.9319C12.2918 90.9962 12.5672 90.9792 12.8196 90.8835L62.1337 72.2241C62.2122 72.1858 62.2864 72.1393 62.355 72.0855C63.4222 71.9216 64.4117 71.4281 65.1846 70.6741C66.5052 69.3533 67.6421 66.6303 65.5482 61.1698Z" fill="black"/>
<path d="M78.126 57.7325C70.921 55.0352 63.1335 54.279 55.5442 55.54L50.782 56.3397C50.0591 56.4786 49.5858 57.1772 49.7248 57.9001C49.8591 58.5984 50.518 59.0684 51.2219 58.968L55.9827 58.1749C63.1102 56.9899 70.4242 57.7006 77.1904 60.2355C77.3405 60.2886 77.499 60.3153 77.6582 60.3141C78.3943 60.3153 78.992 59.7197 78.9932 58.9835C78.9942 58.4262 78.6483 57.9272 78.126 57.7325Z" fill="black"/>
<path d="M82.8641 37.0832C82.5476 36.4184 81.7522 36.1362 81.0875 36.4528L53.0984 49.7809C52.4338 50.0973 52.1514 50.8925 52.4678 51.5572L52.468 51.5575C52.7844 52.2221 53.5796 52.5045 54.2443 52.1881L54.2446 52.188L82.2337 38.8598C82.8985 38.5433 83.1807 37.7479 82.8641 37.0832Z" fill="black"/>
<path d="M43.3836 20.0458C43.237 19.3244 42.5334 18.8584 41.812 19.0051C41.0906 19.1517 40.6246 19.8552 40.7712 20.5766C40.7744 20.5926 40.7781 20.6084 40.7819 20.6243C42.4689 28.1612 41.7737 36.0361 38.792 43.1608L36.8541 47.811C36.574 48.4886 36.8938 49.2651 37.5698 49.549C37.7318 49.6171 37.9059 49.6519 38.0816 49.6516C38.6196 49.6516 39.1047 49.3284 39.3118 48.8319L41.2511 44.1871C44.4456 36.5552 45.1909 28.1195 43.3836 20.0458Z" fill="black"/>
<path d="M84.3223 58.9813C82.114 58.9813 80.3239 60.7715 80.3239 62.9798C80.3239 65.1881 82.114 66.9782 84.3223 66.9782C86.5306 66.9782 88.3207 65.1881 88.3207 62.9798C88.3207 60.7715 86.5306 58.9813 84.3223 58.9813ZM84.3223 64.3126C83.5862 64.3126 82.9895 63.7158 82.9895 62.9798C82.9895 62.2437 83.5862 61.647 84.3223 61.647C85.0583 61.647 85.6551 62.2437 85.6551 62.9798C85.6551 63.7158 85.0583 64.3126 84.3223 64.3126Z" fill="black"/>
<path d="M52.3347 21.6625C50.1264 21.6625 48.3363 23.4526 48.3363 25.6609C48.3363 27.8693 50.1264 29.6594 52.3347 29.6594C54.5431 29.6594 56.3332 27.8693 56.3332 25.6609C56.3332 23.4526 54.5431 21.6625 52.3347 21.6625ZM52.3347 26.9938C51.5987 26.9938 51.0019 26.397 51.0019 25.6609C51.0019 24.9249 51.5987 24.3281 52.3347 24.3281C53.0708 24.3281 53.6676 24.9249 53.6676 25.6609C53.6676 26.397 53.0708 26.9938 52.3347 26.9938Z" fill="black"/>
<path d="M40.3395 16.3313C41.8116 16.3313 43.0051 15.1378 43.0051 13.6656C43.0051 12.1934 41.8116 11 40.3395 11C38.8673 11 37.6738 12.1934 37.6738 13.6656C37.6738 15.1378 38.8673 16.3313 40.3395 16.3313Z" fill="black"/>
<path d="M77.6583 17.6641C76.9222 17.6641 76.3254 18.2608 76.3254 18.9969V20.3297C76.3254 21.0657 76.9222 21.6625 77.6583 21.6625C78.3943 21.6625 78.9911 21.0657 78.9911 20.3297V18.9969C78.9911 18.2608 78.3943 17.6641 77.6583 17.6641Z" fill="black"/>
<path d="M77.6583 11C76.9222 11 76.3254 11.5968 76.3254 12.3328V13.6656C76.3254 14.4017 76.9222 14.9984 77.6583 14.9984C78.3943 14.9984 78.9911 14.4017 78.9911 13.6656V12.3328C78.9911 11.5968 78.3943 11 77.6583 11Z" fill="black"/>
<path d="M81.6566 14.9984H80.3238C79.5877 14.9984 78.991 15.5952 78.991 16.3313C78.991 17.0673 79.5877 17.6641 80.3238 17.6641H81.6566C82.3926 17.6641 82.9894 17.0673 82.9894 16.3313C82.9894 15.5952 82.3926 14.9984 81.6566 14.9984Z" fill="black"/>
<path d="M74.9925 14.9984H73.6597C72.9237 14.9984 72.3269 15.5952 72.3269 16.3313C72.3269 17.0673 72.9237 17.6641 73.6597 17.6641H74.9925C75.7286 17.6641 76.3253 17.0673 76.3253 16.3313C76.3253 15.5952 75.7286 14.9984 74.9925 14.9984Z" fill="black"/>
<path d="M68.3285 25.633H61.6364C60.9004 25.633 60.3036 26.2297 60.3036 26.9658V33.6578C60.3036 34.3939 60.9004 34.9907 61.6364 34.9907H68.3285C69.0645 34.9907 69.6613 34.3939 69.6613 33.6578V26.9658C69.6613 26.2297 69.0645 25.633 68.3285 25.633ZM66.9956 32.325H62.9692V28.2986H66.9956V32.325Z" fill="black"/>
<path d="M58.6191 36.7626C58.1298 36.2403 57.3154 36.1977 56.7743 36.666L43.4462 48.6613C42.8994 49.1538 42.8552 49.9963 43.3476 50.5433C43.84 51.0901 44.6825 51.1342 45.2295 50.6419L58.5576 38.6466C59.0949 38.1433 59.1224 37.2999 58.6191 36.7626Z" fill="black"/>
<path d="M82.9894 41.6547C82.2534 41.6547 81.6566 42.2515 81.6566 42.9875V44.3204C81.6566 45.0564 82.2534 45.6532 82.9894 45.6532C83.7255 45.6532 84.3222 45.0564 84.3222 44.3204V42.9875C84.3222 42.2515 83.7255 41.6547 82.9894 41.6547Z" fill="black"/>
<path d="M88.6446 41.4255L87.7023 40.4832C87.1728 39.9717 86.3292 39.9864 85.8177 40.5158C85.3189 41.0323 85.3189 41.8512 85.8177 42.3678L86.76 43.3101C87.2895 43.8216 88.1331 43.8069 88.6446 43.2774C89.1436 42.7608 89.1436 41.9419 88.6446 41.4255Z" fill="black"/>
<path d="M89.6535 36.3235H88.3207C87.5847 36.3235 86.9879 36.9202 86.9879 37.6563C86.9879 38.3923 87.5847 38.9891 88.3207 38.9891H89.6535C90.3896 38.9891 90.9864 38.3923 90.9864 37.6563C90.9864 36.9202 90.3896 36.3235 89.6535 36.3235Z" fill="black"/>
<path d="M88.612 32.0025C88.0955 31.5037 87.2767 31.5037 86.76 32.0025L85.8177 32.9448C85.2973 33.4654 85.2974 34.3093 85.8181 34.8297C86.068 35.0795 86.4068 35.2199 86.76 35.2199C87.1136 35.2199 87.4524 35.0793 87.7023 34.8294L88.6446 33.8871C89.1561 33.3576 89.1414 32.5138 88.612 32.0025Z" fill="black"/>
<path d="M82.9894 29.6594C82.2534 29.6594 81.6566 30.2562 81.6566 30.9922V32.325C81.6566 33.0611 82.2534 33.6578 82.9894 33.6578C83.7255 33.6578 84.3222 33.0611 84.3222 32.325V30.9922C84.3222 30.2562 83.7255 29.6594 82.9894 29.6594Z" fill="black"/>
<path d="M80.1612 32.9448L79.2189 32.0025C78.6894 31.4912 77.8458 31.5057 77.3343 32.0351C76.8355 32.5516 76.8355 33.3705 77.3343 33.8871L78.2766 34.8294C78.8061 35.3409 79.6497 35.3262 80.1612 34.7967C80.6602 34.2801 80.6602 33.4612 80.1612 32.9448Z" fill="black"/>
<path d="M26.946 16.7631C26.7891 16.2809 26.3721 15.9297 25.8704 15.8568L21.9586 15.2877L20.214 11.7437C19.8251 11.0835 18.9746 10.8634 18.3144 11.2522C18.1114 11.3717 17.9423 11.5408 17.8229 11.7437L16.0702 15.2877L12.1584 15.8568C11.4299 15.9619 10.9246 16.6378 11.0297 17.3663C11.0715 17.6564 11.2078 17.9245 11.4174 18.1292L14.247 20.8881L13.5805 24.784C13.4526 25.5088 13.9364 26.2002 14.6613 26.3282C14.9532 26.3797 15.2537 26.3325 15.5158 26.1941L19.0144 24.3495L22.5131 26.1887C23.1646 26.5313 23.9705 26.2809 24.313 25.6293C24.4495 25.3699 24.4965 25.0728 24.447 24.784L23.7806 20.8881L26.6115 18.1292C26.9738 17.7745 27.1034 17.2451 26.946 16.7631ZM21.4135 19.4687C21.0996 19.7744 20.9562 20.2149 21.0296 20.6469L21.3602 22.5728L19.6342 21.6625C19.2462 21.4588 18.7827 21.4588 18.3947 21.6625L16.662 22.5715L16.9925 20.6456C17.0674 20.2152 16.9264 19.7754 16.6154 19.4687L15.2146 18.1052L17.1485 17.824C17.5827 17.761 17.958 17.4883 18.1521 17.095L19.0144 15.345L19.8781 17.095C20.072 17.488 20.4467 17.7605 20.8804 17.824L22.8129 18.1052L21.4135 19.4687Z" fill="black"/>
<path d="M86.4841 77.8073H86.4788L85.9297 76.9836C82.8507 72.3792 78.0091 69.2485 72.5469 68.3297C71.8182 68.2257 71.1431 68.7322 71.0391 69.4609C70.9387 70.1649 71.4087 70.8239 72.1071 70.958C76.0469 71.6267 79.6373 73.6283 82.2778 76.6278C80.0578 77.0271 78.1162 78.3604 76.9465 80.289C75.5111 82.8598 76.4315 86.1074 79.0024 87.5428C81.5732 88.9783 84.8208 88.0578 86.2562 85.487C86.8045 84.4286 87.1006 83.2575 87.1212 82.0656C88.5393 84.1253 88.6528 86.8151 87.4131 88.9869C87.0376 89.62 87.2463 90.4377 87.8794 90.8132C88.5125 91.1888 89.3302 90.98 89.7057 90.3469C89.7177 90.3266 89.7292 90.3061 89.7402 90.2851C92.1806 85.9261 90.7431 80.4181 86.4841 77.8073ZM83.9318 84.1861C83.2204 85.4751 81.5989 85.9433 80.31 85.2319C79.0212 84.5205 78.5529 82.899 79.2643 81.6102C79.2683 81.603 79.2723 81.5957 79.2763 81.5885C80.0628 80.3007 81.3894 79.4373 82.8855 79.2401C83.1173 79.2337 83.3467 79.2871 83.5519 79.3947C84.6768 80.0224 84.7368 82.744 83.9318 84.1861Z" fill="black"/>
</g>
<defs>
<clipPath id="clip0_1144_868">
<rect width="80" height="80" fill="white" transform="translate(11 11)"/>
</clipPath>
</defs>
</svg>
