<?xml version="1.0" encoding="UTF-8"?>
<svg id="Layer_1" data-name="Layer 1" xmlns="http://www.w3.org/2000/svg" viewBox="0 0 1080 1080">
  <path d="M540.34,731.9c-21.55,7.93-48.91,17.99-83.51,30.82-59.1-8.25-121.21-27.48-148.05-71.61,9.78-26.34,18.31-49.42,25.85-69.78,50.6,58.45,139,95.57,205.72,110.58h0Z"/>
  <path d="M557.51,534.76c-57.51-57.49-131.56-99.95-161.74-69.71-6.44,6.44-4.5,2.59-49.26,124.07,47.73,68.88,168.32,116.98,252.33,121.21,25.12-9.45,24.53-9.92,28.4-13.81,37.02-37.02-32.72-124.78-69.73-161.76ZM606.38,675.67c-2.81,2.85-15.87,2.99-39.07-8.47-25.22-12.47-53.99-34.21-81.02-61.24-62.62-62.62-77.25-112.54-69.71-120.09,1.18-1.18,3.38-1.81,6.5-1.81,16.91,0,60.73,18.68,113.6,71.53,27.03,27.03,48.79,55.8,61.26,81.02,11.45,23.16,11.25,36.24,8.43,39.05Z"/>
  <path d="M402.89,782.73c-34.02,12.65-73.24,27.3-118.79,44.37-11.84,4.36-23.31-7.15-18.93-18.93,11.47-30.72,21.82-58.49,31.25-83.83,25.89,29.74,64.82,47.77,106.47,58.39Z"/>
  <path d="M611.29,315.29c-9.17,1.61-18.03,3.06-24.04,6.09,9.03,13.87,27.91,31.52,16.38,54.58-10.31,20.62-31.74,19.41-50.34,20.05,11.41,15.6,24.61,31.41,14.44,51.77-10.55,21.11-38.2,25.49-54.52,28.15-5.28.86-10.19-2.67-11.18-7.92l-3.57-19.29c-1-5.36,2.61-10.53,7.97-11.47,9.29-1.63,17.99-3.04,24.04-6.09-9.07-13.77-27.87-31.6-16.4-54.56,10.29-20.56,31.7-19.41,50.34-20.05-11.43-15.6-24.61-31.41-14.44-51.77,10.55-21.09,38.22-25.49,54.5-28.15,5.28-.86,10.19,2.67,11.16,7.92l3.57,19.29c1.04,5.36-2.53,10.51-7.92,11.45h0Z"/>
  <path d="M788.45,473.01l19.29,3.57c5.26.98,8.78,5.89,7.92,11.16-2.65,16.28-7.05,43.96-28.15,54.5-20.37,10.17-36.18-3.01-51.77-14.44-.65,18.64.51,40.07-20.05,50.34-22.96,11.47-40.79-7.33-54.56-16.4-3.04,6.05-4.46,14.75-6.09,24.04-.94,5.38-6.11,8.98-11.47,7.97l-19.29-3.57c-5.26-.98-8.78-5.89-7.92-11.18,2.65-16.3,7.05-43.96,28.15-54.52,20.35-10.17,36.18,3.02,51.77,14.44.65-18.6-.57-40.05,20.05-50.34,23.06-11.53,40.72,7.35,54.58,16.38,3.02-6.01,4.48-14.87,6.09-24.04.92-5.32,6.07-8.9,11.45-7.92h0Z"/>
  <path d="M729.74,651.25h-37.32c-3.26,0-5.89-2.63-5.89-5.89v-17.68c0-3.26,2.63-5.89,5.89-5.89h37.32c3.26,0,5.89,2.63,5.89,5.89v17.68c0,3.26-2.63,5.89-5.89,5.89Z"/>
  <path d="M770.75,303.07l-26.4,26.4c-2.3,2.3-6.03,2.3-8.33,0l-12.49-12.51c-2.3-2.3-2.3-6.03,0-8.33l26.4-26.4c2.3-2.3,6.03-2.3,8.33,0l12.49,12.49c2.3,2.3,2.3,6.03,0,8.35Z"/>
  <path d="M464.59,366.46h-17.68c-3.26,0-5.89-2.63-5.89-5.89v-37.32c0-3.26,2.63-5.89,5.89-5.89h17.68c3.26,0,5.89,2.63,5.89,5.89v37.32c0,3.26-2.63,5.89-5.89,5.89Z"/>
  <path d="M605.67,499.13l-14.73-9.82c-2.77-1.85-3.57-5.58-1.67-8.31,40.09-57.04,117.38-116.49,199.14-119.36,3.36-.1,6.15,2.69,6.15,6.03v17.7c0,3.14-2.47,5.6-5.62,5.74-68.41,2.71-138.49,54.23-175.36,106.53-1.83,2.61-5.28,3.26-7.92,1.49h0Z"/>
</svg>