<?xml version="1.0" encoding="UTF-8"?>
<svg id="Layer_1" data-name="Layer 1" xmlns="http://www.w3.org/2000/svg" viewBox="0 0 1080 1080">
  <defs>
    <style>
      .cls-1 {
        fill: #1a1a1a;
        fill-rule: evenodd;
      }
    </style>
  </defs>
  <path id="Shape" class="cls-1" d="M1034.84,759.88s-1.16-.28-2.48-.6-4.54-1.08-7.16-1.69c-2.61-.6-7.1-1.62-9.96-2.25-2.86-.63-7.46-1.62-10.21-2.2-2.75-.58-7.71-1.59-11.01-2.25s-8.01-1.58-10.46-2.05c-2.45-.47-6.52-1.23-9.06-1.7-2.53-.47-6.65-1.21-9.16-1.65-2.5-.44-6.8-1.19-9.56-1.66-2.75-.47-7.23-1.22-9.96-1.66s-7.23-1.16-10.01-1.6c-2.78-.44-7.46-1.15-10.41-1.59-2.94-.44-7.54-1.12-10.21-1.5-2.67-.38-7.15-1.02-9.96-1.4-2.81-.39-7.47-1.02-10.36-1.4-2.89-.38-7.57-.99-10.41-1.35-2.83-.36-7.57-.95-10.52-1.31-2.95-.36-7.68-.92-10.51-1.25-2.83-.33-7.77-.89-10.99-1.25-3.22-.36-8.41-.92-11.52-1.25-3.12-.33-7.93-.83-10.68-1.1-2.76-.28-7.07-.7-9.59-.95-2.52-.24-6.76-.65-9.43-.9-2.67-.25-7.15-.65-9.96-.9-2.81-.25-7.49-.65-10.41-.9s-7.56-.63-10.31-.85-7.37-.58-10.26-.8c-2.89-.22-7.73-.58-10.76-.8-3.03-.22-7.82-.55-10.66-.75-2.83-.19-7.61-.51-10.61-.7-3-.19-7.68-.49-10.41-.65-2.72-.16-7.32-.43-10.21-.6-2.89-.16-7.38-.41-9.98-.55-2.6-.14-6.53-.34-8.73-.45-2.2-.11-5.87-.29-8.16-.4s-6.16-.29-8.61-.4c-2.45-.11-6.6-.29-9.23-.4-2.63-.11-7.14-.29-10.03-.4-2.89-.11-7.85-.29-11.03-.4-3.18-.11-7.93-.27-10.56-.35-2.63-.08-7.21-.22-10.18-.3-2.97-.08-8.14-.22-11.48-.3s-8.3-.19-11.01-.25c-2.71-.06-7.43-.15-10.48-.2-3.05-.05-8.95-.15-13.11-.2-4.16-.06-12.71-.15-19.01-.2-6.3-.05-17.47-.09-24.82-.1-7.35,0-18.54.04-24.87.1-6.33.05-14.89.14-19.01.2-4.13.06-10.03.15-13.11.2-3.08.05-7.78.15-10.43.2-2.66.06-7.61.17-11.01.25-3.4.08-8.59.22-11.53.3-2.94.08-7.53.22-10.18.3-2.66.08-7.41.24-10.56.35-3.15.11-8.09.29-10.98.4-2.89.11-7.42.29-10.06.4s-7.3.31-10.36.45c-3.05.14-7.84.36-10.63.5-2.79.14-7.25.36-9.91.5-2.66.14-7.26.39-10.23.55-2.97.17-7.68.44-10.46.6-2.78.16-7.55.46-10.61.65-3.05.19-7.9.51-10.76.7-2.86.19-7.75.53-10.86.75-3.11.22-8.04.58-10.96.8s-8.41.65-12.21.95c-3.8.3-9.79.8-13.31,1.1-3.52.3-9.38.82-13.01,1.15-3.63.33-8.74.8-11.36,1.05-2.61.25-7.43.72-10.71,1.05-3.27.33-8.54.87-11.71,1.2s-8.97.96-12.91,1.4c-3.94.44-9.83,1.11-13.11,1.5-3.27.38-8.52,1.02-11.66,1.4-3.14.39-8.29,1.04-11.46,1.45s-8.1,1.06-10.96,1.45c-2.86.39-7.75,1.06-10.86,1.5-3.11.44-8.06,1.16-11.01,1.59-2.94.43-7.72,1.16-10.61,1.6-2.89.45-7.35,1.15-9.91,1.56s-6.79,1.11-9.41,1.54-6.96,1.18-9.66,1.65c-2.7.47-6.66,1.17-8.81,1.56s-5.7,1.04-7.91,1.45-5.85,1.1-8.11,1.54-6.02,1.18-8.36,1.65c-2.34.47-5.9,1.19-7.91,1.61s-5.5,1.16-7.76,1.64-6.02,1.31-8.36,1.83c-2.34.52-6.1,1.38-8.36,1.91-2.26.53-4.18.98-4.28,1.01-.17.05-.18-9.65-.18-202.84q0-202.9.28-202.83c.15.04,1.68.45,3.41.91,1.72.46,4.94,1.31,7.16,1.89,2.21.57,6.12,1.57,8.68,2.21,2.56.64,6.5,1.61,8.76,2.15,2.26.54,6.06,1.44,8.46,1.99,2.39.55,6.2,1.41,8.46,1.92,2.26.5,5.99,1.32,8.31,1.81,2.31.5,5.94,1.26,8.06,1.7,2.12.44,6.31,1.29,9.31,1.89,3,.6,7.46,1.47,9.91,1.94,2.45.47,6.54,1.24,9.09,1.71,2.55.47,6.79,1.24,9.41,1.7,2.62.46,6.91,1.21,9.52,1.66,2.61.45,6.79,1.15,9.28,1.55,2.49.41,6.52,1.06,8.96,1.44,2.43.39,6.36,1,8.73,1.36,2.37.36,6.42.97,9.01,1.35s6.93,1.01,9.66,1.39c2.72.39,7.09.99,9.71,1.35,2.61.36,7.19.96,10.16,1.35,2.97.39,8.11,1.04,11.41,1.45,3.3.41,8.89,1.09,12.41,1.5s9.44,1.09,13.16,1.5c3.72.41,9.1,1,11.96,1.3,2.86.3,7.68.8,10.71,1.1,3.03.3,8.12.8,11.31,1.1,3.19.3,8.55.8,11.91,1.1,3.36.3,9.62.84,13.91,1.2,4.29.36,10.73.88,14.31,1.15,3.58.28,9,.68,12.06.9,3.05.22,7.87.56,10.71.75,2.83.19,7.27.49,9.86.65,2.59.16,6.96.43,9.71.6,2.75.17,7.02.41,9.48.55s6.19.34,8.28.45c2.09.11,5.59.29,7.78.4,2.19.11,5.89.29,8.23.4,2.34.11,6.35.29,8.91.4s6.92.29,9.68.4,6.89.27,9.16.35c2.27.08,6.18.22,8.68.3,2.5.08,6.82.22,9.58.3,2.77.08,6.78.19,8.93.25,2.15.06,5.78.15,8.08.2,2.3.05,6.5.14,9.33.2s7.63.15,10.65.2c3.02.05,10.9.15,17.51.22,6.61.07,19.33.13,28.28.13,8.94,0,21.73-.06,28.42-.13,6.69-.07,14.59-.17,17.56-.22,2.97-.05,7.72-.14,10.56-.2,2.83-.06,7.1-.15,9.48-.2,2.38-.06,6.82-.17,9.86-.25,3.04-.08,7.7-.22,10.36-.3,2.66-.08,7.45-.24,10.66-.35,3.21-.11,8.15-.29,10.98-.4,2.83-.11,7.25-.29,9.81-.4s6.66-.29,9.11-.4c2.45-.11,6.68-.31,9.41-.45,2.72-.14,7.09-.36,9.71-.5s6.73-.37,9.16-.5c2.42-.14,6.61-.38,9.31-.55,2.7-.16,6.65-.41,8.78-.55,2.13-.14,5.92-.39,8.41-.55,2.49-.17,6.73-.46,9.43-.65s7.27-.53,10.16-.75c2.89-.22,7.8-.6,10.91-.85,3.11-.25,8.29-.68,11.51-.95,3.22-.27,8.33-.72,11.36-1,3.03-.27,8.12-.75,11.31-1.05s8.26-.8,11.26-1.1c3-.3,7.8-.8,10.66-1.1,2.86-.3,8.04-.87,11.51-1.25,3.47-.39,8.98-1.02,12.26-1.4,3.27-.39,8.5-1.01,11.61-1.4s8.09-1.01,11.06-1.4c2.97-.39,7.75-1.02,10.61-1.4,2.86-.39,7.43-1.02,10.16-1.4s7.25-1.04,10.06-1.45c2.81-.41,7.45-1.11,10.31-1.55s7.43-1.16,10.16-1.59c2.72-.44,7.41-1.2,10.41-1.7,3-.5,7.53-1.27,10.06-1.71,2.53-.44,6.61-1.16,9.06-1.6,2.45-.44,6.25-1.14,8.46-1.55,2.2-.41,5.98-1.13,8.41-1.6s6.32-1.23,8.66-1.7c2.34-.47,5.99-1.21,8.11-1.65,2.12-.44,5.74-1.21,8.06-1.7,2.31-.5,6.3-1.37,8.86-1.94,2.56-.57,6.5-1.47,8.76-1.99,2.26-.52,5.63-1.32,7.51-1.77,1.87-.45,5.65-1.38,8.41-2.06,2.75-.69,7.14-1.8,9.76-2.49,2.61-.68,6.58-1.74,8.81-2.35,2.23-.61,4.18-1.14,4.33-1.17q.28-.06.28,203.68c0,112.06-.03,203.74-.08,203.73ZM129.35,678.13v-42.51l-1.23.07c-.67.04-5.23.27-10.13.51-4.9.25-9.55.48-10.33.51l-1.43.06-.03-72.31-.03-72.31-15.81-2.42c-8.7-1.33-16.28-2.49-16.86-2.59-.58-.09-1.13-.19-1.23-.22-.17-.05-.18,4.8-.18,100.85s0,100.9.18,100.85c.1-.03,12.47-2.31,27.5-5.06,15.03-2.76,27.83-5.11,28.45-5.22l1.13-.21ZM997.74,535.15c13.09-1.04,16.9-1.36,16.92-1.38.02-.02-.12-10.34-.31-22.93-.19-12.59-.37-22.91-.4-22.94-.03-.03-9.53,1.27-21.11,2.87-11.59,1.61-26.23,3.64-32.55,4.52-6.32.88-11.65,1.62-11.86,1.65q-.38.06-.38,21.12v21.06l.63-.06c.34-.03,4.05-.33,8.23-.66,4.18-.33,7.84-.62,8.13-.65l.53-.06v70.38q0,70.38.43,70.44c.23.03,7.38.91,15.89,1.95,8.5,1.04,15.54,1.89,15.64,1.89.17.01.18-3.58.2-73.59l.03-73.6ZM132.67,678.01c.24-.03,6.67-.73,14.29-1.55,7.62-.82,13.87-1.51,13.89-1.54.02-.02.82-5.67,1.77-12.56.95-6.88,1.76-12.55,1.8-12.59.04-.04,4.77-.53,10.5-1.08,5.74-.56,10.46-.99,10.5-.96.04.03.87,5.44,1.84,12.01.98,6.58,1.78,11.96,1.79,11.98,0,.01,6.06-.99,13.45-2.22,7.39-1.23,13.46-2.26,13.48-2.28.02-.02-5.61-36.72-12.51-81.55-6.9-44.83-12.57-81.53-12.6-81.56-.03-.03-1.39-.24-3.03-.48-1.64-.24-6.47-.96-10.72-1.6-4.25-.64-10.8-1.63-14.56-2.2-3.76-.57-6.84-1.03-6.86-1.01-.02.02-5.28,40.09-11.69,89.05-6.41,48.96-11.68,89.28-11.72,89.61q-.06.58.38.52ZM950.84,676.34q.44.01.38-.31c-.03-.18-1.01-7.18-2.16-15.56-1.16-8.38-3-21.74-4.11-29.69-1.1-7.95-2.99-21.61-4.2-30.36-1.21-8.75-3.19-23.06-4.4-31.81-1.21-8.75-3.17-22.91-4.35-31.46-1.18-8.56-2.76-19.93-3.5-25.27-.74-5.34-1.36-9.73-1.38-9.75-.02-.02-2.3.14-5.06.36-2.76.22-8.67.69-13.13,1.05-4.46.36-9.71.79-11.68.95-1.96.16-3.59.31-3.61.34-.02.02-1.93,12.13-4.23,26.91-2.31,14.78-6.09,39-8.4,53.83-2.31,14.83-6.1,39.06-8.4,53.84s-4.18,26.9-4.16,26.92c.02.02,6.38.91,14.13,1.98,7.75,1.07,14.11,1.92,14.12,1.91.02-.02.71-5.66,1.54-12.53.83-6.87,1.53-12.51,1.55-12.54.03-.03,4.72.21,10.42.53,5.71.32,10.4.62,10.43.66.03.05.92,6.47,1.99,14.27,1.07,7.8,1.95,14.2,1.97,14.22.02.02,5.83.36,12.92.76,7.09.4,13.09.74,13.33.74ZM782.98,560.26c.35,2.17,3.06,19.95,6.26,40.92,3.2,20.96,6.08,39.96,6.4,42.22.33,2.26.89,6.35,1.24,9.1.36,2.75.68,5.16.71,5.36q.06.36,1.85.52c.99.09,4.72.43,8.3.76s7.24.66,8.13.74c.89.08,1.63.14,1.64.13,0,0,2.77-19.61,6.14-43.55,3.37-23.95,6.6-46.93,7.17-51.07.58-4.14,1.08-7.6,1.11-7.68.03-.08,1.63,23.48,3.54,52.36,1.92,28.88,3.5,52.53,3.53,52.55.02.02,5.6.73,12.39,1.57,6.79.84,12.43,1.54,12.53,1.54.17.01.18-.05.12-.66-.03-.37-2.43-34.66-5.32-76.21-2.89-41.54-5.29-76.31-5.32-77.27q-.05-1.74-.67-1.68c-.34.03-7.21.81-15.27,1.72-8.06.91-15.28,1.7-16.03,1.77q-1.37.11-1.43.52c-.03.22-1.43,11.16-3.11,24.29s-3.66,28.66-4.4,34.49c-.74,5.83-2.05,16.08-2.91,22.78-.85,6.7-1.59,12.4-1.63,12.68q-.08.5-.2-.42c-.07-.51-2.8-21.44-6.07-46.5-3.27-25.07-5.96-45.6-5.99-45.62-.02-.02-2.95.14-6.51.35-3.56.22-7.65.46-9.1.55-1.44.09-7.04.4-12.43.71-5.39.3-9.81.56-9.81.57,0,.01-1.33,30.95-2.93,68.74-1.61,37.8-2.9,68.74-2.88,68.75.02.02,5.75.37,12.72.78,6.98.41,12.7.73,12.72.72.02-.02.19-4.28.38-9.48.19-5.2.4-10.41.46-11.6.06-1.18,1.09-18.18,2.3-37.76,1.21-19.59,2.23-36.09,2.28-36.66l.08-1.05ZM253.16,600.02h2.75l.36,1.13c.2.62,1.33,4.2,2.52,7.95,1.19,3.76,3.24,10.27,4.56,14.48s3.15,10.02,4.06,12.9c.91,2.89,2.33,7.39,3.15,10,.82,2.61,2.08,6.63,2.81,8.93.72,2.3,1.33,4.2,1.36,4.22.02.03,5.64-.53,12.48-1.23,6.84-.7,12.59-1.31,12.79-1.35q.36-.07-.13-1.7c-.27-.89-.85-2.82-1.29-4.28-.44-1.46-1.16-3.84-1.6-5.3s-1.23-4.07-1.75-5.8c-.52-1.73-1.24-4.12-1.6-5.3s-.95-3.13-1.3-4.33c-.36-1.2-.94-3.13-1.3-4.3-.35-1.17-.92-3.03-1.25-4.13-.33-1.1-.89-2.97-1.25-4.15s-.92-3.05-1.25-4.15c-.33-1.1-.92-3.04-1.3-4.3s-1.04-3.43-1.45-4.8c-.41-1.38-1.11-3.69-1.55-5.15-.44-1.46-1.03-3.4-1.31-4.31-.28-.91-.53-1.78-.56-1.93-.05-.24.03-.33.73-.88.43-.33,1.19-.95,1.68-1.38.5-.42,1.55-1.41,2.34-2.19.79-.78,1.91-1.98,2.49-2.67.57-.69,1.43-1.81,1.91-2.5.48-.69,1.22-1.84,1.65-2.55.43-.72,1.14-2.02,1.57-2.9.43-.88,1.04-2.23,1.35-3,.31-.77.76-1.99,1-2.71.24-.72.61-2,.83-2.86.22-.85.54-2.27.71-3.15.17-.88.4-2.29.51-3.14.11-.85.26-2.72.32-4.14.09-2,.09-3.15,0-5.05-.07-1.35-.21-3.13-.32-3.94-.11-.82-.32-2.09-.45-2.84-.14-.75-.43-2.1-.66-3.02-.22-.91-.63-2.36-.91-3.21-.28-.85-.77-2.23-1.1-3.05-.33-.83-1.01-2.36-1.53-3.4-.52-1.05-1.3-2.5-1.75-3.24-.44-.74-1.13-1.81-1.53-2.39-.4-.58-1.18-1.62-1.74-2.31s-1.48-1.76-2.06-2.37c-.57-.61-1.6-1.64-2.29-2.29-.68-.65-1.83-1.65-2.55-2.22s-1.87-1.42-2.56-1.88c-.69-.46-1.74-1.11-2.32-1.45-.59-.34-1.6-.88-2.25-1.21-.65-.33-1.79-.84-2.54-1.14-.75-.3-1.9-.74-2.55-.96-.66-.23-1.87-.59-2.7-.8-.83-.21-2.15-.5-2.95-.64-.8-.14-2.71-.39-4.25-.56-1.54-.17-4.22-.44-5.95-.6-1.73-.16-8.56-.8-15.16-1.41-6.6-.61-12.36-1.13-12.78-1.17l-.78-.06v157.02l.58-.06c.32-.03,6.7-.69,14.18-1.46,7.48-.77,13.63-1.43,13.66-1.46.03-.03.07-13.41.08-29.74.01-16.32.05-30.23.09-30.9l.06-1.23ZM389.28,578.11h-40.96v24.51h11.82l-.03,7.98q-.03,7.98-.36,9.03c-.18.58-.55,1.48-.83,2-.27.52-.82,1.35-1.22,1.85s-1.09,1.19-1.54,1.56c-.45.36-1.19.87-1.65,1.13s-1.33.63-1.93.83c-.99.32-1.27.37-2.75.45-.91.05-2.26.06-3,.03-.75-.04-1.67-.15-2.05-.24-.39-.1-1.06-.32-1.5-.49-.44-.17-1.13-.51-1.54-.75-.41-.24-1.07-.72-1.47-1.06-.41-.34-1.05-1.01-1.44-1.49-.39-.48-.94-1.33-1.23-1.92-.3-.6-.66-1.5-.83-2.1q-.29-1.05-.29-33.31t.29-33.31c.17-.6.52-1.5.83-2.1.3-.59.85-1.44,1.24-1.92.39-.48,1.03-1.14,1.42-1.47.4-.33,1.07-.81,1.49-1.06s1.03-.57,1.36-.7c.33-.13,1.02-.35,1.54-.49.9-.24,1.07-.25,3.64-.25s2.75.01,3.64.25c.52.14,1.21.36,1.54.49.33.13.94.45,1.36.7s1.09.73,1.49,1.06c.4.33,1.04.99,1.42,1.47.38.48.92,1.3,1.2,1.82.27.52.64,1.42.8,1.99.25.85.32,1.29.37,2.45.04.78.08,1.43.09,1.44.01.02,5.47-2.03,12.12-4.54,6.65-2.51,12.86-4.86,13.8-5.22.94-.36,1.75-.7,1.82-.76.09-.09.02-.44-.28-1.47-.22-.74-.57-1.85-.78-2.45-.21-.61-.59-1.6-.84-2.21-.25-.61-.75-1.71-1.12-2.43-.36-.73-1-1.88-1.4-2.57s-1.1-1.77-1.54-2.42c-.44-.65-1.13-1.58-1.52-2.07-.39-.5-1.24-1.48-1.88-2.19-.64-.71-1.69-1.78-2.34-2.37s-1.63-1.45-2.18-1.89c-.55-.44-1.46-1.14-2.03-1.55-.57-.41-1.55-1.06-2.18-1.44-.63-.38-1.7-.99-2.39-1.35s-1.9-.93-2.7-1.27c-.8-.34-2.1-.84-2.9-1.11-.8-.27-2.18-.67-3.06-.89-.88-.22-2.28-.51-3.1-.65-.83-.14-2.22-.3-3.1-.35-.88-.05-2.82-.1-4.3-.1s-3.42.04-4.3.1c-.88.05-2.26.21-3.06.34-.8.13-2.11.4-2.91.59-.8.19-2.19.59-3.09.89-.9.3-2.3.82-3.1,1.17-.8.34-2.01.92-2.7,1.28s-1.75.96-2.37,1.33c-.61.37-1.57,1-2.12,1.39-.55.39-1.49,1.11-2.09,1.6-.6.49-1.6,1.36-2.23,1.93-.63.57-1.67,1.63-2.3,2.34-.64.71-1.48,1.7-1.88,2.19-.39.5-1.08,1.43-1.52,2.07-.44.65-1.14,1.73-1.54,2.42s-1.04,1.84-1.4,2.57c-.36.73-.87,1.82-1.12,2.43-.25.61-.63,1.61-.84,2.21-.21.61-.56,1.71-.78,2.46-.22.75-.54,2.04-.71,2.88-.17.84-.38,2.14-.46,2.9-.08.76-.19,2.16-.25,3.12-.06,1.11-.1,13.08-.1,32.71s.04,31.6.1,32.71c.06.96.17,2.37.25,3.12s.26,1.95.4,2.65c.14.7.42,1.85.61,2.55s.51,1.76.7,2.35c.2.6.58,1.65.85,2.33.27.69.78,1.85,1.14,2.57.36.73.92,1.81,1.26,2.4.34.59,1.04,1.71,1.55,2.48s1.32,1.89,1.79,2.5c.47.6,1.39,1.68,2.03,2.39s1.72,1.79,2.38,2.39c.66.6,1.83,1.59,2.59,2.19.76.6,1.89,1.42,2.5,1.83.61.41,1.61,1.02,2.21,1.37.6.35,1.68.91,2.4,1.25s1.94.87,2.71,1.18c.77.31,2.15.78,3.05,1.06.91.27,2.19.62,2.85.77.66.15,1.7.35,2.3.45s1.82.23,2.7.3,2.18.12,2.9.13c.72.01,1.68,0,2.15,0,.47-.01,1.59-.05,2.5-.08s2.08-.1,2.6-.16,1.58-.21,2.35-.35,1.92-.37,2.56-.54c.64-.16,1.74-.48,2.45-.71.71-.23,1.86-.65,2.54-.92.69-.28,1.77-.75,2.4-1.04s1.6-.79,2.15-1.1c.55-.31,1.5-.88,2.1-1.26s1.53-1.01,2.05-1.4c.52-.39,1.33-1.02,1.8-1.41.47-.39,1.3-1.11,1.84-1.61.54-.5,1.48-1.45,2.09-2.11s1.51-1.72,2.02-2.35c.51-.63,1.31-1.71,1.78-2.4.47-.69,1.17-1.79,1.56-2.45.39-.66,1.03-1.85,1.42-2.65.39-.8.93-2.01,1.2-2.7.27-.69.65-1.74.85-2.33.2-.6.51-1.65.7-2.35.19-.7.46-1.84.61-2.55.14-.7.33-1.9.4-2.65s.19-2.25.25-3.32c.06-1.11.13-10.22.17-21.23l.06-19.28ZM667.75,520.29v129.64l.73.06c.4.03,6.71.48,14.04,1s13.33.92,13.35.9c.02-.02-.12-11.89-.32-26.37-.2-14.48-.34-26.35-.32-26.37.02-.02,1.05,0,2.29.04,1.24.04,2.3.1,2.36.14.06.04,1.1,3.11,2.31,6.84,1.21,3.73,2.86,8.78,3.66,11.23.8,2.45,2.04,6.25,2.76,8.45s1.71,5.24,2.2,6.75c.49,1.51,1.44,4.42,2.1,6.45.66,2.03,1.99,6.1,2.94,9.03,1.61,4.93,1.75,5.33,1.97,5.37.13.02,5.75.43,12.5.91,6.74.48,12.49.88,12.78.89q.52.01-.37-2.59c-.49-1.43-1.21-3.54-1.6-4.68-.39-1.14-1.07-3.12-1.5-4.4-.44-1.28-1.29-3.77-1.89-5.53s-1.5-4.39-2-5.85c-.5-1.46-1.29-3.77-1.76-5.15-.47-1.37-1.17-3.42-1.56-4.55-.39-1.13-1.06-3.09-1.49-4.36-.43-1.27-1.09-3.18-1.45-4.25-.36-1.07-1.02-2.99-1.46-4.27-.44-1.28-1.13-3.31-1.54-4.5-.41-1.2-1.35-3.97-2.1-6.15-.75-2.19-1.37-4.07-1.38-4.19-.01-.18.19-.34,1.07-.88.6-.36,1.56-.97,2.13-1.36.57-.38,1.49-1.03,2.03-1.45.54-.42,1.52-1.24,2.17-1.84.65-.59,1.58-1.5,2.05-2.02.48-.52,1.19-1.33,1.58-1.79.39-.47,1.08-1.36,1.53-1.98.45-.62,1.17-1.72,1.6-2.43.43-.72,1.09-1.92,1.46-2.67.38-.75.91-1.93,1.2-2.62.28-.69.67-1.77.87-2.42s.51-1.77.7-2.5c.19-.73.46-2.03.6-2.89.14-.85.3-1.93.36-2.4s.13-1.89.17-3.15c.04-1.53.02-2.79-.06-3.75-.07-.8-.21-2.04-.32-2.75-.11-.72-.31-1.82-.44-2.45s-.38-1.65-.54-2.25c-.16-.61-.5-1.73-.76-2.5-.26-.77-.69-1.94-.97-2.6s-.79-1.76-1.14-2.45c-.35-.69-.87-1.66-1.15-2.15-.28-.5-.85-1.42-1.27-2.05-.41-.63-1.1-1.6-1.52-2.15-.42-.55-1.04-1.33-1.38-1.73-.34-.4-1.05-1.19-1.57-1.75-.52-.56-1.51-1.53-2.19-2.15-.68-.62-1.71-1.5-2.29-1.95-.57-.45-1.51-1.15-2.09-1.54-.58-.39-1.54-1.01-2.13-1.38-.59-.37-1.64-.96-2.32-1.32-.68-.36-1.8-.9-2.49-1.19-.68-.3-1.76-.74-2.38-.98-.63-.24-1.7-.63-2.39-.85-.69-.22-1.88-.57-2.66-.76-.77-.19-2.08-.47-2.9-.61s-2.33-.32-3.35-.41c-1.11-.09-3.49-.17-5.93-.2-2.24-.02-10.02-.07-17.29-.09l-13.21-.05ZM613.31,651.67c.8-.02,2.06-.08,2.8-.14.74-.05,1.88-.19,2.52-.29.64-.11,1.56-.28,2.05-.39s1.42-.36,2.09-.56c.66-.2,1.63-.53,2.15-.72.52-.2,1.4-.55,1.95-.8.55-.24,1.47-.69,2.05-1s1.5-.84,2.05-1.18c.55-.34,1.41-.9,1.9-1.25.5-.35,1.36-1,1.91-1.46.56-.46,1.49-1.26,2.08-1.79.59-.53,1.52-1.47,2.08-2.08.55-.61,1.42-1.64,1.93-2.27.51-.63,1.29-1.67,1.74-2.31.45-.64,1.25-1.88,1.77-2.75.53-.87,1.37-2.42,1.88-3.44.51-1.02,1.21-2.53,1.56-3.35s.87-2.13,1.16-2.9.79-2.24,1.13-3.25c.33-1.02.83-2.69,1.11-3.72s.69-2.66.91-3.63.56-2.61.75-3.64c.19-1.03.46-2.59.59-3.47.14-.88.36-2.52.5-3.65s.35-3.11.46-4.4c.11-1.29.26-3.52.33-4.95s.13-4.24.13-6.25-.06-4.87-.13-6.35-.22-3.76-.33-5.05c-.11-1.29-.29-3.09-.4-4-.11-.91-.31-2.42-.45-3.35-.14-.94-.41-2.58-.6-3.65-.2-1.07-.53-2.76-.75-3.75s-.6-2.56-.85-3.48c-.25-.92-.67-2.4-.95-3.29-.27-.88-.77-2.36-1.1-3.28-.33-.92-.9-2.39-1.26-3.27-.36-.87-1.12-2.53-1.7-3.69-.57-1.16-1.47-2.82-2-3.69-.53-.87-1.33-2.11-1.78-2.75-.45-.64-1.23-1.68-1.74-2.31-.51-.63-1.4-1.67-1.98-2.31-.58-.64-1.52-1.58-2.1-2.1-.58-.52-1.47-1.29-1.99-1.71-.52-.42-1.35-1.06-1.86-1.42-.51-.36-1.4-.96-1.98-1.32s-1.61-.94-2.28-1.3c-.67-.35-1.74-.86-2.37-1.13-.63-.27-1.56-.63-2.05-.8-.5-.17-1.37-.44-1.95-.61s-1.6-.41-2.26-.55c-.67-.14-1.74-.32-2.38-.41-.85-.11-2.09-.15-4.56-.15s-3.71.04-4.56.15c-.64.08-1.72.27-2.38.41-.67.14-1.69.39-2.26.55-.58.16-1.46.44-1.95.61-.5.17-1.42.53-2.05.8-.63.27-1.7.78-2.37,1.13-.67.35-1.69.93-2.26,1.29s-1.5.97-2.07,1.38c-.57.4-1.48,1.11-2.04,1.58-.56.46-1.41,1.21-1.9,1.65-.49.45-1.36,1.33-1.94,1.96-.58.63-1.46,1.67-1.97,2.3s-1.31,1.7-1.77,2.36c-.47.67-1.22,1.83-1.67,2.58-.45.75-1.14,1.97-1.52,2.71s-.99,1.96-1.33,2.72c-.35.76-.93,2.12-1.29,3.03-.36.91-1,2.66-1.41,3.9s-.99,3.13-1.29,4.2c-.3,1.07-.75,2.87-1,4s-.62,2.93-.81,4c-.19,1.07-.47,2.72-.6,3.65-.14.94-.34,2.44-.45,3.35-.11.91-.29,2.71-.4,4-.11,1.29-.26,3.52-.33,4.95-.07,1.43-.13,4.24-.13,6.25s.06,4.87.13,6.35c.07,1.49.22,3.76.33,5.05.11,1.29.29,3.09.4,4,.11.91.31,2.42.45,3.35.14.94.41,2.58.6,3.65.2,1.07.53,2.76.75,3.75.22.99.6,2.56.85,3.48.25.92.67,2.4.95,3.29.27.88.77,2.36,1.1,3.28.33.92.9,2.39,1.26,3.27.36.87,1.12,2.53,1.7,3.69.57,1.16,1.47,2.82,2.01,3.7.53.88,1.3,2.07,1.7,2.65.41.58,1.13,1.55,1.61,2.15.48.61,1.37,1.66,1.98,2.34.61.68,1.63,1.71,2.26,2.29.63.58,1.47,1.31,1.85,1.63s1.2.94,1.8,1.38c.6.44,1.63,1.12,2.27,1.51.65.39,1.61.94,2.14,1.22.53.28,1.45.72,2.04.98.59.26,1.6.66,2.26.89s1.73.57,2.39.76c.66.19,1.76.45,2.45.59s1.9.31,2.7.4c.8.08,1.7.17,2,.19s1.2.02,2,0ZM453.89,649.02v-27.38l-1.53.05c-.84.03-4.76.14-8.71.24-3.95.1-8.42.22-9.93.26l-2.75.07v-11.62c0-9.22.03-11.62.13-11.63.07,0,5.21-.06,11.43-.13l11.31-.11.07-7.05c.04-3.88.06-9.55.05-12.6l-.02-5.55-9.96-.08c-5.48-.04-10.65-.1-11.5-.14l-1.54-.06.07-11.61c.04-6.39.08-11.62.09-11.63s3.77.09,8.35.21c4.58.12,9.73.26,11.43.3l3.1.07v-25.22l-1.13-.07c-.62-.04-12.09-.56-25.49-1.15-13.4-.6-24.87-1.12-25.49-1.15l-1.13-.07v128.59l1.08-.07c.59-.04,12.06-.58,25.49-1.21,13.43-.63,24.9-1.17,25.49-1.21l1.08-.07ZM541.25,649.94v-49.52h20.72v-26.91h-20.72v-22.61h21.92v-26.91h-52.84v125.95h30.92ZM613.26,622.68c-.55.03-.98,0-1.35-.1-.3-.08-.8-.29-1.13-.47-.32-.17-.89-.57-1.26-.88-.37-.31-.93-.88-1.26-1.26-.32-.38-.86-1.1-1.19-1.6-.33-.5-.93-1.58-1.34-2.41-.41-.83-.97-2.11-1.25-2.85-.28-.74-.71-1.99-.96-2.79-.25-.8-.65-2.24-.89-3.2s-.6-2.59-.79-3.61c-.19-1.02-.46-2.66-.6-3.65-.14-.99-.34-2.68-.45-3.75-.11-1.07-.26-2.96-.33-4.2-.07-1.24-.13-3.94-.13-6s.06-4.76.13-6c.07-1.24.22-3.13.33-4.2.11-1.07.32-2.76.45-3.75s.41-2.63.6-3.65.55-2.64.79-3.61c.24-.97.64-2.41.89-3.2.25-.8.68-2.05.96-2.79.28-.74.84-2.02,1.25-2.85.41-.83,1.01-1.91,1.34-2.41.33-.5.89-1.24,1.24-1.66.36-.42.95-.99,1.31-1.29.37-.29,1.01-.71,1.42-.92q.75-.39,2.04-.39,1.29,0,2.04.39c.41.21,1.05.63,1.42.92.37.29.96.87,1.31,1.29.36.42.91,1.16,1.24,1.66.33.5.93,1.58,1.34,2.41.41.83.97,2.11,1.25,2.85s.71,1.99.96,2.79c.25.8.65,2.24.89,3.2.24.97.6,2.59.79,3.61s.46,2.66.6,3.65.34,2.68.45,3.75c.11,1.07.26,2.96.33,4.2.07,1.24.13,3.94.13,6s-.06,4.76-.13,6-.22,3.13-.33,4.2-.32,2.76-.45,3.75c-.14.99-.41,2.63-.6,3.65-.19,1.02-.55,2.64-.79,3.61-.24.97-.64,2.41-.89,3.2-.25.8-.68,2.05-.96,2.79-.28.74-.84,2.02-1.25,2.85-.41.83-1.01,1.91-1.34,2.41-.33.5-.89,1.24-1.24,1.66-.36.42-.93.98-1.29,1.26-.35.28-.85.63-1.12.78-.26.15-.69.34-.94.42-.26.08-.83.16-1.27.19ZM915.62,614.22c-.35,0-3.14-.16-6.19-.34-3.05-.18-5.62-.34-5.71-.36-.13-.03-.06-.83.57-6.02.4-3.29,1.29-10.66,1.98-16.38.69-5.72,1.64-13.57,2.1-17.43.47-3.87.9-7.48.98-8.03q.13-1,.4.98c.15,1.09.86,6.25,1.57,11.48.72,5.23,2.09,15.28,3.06,22.33.97,7.06,1.78,13.04,1.81,13.31q.06.48-.58.46ZM170.14,613.59q-.79.07-.73-.37c.03-.24,1.22-8.87,2.64-19.17,1.42-10.3,2.6-18.71,2.62-18.69.02.02.41,2.56.87,5.65.46,3.09,1.7,11.44,2.76,18.57,1.06,7.12,1.9,12.98,1.86,13.02-.04.04-2.13.26-4.65.5-2.52.24-4.94.46-5.37.5ZM257.4,574.66c-1.98.02-3.76.01-3.94-.01q-.34-.05-.28-19.26c.03-10.57.08-19.23.1-19.25.02-.02,1.43.05,3.13.17,1.7.11,3.45.24,3.89.29.44.05,1.16.2,1.6.34.44.14,1.15.45,1.57.68.43.23,1.12.72,1.54,1.08.42.36,1.09.99,1.48,1.41.4.42.99,1.16,1.33,1.65.33.49.84,1.32,1.11,1.84.28.52.71,1.45.96,2.06.25.61.59,1.6.77,2.19.17.6.42,1.63.55,2.29.13.66.31,1.82.39,2.56.09.79.16,2.18.16,3.35,0,1.18-.06,2.52-.15,3.25-.08.69-.25,1.72-.36,2.29-.11.57-.34,1.5-.5,2.07-.16.56-.47,1.48-.69,2.03-.22.56-.6,1.4-.84,1.89-.24.48-.71,1.28-1.03,1.78-.33.5-.9,1.26-1.28,1.69-.38.43-1.14,1.15-1.69,1.59-.57.45-1.35.97-1.81,1.18-.44.21-1.16.47-1.6.59-.73.19-1.12.21-4.4.25ZM694.44,544.3c4.4,0,6.22.05,6.88.1.75.06,1.5.19,1.99.34.44.14,1.25.48,1.8.75.55.28,1.44.82,1.96,1.21.52.39,1.23,1.01,1.58,1.37.35.37.96,1.12,1.37,1.68.41.56,1.02,1.57,1.35,2.25.34.68.76,1.73.95,2.34.19.61.44,1.53.56,2.05.17.73.23,1.39.27,2.8.04,1.44.01,2.1-.12,2.98-.09.62-.33,1.68-.52,2.35s-.59,1.72-.88,2.33c-.29.61-.81,1.53-1.16,2.05s-.93,1.25-1.29,1.63c-.36.38-1.02.97-1.46,1.31-.44.34-1.06.76-1.38.94-.32.18-.93.46-1.35.63s-1.09.4-1.47.5c-.58.16-1.01.18-2.7.17-1.1-.01-2.87-.04-3.93-.08-1.06-.03-1.95-.09-1.99-.13-.04-.04-.13-4.15-.2-9.13-.07-4.98-.16-11.62-.2-14.76l-.07-5.7ZM475.4,468.45c1.18-.51,1.85-.85,2.26-1.09.41-.23,1.07-.69,1.47-1,.4-.32.96-.86,1.26-1.21.29-.35.71-.99.92-1.44.22-.44.48-1.16.59-1.58.11-.43.24-1.14.3-1.59.06-.45.1-1.28.1-1.86s-.07-1.52-.16-2.1c-.09-.58-.29-1.48-.46-1.99-.17-.51-.5-1.26-.75-1.68-.24-.42-.74-1.08-1.11-1.47-.37-.39-.99-.94-1.37-1.21s-1.05-.67-1.49-.89c-.43-.22-1.14-.53-1.58-.69-.44-.16-1.23-.41-1.77-.54s-1.37-.32-1.87-.4c-.49-.08-1.42-.2-2.05-.27-.63-.06-5.07-.28-9.86-.48-4.79-.2-8.74-.35-8.78-.33-.04.02-.08,9.26-.08,20.53v20.49l1.28.06c.7.03,1.61.07,2.03.09l.75.02.03-9.33.03-9.33.93.05c.51.03,3.06.14,5.68.24s5.5.24,6.4.29c.91.06,2.03.17,2.5.25.47.08,1.14.25,1.5.36.36.12.94.37,1.29.56.35.19.89.61,1.21.92s.71.82.88,1.11c.17.3.42.9.56,1.34.14.44.3,1.18.36,1.65.06.47.16,1.71.21,2.75.06,1.05.17,2.71.25,3.7.08.99.21,2.29.3,2.89.08.6.22,1.39.31,1.75s.27.89.39,1.18c.16.36.3.54.46.58.13.03.73.07,1.33.08s1.52.04,2.03.05c.79.02.93,0,.93-.14,0-.09-.16-.34-.35-.57-.19-.22-.44-.64-.54-.93-.11-.28-.26-.85-.35-1.26s-.22-1.39-.3-2.19c-.08-.8-.17-2.19-.21-3.1-.03-.91-.11-2.33-.16-3.15s-.19-1.99-.3-2.58c-.11-.6-.34-1.46-.5-1.92-.17-.46-.46-1.1-.65-1.42-.19-.32-.53-.82-.76-1.11-.22-.29-.68-.74-1.02-.99-.34-.25-.94-.62-1.34-.81l-.73-.35ZM520.94,488.98v-3.3h-25.02v-16.01h22.02v-3.3h-22.02v-14.61h24.42v-3.3h-28.52v40.52h29.12ZM528.44,488.98c0-27.99.04-36.11.08-36.11s3.16,8.11,6.93,18.03l6.85,18.03,1.86.03,1.86.03.31-.8c.17-.44,3.24-8.57,6.83-18.06,3.59-9.49,6.57-17.26,6.61-17.26s.08,8.13.08,18.06v18.06h3.9v-40.52h-5.97l-3.48,9.25c-1.91,5.09-4.93,13.1-6.7,17.81-1.77,4.71-3.26,8.57-3.32,8.57s-3.16-8-6.91-17.79l-6.81-17.79-3.02-.03-3.02-.03v40.52h3.9ZM579.38,488.98v-40.52h-4v40.52h4ZM621.41,446.45c-1.82.11-2.69.17-3.1.2l-.75.06-.06,13.76c-.05,12.18-.08,13.86-.23,14.71-.09.52-.27,1.39-.41,1.92-.13.53-.4,1.36-.59,1.83-.19.48-.57,1.21-.83,1.62s-.77,1.07-1.13,1.46c-.36.39-.93.9-1.26,1.14-.33.24-.92.6-1.3.8-.39.19-.97.45-1.3.58-.33.12-.98.32-1.45.43-.47.11-1.38.28-2.03.36-.65.09-1.87.15-2.7.15-.84,0-1.96-.07-2.5-.15-.54-.08-1.4-.29-1.9-.46-.51-.17-1.17-.45-1.47-.62s-.82-.52-1.14-.77c-.32-.25-.83-.77-1.13-1.16-.3-.38-.74-1.1-.98-1.6-.24-.5-.56-1.31-.7-1.81s-.35-1.41-.45-2.02c-.11-.62-.24-1.79-.29-2.6-.06-.86-.1-6.6-.1-13.77v-12.29s-1.23.07-1.23.07c-.67.04-1.53.09-1.9.13l-.68.06v13.37c0,11.29.02,13.57.15,14.66.08.71.25,1.7.36,2.2.12.5.35,1.29.51,1.76s.48,1.21.7,1.65c.22.44.63,1.14.91,1.55.28.41.87,1.12,1.31,1.56s1.16,1.04,1.59,1.32c.43.28,1.07.65,1.43.82.36.17.97.42,1.37.55.4.13,1.18.33,1.75.45.57.11,1.42.25,1.9.3.48.05,1.67.07,2.64.05.97-.02,2.3-.11,2.95-.2.65-.09,1.59-.25,2.09-.36.5-.11,1.38-.36,1.96-.55.58-.19,1.51-.58,2.08-.86.57-.28,1.38-.76,1.8-1.06.42-.3,1.17-.94,1.65-1.41.48-.48,1.13-1.21,1.43-1.64.31-.43.8-1.25,1.1-1.84.3-.59.7-1.55.89-2.14.19-.59.46-1.64.6-2.31.14-.68.29-1.78.35-2.44.06-.75.1-6.14.1-14.34v-13.14ZM415.86,442.23v42.83l.53.06c.29.04,1.04.12,1.68.2s1.32.14,1.53.14q.38.01.38-9.44,0-9.45.38-9.4c.21.03,2.47.28,5.03.56,2.74.3,5.39.53,6.44.56,1.06.03,2.36.01,3.19-.06.78-.07,1.83-.21,2.34-.32.51-.11,1.26-.31,1.65-.45.4-.14,1.09-.42,1.53-.64.44-.22,1.11-.62,1.47-.9.37-.28.9-.76,1.19-1.08.29-.32.72-.87.96-1.24.24-.36.53-.9.65-1.2.12-.3.3-.85.4-1.24.1-.39.24-1.17.3-1.74.07-.61.09-1.53.06-2.25-.03-.67-.13-1.62-.22-2.12-.09-.5-.25-1.24-.36-1.65-.11-.41-.4-1.16-.63-1.66-.24-.5-.62-1.19-.85-1.54-.23-.34-.73-.95-1.11-1.35-.38-.4-1.08-1-1.56-1.35-.48-.34-1.37-.87-1.98-1.16-.61-.3-1.51-.67-2.01-.83-.5-.16-1.42-.41-2.05-.55-.63-.14-1.71-.33-2.4-.41-.69-.09-4.34-.49-8.11-.91-3.77-.41-7.2-.78-7.63-.81l-.78-.06ZM634.62,484.36c0-26.66.04-34.39.08-34.39s3.14,7.48,6.88,16.62,6.85,16.64,6.92,16.67c.07.03.91,0,1.87-.08l1.74-.13,4.12-10.74c2.26-5.91,5.32-13.89,6.79-17.74,1.47-3.85,2.71-7,2.75-7s.08,7.75.08,17.22v17.22l.73-.06c.4-.03.97-.08,1.28-.11.3-.02.85-.07,1.23-.11l.68-.06v-19.31q0-19.31-.48-19.25c-.26.03-1.57.14-2.9.23-1.34.1-2.47.2-2.51.23s-3.07,7.9-6.73,17.5c-3.65,9.59-6.69,17.44-6.74,17.44-.06,0-3.1-7.29-6.78-16.19-3.67-8.91-6.72-16.31-6.77-16.45q-.09-.25-2.38-.08c-1.26.1-2.62.2-3.01.24l-.73.06v38.62l.63-.06c.34-.03.96-.08,1.38-.11.41-.03,1.01-.08,1.33-.11l.58-.06ZM455.09,465.85v-15.79l.98.06c.54.03,3.14.14,5.78.25,2.64.1,5.5.24,6.35.29s1.98.18,2.5.27c.52.09,1.33.27,1.8.41.47.13,1.26.44,1.76.69.5.25,1.2.69,1.57.99.36.3.87.84,1.13,1.2.26.36.6.97.76,1.36.16.38.35,1.07.41,1.52.07.45.12,1.27.11,1.82,0,.55-.08,1.33-.17,1.73-.09.41-.32,1.06-.51,1.46-.19.39-.55.98-.8,1.29-.25.32-.71.78-1.03,1.03-.32.25-.98.65-1.48.9s-1.26.53-1.7.64c-.44.11-1.12.24-1.5.3-.39.06-1.24.12-1.9.15-.66.03-3.72-.06-6.8-.19-3.08-.13-5.98-.27-6.43-.3l-.83-.06ZM419.96,463.1l.05-17,2.53.27c1.39.15,4,.44,5.8.63,1.8.2,3.84.47,4.53.61s1.72.41,2.29.6c.57.19,1.38.53,1.8.75.42.22,1.07.63,1.45.92.38.28.93.81,1.23,1.18.3.36.75,1.07,1,1.58.31.64.51,1.24.66,1.94.17.87.2,1.25.15,2.63-.03.97-.12,1.87-.22,2.26-.09.36-.32.99-.52,1.4-.26.55-.55.94-1.07,1.46-.45.45-.97.84-1.42,1.07-.39.2-1.04.46-1.45.57-.41.11-1.13.25-1.59.31-.47.06-1.48.1-2.25.09-.77,0-1.81-.05-2.3-.09-.5-.04-3.08-.31-5.75-.6s-4.87-.53-4.88-.54l-.03-.02Z"/>
</svg>