<?xml version="1.0" encoding="UTF-8"?>
<svg id="Layer_1" data-name="Layer 1" xmlns="http://www.w3.org/2000/svg" viewBox="0 0 1080 1080">
  <defs>
    <style>
      .cls-1 {
        fill: #1a1a1a;
      }
    </style>
  </defs>
  <path id="path3022" class="cls-1" d="M40,612.23v-65.16h79.5c7.23,0,11.97-5.38,11.97-11.35,0-6.79-5.66-11.35-12.49-11.35H40v-21.23h80.8c18.68,0,32.31,15.26,32.31,32.81s-13.74,28.74-24.82,31.64l31.17,44.64h-27.64l-29.94-43.93h-38.5l.32,43.93h-23.69Z"/>
  <path id="path3024" class="cls-1" d="M174.76,612.23v-65.16h111.56v21.23h-87.87v21.72h87.87v22.21h-111.56Z"/>
  <path id="path3026" class="cls-1" d="M174.76,525.35v-22.21h111.56v22.21h-111.56Z"/>
  <path id="path3028" class="cls-1" d="M300.91,612.23l63.89-114.56,63.66,114.56h-25.52l-38.16-68.91-26.48,47.69h26.97l12.07,21.23h-76.43Z"/>
  <path id="path3030" class="cls-1" d="M442.8,612.23v-109.09h24.68v86.88h75.03v22.21h-99.71Z"/>
  <path id="path3032" class="cls-1" d="M590.4,612.23v-65.16h23.69v43.44h33.45c23.46,0,34.01-13.84,34.01-33.1,0-17.13-8.54-32.55-35.37-32.55h-55.78v-21.72h60.72c36.03,0,55.97,24.51,55.97,55.11s-22.46,53.98-53.99,53.98h-62.69Z"/>
  <path id="path3032-7" class="cls-1" d="M923.32,610.71v-65.16h23.69v43.44h33.45c23.46,0,34.01-13.84,34.01-33.1,0-17.13-8.54-32.55-35.37-32.55h-55.78v-21.72h60.72c36.03,0,55.97,24.51,55.97,55.11s-22.46,53.98-53.99,53.98h-62.69Z"/>
  <path id="path3022-1" class="cls-1" d="M826.06,568.71v-22.34h45.38c7.23,0,11.97-5.38,11.97-11.35,0-6.79-5.66-11.35-12.49-11.35h-78.98v-21.23h80.8c18.68,0,32.31,15.26,32.31,32.81s-13.74,28.74-24.82,31.64c-4.64,2.56-18.94,1.83-54.18,1.83h0Z"/>
  <path id="path3022-1-8" class="cls-1" d="M826.06,546.4v22.32h45.38c7.23,0,11.97,5.38,11.97,11.34,0,6.78-5.66,11.34-12.49,11.34h-78.98v21.2h80.8c18.68,0,32.31-15.24,32.31-32.77s-13.74-28.71-24.82-31.6c-4.64-2.56-18.94-1.82-54.18-1.82h0Z"/>
</svg>