<?xml version="1.0" encoding="UTF-8"?>
<svg id="Layer_1" data-name="Layer 1" xmlns="http://www.w3.org/2000/svg" viewBox="0 0 1080 1080">
  <defs>
    <style>
      .cls-1 {
        fill: #1a1a1a;
        fill-rule: evenodd;
      }
    </style>
  </defs>
  <path class="cls-1" d="M720.65,844.81v-267.13l-377.23,15.89c-11.56.48-22.63-3.57-31.2-11.44-2.32-2.13-4.36-4.47-6.14-6.98-1.25,1.05-2.41,2.27-3.46,3.68-3.66,4.98-4.73,10.55-3.17,16.53l66.36,254.36c2.28,8.74,9.88,14.62,18.92,14.62h316.34c10.8.02,19.57-8.75,19.57-19.54h0ZM815.24,778.97l-75.56-39.02v70.45l75.56-31.43ZM739.69,662.69l140.81,72.72c9.34,4.82,16.26,13.04,19.48,23.11,3.22,10.09,2.33,20.79-2.51,30.12l-4.63,8.98-153.14-79.09v-55.83ZM305.39,345.66l14.29-5.17c1.24-.46,2.49-.84,3.74-1.21l.49-.17c20.49-7.42,31.12-30.12,23.69-50.59l-18-49.74c-6.58-18.18-26.71-27.61-44.9-21.03l-22.65,8.18,43.33,119.73ZM311.88,363.55l51.04,140.98,61.98-2.62-42.41-117.17c-3.98-11.01-12.04-19.83-22.71-24.82s-22.6-5.55-33.61-1.57l-14.29,5.2ZM342.96,505.37l-3.25.14c-11.56.49-22.27,5.47-30.12,14.02-7.87,8.55-11.93,19.63-11.44,31.2l.05,1.28c.08,1.73.25,3.43.52,5.12-3.33,1.98-6.36,4.49-9.01,7.49l-111.59-308.3,66.03-23.9,98.81,272.95ZM342.63,574.57c-6.49.27-12.72-2.01-17.51-6.42-4.81-4.42-7.61-10.44-7.88-16.92l-.06-1.28c-.27-6.49,2.01-12.7,6.42-17.51,4.42-4.81,10.44-7.61,16.92-7.88l391.98-16.53c41.11-1.73,76,30.32,77.75,71.45l.02.63c.57,13.45-9.9,24.84-23.33,25.41l-1.3.05c-6.47.29-12.7-2.01-17.51-6.42-4.81-4.42-7.61-10.44-7.88-16.92l-.02-.63c-.29-6.5-3.11-12.55-7.98-17.02-4.6-4.23-10.45-6.53-16.59-6.53-.35,0-.7,0-1.03.03l-392,16.51Z"/>
</svg>