<?xml version="1.0" encoding="UTF-8"?>
<svg id="Layer_1" data-name="Layer 1" xmlns="http://www.w3.org/2000/svg" viewBox="0 0 1080 1080">
  <g>
    <path d="M704.87,777.11v-117.77c0-38.96,31.7-70.66,70.66-70.66,13,0,23.55,10.55,23.55,23.55s-10.69,23.72-23.84,23.55c-12.91-.16-23.27,10.65-23.27,23.55v70.66c0,26.03-21.08,47.11-47.11,47.11Z"/>
    <path d="M375.13,777.11v-117.77c0-38.96-31.7-70.66-70.66-70.66-13,0-23.55,10.55-23.55,23.55s10.69,23.72,23.84,23.55c12.91-.16,23.27,10.65,23.27,23.55v70.66c0,26.03,21.08,47.11,47.11,47.11Z"/>
    <path d="M640.1,883.1h-200.2c-13,0-23.55-10.55-23.55-23.55s10.55-23.55,23.55-23.55h200.2c13,0,23.55,10.55,23.55,23.55s-10.55,23.55-23.55,23.55Z"/>
    <path d="M540,883.1c-13,0-23.55-10.55-23.55-23.55v-100.1c0-13,10.55-23.55,23.55-23.55s23.55,10.55,23.55,23.55v100.1c0,13-10.55,23.55-23.55,23.55Z"/>
    <path d="M659.2,624.01h-238.41c-12.2,0-23.69-5.37-31.54-14.7-7.87-9.33-11.16-21.57-9.07-33.59l38.91-223.76c3.44-19.78,20.51-34.15,40.61-34.15h160.56c20.11,0,37.19,14.37,40.61,34.18l38.91,223.76c2.1,12.01-1.2,24.26-9.07,33.59-7.82,9.3-19.31,14.67-31.51,14.67Z"/>
    <path d="M710.76,777.11h-341.52c-9.75,0-17.67-7.91-17.67-17.67v-47.11c0-35.73,29.04-64.77,64.77-64.77h247.31c35.73,0,64.77,29.04,64.77,64.77v47.11c0,9.75-7.91,17.67-17.67,17.67Z"/>
  </g>
  <g id="crown">
    <path d="M607.44,235.03l-12.76,56.4c-.52,2.43-2.7,4.15-5.19,4.1h-99.42c-2.49.06-4.67-1.66-5.19-4.1l-12.35-56.4c-.42-1.94.3-3.96,1.87-5.19,1.57-1.23,3.71-1.45,5.5-.57l30.3,14.68,25.11-44.42c1.41-2.49,4.58-3.37,7.07-1.96.82.46,1.49,1.14,1.96,1.96l25.11,44.47,30.51-14.79c2.53-1.34,5.67-.38,7.01,2.15.59,1.12.76,2.42.46,3.66h0Z"/>
  </g>
</svg>