<?xml version="1.0" encoding="UTF-8"?>
<svg id="Layer_1" data-name="Layer 1" xmlns="http://www.w3.org/2000/svg" viewBox="0 0 1080 1080">
  <defs>
    <style>
      .cls-1 {
        fill: #1a1a1a;
      }
    </style>
  </defs>
  <g id="surface1">
    <path class="cls-1" d="M915.32,486.3c-19.05,18.14-35.14,32.89-35.64,32.81-.6-.09-9.48-7.8-19.91-17.13-10.33-9.31-20.15-17.97-21.76-19.33l-2.96-2.28h-30.32c-16.67,0-30.48.34-30.74.77-.42.59,36.92,37.55,47.42,46.95l3.56,3.14,19.56.09c10.75.08,19.56.34,19.56.59,0,.34-23.46,22.63-52.08,49.59-28.61,27.04-52.07,49.41-52.07,49.84s16.93.76,40.98.76h40.99l19.65-20.08,19.56-20.18,36.15,36.62,36.16,36.71h45.97c25.24,0,45.89-.34,45.89-.68,0-.43-8.47-7.97-18.8-16.86-10.41-8.91-34.04-29.16-52.66-45.1l-33.7-28.91h-20.66c-11.35,0-20.66-.25-20.66-.59s6.01-6.7,13.38-14.16c7.37-7.54,20.4-20.94,28.96-29.76,8.64-8.9,28.36-29.16,43.86-45.01,15.41-15.94,28.11-29.41,28.11-29.93,0-.68-9.07-.93-31.5-.93l-31.58.09-34.71,32.97Z"/>
    <path class="cls-1" d="M630.73,504.44c-4.58,2.12-7.96,5.85-9.56,10.6-.68,2.03-.94,16.19-.94,46.79v43.99h22.87v-38.07c0-20.93.25-38.65.51-39.41.25-.76,1.44-1.36,2.53-1.36,2.54,0,2.79.42,29.98,41.63,12.54,19.07,22.02,32.63,23.54,33.73,10.33,7.38,26.93,7.89,34.97,1.2,5.92-5.01,5.84-4.07,5.84-53.91v-44.68h-22.87v38.48q0,40.94-3.98,40.18c-.93-.17-11.17-14.75-26.16-37.13-17.61-26.45-25.57-37.55-27.86-39.16-7.19-5.26-20.91-6.61-28.87-2.88Z"/>
    <path class="cls-1" d="M56.05,505.89c-4.75,1.1-10.84,4.49-13.89,7.71-1.52,1.53-3.81,5.09-5.08,7.89-2.11,4.57-2.37,6.01-2.37,13.98,0,8.4.17,9.32,2.79,14.58,3.14,6.36,6.1,9.32,12.87,12.47l4.66,2.19,29.21.43c26.51.43,29.55.59,31.67,1.94,6.35,4.25,5.34,14.08-1.79,16.79-1.18.42-18.29.76-39.71.76h-37.6v21.28l41.74-.26c40.14-.26,41.83-.34,45.98-2.03,2.37-1.02,5.75-2.88,7.45-4.24,6.52-5.18,11.52-15.43,11.52-23.64,0-9.15-5.59-19.51-13.12-24.59-7.63-5-11.18-5.5-39.55-5.5s-29.97-.34-32.34-5.01c-1.7-3.21-1.7-5.43-.08-8.56,2.7-5.26,1.44-5.09,42.5-5.09h37.51v-22.04l-39.54.08c-21.84.09-41.07.43-42.84.86Z"/>
    <path class="cls-1" d="M191.78,506.31c-18.29,3.9-33.78,19.16-38.18,37.64-1.53,6.18-1.36,17.8.34,24.33,3.47,13.3,14.05,26.27,26.08,32.03,10.58,5.01,14.65,5.51,46.32,5.51h28.1v-21.11l-27.68-.25-27.77-.25-4.74-2.21c-6.69-3.13-11.27-7.62-14.48-14.15-2.46-4.92-2.8-6.44-2.8-12.46,0-5.51.43-7.64,2.2-11.45,2.88-6.1,8.22-11.53,14.14-14.24l4.83-2.29,55.89-.84.25-10.85.26-10.77-28.62.08c-21.08.09-30.06.43-34.13,1.28Z"/>
    <path class="cls-1" d="M274.76,506.47c-1.61.77-3.64,2.8-4.66,4.41-1.61,2.88-1.7,4.24-1.7,48.74v45.77l11.27.26,11.17.26v-38.31l27.77.25c20.75.17,28.2.51,29.9,1.36,4.15,2.2,4.57,3.73,5,20.51l.42,15.68,11.26.26,11.35.26-.42-18.49c-.17-11.27-.77-19.75-1.36-21.78-.6-1.78-2.71-4.83-4.66-6.86l-3.64-3.57,3.64-3.81c6.26-6.7,8.13-18.48,4.4-28.4-2.7-7.46-9.65-13.98-17.1-16.28-5.5-1.7-7.62-1.78-42.76-1.78s-37.17.17-39.88,1.53ZM347.58,527.67c3.22,1.7,5.93,6.1,5.93,9.49,0,2.79-2.71,7.12-5.67,9.07-2.03,1.36-5,1.52-29.22,1.78l-26.93.26v-10.51c0-5.76.26-10.77.6-11.03.25-.34,12.19-.59,26.42-.59,23.54,0,26.25.17,28.87,1.53Z"/>
    <path class="cls-1" d="M396.19,506.56c-6.35,2.87-6.26,2.11-6.26,48.31s0,46.45,6.26,49.34c3.21,1.44,6.43,1.61,49.44,1.61h45.89v-21.19h-38.35c-28.7,0-38.61-.26-39.37-1.02-.68-.68-1.02-4.07-1.02-9.75v-8.73h77.9v-19.5h-77.9v-7.97c0-4.41.25-8.57.51-9.32.42-1.19,4.74-1.36,39.37-1.36h38.86v-22.04h-45.89c-42.92,0-46.23.17-49.44,1.62Z"/>
    <path class="cls-1" d="M511.09,506.47c-1.62.85-3.64,2.88-4.49,4.5-1.45,2.62-1.53,5.76-1.53,44.42,0,46.45-.09,45.68,5.92,48.91,2.71,1.44,5.93,1.53,48.86,1.53h45.98v-21.19l-38.7-.17-38.77-.25-.26-9.58-.25-9.49h77.99v-19.5h-77.99l.25-9.15.26-9.07,38.77-.25,38.7-.17v-22.04h-45.98c-42.84,0-46.14.08-48.77,1.53Z"/>
  </g>
</svg>