<svg width="102" height="102" viewBox="0 0 102 102" fill="none" xmlns="http://www.w3.org/2000/svg">
<rect x="0.5" y="0.5" width="101" height="101" rx="4.5" stroke="#707070"/>
<g clip-path="url(#clip0_1146_1279)">
<path d="M55.1656 21.8796C55.1656 19.1121 52.9141 16.8605 50.1465 16.8605C47.3789 16.8605 45.1276 19.112 45.1276 21.8796C45.1276 24.6472 47.3791 26.8985 50.1465 26.8985C52.9139 26.8985 55.1656 24.6472 55.1656 21.8796ZM47.4713 21.8796C47.4713 20.4044 48.6714 19.2042 50.1465 19.2042C51.6216 19.2042 52.8219 20.4043 52.8219 21.8796C52.8219 23.3547 51.6218 24.5548 50.1465 24.5548C48.6715 24.5548 47.4713 23.3547 47.4713 21.8796Z" fill="black"/>
<path d="M90.8122 48.6267C90.2494 46.9383 89.1126 45.4821 87.6112 44.5257C86.3986 43.7534 85.6058 42.5319 85.4361 41.1742L84.7053 35.3289C84.3602 32.5674 82.0012 30.485 79.2183 30.485C76.4354 30.485 74.0764 32.5674 73.7312 35.3289L73.0006 41.1742C72.831 42.5319 72.038 43.7534 70.8255 44.5257C69.324 45.4819 68.1873 46.9383 67.6245 48.6266C67.2556 49.7334 67.4352 50.911 68.1173 51.8574C68.7995 52.8039 69.8598 53.3467 71.0265 53.3467H73.363C74.2536 53.3467 75.1043 53.7722 75.6387 54.4847C76.4918 55.6222 77.7965 56.2745 79.2183 56.2745C80.6401 56.2745 81.9449 55.622 82.7981 54.4847C83.3324 53.7722 84.1832 53.3467 85.0738 53.3467H87.4103C88.577 53.3467 89.6373 52.8039 90.3194 51.8576C91.0014 50.9112 91.181 49.7336 90.8122 48.6267ZM88.4179 50.4873C88.1815 50.8153 87.8142 51.0032 87.41 51.0032H85.0735C83.4491 51.0032 81.8973 51.779 80.9228 53.0786C80.5165 53.6203 79.8952 53.931 79.218 53.931C78.5408 53.931 77.9196 53.6203 77.5133 53.0786C76.5387 51.7791 74.987 51.0032 73.3627 51.0032H71.0262C70.622 51.0032 70.2546 50.8151 70.0182 50.4873C69.782 50.1593 69.7196 49.7515 69.8476 49.3679C70.2407 48.1884 71.0351 47.171 72.0841 46.5029C73.8877 45.3541 75.0692 43.5179 75.3259 41.4652L76.0565 35.6199C76.2554 34.0288 77.6146 32.829 79.218 32.829C80.8214 32.829 82.1806 34.0288 82.3795 35.6199L83.1102 41.4652C83.3668 43.5179 84.5483 45.3541 86.352 46.5027C87.4011 47.1708 88.1953 48.1884 88.5885 49.3679C88.7165 49.7514 88.6543 50.1593 88.4179 50.4873Z" fill="black"/>
<path d="M70.6547 65.7489C69.1113 66.778 67.1164 66.778 65.5728 65.7489C63.4393 64.3265 60.5748 64.6102 58.7616 66.4233C57.4826 67.7025 56.9307 69.5251 57.2854 71.2988L59.6999 83.371C60.4994 87.3678 64.0379 90.2686 68.1139 90.2686C72.1897 90.2686 75.7284 87.3678 76.5279 83.3708L78.9423 71.2986C79.297 69.5249 78.7452 67.7023 77.4661 66.4231C75.6529 64.6102 72.7884 64.3266 70.6547 65.7489ZM76.644 70.8394L74.2295 82.9115C73.6484 85.8167 71.0764 87.9252 68.1137 87.9252C65.1511 87.9252 62.579 85.8167 61.9979 82.9116L59.5835 70.8394C59.3827 69.8359 59.695 68.8045 60.4187 68.0807C61.0075 67.492 61.7917 67.1884 62.5815 67.1884C63.1682 67.1884 63.7582 67.3561 64.2727 67.6992C65.0972 68.2489 66.007 68.6043 66.9419 68.7656V80.9989C66.9419 81.646 67.4665 82.1707 68.1137 82.1707C68.7609 82.1707 69.2856 81.646 69.2856 80.9989V68.7656C70.2204 68.6045 71.13 68.249 71.9547 67.6992C73.162 66.8945 74.7828 67.055 75.8087 68.0807C76.5324 68.8045 76.8447 69.8357 76.644 70.8394Z" fill="black"/>
<path d="M26.0591 51.2354C26.1248 48.9867 27.0352 46.7604 28.6227 44.9662C30.3717 42.9897 31.265 40.4439 31.1381 37.7982C30.8909 32.6388 26.6532 28.4341 21.4908 28.2258C18.7184 28.1144 16.093 29.1083 14.0968 31.0254C12.0998 32.9434 11 35.5242 11 38.2923V51.011C11 53.0916 11.8728 55.0992 13.3949 56.5189C14.9376 57.958 16.9517 58.6707 19.0676 58.5235C22.9114 58.2563 25.9495 55.0922 26.0591 51.2354ZM18.9048 56.1856C17.4459 56.2868 16.0566 55.7968 14.9935 54.8053C13.9296 53.8127 13.3437 52.4654 13.3437 51.0112V38.2924C13.3437 36.1683 14.1877 34.1877 15.7202 32.7157C17.3016 31.1968 19.3407 30.4836 21.3963 30.5676C25.3567 30.7273 28.6074 33.9527 28.797 37.9104C28.8945 39.9424 28.2091 41.8967 26.8674 43.4131C24.917 45.6173 23.798 48.3711 23.7164 51.1676C23.6423 53.8199 21.5532 56.0015 18.9048 56.1856Z" fill="black"/>
<path d="M21.26 33.3497C18.3465 33.2605 16.1294 35.5873 16.1294 38.2931V41.8658C16.1294 42.7237 16.4636 43.53 17.0667 44.1326L17.0991 44.1649C17.2628 44.3285 17.353 44.5463 17.353 44.778C17.353 45.0098 17.2628 45.2276 17.102 45.3882L17.0705 45.4198C16.4638 46.026 16.1296 46.8324 16.1296 47.6903V51.012C16.1296 51.653 16.3794 52.2558 16.8328 52.7091C17.2862 53.1625 17.8897 53.4124 18.5317 53.4124C19.1788 53.4124 19.7035 52.8877 19.7035 52.2405C19.7035 51.5933 19.1788 51.0687 18.5317 51.0687C18.5193 51.0687 18.5048 51.0666 18.4898 51.0518C18.4732 51.0352 18.4732 51.019 18.4732 51.012V47.6903C18.4732 47.4589 18.5634 47.2413 18.7307 47.0741L18.7557 47.0491C19.3626 46.4427 19.6966 45.6363 19.6966 44.778C19.6966 43.9199 19.3624 43.1136 18.7453 42.4967L18.727 42.4784C18.5634 42.3148 18.4731 42.0973 18.4731 41.8658V38.2931C18.4731 36.8915 19.6056 35.6492 21.1883 35.6922C22.5186 35.7469 23.6105 36.829 23.6742 38.1562C23.7073 38.8444 23.4772 39.5038 23.0263 40.0129C22.597 40.4972 22.6419 41.2378 23.1262 41.667C23.6108 42.0962 24.3512 42.0514 24.7804 41.567C25.6393 40.5977 26.0777 39.3463 26.0151 38.0437C25.8895 35.4223 23.6669 33.3905 21.26 33.3497Z" fill="black"/>
<path d="M37.4144 63.5599H30.505C28.3411 63.5599 26.5809 65.3204 26.5809 67.4841V70.5585C25.3393 70.3149 24.0003 70.6724 23.0427 71.6302L21.9318 72.7411C21.4505 73.2223 21.1855 73.8622 21.1855 74.5428C21.1855 75.2234 21.4505 75.8632 21.9318 76.3445L29.0189 83.4316C29.3013 83.714 29.4305 84.0177 29.4305 84.3644V87.5531C29.4305 88.6545 30.3266 89.5507 31.4281 89.5507H38.3259C39.4273 89.5507 40.3233 88.6546 40.3233 87.5531V84.3805C40.3233 84.031 40.4638 83.6991 40.7191 83.4458C42.3016 81.8762 43.1731 79.7844 43.1731 77.5557V76.6882C43.1731 76.041 42.6484 75.5164 42.0013 75.5164C41.3541 75.5164 40.8294 76.041 40.8294 76.6882V77.5557C40.8294 79.1547 40.2041 80.6556 39.0687 81.7818C38.3664 82.4784 37.9797 83.4013 37.9797 84.3803V87.2068H31.7742V84.3644C31.7742 83.3277 31.3083 82.349 30.6386 81.7368L23.5889 74.6872C23.5092 74.6075 23.5092 74.4779 23.5889 74.3983L24.6998 73.2873C25.3128 72.6745 26.3124 72.6717 26.9285 73.2809C26.9295 73.2819 26.9302 73.2827 26.9312 73.2836L30.1359 76.4882C30.9053 77.2572 32.0112 77.5758 33.0927 77.3408C33.2098 77.3154 33.3307 77.3026 33.4521 77.3026C34.1943 77.3026 34.8389 77.7783 35.0564 78.4866C35.2469 79.1067 35.9033 79.4522 36.5208 79.2627C37.1394 79.0727 37.487 78.4171 37.2969 77.7983C36.7752 76.0999 35.23 74.9589 33.4521 74.9589C33.164 74.9589 32.8759 74.9896 32.5956 75.0504C32.2956 75.1156 31.9959 75.0334 31.7931 74.8307L28.9246 71.9622V67.4839C28.9246 66.6125 29.6336 65.9035 30.505 65.9035H31.0215V70.4251C31.0215 71.0722 31.5462 71.5969 32.1934 71.5969C32.8406 71.5969 33.3652 71.0722 33.3652 70.4251V65.9035H35.2694V70.4251C35.2694 71.0722 35.7941 71.5969 36.4413 71.5969C37.0884 71.5969 37.6131 71.0722 37.6131 70.4251V65.9093C39.4041 66.0125 40.8296 67.5022 40.8296 69.3187V71.2194C40.8296 71.8666 41.3543 72.3913 42.0014 72.3913C42.6486 72.3913 43.1733 71.8666 43.1733 71.2194V69.3189C43.1733 66.1433 40.5897 63.5599 37.4144 63.5599Z" fill="black"/>
<path d="M50.1465 32.0282C56.3034 32.0282 61.4926 28.0744 64.0655 24.6887C64.9672 23.502 65.4246 22.5569 65.4246 21.8797C65.4246 21.2024 64.9674 20.2573 64.0655 19.0707C61.4926 15.6849 56.3035 11.7311 50.1465 11.7311C46.9697 11.7311 43.7426 12.7843 40.8141 14.7769C40.2791 15.141 40.1404 15.8699 40.5046 16.405C40.8686 16.94 41.5975 17.0788 42.1327 16.7145C43.9026 15.5102 46.7296 14.0746 50.1467 14.0746C55.4454 14.0746 59.9511 17.5297 62.1996 20.4885C62.7421 21.2024 62.9817 21.6779 63.0596 21.8794C62.9817 22.0811 62.7421 22.5564 62.1996 23.2703C59.9511 26.2291 55.4454 29.6842 50.1467 29.6842C45.0688 29.6842 40.7125 26.526 38.3288 23.5705C37.6218 22.6938 37.3225 22.1124 37.2334 21.8794C37.3225 21.6465 37.6217 21.0652 38.3288 20.1884C38.7352 19.6846 38.6562 18.9468 38.1524 18.5406C37.6487 18.1344 36.9109 18.2133 36.5047 18.717C35.7584 19.6423 34.8688 20.9419 34.8688 21.8794C34.8688 22.8169 35.7583 24.1165 36.5047 25.0418C39.2283 28.4192 44.2424 32.0282 50.1465 32.0282Z" fill="black"/>
<path d="M61.8525 46.0144C61.69 45.3879 61.0502 45.0115 60.4241 45.1741C59.7976 45.3366 59.4215 45.976 59.5838 46.6025C59.7904 47.3991 59.8951 48.2247 59.8951 49.0565C59.8951 50.5351 59.5691 51.9644 58.9423 53.2686C57.9659 52.1977 56.5602 51.5248 55.0002 51.5248H45.2934C43.7334 51.5248 42.3279 52.1977 41.3513 53.2686C40.7245 51.9644 40.3984 50.5351 40.3984 49.0564C40.3984 45.7885 42.0172 42.7981 44.6451 41.0049L44.9784 44.3376C45.2451 47.0041 47.4669 49.015 50.1467 49.015C52.8265 49.015 55.0485 47.0041 55.315 44.3376L55.6481 41.0061C56.1936 41.3795 56.7012 41.8095 57.1673 42.2933C57.6164 42.7592 58.3582 42.7731 58.8243 42.3241C59.2902 41.875 59.3041 41.1331 58.8551 40.6671C57.8389 39.6124 56.6623 38.7637 55.3521 38.1392C55.1085 37.4926 54.7446 36.8903 54.2722 36.3684C53.2195 35.205 51.7157 34.5378 50.1467 34.5378C48.5777 34.5378 47.074 35.205 46.0212 36.3684C45.5489 36.8904 45.185 37.4928 44.9412 38.1393C40.7399 40.1418 38.0547 44.3688 38.0547 49.0564C38.0547 51.463 38.7512 53.7649 40.0745 55.7495C39.9984 56.1078 39.9582 56.4792 39.9582 56.8596V59.1953C39.9582 60.2723 40.8343 61.1484 41.9113 61.1484H58.3821C59.4591 61.1484 60.3352 60.2723 60.3352 59.1953V56.8598C60.3352 56.4792 60.2951 56.1079 60.219 55.7496C61.5422 53.765 62.2388 51.463 62.2388 49.0565C62.2386 48.0264 62.1088 47.003 61.8525 46.0144ZM50.1466 36.8815C51.068 36.8815 51.9161 37.2578 52.5343 37.941C53.1526 38.6241 53.4426 39.5055 53.351 40.4224L52.9829 44.1046C52.8365 45.5679 51.6173 46.6714 50.1467 46.6714C48.6761 46.6714 47.4569 45.568 47.3105 44.1046L46.9423 40.4225C46.8487 39.486 47.1545 38.6091 47.759 37.9412C48.3771 37.2578 49.2252 36.8815 50.1466 36.8815ZM57.9914 58.8049H42.3019V56.8598C42.3019 55.2103 43.6438 53.8684 45.2933 53.8684H55C56.6495 53.8684 57.9915 55.2103 57.9915 56.8598L57.9914 58.8049Z" fill="black"/>
</g>
<defs>
<clipPath id="clip0_1146_1279">
<rect width="80" height="80" fill="white" transform="translate(11 11)"/>
</clipPath>
</defs>
</svg>
