<?xml version="1.0" encoding="UTF-8"?>
<svg id="Layer_1" data-name="Layer 1" xmlns="http://www.w3.org/2000/svg" viewBox="0 0 1080 1080">
  <path d="M765.38,567.41c-9.29-4-19.73-6.24-30.82-6.24-6.33,0-11.45-5.13-11.45-11.45s5.13-11.45,11.45-11.45c14.13,0,27.62,2.92,39.82,8.2,5.04,2.2,9.84,4.76,14.37,7.68.37-3.49.56-7,.56-10.56,0-51.4-38.38-94.34-89.69-104.94,1.77,6.89,2.73,14.09,2.73,21.49,0,6.33-5.17,11.45-11.49,11.45s-11.45-5.13-11.45-11.45c0-18.65-8.09-35.58-21.14-47.87-13.24-12.41-31.62-20.14-51.95-20.14s-38.75,7.72-51.99,20.14c-13.05,12.28-21.14,29.22-21.14,47.87,0,6.33-5.13,11.45-11.45,11.45s-11.45-5.13-11.45-11.45c0-24.02,9.84-45.83,25.94-62.09-14.88-12.24-34.38-19.66-55.68-19.66-28.54,0-53.8,13.24-69.09,33.58,1.4.4,2.8.8,4.21,1.24,12.72,3.88,24.5,9.56,35.02,16.73,5.21,3.56,6.57,10.69,3.01,15.89-3.56,5.21-10.69,6.57-15.89,3.01-8.68-5.96-18.37-10.65-28.74-13.81-10.01-3.04-20.77-4.69-32.07-4.69-28.62,0-54.43,10.84-73.09,28.34-18.5,17.37-29.89,41.3-29.89,67.72,0,18.33,5.48,35.5,15.05,50.07.11.16.28.35.4.56,10.21,15.33,24.89,27.77,42.3,35.74,5.76,2.6,8.29,9.4,5.65,15.12-2.6,5.72-9.36,8.25-15.09,5.65-17.61-8.05-32.86-19.77-44.71-34.14-2.16,8.2-3.28,16.78-3.28,25.57,0,59.4,51.23,107.51,114.47,107.51,4.28,0,8.49-.2,12.65-.64-2.8-8.88-4.28-18.22-4.28-27.86,0-6.33,5.13-11.45,11.45-11.45s11.45,5.13,11.45,11.45c0,23.65,12.17,45.23,31.83,60.96,20.33,16.34,48.59,26.42,80.01,26.42,21.93,0,42.39-4.97,59.64-13.48,17.54-8.73,31.79-21.1,40.95-35.78,3.32-5.37,10.36-7,15.73-3.64,5.37,3.32,7,10.36,3.69,15.73-6.89,11.04-15.97,20.97-26.77,29.46,29.46,24.81,71.56,44.42,77.69,107.91.52,5.24,4.89,9.21,10.12,9.21h22.62c5.24,0,9.6-3.97,10.12-9.16,4.45-44.07-1.92-84.3-17.41-120.32-6.04-13.85-13.53-26.94-22.3-39.34-3.64-5.13-2.44-12.28,2.73-15.93,5.17-3.64,12.28-2.4,15.93,2.73,8.68,12.24,16.21,25.13,22.54,38.75,13.65-13.33,22.41-31.06,23.58-50.75,24.85-13.81,41.58-39.27,41.58-68.4-.04-30.13-19.42-59-46.99-70.93h0ZM675.36,594.02c-33.66,42.15-81.86,68.53-135.37,68.53s-101.67-26.38-135.37-68.53c-4.21-5.28-4.21-12.57,0-17.85,33.71-42.15,81.86-68.53,135.37-68.53s101.71,26.38,135.37,68.53c4.24,5.28,4.24,12.57,0,17.85ZM539.99,539.87c-24.94,0-45.27,20.33-45.27,45.23s20.33,45.23,45.27,45.23,45.27-20.33,45.27-45.23-20.33-45.23-45.27-45.23ZM540.07,596.55h-.16c-6.33,0-11.45-5.13-11.45-11.45s5.13-11.45,11.45-11.45h.16c6.33,0,11.45,5.13,11.45,11.45-.01,6.33-5.14,11.45-11.45,11.45ZM528.54,297.16v-106.47c0-6.33,5.13-11.45,11.45-11.45s11.45,5.13,11.45,11.45v106.47c0,6.33-5.13,11.45-11.45,11.45-6.33-.01-11.45-5.13-11.45-11.45h0ZM645.78,309.57l27.58-102.82c1.64-6.13,7.88-9.73,14.01-8.12,6.09,1.64,9.73,7.92,8.09,14.01l-27.58,102.82c-1.64,6.13-7.92,9.73-14.01,8.12-6.13-1.65-9.73-7.94-8.09-14.01ZM828.86,271.06l-53.32,92.22c-3.16,5.45-10.17,7.33-15.62,4.17-5.45-3.16-7.33-10.17-4.17-15.62l53.32-92.22c3.16-5.45,10.12-7.33,15.62-4.17,5.44,3.16,7.31,10.17,4.17,15.62ZM384.52,212.62c-1.6-6.09,2.01-12.37,8.12-14.01,6.09-1.6,12.37,2.01,14.01,8.12l27.59,102.84c1.64,6.09-2.01,12.37-8.12,14.01-6.09,1.6-12.37-2.01-13.97-8.12l-27.63-102.84ZM304.43,363.28l-53.28-92.22c-3.16-5.44-1.33-12.45,4.17-15.62,5.44-3.16,12.45-1.28,15.62,4.17l53.28,92.22c3.16,5.44,1.33,12.45-4.17,15.62-5.45,3.15-12.45,1.27-15.62-4.17Z"/>
</svg>