<?xml version="1.0" encoding="UTF-8"?>
<svg id="Layer_1" data-name="Layer 1" xmlns="http://www.w3.org/2000/svg" xmlns:xlink="http://www.w3.org/1999/xlink" viewBox="0 0 1080 1080">
  <defs>
    <style>
      .cls-1 {
        fill: #1a1a1a;
      }

      .cls-2 {
        clip-path: url(#clippath);
      }
    </style>
    <clipPath id="clippath">
      <path class="cls-1" d="M799.04,540.69c2.37-1.69,14.74-10,17.46-11.86,1.53-1.02,2.37-.85,2.2.51v14.57h-18.81c-2.03-.17-3.05-1.69-.85-3.22M815.47,520.86c-2.03,0-2.71.34-3.9,1.19-5.08,3.56-18.81,12.37-29.83,20.17-4.41,3.05-3.22,7.8,3.56,7.8h33.39v4.58c0,.68.34,1.19,1.02,1.19h11.02c.68,0,1.02-.51,1.02-1.19v-4.58h5.93c.68,0,.85-.17.85-.85v-4.58c0-.68-.17-.85-.85-.85h-5.76v-22.03c0-.68-.51-1.02-1.19-1.02h-15.25v.17ZM843.27,520.69c-.68,0-1.19.51-1.19,1.19v32.54c0,.68.51,1.19,1.19,1.19h10.68c.68,0,1.19-.51,1.19-1.19v-14.4s21.52,13.73,23.22,14.91c1.36.85,1.36.68,3.9.68h12.37c3.05,0,2.54-1.02,1.02-1.86-6.95-4.24-16.61-10-28.98-17.46,0,0,18.81-10.17,26.1-14.07,2.03-1.02,1.53-1.53-.51-1.53h-11.86c-.85,0-1.19,0-2.2.51-2.03,1.19-23.05,12.54-23.05,12.54v-12.03c0-.68-.51-1.19-1.19-1.19h-10.68v.17Z"/>
    </clipPath>
  </defs>
  <path class="cls-1" d="M604.99,596.27v13.56h74.4v-13.56h-14.07l-3.73-.17c-1.53-.34-2.54-1.36-2.88-2.54l-.34-3.05v-21.35l.51-2.03c1.02-1.19,39.49-45.08,41.18-46.94,3.73-4.24,5.76-5.25,10.68-5.25h13.73v-13.56h-61.18v13.56h9.15c2.71,0,3.39,2.71,2.37,4.24l-26.1,30.34h-.68l-25.42-30.34c-1.86-2.2-.34-4.24,1.69-4.24h8.98v-13.56h-74.74v13.56h13.39c5.76,0,9.49,3.73,11.69,6.1,1.69,1.86,39.83,45.08,40.67,46.27,1.02,1.19,1.02,1.36,1.02,1.86v21.35l-.17,3.05c-.51,1.19-1.53,2.2-2.88,2.54l-3.73.34h-13.56v-.17ZM376.38,501.37v13.56h11.86c8.64,0,9.15,4.75,9.15,8.98v63.38c0,3.9.17,8.98-5.25,8.98h-14.74v13.56h62.53v-13.56h-15.25c-6.1,0-6.44-2.71-6.44-8.64v-54.23l85.75,76.6h21.86l-1.19-86.43c.17-6.27.51-8.47,6.95-8.47h13.73v-13.56h-63.72v13.56h14.07c6.44,0,7.46,2.54,7.63,8.47l.85,45.25-74.57-67.11h-53.21v-.34ZM95.06,494.59c-13.39,0-28.64,2.54-41.52,8.3-12.03,5.42-21.86,13.9-21.86,28.3,0,12.88,8.13,20.34,7.97,20.17,3.56,3.22,9.15,8.81,23.9,11.86,6.44,1.53,20.51,3.56,34.57,5.08,13.9,1.36,27.45,2.88,33.05,4.24,4.41,1.19,11.69,2.71,11.69,11.02s-7.8,10.85-9.15,11.35c-1.36.51-10.68,4.91-27.62,4.91-12.37,0-27.28-3.73-32.88-5.59-6.27-2.2-12.88-5.25-18.98-12.71-1.53-1.86-3.9-6.95-3.9-12.03h-15.42v42.71h16.95v-5.76c0-.51.85-3.39,3.73-2.03,3.56,1.69,13.9,5.76,24.91,7.97,8.81,1.86,14.57,3.22,25.59,3.22,18.13,0,27.79-2.88,34.4-4.75,6.44-1.86,14.24-5.08,20.51-10.17,3.39-2.71,10.85-9.66,10.85-22.37s-6.44-19.83-8.81-22.03c-3.22-3.22-6.95-5.59-11.02-7.46-3.56-1.69-8.98-3.56-13.56-4.75-8.81-2.2-28.47-4.91-37.96-5.76-9.83-1.02-27.12-2.54-33.89-4.58-2.03-.68-6.44-2.71-6.44-7.63,0-3.56,2.03-6.44,5.76-8.98,6.1-3.73,18.47-6.1,31.18-6.1,15.25,0,27.96,3.39,36.1,6.95,2.71,1.36,5.93,3.05,8.64,5.08,2.88,2.37,6.95,7.29,8.47,14.24h13.9v-37.11h-15.25v4.24c0,1.36-1.36,3.22-4.24,1.69-6.78-3.73-25.93-11.52-49.65-11.52M278.42,616.61c-25.08,0-48.3-7.63-63.89-21.52-11.69-10.51-17.46-24.91-17.46-39.49s5.93-28.98,17.46-39.49c14.4-13.05,39.99-21.35,63.89-21.35,26.61,0,47.96,6.78,64.06,21.52,11.52,10.51,17.12,24.91,17.12,39.49s-5.93,29.15-17.12,39.49c-15.08,13.9-38.81,21.35-64.06,21.35v-16.1c13.39,0,25.76-4.75,34.4-13.22,8.64-8.64,12.54-18.98,12.54-31.86s-4.24-23.73-12.54-31.86c-8.47-8.3-21.18-13.22-34.4-13.22s-25.76,4.75-34.4,13.22c-8.13,8.13-12.54,19.66-12.54,31.86s4.41,23.56,12.54,31.86c8.64,8.47,21.18,13.22,34.4,13.22v16.1Z"/>
  <path class="cls-1" d="M778.19,591.87v14.57c0,.85,0,2.03.51,2.88.51,1.02,1.19,1.69,2.71,1.69s2.37-.68,2.71-1.53.34-2.03.34-3.05v-14.57h6.1v14.57c0,4.07-.85,5.76-2.37,7.46-1.53,1.53-3.73,2.54-6.78,2.54-1.69,0-4.91-.51-6.95-2.54-2.03-2.2-2.37-3.9-2.37-7.46v-14.57h6.1Z"/>
  <polygon class="cls-1" points="812.76 591.87 818.86 591.87 818.86 610.68 826.15 610.68 826.15 616.1 812.76 616.1 812.76 591.87"/>
  <polygon class="cls-1" points="847.67 597.29 842.93 597.29 842.93 591.87 858.69 591.87 858.69 597.29 853.94 597.29 853.94 616.1 847.67 616.1 847.67 597.29"/>
  <path class="cls-1" d="M879.87,591.87h7.97c3.73,0,6.1.68,7.46,1.69,2.03,1.53,2.88,3.9,2.88,6.61,0,1.86-.51,3.22-1.19,4.41-.85,1.36-2.03,2.03-3.05,2.54l4.91,8.81h-6.44l-6.27-11.69h1.02c1.53,0,2.88-.17,3.73-.68.68-.51,1.36-1.69,1.36-3.05s-.68-2.2-1.36-2.88c-.68-.51-1.69-.68-2.54-.68h-2.2v18.81h-6.1v-23.9h-.17Z"/>
  <path class="cls-1" d="M925.46,616.1h-6.78l9.49-24.23h5.25l9.32,24.23h-6.78l-1.19-3.56h-8.47l-.85,3.56ZM930.71,599.32l-2.54,8.47h5.25l-2.71-8.47Z"/>
  <polygon class="cls-1" points="978 616.1 978 591.87 984.27 591.87 984.27 601.02 992.06 601.02 992.06 591.87 998.33 591.87 998.33 616.1 992.06 616.1 992.06 606.44 984.27 606.44 984.27 616.1 978 616.1"/>
  <path class="cls-1" d="M1020.36,591.87h7.97c2.71,0,7.63,0,10.68,4.58,1.69,2.37,2.2,4.91,2.2,7.46,0,6.61-3.22,12.2-12.37,12.2h-8.47v-24.23ZM1026.46,610.68h2.71c4.58,0,5.93-3.22,5.93-6.61,0-1.36-.34-3.05-1.19-4.41-.68-1.02-2.03-2.2-4.75-2.2h-2.71v13.22Z"/>
  <g>
    <path class="cls-1" d="M799.04,540.69c2.37-1.69,14.74-10,17.46-11.86,1.53-1.02,2.37-.85,2.2.51v14.57h-18.81c-2.03-.17-3.05-1.69-.85-3.22M815.47,520.86c-2.03,0-2.71.34-3.9,1.19-5.08,3.56-18.81,12.37-29.83,20.17-4.41,3.05-3.22,7.8,3.56,7.8h33.39v4.58c0,.68.34,1.19,1.02,1.19h11.02c.68,0,1.02-.51,1.02-1.19v-4.58h5.93c.68,0,.85-.17.85-.85v-4.58c0-.68-.17-.85-.85-.85h-5.76v-22.03c0-.68-.51-1.02-1.19-1.02h-15.25v.17ZM843.27,520.69c-.68,0-1.19.51-1.19,1.19v32.54c0,.68.51,1.19,1.19,1.19h10.68c.68,0,1.19-.51,1.19-1.19v-14.4s21.52,13.73,23.22,14.91c1.36.85,1.36.68,3.9.68h12.37c3.05,0,2.54-1.02,1.02-1.86-6.95-4.24-16.61-10-28.98-17.46,0,0,18.81-10.17,26.1-14.07,2.03-1.02,1.53-1.53-.51-1.53h-11.86c-.85,0-1.19,0-2.2.51-2.03,1.19-23.05,12.54-23.05,12.54v-12.03c0-.68-.51-1.19-1.19-1.19h-10.68v.17Z"/>
    <g class="cls-2">
      <polygon class="cls-1" points="769.89 522.55 783.27 581.87 905.29 554.07 891.74 494.76 769.89 522.55"/>
    </g>
  </g>
  <g>
    <path class="cls-1" d="M974.1,524.76h-7.12v28.47h7.12c6.27,0,11.35-2.88,11.35-9.49v-10.51c0-5.59-5.59-8.47-11.35-8.47Z"/>
    <path class="cls-1" d="M764.97,494.59v86.94h283.35v-86.94h-283.35ZM904.62,575.6h-133.03v-75.24h133.03v75.24ZM952.07,557.12h-7.96v-15.93h-17.96v15.93h-8.13v-36.27h8.13v15.25h17.96v-15.25h7.96v36.27ZM993.59,544.08c0,8.81-8.3,13.05-15.59,13.05h-19.32v-36.27h18.47c7.97,0,16.44,3.9,16.44,12.88v10.34ZM1028.5,557.12l-18.64-20h16.95c.51,0,1.02-.51,1.02-1.02v-10.17c0-.51-.51-1.02-1.02-1.02h-18.64c-.51,0-1.02.51-1.02,1.02v31.18h-8.3v-30.84c0-3.05,2.37-5.42,5.42-5.42h26.44c3.05,0,5.42,2.54,5.42,5.42v9.32c0,3.05-2.54,5.42-5.42,5.42h-7.96l15.42,16.1h-9.66Z"/>
  </g>
</svg>