<?xml version="1.0" encoding="UTF-8"?>
<svg id="Layer_1" data-name="Layer 1" xmlns="http://www.w3.org/2000/svg" viewBox="0 0 1080 1080">
  <g id="_33-Theatre_seating" data-name="33-Theatre seating">
    <path d="M497.13,593.94c-16.37,0-29.69,13.31-29.69,29.69v53.44h-16.02v-53.44c0-20.92,14.21-39.05,34.21-44.23v-86.29c0-16.69-13.57-30.27-30.26-30.27h-123.26c-16.68,0-30.26,13.58-30.26,30.27v86.29c20,5.18,34.21,23.31,34.21,44.23v53.44h-16.02v-53.44c0-16.38-13.32-29.69-29.69-29.69s-29.69,13.31-29.69,29.69v63.5c0,16.37,13.32,29.69,29.69,29.69h85.88v32.38h-19.26c-1.74,0-3.33.95-4.17,2.47l-19.54,35.72c-.8,1.46-.77,3.26.08,4.69.85,1.44,2.42,2.33,4.09,2.33h112.76c2.57-.06,4.64-2.16,4.64-4.75,0-.93-.27-1.83-.78-2.6l-.16-.25-19.22-35.14c-.83-1.52-2.43-2.47-4.17-2.47h-19.26v-32.38h85.88c16.37,0,29.69-13.33,29.69-29.69v-63.5c0-16.37-13.32-29.69-29.69-29.69Z"/>
    <path d="M789.63,593.94c-16.37,0-29.69,13.31-29.69,29.69v53.44h-16.02v-53.44c0-20.92,14.21-39.05,34.21-44.23v-86.29c0-16.69-13.57-30.27-30.26-30.27h-123.25c-16.69,0-30.26,13.58-30.26,30.27v86.29c20,5.18,34.21,23.31,34.21,44.23v53.44h-16.02v-53.44c0-16.38-13.32-29.69-29.69-29.69s-29.7,13.31-29.7,29.69v63.5c0,16.37,13.32,29.69,29.7,29.69h85.88v32.38h-19.26c-1.73,0-3.33.95-4.16,2.47l-19.54,35.72c-.8,1.46-.77,3.26.08,4.69.85,1.44,2.42,2.33,4.08,2.33h112.75c2.57-.06,4.64-2.16,4.64-4.75,0-.93-.27-1.83-.77-2.6l-.16-.25-19.22-35.14c-.83-1.52-2.43-2.47-4.16-2.47h-19.26v-32.38h85.88c16.37,0,29.69-13.33,29.69-29.69v-63.5c0-16.37-13.32-29.69-29.69-29.69Z"/>
    <path d="M286.84,493.1c0-24.97,20.32-45.29,45.29-45.29h5.75v-69.34c0-16.69-13.57-30.26-30.26-30.26h-123.25c-16.68,0-30.26,13.57-30.26,30.26v86.29c20.01,5.18,34.21,23.31,34.21,44.24v53.44h-16.02v-53.44c0-16.37-13.32-29.7-29.69-29.7-16.37,0-29.69,13.32-29.69,29.7v63.5c0,16.37,13.32,29.69,29.69,29.69h85.88v32.39h-19.26c-1.73,0-3.33.94-4.16,2.47l-19.54,35.72c-.8,1.46-.77,3.27.08,4.69.85,1.44,2.41,2.33,4.08,2.33h55.97v-56.17c0-23.47,18.18-42.77,41.19-44.58,0,0,0-85.95,0-85.95Z"/>
    <path d="M579.34,493.1c0-24.97,20.31-45.29,45.28-45.29h5.75v-69.34c0-16.69-13.57-30.26-30.26-30.26h-123.26c-16.68,0-30.26,13.57-30.26,30.26v69.34h8.78c24.97,0,45.28,20.31,45.28,45.29v85.95c18.67,1.47,34.16,14.45,39.34,31.83,5.18-17.38,20.67-30.36,39.34-31.83v-85.95h0Z"/>
    <path d="M937.4,479.31c-16.38,0-29.69,13.32-29.69,29.7v53.44h-16.02v-53.44c0-20.93,14.21-39.06,34.21-44.24v-86.29c0-16.69-13.58-30.26-30.26-30.26h-123.26c-16.69,0-30.26,13.57-30.26,30.26v69.34h5.74c24.97,0,45.29,20.31,45.29,45.29v85.95c23.01,1.81,41.19,21.11,41.19,44.58v56.17h56.11c2.57-.07,4.64-2.17,4.64-4.75,0-.92-.27-1.83-.77-2.6l-.16-.26-19.22-35.13c-.83-1.53-2.43-2.47-4.16-2.47h-19.26v-32.39h85.88c16.37,0,29.69-13.32,29.69-29.69v-63.5c0-16.37-13.32-29.69-29.69-29.69Z"/>
  </g>
</svg>