<?xml version="1.0" encoding="UTF-8"?>
<svg id="Layer_1" data-name="Layer 1" xmlns="http://www.w3.org/2000/svg" viewBox="0 0 1080 1080">
  <path d="M513.58,377.96c34.19,0,61.97-27.75,61.97-61.97s-27.78-61.97-61.97-61.97-61.98,27.74-61.98,61.97,27.75,61.97,61.98,61.97Z"/>
  <path d="M609.34,729.13c-16.47,57.18-69.18,99.17-131.59,99.17-75.58,0-137.04-61.46-137.04-137.02,0-55.93,33.74-104.07,81.89-125.34v-58.09c-78.86,23.75-136.47,96.95-136.47,183.43,0,105.65,85.96,191.61,191.62,191.61,77,0,143.37-45.76,173.8-111.42l-21.64-42.51c-6.07.05-13.11.11-20.57.18Z"/>
  <path d="M789.89,802.69l-83.01-163.2c-6.2-12.21-18.72-19.9-32.42-19.9h-106.32v-24.24h91.5c9.14,0,16.82-4.78,21.78-11.66,3.22-4.48,5.52-9.69,5.52-15.64,0-15.07-12.21-27.29-27.29-27.29h-91.5v-82.23c0-22.61-16.77-54.59-54.57-54.59-30.15,0-54.59,24.44-54.59,54.59v178.15c0,30.75,24.93,55.68,55.68,55.68h137.47l72.89,143.31c6.41,12.62,19.19,19.91,32.45,19.91,5.56,0,11.2-1.27,16.47-3.97,17.94-9.1,25.06-31.02,15.93-48.93Z"/>
</svg>