<?xml version="1.0" encoding="utf-8"?>
<!-- Generator: Adobe Illustrator 16.0.0, SVG Export Plug-In . SVG Version: 6.00 Build 0)  -->
<!DOCTYPE svg PUBLIC "-//W3C//DTD SVG 1.1//EN" "http://www.w3.org/Graphics/SVG/1.1/DTD/svg11.dtd">
<svg version="1.1" id="Layer_1" xmlns="http://www.w3.org/2000/svg" xmlns:xlink="http://www.w3.org/1999/xlink" x="0px" y="0px"
	 width="108px" height="108px" viewBox="-3 -3 108 108" enable-background="new -3 -3 108 108" xml:space="preserve">
<path fill="#FFFFFF" d="M5,0.5h92c2.485,0,4.5,2.015,4.5,4.5v92c0,2.485-2.015,4.5-4.5,4.5H5c-2.485,0-4.5-2.015-4.5-4.5V5
	C0.5,2.515,2.515,0.5,5,0.5z"/>
<path d="M86.748,45.311H85v-9.515c0-4.069-3.311-7.379-7.38-7.379H67.049v-8.631c0-4.068-3.31-7.379-7.379-7.379h-1.639
	c-0.863,0-1.563,0.7-1.563,1.563s0.699,1.563,1.563,1.563h1.639c2.346,0,4.254,1.908,4.254,4.254v8.631h-3.645
	c-4.068,0-7.379,3.311-7.379,7.379v9.537c-0.143-0.014-0.288-0.022-0.435-0.022h-2.932c-0.146,0-0.292,0.008-0.435,0.022v-9.537
	c0-4.069-3.31-7.379-7.379-7.379h-3.645v-8.631c0-2.346,1.908-4.254,4.254-4.254h1.639c0.863,0,1.563-0.7,1.563-1.563
	s-0.7-1.563-1.563-1.563H42.33c-4.069,0-7.379,3.311-7.379,7.379v8.631H24.379c-4.068,0-7.379,3.31-7.379,7.379v9.515h-1.749
	c-2.344,0-4.252,1.907-4.252,4.252v16.623c0,0.862,0.7,1.563,1.563,1.563h10.363v6.221c0,0.863,0.699,1.563,1.563,1.563H43.23
	c0.863,0,1.563-0.699,1.563-1.563v-6.221h12.415v6.221c0,0.863,0.7,1.563,1.563,1.563h18.742c0.863,0,1.563-0.699,1.563-1.563
	v-6.221h10.363c0.863,0,1.563-0.7,1.563-1.563V49.563C91,47.218,89.092,45.311,86.748,45.311z M60.279,31.542H77.62
	c2.347,0,4.255,1.908,4.255,4.254v9.986c-1.371,0.707-2.311,2.136-2.311,3.781v5.167c-0.672-0.306-1.418-0.479-2.203-0.479H58.92
	c-0.785,0-1.53,0.173-2.202,0.479v-5.167c0-0.856-0.255-1.654-0.692-2.322V35.796C56.025,33.45,57.934,31.542,60.279,31.542z
	 M24.379,31.542h17.341c2.346,0,4.254,1.908,4.254,4.254v11.445c-0.438,0.668-0.692,1.465-0.692,2.322v5.167
	c-0.672-0.306-1.417-0.479-2.203-0.479H24.639c-0.785,0-1.531,0.173-2.203,0.479v-5.167c0-1.645-0.94-3.074-2.311-3.781v-9.986
	C20.125,33.45,22.034,31.542,24.379,31.542z M14.125,49.563c0-0.622,0.505-1.127,1.127-1.127h2.932c0.622,0,1.127,0.505,1.127,1.127
	v15.061h-5.186V49.563z M22.436,59.578c0-1.214,0.988-2.202,2.203-2.202H43.08c1.214,0,2.203,0.988,2.203,2.202v5.044H22.436V59.578
	z M41.667,72.406H26.051v-4.658h15.617V72.406z M48.407,49.563c0-0.622,0.505-1.127,1.126-1.127h2.932
	c0.622,0,1.127,0.505,1.127,1.127v15.061h-5.186V49.563z M56.718,59.578c0-1.214,0.988-2.202,2.203-2.202h18.44
	c1.215,0,2.203,0.988,2.203,2.202v5.044H56.718V59.578z M75.949,72.406H60.333v-4.658h15.616V72.406z M87.875,64.623h-5.186V49.563
	c0-0.622,0.506-1.127,1.127-1.127h2.932c0.621,0,1.127,0.505,1.127,1.127V64.623L87.875,64.623z"/>
<path d="M51,15.531c0.863,0,1.563-0.7,1.563-1.563S51.863,12.406,51,12.406c-0.863,0-1.563,0.7-1.563,1.563S50.137,15.531,51,15.531
	z"/>
<path d="M27.641,81.699l2.292,3.873h0.089l2.303-3.873h2.713l-3.468,5.682l3.546,5.682h-2.764l-2.33-3.879h-0.089l-2.331,3.879
	H24.85l3.557-5.682l-3.49-5.682H27.641z M41.046,84.54v1.775h-5.132V84.54H41.046z M37.079,82.498h2.364v7.945
	c0,0.219,0.033,0.389,0.1,0.511c0.066,0.118,0.159,0.202,0.277,0.249c0.122,0.049,0.263,0.072,0.422,0.072
	c0.111,0,0.222-0.009,0.333-0.027c0.111-0.021,0.196-0.039,0.255-0.05l0.372,1.759c-0.118,0.037-0.285,0.08-0.499,0.128
	c-0.215,0.052-0.476,0.083-0.783,0.095c-0.569,0.021-1.069-0.055-1.498-0.229c-0.425-0.174-0.756-0.443-0.993-0.81
	s-0.353-0.829-0.35-1.388V82.498z M42.586,93.063V84.54h2.292v1.487h0.089c0.155-0.529,0.416-0.93,0.782-1.199
	c0.366-0.273,0.788-0.41,1.265-0.41c0.118,0,0.246,0.008,0.383,0.021c0.137,0.016,0.257,0.035,0.361,0.062v2.097
	c-0.111-0.033-0.265-0.063-0.461-0.088c-0.196-0.026-0.375-0.039-0.538-0.039c-0.348,0-0.658,0.076-0.932,0.228
	c-0.27,0.147-0.484,0.354-0.644,0.621c-0.155,0.267-0.233,0.573-0.233,0.921v4.822H42.586z M52.467,93.229
	c-0.877,0-1.631-0.178-2.264-0.532c-0.629-0.358-1.113-0.866-1.454-1.521c-0.34-0.658-0.511-1.438-0.511-2.336
	c0-0.877,0.17-1.646,0.511-2.309s0.819-1.178,1.437-1.547c0.622-0.371,1.351-0.556,2.187-0.556c0.563,0,1.086,0.091,1.57,0.272
	c0.488,0.177,0.914,0.445,1.275,0.805c0.367,0.358,0.651,0.81,0.855,1.354c0.203,0.54,0.305,1.172,0.305,1.897v0.649h-7.197v-1.465
	h4.972c0-0.341-0.074-0.643-0.223-0.904c-0.148-0.264-0.354-0.469-0.615-0.616c-0.26-0.151-0.561-0.228-0.904-0.228
	c-0.359,0-0.678,0.083-0.955,0.25c-0.273,0.162-0.488,0.383-0.644,0.66c-0.155,0.273-0.235,0.578-0.239,0.915v1.394
	c0,0.421,0.078,0.785,0.233,1.092c0.159,0.308,0.383,0.545,0.671,0.711c0.288,0.166,0.63,0.25,1.026,0.25
	c0.263,0,0.503-0.037,0.721-0.111c0.219-0.074,0.406-0.186,0.561-0.333c0.156-0.147,0.274-0.329,0.355-0.544l2.187,0.145
	c-0.111,0.525-0.339,0.984-0.683,1.376c-0.34,0.389-0.781,0.692-1.32,0.91C53.789,93.121,53.17,93.229,52.467,93.229z
	 M57.922,93.063V84.54h2.252v1.503h0.1c0.178-0.499,0.475-0.893,0.889-1.182c0.414-0.288,0.91-0.433,1.486-0.433
	c0.585,0,1.082,0.146,1.493,0.438c0.41,0.289,0.685,0.681,0.821,1.176h0.088c0.174-0.488,0.488-0.878,0.943-1.17
	c0.459-0.297,1.001-0.444,1.627-0.444c0.795,0,1.439,0.253,1.936,0.761c0.5,0.502,0.749,1.217,0.749,2.141v5.732h-2.358v-5.266
	c0-0.474-0.125-0.828-0.377-1.065s-0.566-0.354-0.943-0.354c-0.429,0-0.764,0.137-1.004,0.41c-0.24,0.27-0.361,0.627-0.361,1.07
	v5.205h-2.291v-5.315c0-0.418-0.12-0.751-0.361-0.999c-0.236-0.248-0.549-0.371-0.938-0.371c-0.262,0-0.499,0.066-0.71,0.199
	c-0.207,0.129-0.372,0.313-0.493,0.549c-0.123,0.233-0.184,0.508-0.184,0.822v5.115H57.922z M76.057,93.229
	c-0.877,0-1.631-0.178-2.264-0.532c-0.629-0.358-1.113-0.866-1.453-1.521c-0.341-0.658-0.511-1.438-0.511-2.336
	c0-0.877,0.17-1.646,0.511-2.309c0.34-0.662,0.818-1.178,1.437-1.547c0.622-0.371,1.351-0.556,2.187-0.556
	c0.563,0,1.086,0.091,1.57,0.272c0.488,0.177,0.914,0.445,1.275,0.805c0.367,0.358,0.652,0.81,0.855,1.354
	c0.203,0.54,0.305,1.172,0.305,1.897v0.649h-7.196v-1.465h4.972c0-0.341-0.074-0.643-0.223-0.904
	c-0.147-0.264-0.353-0.469-0.615-0.616c-0.26-0.151-0.561-0.228-0.904-0.228c-0.359,0-0.678,0.083-0.955,0.25
	c-0.273,0.162-0.488,0.383-0.643,0.66c-0.156,0.273-0.235,0.578-0.239,0.915v1.394c0,0.421,0.077,0.785,0.233,1.092
	c0.158,0.308,0.383,0.545,0.671,0.711s0.631,0.25,1.026,0.25c0.263,0,0.504-0.037,0.722-0.111s0.405-0.186,0.561-0.333
	s0.273-0.329,0.354-0.544l2.187,0.145c-0.11,0.525-0.339,0.984-0.683,1.376c-0.34,0.389-0.78,0.692-1.32,0.91
	C77.379,93.121,76.76,93.229,76.057,93.229z"/>
</svg>
