<svg xmlns="http://www.w3.org/2000/svg" xmlns:xlink="http://www.w3.org/1999/xlink" width="100" height="100" viewBox="0 0 100 100"><defs><clipPath id="a"><circle cx="50" cy="50" r="50" transform="translate(-522 -20539)" fill="#fff" stroke="#707070" stroke-width="1"/></clipPath></defs><g transform="translate(522 20539)" clip-path="url(#a)"><g transform="translate(-555.696 -20572.691)"><path d="M101.3,43.215s4.492-.781,5.8,2.929,2.037,14.005-.474,17.13S99.208,69.049,95.3,70.891s-32.223-3.683-32.223-3.683-3.153-9.765-2.9-15.735S65.9,39.254,69.5,36.715s15.344-3.99,21.454-2.288C97.06,36.1,101.3,43.215,101.3,43.215Z" fill="#996d3c"/><path d="M109.5,111.79H57.89s15.233-8.4,16.293-11.1a27.7,27.7,0,0,0,.921-6.473c.028-.279.028-.558.056-.837.223-3.4.279-6.612.279-6.612H91.926s.056,3.208.279,6.612c.028.279.028.558.056.837a31.108,31.108,0,0,0,.921,6.473C94.27,103.393,109.5,111.79,109.5,111.79Z" fill="#ffddca"/><g opacity="0.25"><path d="M92.289,94.214a21.6,21.6,0,0,1-8.565,2.2,21.378,21.378,0,0,1-8.565-2.2c.028-.279.028-.558.056-.837.223-3.4.279-6.612.279-6.612H91.982s.056,3.208.279,6.612A4.2,4.2,0,0,0,92.289,94.214Z" fill="#dd7f50"/></g><path d="M102.472,57.332C97.59,48.153,83.7,48.153,83.7,48.153s-13.894,0-18.776,9.179c-2.455,4.631-1.73,23.63,3.153,28.317s11.271,7.5,15.623,7.5,10.741-2.818,15.623-7.5S104.927,61.963,102.472,57.332Z" fill="#ffddca"/><path d="M72.676,64.558a1.7,1.7,0,1,0,1.674-2.009A1.863,1.863,0,0,0,72.676,64.558Z" fill="#3f3832"/><path d="M91.536,64.558a1.7,1.7,0,1,0,1.674-2.009A1.863,1.863,0,0,0,91.536,64.558Z" fill="#3f3832"/><path d="M64.753,62.744c-.781-.921-2.176-1.925-4.52-.725s-1.925,7.756,0,9.458c2.595,2.26,4.436,1.618,5.078,0S65.367,63.5,64.753,62.744Z" fill="#ffddca"/><path d="M102.64,62.744c.781-.921,2.176-1.925,4.52-.725s1.925,7.756,0,9.458c-2.595,2.26-4.436,1.618-5.078,0S102.026,63.5,102.64,62.744Z" fill="#ffddca"/><path d="M84.338,65.116c.837,0-2.567,4.8-1.9,8.621.2,1.088,2.316.781,2.929.837.642.056-.223.474-.837.53-.642.056-2.371-.028-2.622-.725C81.185,72.4,83.7,65.116,84.338,65.116Z" fill="#dd7f50" opacity="0.5"/><path d="M71.839,60.68a12.372,12.372,0,0,1,4.1-.586c.865.112,1.228,0,1.088-.586-.167-.586-.949-.446-1.953-.391a11.193,11.193,0,0,0-3.236.976C71,60.457,71.393,60.847,71.839,60.68Z" fill="#3f3832"/><path d="M95.553,60.68a12.372,12.372,0,0,0-4.1-.586c-.865.112-1.228,0-1.088-.586.167-.586.949-.446,1.953-.391a11.193,11.193,0,0,1,3.236.976C96.418,60.457,96,60.847,95.553,60.68Z" fill="#3f3832"/><ellipse cx="2.037" cy="0.781" rx="2.037" ry="0.781" transform="translate(70.165 69.328)" fill="#ff3b3b" opacity="0.25"/><ellipse cx="2.037" cy="0.781" rx="2.037" ry="0.781" transform="translate(93.266 69.328)" fill="#ff3b3b" opacity="0.25"/><path d="M128.39,133.691H39s4.185-14.117,8.593-20.729c.418-.614.809-1.172,1.2-1.646,1.06-1.283,3.292-2.4,5.942-3.348A84.215,84.215,0,0,1,66.2,104.983c.586-.112,1.116-.223,1.59-.307,1.618-.279,2.65-.446,2.65-.446s7.309,4.436,13.2,4.324a22.866,22.866,0,0,0,13.2-4.324s.725.112,1.9.307c.7.112,1.562.279,2.511.474,5.552,1.088,14.731,3.264,17.269,6.305C123.2,116.784,128.39,133.691,128.39,133.691Z" fill="#f9a61a"/><path d="M80.572,79.2a9.874,9.874,0,0,0,5.468.167c1.869-.7.335.474-.53.725a5.641,5.641,0,0,1-3.376.112C80.795,79.818,80.209,79.093,80.572,79.2Z" fill="#3f3832"/><path d="M101.3,105.039c-4.492,6.333-17.241,8.816-24.244,6.779a24.416,24.416,0,0,1-10.825-6.807c.586-.112,1.116-.223,1.59-.307,1.618-.279,2.65-.446,2.65-.446s7.309,4.436,13.2,4.324a22.866,22.866,0,0,0,13.2-4.324s.725.112,1.9.307C99.487,104.676,100.352,104.844,101.3,105.039Z" fill="#665431"/><path d="M70.277,123.424l-1.06,5.3h3.571l-1,4.966h7.058l2.065-10.267Z" fill="#665431"/><path d="M99.041,123.424H83.5l-1.088,5.3h7.393l-3.627,3.125-.363,1.841H96.251a6.149,6.149,0,0,0-2.818-1.841l4.771-4.1Z" fill="#665431"/><path d="M105.29,60.708a5.155,5.155,0,0,1-2.929,1.479c-2.539.028-5.273-4.6-6.277-9.848,0,0-4.52-3.655-12.917-3.208-3.543.2-10.044,3.348-11.8,5.524-.921,1.144-3.543,5.663-5.747,6.807-1.367.7-2.371.753-3.487-.753-1.088-1.507,4.1-11.215,9.234-14.479s22.291-3.99,26-2.065S105.29,60.708,105.29,60.708Z" fill="#996d3c"/><path d="M96,48.042c-3.515,1.9-2.288,4.826-7.979,6.361-5.691,1.507-6.277-3.515-6.221-4.185s.586,2.092,3.794,2.176,3.1-4.659,5.859-6.361C94.186,44.331,97.506,47.2,96,48.042Z" fill="#996d3c"/></g></g></svg>