<svg xmlns="http://www.w3.org/2000/svg" xmlns:xlink="http://www.w3.org/1999/xlink" width="100" height="100" viewBox="0 0 100 100"><defs><clipPath id="a"><circle cx="50" cy="50" r="50" transform="translate(-162 -20539)" fill="#fff" stroke="#707070" stroke-width="1"/></clipPath></defs><g transform="translate(162 20539)" clip-path="url(#a)"><g transform="translate(-188.158 -20565.168)"><path d="M71.081,90.5c-3.046.99-7.083,3.554-7.641,4.925s-1.9.127-3.681.685-5.813,3.986-4.468,5.077,23.177,5.052,24.548,3.96,15.917-2.843,17.186-3.986c2.64-2.386.762-5.153-3.427-5.153-2.158,0-1.7-2.158-4.265-3.706C86.261,90.425,76.386,88.775,71.081,90.5Z" fill="#475b5e"/><path d="M62.043,69.431c-3.224-.584-5.686-5.94-8.53-5.255-3.833.914-3.833-4.443-3.833-4.443s-3.2-.685-3.6-3.122c-.457-2.97,2.666-3.808,2.666-3.808s-3.072.508-3.1-4.468c-.025-5.2,3.96-5.026,3.96-5.026s-2.869-2.97-1.574-5.2a2.57,2.57,0,0,1,4.062-.889s-1.549-4.874,2.539-6.829c4.113-1.955,5.179.863,5.179.863s.838-3.072,2.589-3.6c4.747-1.472,6.143,1.65,6.143,1.65a8.742,8.742,0,0,1,5.864-3.122c3.5-.152,5.28,3.4,5.28,3.4s4.087-2.513,6.626-1.193a4.156,4.156,0,0,1,2.336,3.833S92.811,28.889,95.6,31.1a4.009,4.009,0,0,1,1.422,4.925,4.489,4.489,0,0,1,2.64,1.5c.812.863.736,2.869.736,2.869a3.1,3.1,0,0,1,2.691,2.716c.279,2.209-1.269,2.285-1.269,2.285s4.189.863,4.189,4.722c0,2.792-2.818,4.138-2.818,4.138s2.031,3.656.736,5.483c-2.894,4.011-5.483,2.234-5.483,2.234s-1.853,1.853-3.833,3.681S62.043,69.431,62.043,69.431Z" fill="#3f3832"/><path d="M99.64,106.24H52.676S66.537,98.6,67.5,96.137a25.206,25.206,0,0,0,.838-5.89c.025-.254.025-.508.051-.762.2-3.1.254-6.016.254-6.016h15s.051,2.919.254,6.016c.025.254.025.508.051.762a28.306,28.306,0,0,0,.838,5.89C85.779,98.6,99.64,106.24,99.64,106.24Z" fill="#a86642"/><path d="M83.951,90.247a19.657,19.657,0,0,1-7.793,2.005,19.453,19.453,0,0,1-7.793-2.005c.025-.254.025-.508.051-.762.2-3.1.254-6.016.254-6.016h15s.051,2.919.254,6.016C83.926,89.739,83.951,89.993,83.951,90.247Z" fill="#8e3f26" opacity="0.25"/><path d="M93.243,56.687c-4.443-8.352-17.085-8.352-17.085-8.352s-12.642,0-17.085,8.352c-2.234,4.214-1.574,21.5,2.869,25.767S72.2,89.282,76.158,89.282s9.774-2.564,14.216-6.829S95.477,60.875,93.243,56.687Z" fill="#a86642"/><path d="M66.13,63.262a1.549,1.549,0,1,0,1.523-1.828A1.678,1.678,0,0,0,66.13,63.262Z" fill="#3f3832"/><path d="M83.291,63.262a1.549,1.549,0,1,0,1.523-1.828A1.678,1.678,0,0,0,83.291,63.262Z" fill="#3f3832"/><path d="M58.921,61.612a3.036,3.036,0,0,0-4.113-.66c-2.132,1.092-1.752,7.057,0,8.606,2.361,2.056,4.036,1.472,4.62,0S59.479,62.272,58.921,61.612Z" fill="#a86642"/><path d="M93.395,61.612a3.036,3.036,0,0,1,4.113-.66c2.132,1.092,1.752,7.057,0,8.606-2.361,2.056-4.036,1.472-4.62,0S92.836,62.272,93.395,61.612Z" fill="#a86642"/><path d="M76.742,63.744c.762,0-2.336,4.366-1.726,7.844.178.99,2.107.711,2.666.762.584.051-.2.432-.762.482-.584.051-2.158-.025-2.386-.66C73.873,70.4,76.158,63.744,76.742,63.744Z" fill="#8e3f26" opacity="0.5"/><path d="M65.369,59.708a11.257,11.257,0,0,1,3.732-.533c.787.1,1.117,0,.99-.533-.152-.533-.863-.406-1.777-.355a10.185,10.185,0,0,0-2.945.889C64.582,59.53,64.963,59.885,65.369,59.708Z" fill="#3f3832"/><path d="M86.947,59.708a11.257,11.257,0,0,0-3.732-.533c-.787.1-1.117,0-.99-.533.152-.533.863-.406,1.777-.355a10.185,10.185,0,0,1,2.945.889C87.708,59.53,87.353,59.885,86.947,59.708Z" fill="#3f3832"/><path d="M67.552,68.314c0,.406-.838.711-1.853.711s-1.853-.33-1.853-.711c0-.406.838-.711,1.853-.711C66.74,67.6,67.552,67.907,67.552,68.314Z" fill="#ff3b3b" opacity="0.25"/><path d="M88.572,68.314c0,.406-.838.711-1.853.711s-1.853-.33-1.853-.711c0-.406.838-.711,1.853-.711S88.572,67.907,88.572,68.314Z" fill="#ff3b3b" opacity="0.25"/><path d="M116.826,126.168H35.49s3.808-12.845,7.819-18.862c.381-.558.736-1.066,1.092-1.5.965-1.168,3-2.183,5.407-3.046a76.5,76.5,0,0,1,11.906-2.97c1.472-.254,2.412-.406,2.412-.406s6.651,4.036,12.008,3.935A20.807,20.807,0,0,0,88.14,99.386s.66.1,1.726.279c4.29.736,15.282,2.919,18,6.143C112.1,110.784,116.826,126.168,116.826,126.168Z" fill="#5f7b82"/><path d="M56.509,58.235a7.882,7.882,0,0,0,1.523,2.615c.863.762,3.122-1.828,2.336-4.087,0,0,3.6.33,3.478-2.31,0,0,3.5-.863,3-3.326,0,0,1.625,1.752,3.275-.584a5.351,5.351,0,0,0,3.1,1.447c2.158.355,3.681-2.259,3.681-2.259s1.879,1.6,3.63.863l1.752-.736s-.152,1.6,2.183,2.031c2.31.432,2.945.152,2.945.152a1.62,1.62,0,0,0,1.193,1.8A4.1,4.1,0,0,0,90.628,54s-.863,1.6,0,2.386a4.13,4.13,0,0,0,2.005.939s-1.6,3.4,1.625,3.5a5.726,5.726,0,0,0-.3-5.813C92,51.965,85.3,47.9,82.2,46.812c-3.122-1.092-12.617,0-16.882,2.183C61.028,51.178,56.509,58.235,56.509,58.235Z" fill="#3f3832"/><path d="M75.5,79.179c1.752-1.117,3.859-2.259,4.595-2.843s.076,1.371-1.244,2.615C77.529,80.22,74.914,79.56,75.5,79.179Z" fill="#3f3832"/><path d="M55.291,101.163c2.132,1.777,16.805,8.58,22.619,8.428s19.42-6.854,20.207-9.926c.685-2.64-2.158-3.909-5.636-2.767a53.354,53.354,0,0,0-11.221,5c-3.376,2.158-7.692,1.244-11.144-.2s-8.25-4.443-10.561-5.128S53.971,100.071,55.291,101.163Z" fill="#73969b"/><path d="M71.791,105.3a1.295,1.295,0,1,1-1.295-1.295A1.3,1.3,0,0,1,71.791,105.3Z" fill="#5f7b82"/><path d="M82,105.3a1.295,1.295,0,1,1-1.295-1.295A1.317,1.317,0,0,1,82,105.3Z" fill="#5f7b82"/><path d="M80.423,105.4a80.723,80.723,0,0,0-.254,8.58c.152,2.615,1.041,5.89-.482,8.3-.33.508.482.99.812.482,1.219-1.929,1.066-4.443.914-6.651a100.507,100.507,0,0,1-.051-10.713c.051-.609-.889-.609-.939,0Z" fill="#475b5e"/><path d="M69.964,105.149c-.178,2.767-.99,5.534-.99,8.3a8.125,8.125,0,0,0,.457,2.462,19.518,19.518,0,0,1,.508,6.321c-.025.609.939.609.939,0a25.236,25.236,0,0,0-.025-4.8c-.228-1.371-.914-2.589-.939-3.986-.051-2.742.812-5.56.99-8.3.051-.609-.914-.609-.939,0Z" fill="#475b5e"/></g></g></svg>