<svg xmlns="http://www.w3.org/2000/svg" xmlns:xlink="http://www.w3.org/1999/xlink" width="100" height="100" viewBox="0 0 100 100"><defs><clipPath id="a"><circle cx="50" cy="50" r="50" transform="translate(-522 -20419)" fill="#fff" stroke="#707070" stroke-width="1"/></clipPath></defs><g transform="translate(522 20419)" clip-path="url(#a)"><g transform="translate(-554.387 -20451.395)"><path d="M64.564,74.7S58.989,63.877,57.7,61.268c-1.291-2.581,1.675-4.339,1.675-4.339s-5.135-1.895-3.762-5.383c1.346-3.515,7.277-4.861,6.948-6.344s-2.636-6.069.6-9.969,11.726,0,14.28,0,8.019-2.554,12.633-2.829,9.337,5.135,7.854,10.93a5.738,5.738,0,0,1,5.685.8c2.938,2.17,3.625,9.337,1.181,17.411S64.564,74.7,64.564,74.7Z" fill="#726358"/><path d="M107.789,110.81H56.984s14.994-8.266,16.038-10.93a27.268,27.268,0,0,0,.906-6.371c.027-.275.027-.549.055-.824.22-3.35.275-6.509.275-6.509h16.23s.055,3.158.275,6.509c.027.275.027.549.055.824a30.621,30.621,0,0,0,.906,6.371C92.795,102.544,107.789,110.81,107.789,110.81Z" fill="#f4bd98"/><g opacity="0.25"><path d="M90.818,93.509a21.264,21.264,0,0,1-8.431,2.17,21.044,21.044,0,0,1-8.431-2.17c.027-.275.027-.549.055-.824.22-3.35.275-6.509.275-6.509h16.23s.055,3.158.275,6.509C90.79,92.96,90.818,93.234,90.818,93.509Z" fill="#dd7f50"/></g><path d="M100.869,57.2c-4.806-9.035-18.482-9.035-18.482-9.035S68.71,48.169,63.9,57.2c-2.417,4.559-1.7,23.261,3.1,27.874S78.1,92.465,82.387,92.465s10.573-2.774,15.379-7.387S103.285,61.763,100.869,57.2Z" fill="#f4bd98"/><path d="M71.539,64.317a1.675,1.675,0,1,0,1.648-1.977A1.834,1.834,0,0,0,71.539,64.317Z" fill="#3f3832"/><ellipse cx="1.648" cy="1.977" rx="1.648" ry="1.977" transform="translate(90.076 62.339)" fill="#3f3832"/><path d="M63.74,62.531c-.769-.906-2.142-1.895-4.449-.714s-1.895,7.634,0,9.31c2.554,2.224,4.366,1.593,5,0S64.344,63.246,63.74,62.531Z" fill="#f4bd98"/><path d="M101.034,62.531c.769-.906,2.142-1.895,4.449-.714s1.895,7.634,0,9.31c-2.554,2.224-4.366,1.593-5,0S100.429,63.246,101.034,62.531Z" fill="#f4bd98"/><path d="M83.018,64.866c.824,0-2.527,4.724-1.867,8.486.192,1.071,2.279.769,2.884.824.632.055-.22.467-.824.522-.632.055-2.334-.027-2.581-.714C79.915,72.033,82.387,64.866,83.018,64.866Z" fill="#dd7f50" opacity="0.5"/><path d="M70.715,60.472a12.178,12.178,0,0,1,4.037-.577c.851.11,1.208,0,1.071-.577-.165-.577-.934-.439-1.922-.384a11.018,11.018,0,0,0-3.186.961C69.864,60.28,70.276,60.664,70.715,60.472Z" fill="#3f3832"/><path d="M94.058,60.472a12.178,12.178,0,0,0-4.037-.577c-.851.11-1.208,0-1.071-.577s.934-.439,1.922-.384a11.018,11.018,0,0,1,3.186.961C94.882,60.28,94.5,60.664,94.058,60.472Z" fill="#3f3832"/><path d="M73.077,69.782c0,.439-.906.769-2,.769s-2-.357-2-.769c0-.439.906-.769,2-.769S73.077,69.342,73.077,69.782Z" fill="#ff3b3b" opacity="0.25"/><path d="M95.816,69.782c0,.439-.906.769-2,.769s-2-.357-2-.769c0-.439.906-.769,2-.769S95.816,69.342,95.816,69.782Z" fill="#ff3b3b" opacity="0.25"/><path d="M126.381,132.368H38.392s.714-2.417,1.867-5.74c.165-.467.33-.961.494-1.455.6-1.675,1.291-3.515,2.06-5.3.192-.494.412-.961.6-1.455a47.6,47.6,0,0,1,2.664-5.3c.247-.412.494-.8.714-1.153a2.375,2.375,0,0,1,.192-.275c.357-.494.687-.934,1.016-1.346,1.044-1.263,3.241-2.362,5.849-3.3a82.753,82.753,0,0,1,12.88-3.213c1.593-.275,2.609-.439,2.609-.439s7.2,4.366,13.017,4.257A22.651,22.651,0,0,0,95.376,103.4s.714.11,1.867.3c4.641.8,16.532,3.158,19.471,6.646a11.419,11.419,0,0,1,.989,1.346,14.583,14.583,0,0,1,.879,1.455,56.073,56.073,0,0,1,2.636,5.3c.192.467.412.961.6,1.455.769,1.813,1.455,3.625,2.087,5.3.165.494.357.961.522,1.455C125.64,129.951,126.381,132.368,126.381,132.368Z" fill="#afadaa"/><path d="M79.311,78.734a9.719,9.719,0,0,0,5.383.165c1.84-.687.33.467-.522.714a5.553,5.553,0,0,1-3.323.11C79.531,79.338,78.954,78.624,79.311,78.734Z" fill="#3f3832"/><path d="M61.872,58.33s-.824,2.2.934,3.378,4.531-.357,4.971-2.829c.439-2.444.33-5.767,2.444-5.355a22.154,22.154,0,0,0,10.628,0c4.531-1.236,8.76-2.691,8.76-2.691s10.134,12.55,12.358,10.848,1.016-9.392-4.339-12.083c-5.355-2.664-23.7-6.893-23.7-6.893Z" fill="#726358"/><path d="M71.539,71.649c-2.417,0-4.916-.3-5.767-.851-1.016-.659-1.785-4.312-1.455-6.838.192-1.483.769-2.417,1.62-2.719h0c1.455-.467,10.381-.494,12.578.11a1.98,1.98,0,0,1,1.236,1.016c.906,1.813-.33,5.108-.33,5.163l-.027.11a5.224,5.224,0,0,1-3.158,3.433A14.209,14.209,0,0,1,71.539,71.649Zm-5.41-9.859c-.824.275-1.126,1.373-1.236,2.252-.33,2.581.522,5.849,1.208,6.316,1.236.8,7.772,1.1,9.914.22a4.74,4.74,0,0,0,2.856-3.131l.027-.11c.33-.851,1.044-3.378.357-4.7a1.382,1.382,0,0,0-.879-.741c-2.224-.6-11.012-.522-12.248-.11Z" fill="#3f3832"/><path d="M93.179,71.649a15.786,15.786,0,0,1-4.669-.549,5.28,5.28,0,0,1-3.158-3.433l-.055-.11c0-.027-1.263-3.35-.33-5.163A1.9,1.9,0,0,1,86.2,61.378c2.224-.6,11.122-.6,12.578-.11.851.275,1.428,1.208,1.62,2.719.33,2.527-.439,6.179-1.455,6.838C98.1,71.374,95.6,71.649,93.179,71.649ZM92.987,61.46a35.855,35.855,0,0,0-6.673.439,1.319,1.319,0,0,0-.879.741c-.659,1.318.027,3.845.357,4.7l.055.11A4.8,4.8,0,0,0,88.7,70.578c2.17.851,8.706.577,9.914-.22.687-.439,1.538-3.735,1.208-6.316-.11-.879-.439-1.977-1.236-2.252h0A31.8,31.8,0,0,0,92.987,61.46Z" fill="#3f3832"/><path d="M84.776,63.74a6.042,6.042,0,0,0-4.833-.22L79.723,63a6.428,6.428,0,0,1,5.328.247Z" fill="#3f3832"/><rect width="3.241" height="0.549" transform="translate(99.483 62.119) rotate(-24.815)" fill="#3f3832"/><rect width="0.549" height="3.24" transform="translate(62.44 61.259) rotate(-65.165)" fill="#3f3832"/><path d="M74.725,110.206l3.6.137s-1.483,8.623-1.236,10.3c.22,1.675,2.115,11.754,2.115,11.754H38.392s4.806-14.775,7.168-19.663,10.985-7.36,14.033-8.239A100.055,100.055,0,0,1,69.7,102.6Z" fill="#585d7f"/><path d="M73.022,99.908s-.714,4.284.687,5.685,4.614,4.724,4.614,4.724-4.394,4.339-6.261,3.652c-1.867-.659-4.916-8.568-4.916-9.941S73.022,99.908,73.022,99.908Z" fill="#686e8e"/><path d="M90.049,110.206l-3.6.137s1.483,8.623,1.236,10.3c-.22,1.675-2.115,11.754-2.115,11.754h40.809s-4.806-14.775-7.168-19.663-10.985-7.36-14.033-8.239A100.054,100.054,0,0,0,95.074,102.6Z" fill="#585d7f"/><path d="M91.751,99.908s.714,4.284-.687,5.685-4.614,4.724-4.614,4.724,4.394,4.339,6.261,3.652c1.867-.659,4.916-8.568,4.916-9.941S91.751,99.908,91.751,99.908Z" fill="#686e8e"/></g></g></svg>