<svg xmlns="http://www.w3.org/2000/svg" xmlns:xlink="http://www.w3.org/1999/xlink" width="100" height="100" viewBox="0 0 100 100"><defs><clipPath id="a"><circle cx="50" cy="50" r="50" transform="translate(-402 -20419)" fill="#fff" stroke="#707070" stroke-width="1"/></clipPath></defs><g transform="translate(402 20419)" clip-path="url(#a)"><g transform="translate(-432.091 -20449.078)"><path d="M48.679,65.226c-.641,3.79,3.443,7.179,9.314,5.524,5.9-1.655,7.686-11.129,7.339-13.1s-4.43-5.765-5.711-5.2C59.621,52.442,49.64,59.541,48.679,65.226Z" fill="#cc6140"/><path d="M59.408,66.453s-1.041-8.14-.8-12.063c.24-3.95,2.375-11.129,7.286-14.705,4.911-3.6,24.526-2.776,28.583-.027s7.606,10.088,7.179,15.559c-.267,3.443-1.014,9.528-1.708,10.862C99.253,67.441,59.541,67.547,59.408,66.453Z" fill="#3f3832"/><path d="M104.777,109.074,55.4,109.1s14.572-8.06,15.586-10.622a28.033,28.033,0,0,0,.881-6.192c.027-.267.027-.534.053-.8.214-3.256.267-6.325.267-6.325H87.964s.053,3.069.267,6.325c.027.267.027.534.053.8a27.693,27.693,0,0,0,.907,6.192C90.179,101.041,104.777,109.074,104.777,109.074Z" fill="#ffddca"/><g opacity="0.25"><path d="M88.284,92.287A20.665,20.665,0,0,1,80.091,94.4a20.59,20.59,0,0,1-8.22-2.082c.027-.267.027-.534.053-.8.214-3.256.267-6.325.267-6.325H87.964s.053,3.069.267,6.325C88.231,91.727,88.257,92.02,88.284,92.287Z" fill="#dd7f50"/></g><path d="M98,56.979c-4.67-8.78-17.961-8.78-17.961-8.78s-13.291,0-17.961,8.78c-2.349,4.43-1.628,22.6,3.042,27.088S75.9,91.246,80.064,91.22c4.163,0,10.275-2.7,14.945-7.179C99.68,79.584,100.374,61.409,98,56.979Z" fill="#ffddca"/><path d="M69.5,63.918A1.628,1.628,0,1,0,71.1,62,1.782,1.782,0,0,0,69.5,63.918Z" fill="#3f3832"/><ellipse cx="1.601" cy="1.922" rx="1.601" ry="1.922" transform="translate(87.537 61.97)" fill="#3f3832"/><path d="M61.916,62.183c-.747-.881-2.082-1.841-4.323-.694s-1.841,7.419,0,9.047c2.482,2.162,4.243,1.548,4.857,0C63.09,68.989,62.5,62.877,61.916,62.183Z" fill="#ffddca"/><path d="M98.185,62.156c.747-.881,2.082-1.841,4.323-.694s1.841,7.419,0,9.047c-2.482,2.162-4.243,1.548-4.857,0C97.011,68.962,97.6,62.877,98.185,62.156Z" fill="#ffddca"/><path d="M80.651,64.425c.8,0-2.429,4.617-1.815,8.247.187,1.041,2.215.747,2.8.8.614.053-.214.454-.8.507-.614.053-2.268-.027-2.509-.694C77.635,71.39,80.064,64.425,80.651,64.425Z" fill="#dd7f50" opacity="0.5"/><path d="M68.695,60.181a11.835,11.835,0,0,1,3.923-.56c.827.107,1.174,0,1.041-.56-.16-.56-.907-.427-1.868-.374a10.708,10.708,0,0,0-3.1.934C67.894,59.995,68.295,60.368,68.695,60.181Z" fill="#3f3832"/><path d="M91.406,60.181a11.835,11.835,0,0,0-3.923-.56c-.827.107-1.174,0-1.041-.56.16-.56.907-.427,1.868-.4a10.708,10.708,0,0,1,3.1.934C92.207,59.968,91.807,60.342,91.406,60.181Z" fill="#3f3832"/><path d="M71.017,69.229c0,.427-.881.747-1.948.747s-1.948-.347-1.948-.747c0-.427.881-.747,1.948-.747S71.017,68.8,71.017,69.229Z" fill="#ff3b3b" opacity="0.25"/><path d="M93.114,69.2c0,.427-.881.747-1.948.747s-1.948-.347-1.948-.747c0-.427.881-.747,1.948-.747S93.114,68.8,93.114,69.2Z" fill="#ff3b3b" opacity="0.25"/><path d="M122.845,130.024l-85.508.053s3.977-13.5,8.193-19.829c.4-.587.774-1.121,1.148-1.575,1.014-1.228,3.149-2.3,5.685-3.2a83.985,83.985,0,0,1,12.517-3.149c1.548-.267,2.535-.427,2.535-.427s6.992,4.243,12.65,4.137a21.784,21.784,0,0,0,12.623-4.163s.694.107,1.815.294c4.51.774,16.066,3.042,18.948,6.459C117.881,113.851,122.845,130.024,122.845,130.024Z" fill="#49564a"/><path d="M77.075,77.929a9.244,9.244,0,0,0,5.231.133c1.788-.694.32.454-.507.694a5.4,5.4,0,0,1-3.229.107C77.288,78.489,76.728,77.8,77.075,77.929Z" fill="#3f3832"/><path d="M60.315,59.434l.721,1.948s6.992-1.148,8.033-4.323c1.068-3.176.907-4.964,3.6-6.645s12.3-1.655,13.718-.667c1.414.961,3.256,4.75,5.471,6.192S95.6,56.952,96,57.993c.4,1.014,1.2,4.59,3.309,3.256,2.108-1.308-1.575-7.5-3.416-9.474s-11.049-4.884-16.28-4.537c-5.231.32-13.718,3.336-15.853,5.311S60.315,59.434,60.315,59.434Z" fill="#3f3832"/><path d="M97.518,37.417c-5.364-6.3-13.931-7.339-17.374-7.339-4.724,0-12.063,1.068-17.4,7.366-4.724,5.551-3.977,15.639-3.977,15.639,5.578-3.923,17.8-6.405,21.377-6.458,3.977-.053,15.8,2.509,21.377,6.432C101.495,53.056,102.242,42.968,97.518,37.417Z" fill="#e2774d"/><path d="M80.037,38.191c-6.325,0-5.258,4.724-4.617,5.151s3.443-.294,4.617-.294c1.148,0,3.977.721,4.617.294S86.362,38.191,80.037,38.191Z" fill="#3f3832"/><path d="M77.956,39.845c.4-1.2,3.95-1.708,5.471-1.495s2.349-.267,2.589-.747c.267-.48,1.148,1.121.427,2.4-.721,1.254.961-.694.721.187s.294,2.455-2.349,2.749S76.781,43.261,77.956,39.845Z" fill="#3f3832"/></g></g></svg>