<svg xmlns="http://www.w3.org/2000/svg" xmlns:xlink="http://www.w3.org/1999/xlink" width="100" height="100" viewBox="0 0 100 100"><defs><clipPath id="a"><circle cx="50" cy="50" r="50" transform="translate(-35 -20419)" fill="#fff" stroke="#707070" stroke-width="1"/></clipPath></defs><g transform="translate(35 20419)" clip-path="url(#a)"><g transform="translate(-62.439 -20446.439)"><path d="M93.856,31.466C88.8,28.24,78.136,27.491,77.31,27.439h-.052c-.826.052-11.487.8-16.546,4.027C58.183,33.092,56.5,44.553,56.5,44.553H98.09S96.386,33.092,93.856,31.466Z" fill="#b78c69"/><path d="M101.988,41.275c-11.022-8.544-24.548-7.9-24.548-7.9-.026,0-13.526-.671-24.548,7.9s-12.7,21.606-9.189,28.73C54.44,91.843,77.439,84.383,77.439,84.383c.026,0,23,7.46,33.738-14.378C114.688,62.855,113.036,49.819,101.988,41.275Z" fill="#d3a479"/><path d="M97.7,44.579c-5.214-4.75-14.946-6.5-20.263-6.5s-15.049,1.755-20.263,6.5-4.491,14.507-3.846,17.6,5.5,14.171,8.957,14.249c3.485.1,15.152.052,15.152.052v0s11.668.052,15.152-.052,8.338-11.177,8.957-14.249C102.194,59.086,102.917,49.355,97.7,44.579Z" fill="#3f3832"/><path d="M101.11,107.331H53.769s13.991-7.718,14.946-10.17a26.794,26.794,0,0,0,.852-5.937c.026-.258.026-.516.052-.774.207-3.123.258-6.066.258-6.066H85s.052,2.943.258,6.066c.026.258.026.516.052.774a26.8,26.8,0,0,0,.852,5.937C87.145,99.639,101.11,107.331,101.11,107.331Z" fill="#f4bd98"/><path d="M85.312,91.224a19.588,19.588,0,0,1-7.873,2.013,19.589,19.589,0,0,1-7.873-2.013c.026-.258.026-.516.052-.774.207-3.123.258-6.066.258-6.066H85s.052,2.943.258,6.066C85.261,90.707,85.287,90.965,85.312,91.224Z" fill="#dd7f50" opacity="0.25"/><path d="M94.657,57.383c-4.491-8.415-17.217-8.415-17.217-8.415s-12.752,0-17.217,8.415c-2.246,4.233-1.575,21.683,2.891,25.968,4.466,4.311,10.351,6.866,14.326,6.866s9.861-2.581,14.326-6.866C96.257,79.066,96.928,61.616,94.657,57.383Z" fill="#f4bd98"/><path d="M67.321,64.017a1.549,1.549,0,1,0,1.523-1.833A1.7,1.7,0,0,0,67.321,64.017Z" fill="#3f3832"/><path d="M84.615,64.017a1.549,1.549,0,1,0,1.523-1.833A1.714,1.714,0,0,0,84.615,64.017Z" fill="#3f3832"/><path d="M60.067,62.339c-.723-.852-1.988-1.781-4.156-.671-2.142,1.11-1.755,7.124,0,8.673,2.375,2.065,4.078,1.471,4.672,0S60.609,63.01,60.067,62.339Z" fill="#f4bd98"/><path d="M94.812,62.339c.723-.852,1.988-1.781,4.156-.671,2.142,1.11,1.755,7.124,0,8.673-2.375,2.065-4.078,1.471-4.672,0S94.244,63.01,94.812,62.339Z" fill="#f4bd98"/><path d="M78.033,64.507c.774,0-2.349,4.414-1.729,7.925.181,1.007,2.117.723,2.71.774.568.052-.181.439-.774.49-.568.052-2.168-.026-2.4-.671C75.116,71.193,77.439,64.507,78.033,64.507Z" fill="#dd7f50" opacity="0.5"/><path d="M66.546,60.428a12,12,0,0,1,3.769-.542c.8.1,1.136,0,.981-.542s-.852-.413-1.781-.361a10.19,10.19,0,0,0-2.969.9C65.772,60.248,66.159,60.609,66.546,60.428Z" fill="#3f3832"/><path d="M88.307,60.428a12,12,0,0,0-3.769-.542c-.8.077-1.136,0-.981-.542s.852-.413,1.781-.361a10.19,10.19,0,0,1,2.969.9C89.107,60.248,88.72,60.609,88.307,60.428Z" fill="#3f3832"/><path d="M68.766,69.1c0,.387-.852.723-1.884.723S65,69.515,65,69.1c0-.387.852-.723,1.884-.723C67.94,68.379,68.766,68.689,68.766,69.1Z" fill="#ff3b3b" opacity="0.25"/><path d="M89.959,69.1c0,.387-.852.723-1.884.723s-1.884-.31-1.884-.723c0-.387.852-.723,1.884-.723C89.133,68.379,89.959,68.689,89.959,69.1Z" fill="#ff3b3b" opacity="0.25"/><path d="M118.431,127.439H36.448s.671-2.272,1.755-5.343c.155-.439.31-.878.465-1.342.568-1.575,1.213-3.278,1.936-4.956.181-.465.361-.9.568-1.342A46.643,46.643,0,0,1,43.65,109.5c.232-.387.439-.749.671-1.084a.927.927,0,0,1,.181-.258c.336-.465.645-.878.955-1.239.981-1.162,3.02-2.194,5.447-3.072a78.7,78.7,0,0,1,12-2.994c1.5-.258,2.426-.413,2.426-.413s6.711,4.078,12.106,3.975a21.015,21.015,0,0,0,12.106-3.975s.645.1,1.729.284c4.311.749,15.41,2.943,18.147,6.2a12.9,12.9,0,0,1,.929,1.239,13.235,13.235,0,0,1,.826,1.342,49.3,49.3,0,0,1,2.452,4.956c.181.439.387.878.568,1.342.7,1.678,1.368,3.382,1.936,4.956.155.465.336.9.49,1.342C117.734,125.168,118.431,127.439,118.431,127.439Z" fill="#4f4d49"/><path d="M57.641,56.35s.62,4.078,1.316,4.827c.7.774,3.846-.361,4.75-.7s.542-6.221,1.316-5.86c.774.336.594,3.123,1.084,3.407s9.732.413,10.428-.516.671-3.02.9-2.891.129,2.659.7,2.891,12.468,1.033,13.036.516.929-2.246,1.033-1.781-.7,3.769,0,4.259,3.02,1.368,3.691.7c.7-.671-.361-7.718-3.356-9.448s-12.752-5.318-18.095-4.491C69.128,48.038,57.641,56.35,57.641,56.35Z" fill="#3f3832"/><path d="M116.649,122.1H38.2c.155-.439.31-.878.465-1.342h77.491C116.34,121.193,116.495,121.657,116.649,122.1Z" fill="#a89f91"/><path d="M114.223,115.8H40.6c.181-.465.361-.9.568-1.342h72.483C113.836,114.894,114.042,115.333,114.223,115.8Z" fill="#a89f91"/><path d="M111.2,109.5H43.65c.232-.387.439-.749.671-1.084a.927.927,0,0,1,.181-.258h65.875C110.635,108.57,110.919,109.009,111.2,109.5Z" fill="#a89f91"/><path d="M81.208,80.743a2.023,2.023,0,0,1-.387.258c-1.626.981-5.008.981-6.944.1-.052-.026-.077-.026-.129-.052C72.277,80.33,71.683,77,72.1,77.13c0,0,.232.052.62.129a25.8,25.8,0,0,0,4.7.568,22.567,22.567,0,0,0,4.827-.671c.206-.026.336,0,.387.1A4.066,4.066,0,0,1,81.208,80.743Z" fill="#3f3832"/><path d="M82.266,77.181a3.774,3.774,0,0,1-.645,1.471c-.8,1.136-6.686.878-7.615.465a2.84,2.84,0,0,1-1.265-1.807,25.8,25.8,0,0,0,4.7.568A23.779,23.779,0,0,0,82.266,77.181Z" fill="#fff"/><path d="M81.208,80.743a2.023,2.023,0,0,1-.387.258c-1.626.981-5.008.981-6.944.1a8.886,8.886,0,0,1,1.781-.723,13.747,13.747,0,0,1,4.827,0A2.113,2.113,0,0,1,81.208,80.743Z" fill="#f7aaa1"/></g></g></svg>