<svg xmlns="http://www.w3.org/2000/svg" xmlns:xlink="http://www.w3.org/1999/xlink" width="100" height="100" viewBox="0 0 100 100"><defs><clipPath id="a"><circle cx="50" cy="50" r="50" transform="translate(-402 -20539)" fill="#fff" stroke="#707070" stroke-width="1"/></clipPath></defs><g transform="translate(402 20539)" clip-path="url(#a)"><g transform="translate(-437.48 -20574.486)"><path d="M63.654,68.184s-1.083-8.6-.826-12.765,2.593-11.654,7.722-15.557c9.545-7.266,26.1-3.961,30.317-.94,6.468,4.616,7.95,11.625,7.494,17.409-.285,3.647-1.054,10.058-1.824,11.483C105.8,69.267,63.768,69.381,63.654,68.184Z" fill="#3f3832"/><path d="M111.58,113.289H59.38s15.415-8.491,16.5-11.226a29.576,29.576,0,0,0,.94-6.553c.028-.285.028-.57.057-.855.228-3.448.285-6.7.285-6.7H93.828s.057,3.248.285,6.7c.028.285.028.57.057.855a29.577,29.577,0,0,0,.94,6.553C96.165,104.8,111.58,113.289,111.58,113.289Z" fill="#f4a671"/><path d="M94.17,95.538a21.622,21.622,0,0,1-8.69,2.222,21.623,21.623,0,0,1-8.69-2.222c.028-.285.028-.57.057-.855.228-3.448.285-6.7.285-6.7H93.8s.057,3.248.285,6.7C94.113,94.94,94.142,95.253,94.17,95.538Z" fill="#c66940" opacity="0.25"/><path d="M104.485,58.212c-4.929-9.289-19.005-9.289-19.005-9.289s-14.047,0-19.005,9.289C64,62.885,64.737,82.118,69.666,86.848s11.4,7.579,15.814,7.579,10.856-2.849,15.814-7.579C106.223,82.118,106.964,62.885,104.485,58.212Z" fill="#f4a671"/><path d="M74.311,65.535a1.71,1.71,0,1,0,1.681-2.023A1.892,1.892,0,0,0,74.311,65.535Z" fill="#3f3832"/><path d="M93.4,65.535a1.71,1.71,0,1,0,1.681-2.023A1.872,1.872,0,0,0,93.4,65.535Z" fill="#3f3832"/><path d="M66.3,63.683c-.8-.94-2.194-1.966-4.587-.741-2.365,1.225-1.938,7.864,0,9.545,2.621,2.279,4.5,1.624,5.157,0C67.529,70.891,66.931,64.423,66.3,63.683Z" fill="#f4a671"/><path d="M104.656,63.683c.8-.94,2.194-1.966,4.587-.741,2.365,1.225,1.938,7.864,0,9.545-2.621,2.279-4.5,1.624-5.157,0C103.431,70.891,104.029,64.423,104.656,63.683Z" fill="#f4a671"/><path d="M86.135,66.076c.855,0-2.593,4.872-1.909,8.719.2,1.111,2.336.8,2.963.855s-.2.484-.855.541c-.627.057-2.393-.028-2.65-.741C82.915,73.456,85.48,66.076,86.135,66.076Z" fill="#c66940" opacity="0.5"/><path d="M73.484,61.574a13.247,13.247,0,0,1,4.16-.6c.883.114,1.254,0,1.083-.6s-.94-.456-1.966-.4a11.248,11.248,0,0,0-3.277,1C72.629,61.375,73.028,61.773,73.484,61.574Z" fill="#3f3832"/><path d="M97.476,61.574a13.247,13.247,0,0,0-4.16-.6c-.883.114-1.254,0-1.083-.6s.94-.456,1.966-.4a11.247,11.247,0,0,1,3.277,1C98.33,61.375,97.931,61.773,97.476,61.574Z" fill="#3f3832"/><ellipse cx="2.08" cy="0.798" rx="2.08" ry="0.798" transform="translate(71.775 70.321)" fill="#ff3b3b" opacity="0.25"/><ellipse cx="2.08" cy="0.798" rx="2.08" ry="0.798" transform="translate(95.139 70.321)" fill="#ff3b3b" opacity="0.25"/><path d="M130.7,135.457H40.261s4.217-14.275,8.69-20.971a17.83,17.83,0,0,1,1.225-1.653c1.083-1.282,3.334-2.422,6.012-3.391a87.429,87.429,0,0,1,13.221-3.305c1.653-.285,2.678-.456,2.678-.456s7.38,4.5,13.363,4.388a23.2,23.2,0,0,0,13.363-4.388s.712.114,1.909.313c4.758.826,16.982,3.22,20.031,6.838C125.427,118.361,130.7,135.457,130.7,135.457Z" fill="#e5bb67"/><path d="M82.317,80.351a9.666,9.666,0,0,0,5.528.142c1.909-.712.313.484-.541.741a5.667,5.667,0,0,1-3.419.114C82.545,80.949,81.947,80.209,82.317,80.351Z" fill="#3f3832"/><path d="M107.42,59.95c-1.938-7.408-11.967-14.7-21.826-14.788C75.536,45.076,65.649,52.4,63.654,59.95c0,0-.057,2.621,2.109,3.191s4.559-5.1,5.3-7.152c.712-2.052,5.927-4.587,9.032-5.414a26.32,26.32,0,0,1,5.471-.855,22.769,22.769,0,0,1,5.471.855c3.134.855,8.32,3.362,9.032,5.414s3.134,7.722,5.3,7.152C107.477,62.571,107.42,59.95,107.42,59.95Z" fill="#3f3832"/><path d="M105.311,73.912c-.256.085-4.3,6.326-7.522,9.574-.171.171-.4.37-.6.541-.171-2.849-2.65-4.388-4.787-5.328-2.137-.969-6.81-.855-6.81-.855s-4.7-.114-6.81.855c-2.137.969-4.616,2.479-4.787,5.328a3.667,3.667,0,0,1-.6-.541c-3.248-3.248-7.266-9.488-7.522-9.574-.883-.256-.741.541-.484,1.995,0,0,1,7.608,2.992,10.457,1.995,2.878,10.742,8.719,17.21,8.861,6.468-.114,15.215-5.984,17.21-8.861S105.8,75.906,105.8,75.906C106.052,74.453,106.195,73.684,105.311,73.912Zm-26.3,12.793c-1.767-1.482-1.567-4.986-.855-5.784,1.624-1.881,7.437-2.194,7.437-2.194s5.813.313,7.437,2.194c.712.826.912,4.3-.855,5.784a50.792,50.792,0,0,1-6.553,2.052A50.09,50.09,0,0,1,79.012,86.705Z" fill="#3f3832"/><path d="M75.849,102.091c1.026.256-2.45,2.422-1.995,3.59s2.422,3.733,2.935,4.758c.513,1-1.425,2.564-1.51,4.018-.114,1.425.6,21.028.6,21.028H40.261s4.844-17.951,9.916-22.624,20.971-8.406,20.971-8.406S73.712,101.522,75.849,102.091Z" fill="#3f3832"/><path d="M70.663,105.254c-.855.427-2.792,2.393-2.507,3.106.313.712,1.938,5.642,2.764,6.1s2.849-.883,3.22-1.083.627,1.938.883,1.624c.228-.342-.456-1.539-.712-1.909s-2.336.94-3.163,1.083-2.792-5.5-2.678-6.155C68.583,107.334,70.663,105.254,70.663,105.254Z" fill="#756052"/><path d="M58.582,125.4c.712,0,10.144-.114,10.685,0,.513.114.57,1.311,0,1.567-.57.228-10.827.4-11,0S57.87,125.4,58.582,125.4Z" fill="#756052"/><path d="M95.339,102.034c-1.054.285,2.222,2.479,1.767,3.647s-2.422,3.733-2.935,4.758c-.513,1,1.425,2.564,1.51,4.018.114,1.425-.6,21.028-.6,21.028H130.67s-4.844-17.951-9.916-22.624-20.971-8.406-20.971-8.406S97.5,101.465,95.339,102.034Z" fill="#3f3832"/><path d="M100.3,105.254c.855.427,2.792,2.393,2.507,3.106-.313.712-1.938,5.642-2.764,6.1s-2.849-.883-3.22-1.083-.627,1.938-.883,1.624c-.228-.342.456-1.539.712-1.909s2.336.94,3.163,1.083,2.792-5.5,2.678-6.155C102.376,107.334,100.3,105.254,100.3,105.254Z" fill="#756052"/><path d="M112.378,125.4c-.712,0-10.144-.114-10.685,0-.513.114-.57,1.311,0,1.567.57.228,10.827.4,11,0S113.09,125.4,112.378,125.4Z" fill="#756052"/><circle cx="0.484" cy="0.484" r="0.484" transform="translate(97.02 116.879)" fill="#756052"/><path d="M97.5,122.236a.484.484,0,1,1-.484-.484A.48.48,0,0,1,97.5,122.236Z" fill="#756052"/><circle cx="0.484" cy="0.484" r="0.484" transform="translate(96.507 127.194)" fill="#756052"/><circle cx="0.484" cy="0.484" r="0.484" transform="translate(97.02 132.665)" fill="#756052"/></g></g></svg>