<svg xmlns="http://www.w3.org/2000/svg" xmlns:xlink="http://www.w3.org/1999/xlink" width="100" height="100" viewBox="0 0 100 100"><defs><clipPath id="a"><circle cx="50" cy="50" r="50" transform="translate(-42 -20539)" fill="#fff" stroke="#707070" stroke-width="1"/></clipPath></defs><g transform="translate(42 20539)" clip-path="url(#a)"><g transform="translate(-75.946 -20572.955)"><path d="M73.8,37.881c-2.49-.28-6.463-1.035-10.771,3.945s-6.659,20.4-7.974,28.733-6.155,31.726.867,40.9,48.792,8.841,53.94,0c5.12-8.841.643-52.737-2.938-62.725-1.539-4.281-6.631-12.2-12.478-13.821A25.5,25.5,0,0,0,73.8,37.881Z" fill="#3f3832"/><path d="M125.786,126.709c-.364-.9-.783-1.819-1.175-2.77-.811-1.874-1.707-3.777-2.6-5.6-.308-.616-.616-1.231-.951-1.819a29.626,29.626,0,0,0-3.217-4.98c-2.994-3.553-15.08-5.959-19.78-6.743-1.147-.2-1.846-.308-1.874-.308-2.378-.839-4.588-1.986-5.456-3.441a12.6,12.6,0,0,1-1.4-4.616,37.22,37.22,0,0,1-.252-6.994H78.756a34.67,34.67,0,0,1-.252,6.994,13.34,13.34,0,0,1-1.4,4.616c-.867,1.455-3.077,2.6-5.456,3.441-.084,0-1.091.168-2.63.448a90.625,90.625,0,0,0-13.065,3.273c-2.658.951-4.868,2.07-5.959,3.357a14.05,14.05,0,0,0-1.2,1.651,42.954,42.954,0,0,0-2.238,3.861c-.867,1.651-1.735,3.413-2.518,5.2-1.175,2.574-2.238,5.148-3.05,7.218-.392.951-.7,1.791-.979,2.49-.476,1.231-.727,1.958-.727,1.958h89.331C128.583,133.871,127.436,130.738,125.786,126.709Z" fill="#f4bd98"/><g opacity="0.25"><path d="M89.331,96.41a14.572,14.572,0,0,1-5.4,1.231,14.572,14.572,0,0,1-5.4-1.231,37.221,37.221,0,0,0,.252-6.994H89.107A33.522,33.522,0,0,0,89.331,96.41Z" fill="#dd7f50"/></g><path d="M101.194,58.221c-4.56-9.2-17.514-9.2-17.514-9.2s-12.953,0-17.514,9.2c-2.294,4.644-1.623,23.7,2.938,28.4s10.519,7.526,14.576,7.526S93.7,91.318,98.256,86.617,103.488,62.865,101.194,58.221Z" fill="#f4bd98"/><path d="M73.5,68.712c.224.168,1.455-.532,2.294-.308.643.168,1.091.392,1.259.2.168-.224-.28-.476-1.007-.727a2.4,2.4,0,0,0-1.707.084C73.944,68.1,73.244,68.544,73.5,68.712Z" fill="#3f3832"/><path d="M73.272,67.7c.168.364.364.727.56.727s.2-.084.112-.14a4.329,4.329,0,0,1-.616-.811C73.244,67.285,73.216,67.537,73.272,67.7Z" fill="#3f3832"/><path d="M73.86,67.537c.168.364.364.727.56.727s.2-.084.112-.14a4.328,4.328,0,0,1-.616-.811C73.832,67.117,73.776,67.369,73.86,67.537Z" fill="#3f3832"/><path d="M72.293,64.851c.5-.084,3.189-.951,4-1.007,1.147-.112,1.874.671,2.1.56s.224-.364.168-.588a4.742,4.742,0,0,0-2.014-.755A16.355,16.355,0,0,0,72.181,64.4C71.37,64.739,71.79,64.935,72.293,64.851Z" fill="#3f3832"/><path d="M95.346,64.851c-.5-.084-3.189-.951-4-1.007-1.147-.112-1.874.671-2.1.56s-.224-.364-.168-.588a4.742,4.742,0,0,1,2.014-.755A16.355,16.355,0,0,1,95.458,64.4C96.242,64.739,95.822,64.935,95.346,64.851Z" fill="#3f3832"/><path d="M93.78,68.712c-.224.168-1.455-.532-2.294-.308-.643.168-1.091.392-1.259.2-.168-.224.28-.476,1.007-.727a2.4,2.4,0,0,1,1.707.084C93.332,68.1,94.031,68.544,93.78,68.712Z" fill="#3f3832"/><path d="M94,67.733c-.168.364-.364.727-.56.727s-.2-.084-.112-.14a4.329,4.329,0,0,0,.616-.811C94.031,67.313,94.059,67.537,94,67.733Z" fill="#3f3832"/><path d="M93.416,67.537c-.168.364-.364.727-.56.727s-.2-.084-.112-.14a4.329,4.329,0,0,0,.616-.811C93.444,67.145,93.5,67.369,93.416,67.537Z" fill="#3f3832"/><path d="M83.9,68.908c.839,0-2.546,4.812-1.9,8.617.2,1.091,2.322.783,2.938.839.643.056-.224.476-.839.532-.643.056-2.35-.028-2.63-.727C80.742,76.182,83.26,68.908,83.9,68.908Z" fill="#dd7f50" opacity="0.5"/><path d="M80.1,83.652c.112-.28,3.05,1.567,6.127,0,2.126-1.091.252.867-1.539,1.287C82.924,85.331,79.931,84.016,80.1,83.652Z" fill="#3f3832"/><path d="M74.5,75.091c0,.42-.923.783-2.042.783s-2.042-.364-2.042-.783.923-.783,2.042-.783S74.5,74.643,74.5,75.091Z" fill="#ff3b3b" opacity="0.25"/><path d="M97.585,75.091c0,.42-.923.783-2.042.783s-2.042-.364-2.042-.783.923-.783,2.042-.783S97.585,74.643,97.585,75.091Z" fill="#ff3b3b" opacity="0.25"/><path d="M65.663,68.041c-.7-1.175-1.4-2.826-3.861-2.266s-2.63,5.2-.56,7.3,4.336,1.819,4.868.727C66.67,72.713,65.663,68.041,65.663,68.041Z" fill="#f4bd98"/><path d="M101.557,68.041c.7-1.175,1.4-2.826,3.861-2.266s2.63,5.2.56,7.3-4.336,1.819-4.868.727S101.557,68.041,101.557,68.041Z" fill="#f4bd98"/><path d="M64.879,57.185s-.476,4.588.28,5.26c.727.671,3.581-.811,5.26-.951s1.986-6.463,2.042-5.4c.056,1.091,0,4.169,2.1,4.588,2.126.392,11.806.392,13.177-.671s1.315-5.4,1.595-4.588.364,4.308,1.007,4.588c.616.28,1.483-4.84,1.595-4.057.112.811.42,3.917,1.147,4.448s7.19,2.294,9.428,1.343c2.21-.951-.755-6.994-2.91-9.428s-13.149-6.323-18.241-5.26C76.266,48.149,65.746,54.64,64.879,57.185Z" fill="#3f3832"/><path d="M75.371,75.566c-3.385,0-6.127-2.434-6.127-5.428s2.742-5.428,6.127-5.428S81.5,67.145,81.5,70.139C81.526,73.132,78.756,75.566,75.371,75.566Zm0-10.38c-3.133,0-5.651,2.21-5.651,4.952s2.546,4.952,5.651,4.952c3.133,0,5.651-2.21,5.651-4.952S78.5,65.187,75.371,65.187Z" fill="#3f3832"/><path d="M92.129,75.566c-3.385,0-6.127-2.434-6.127-5.428s2.742-5.428,6.127-5.428,6.127,2.434,6.127,5.428S95.514,75.566,92.129,75.566Zm0-10.38c-3.133,0-5.651,2.21-5.651,4.952s2.546,4.952,5.651,4.952c3.133,0,5.651-2.21,5.651-4.952S95.234,65.187,92.129,65.187Z" fill="#3f3832"/><rect width="0.476" height="5.987" transform="translate(80.764 68.233) rotate(-89.776)" fill="#3f3832"/><path d="M69.663,68.8a.211.211,0,0,1-.112-.028L64.935,66.81c-.112-.056-.308-.28-.252-.42a.235.235,0,0,1,.308-.112l4.756,2.07a.235.235,0,0,1,.112.308A.179.179,0,0,1,69.663,68.8Z" fill="#3f3832"/><path d="M97.668,68.74a.285.285,0,0,1-.224-.14.279.279,0,0,1,.112-.336l4.924-2.182c.112-.056.056,0,.112.14.056.112-.056.336-.168.42l-4.644,2.07C97.752,68.712,97.724,68.74,97.668,68.74Z" fill="#3f3832"/><path d="M115.714,133.871H52.233s6.043-25.711,6.6-26.634c.112-.2.532-.364,1.147-.56.336-.112.755-.224,1.2-.336,2.77-.671,6.938-1.259,6.938-1.259a9.536,9.536,0,0,0,1.091,3.161,12.059,12.059,0,0,0,2.49,3.217,17.5,17.5,0,0,0,8.449,4.057,28.8,28.8,0,0,0,3.833.532,13.938,13.938,0,0,0,1.595-.168,28.061,28.061,0,0,0,3.889-.783,15.72,15.72,0,0,0,7.694-4.588,10.779,10.779,0,0,0,2.686-5.428s8.729,1.231,9.288,2.154c.14.252.671,2.238,1.4,5.064.336,1.315.7,2.826,1.091,4.392.42,1.791.9,3.693,1.343,5.567s.9,3.721,1.287,5.372h0C115.1,131.241,115.714,133.871,115.714,133.871Z" fill="#dd7f50"/><path d="M65.691,115.826c-.5,3.525-2.434,4.672-3.777,2.686-2.406-3.581-3.161-9.121-1.93-11.806a.027.027,0,0,1,.028-.028c.336-.112.755-.224,1.2-.336C63.061,107.349,66.054,113.056,65.691,115.826Z" fill="#e89874"/><path d="M71.706,111.461c-2.238.783-3.609-.112-2.966-2.014a10.728,10.728,0,0,1,.476-1.2A11.916,11.916,0,0,0,71.706,111.461Z" fill="#e89874"/><path d="M62.725,131.633a6.609,6.609,0,0,1-.643,2.266H58.7c-2.21-3.553-2.854-8.813-1.707-11.359C58.249,119.826,63.229,128.108,62.725,131.633Z" fill="#e89874"/><path d="M65.774,125.226c1.343-4.085,5.26-8.085,8.113-8.757s-.616,8.337-3.693,10.1C67.117,128.359,65.019,127.52,65.774,125.226Z" fill="#e89874"/><path d="M86.338,119.854c-.5,3.525-2.434,4.672-3.777,2.686a16.1,16.1,0,0,1-2.434-7.022,28.8,28.8,0,0,0,3.833.532,13.938,13.938,0,0,0,1.595-.168A8.736,8.736,0,0,1,86.338,119.854Z" fill="#e89874"/><path d="M97.137,110.51a10.708,10.708,0,0,1-3.329,4.281c-2.154,1.231-3.833,1.2-4.364.308A15.516,15.516,0,0,0,97.137,110.51Z" fill="#e89874"/><path d="M83.316,133.871H77.693c-.727-2.77-.755-5.651,0-7.33C78.728,124.247,82.533,129.982,83.316,133.871Z" fill="#e89874"/><path d="M71.873,133.871H68.768a4.379,4.379,0,0,1,.364-1.119C69.635,131.661,70.754,132.388,71.873,133.871Z" fill="#e89874"/><path d="M86.45,129.283c1.343-4.085,5.26-8.085,8.113-8.757s-.616,8.337-3.693,10.1S85.694,131.577,86.45,129.283Z" fill="#e89874"/><path d="M102.76,123.491c-2.406-3.553-3.161-9.121-1.958-11.778,1.2-2.686,6.211,5.6,5.707,9.121C106.034,124.359,104.1,125.506,102.76,123.491Z" fill="#e89874"/><path d="M111.6,116.693c-1.651.252-2.546-.616-2.042-2.238a16.1,16.1,0,0,1,.923-2.154C110.846,113.615,111.209,115.126,111.6,116.693Z" fill="#e89874"/><path d="M103.236,133.871h-5.6a11.073,11.073,0,0,1,.252-6.379C98.816,125.394,102.117,130.094,103.236,133.871Z" fill="#e89874"/><path d="M114.231,127.632h0a10.031,10.031,0,0,1-3.161,3.945c-3.077,1.791-5.176.951-4.42-1.343a15.728,15.728,0,0,1,6.323-7.974C113.392,124.135,113.839,125.981,114.231,127.632Z" fill="#e89874"/></g></g></svg>