<svg xmlns="http://www.w3.org/2000/svg" xmlns:xlink="http://www.w3.org/1999/xlink" width="100" height="100" viewBox="0 0 100 100"><defs><clipPath id="a"><circle cx="50" cy="50" r="50" transform="translate(-162 -20419)" fill="#fff" stroke="#707070" stroke-width="1"/></clipPath></defs><g transform="translate(162 20419)" clip-path="url(#a)"><g transform="translate(-196.492 -20453.484)"><path d="M63.792,48.583c-3.267-.169-4.591,3.323-4.337,6.309.282,2.957,1.352,4.985-.929,5.914s-6.45,1.774-4.7,6.252,5.774,5.971,4.027,7.97C56.1,77.057,53,76.1,50.329,80.268s-.929,7.266,1.605,8.2c2.563.929,6.985,1.014,5.52,2.788s-6.985,2.845-8.477,9.294c-1.465,6.45,3.352,12.5,10.083,14.11s54.019,1.07,56.835,0,7.52-3.352,6.168-9.942-5.914-6.055-4.7-8.337,5.914-1.887,5.633-6.844-2.816-7.8-6.168-11.688,1.07-4.957,1.352-9.548c.282-4.563-2.676-7.914-7.126-10.336-4.422-2.422,3.887-2.676,2.028-6.985-1.887-4.309-6.731-1.07-6.985-4.422-.282-3.352-2.281-10.336-7.379-11.829-5.1-1.465-9.013,4.168-11.547,4.422-2.563.282-4.647-2.253-9.942-2.676-6.055-.507-8.2,2.422-9.266,6.59C67.2,45.879,66.242,48.724,63.792,48.583Z" fill="#35312f"/><path d="M104.968,106.77c-5.21,4.506-20.475,4.056-20.475,4.056s-15.265.451-20.475-4.056c0,0,11.35-1.662,13.6-5.492a13.027,13.027,0,0,0,1.408-4.647,37.767,37.767,0,0,0,.253-7.069H89.7a35.178,35.178,0,0,0,.253,7.069,13.244,13.244,0,0,0,1.408,4.647C93.618,105.109,104.968,106.77,104.968,106.77Z" fill="#ffddca"/><g opacity="0.25"><path d="M89.956,96.631a14.682,14.682,0,0,1-5.464,1.239,14.8,14.8,0,0,1-5.464-1.239,37.767,37.767,0,0,0,.253-7.069H89.7A35.178,35.178,0,0,0,89.956,96.631Z" fill="#dd7f50"/></g><path d="M101.9,58.074C97.279,48.78,84.183,48.78,84.183,48.78s-13.1,0-17.715,9.294c-2.309,4.675-1.634,23.94,2.985,28.671,4.591,4.76,10.618,7.6,14.73,7.6,4.084,0,10.139-2.845,14.73-7.6C103.531,81.986,104.207,62.75,101.9,58.074Z" fill="#ffddca"/><path d="M77.789,69.622a1.635,1.635,0,1,1-1.605-1.943A1.81,1.81,0,0,1,77.789,69.622Z" fill="#3f3832"/><path d="M73.931,68.383c.225.169,1.521-.789,2.366-.563a3.517,3.517,0,0,1,1.127.563,1.516,1.516,0,0,0-.929-.845,2.421,2.421,0,0,0-1.718.084C74.381,67.763,73.706,68.214,73.931,68.383Z" fill="#3f3832"/><path d="M73.734,67.4c.169.366.366.76.563.76s.2-.084.113-.141a4.357,4.357,0,0,1-.62-.817C73.706,66.974,73.649,67.2,73.734,67.4Z" fill="#3f3832"/><path d="M74.3,67.2c.169.366.366.76.563.76s.2-.084.113-.141a4.358,4.358,0,0,1-.62-.817C74.3,66.805,74.241,67.031,74.3,67.2Z" fill="#3f3832"/><path d="M72.72,64.3c.507-.084,2.985-.366,3.83-.451,1.155-.113,2.112.535,2.338.422s.225-.366.169-.591a4.773,4.773,0,0,0-2.028-.76,16.32,16.32,0,0,0-4.422.929C71.819,64.186,72.241,64.411,72.72,64.3Z" fill="#3f3832"/><path d="M90.914,69.622a1.81,1.81,0,0,0,1.605,1.943,1.791,1.791,0,0,0,1.605-1.943,1.81,1.81,0,0,0-1.605-1.943A1.791,1.791,0,0,0,90.914,69.622Z" fill="#3f3832"/><path d="M94.772,68.383c-.225.169-1.521-.789-2.366-.563a3.517,3.517,0,0,0-1.127.563,1.516,1.516,0,0,1,.929-.845,2.421,2.421,0,0,1,1.718.084C94.294,67.763,95,68.214,94.772,68.383Z" fill="#3f3832"/><path d="M94.969,67.4c-.169.366-.366.76-.563.76s-.2-.084-.113-.141a4.357,4.357,0,0,0,.62-.817C95,67,95.054,67.2,94.969,67.4Z" fill="#3f3832"/><path d="M94.378,67.2c-.169.366-.366.76-.563.76s-.2-.084-.113-.141a4.358,4.358,0,0,0,.62-.817C94.406,66.805,94.463,67.031,94.378,67.2Z" fill="#3f3832"/><path d="M95.955,64.3c-.507-.084-2.985-.366-3.83-.451-1.155-.113-2.112.535-2.338.422s-.225-.366-.169-.591a4.773,4.773,0,0,1,2.028-.76,16.32,16.32,0,0,1,4.422.929C96.885,64.186,96.462,64.411,95.955,64.3Z" fill="#3f3832"/><path d="M84.464,68.833c.845,0-2.591,4.844-1.915,8.7.2,1.1,2.338.789,2.957.845.648.056-.225.479-.845.535-.648.056-2.394-.028-2.647-.732C81.282,76.184,83.816,68.833,84.464,68.833Z" fill="#dd7f50" opacity="0.5"/><path d="M74.945,75.086c0,.451-.929.789-2.056.789s-2.056-.366-2.056-.789c0-.451.929-.789,2.056-.789C74.044,74.3,74.945,74.635,74.945,75.086Z" fill="#ff3b3b" opacity="0.25"/><path d="M98.265,75.086c0,.451-.929.789-2.056.789s-2.056-.366-2.056-.789c0-.451.929-.789,2.056-.789S98.265,74.635,98.265,75.086Z" fill="#ff3b3b" opacity="0.25"/><path d="M66.383,68.439c-.7-1.183-1.436-2.873-3.887-2.309-2.478.563-2.647,5.267-.563,7.379s4.365,1.831,4.929.76C67.4,73.142,66.383,68.439,66.383,68.439Z" fill="#ffddca"/><path d="M62.609,66.129a2.532,2.532,0,0,0,3.661.7c2.478-1.38,1.746-9.013,5.041-12.533s11.35-4.844,13.716-4.45,6.619.986,6.309,4.929-.113,6.816,3.267,9.182c3.352,2.366,4.732-.2,6.309,1.774s2.676,4.253,4.732,2.478c2.084-1.774-.394-13.322-6.309-17.772S89.168,45.2,79.986,46.189,66.27,53.6,64.3,57.849A18.638,18.638,0,0,0,62.609,66.129Z" fill="#35312f"/><path d="M129.611,134.484H39.373s5.182-14.251,9.632-20.926c.422-.62.817-1.183,1.211-1.662,1.07-1.3,3.323-2.422,6-3.38a84.868,84.868,0,0,1,13.209-3.3c1.634-.282,2.676-.451,2.676-.451s6.393,4.478,12.364,4.365c8.168-.141,12.364-4.365,12.364-4.365s.732.113,1.915.31c4.76.817,16.955,3.239,19.968,6.816C123.387,117.416,129.611,134.484,129.611,134.484Z" fill="#dd5150"/><path d="M98.772,105.08a13.813,13.813,0,0,1-2.535,2.647c-2.281,1.69-9.773,5.239-15.6,3.8-4.816-1.183-9.632-5.013-11.153-6.309,1.634-.282,2.676-.451,2.676-.451s6.393,4.478,12.364,4.365c8.168-.141,12.364-4.365,12.364-4.365S97.561,104.855,98.772,105.08Z" fill="#fca518"/><circle cx="4.788" cy="4.788" r="4.788" transform="translate(63.041 121.254) rotate(-80.833)" fill="#fca518"/><path d="M77.986,134.484H68.58a4.777,4.777,0,0,1,9.1-2.7A4.538,4.538,0,0,1,77.986,134.484Z" fill="#fca518"/><path d="M56.356,109.53a4.746,4.746,0,0,1-7.323,4c.422-.62.817-1.183,1.211-1.662,1.07-1.3,3.323-2.422,6-3.38A4.375,4.375,0,0,1,56.356,109.53Z" fill="#fca518"/><circle cx="4.788" cy="4.788" r="4.788" transform="translate(49.456 122.063)" fill="#fca518"/><circle cx="4.788" cy="4.788" r="4.788" transform="translate(82.112 120.031) rotate(-22.259)" fill="#fca518"/><circle cx="4.788" cy="4.788" r="4.788" transform="translate(99.701 108.319)" fill="#fca518"/><path d="M107.953,131.611a4.821,4.821,0,0,1-.958,2.873H99.363a4.771,4.771,0,1,1,8.59-2.873Z" fill="#fca518"/><circle cx="4.788" cy="4.788" r="4.788" transform="translate(110.854 116.374)" fill="#fca518"/><path d="M128.879,133.667a4.022,4.022,0,0,1-.084.817h-9.379a3.823,3.823,0,0,1-.084-.817,4.774,4.774,0,1,1,9.548,0Z" fill="#fca518"/><path d="M86.858,85.168a1.841,1.841,0,0,1-.648.366c-1.662.591-4.394.31-5.351-.479-.028-.028-.084-.056-.113-.084-1.211-1.183-1.436-3.3-.986-3.042a1.372,1.372,0,0,0,.2.084c2.112,1.014,5.886.7,7.435.169.028,0,.056-.028.084-.028C88.464,81.76,88.1,84.126,86.858,85.168Z" fill="#7c3c28"/><path d="M87.393,82.155a2.071,2.071,0,0,1-.366,1.042c-.282.338-1.859.451-3.07.451a10.733,10.733,0,0,1-3.38-.535,1.725,1.725,0,0,1-.62-1.127C82.07,83.028,85.844,82.718,87.393,82.155Z" fill="#e8eaf3"/><path d="M86.858,85.168a1.841,1.841,0,0,1-.648.366c-1.662.591-4.394.31-5.351-.479a5.851,5.851,0,0,1,2.309-.451C84.577,84.436,86.408,84.661,86.858,85.168Z" fill="#ef8484"/></g></g></svg>