<svg xmlns="http://www.w3.org/2000/svg" xmlns:xlink="http://www.w3.org/1999/xlink" width="100" height="100" viewBox="0 0 100 100"><defs><clipPath id="a"><circle cx="50" cy="50" r="50" transform="translate(-282 -20419)" fill="#fff" stroke="#707070" stroke-width="1"/></clipPath></defs><g transform="translate(282 20419)" clip-path="url(#a)"><g transform="translate(-317.268 -20454.324)"><path d="M130.063,127.645c-.4-.967-.825-1.962-1.251-2.986-.882-1.991-1.82-4.067-2.787-5.973-.341-.683-.683-1.308-1-1.934a34.435,34.435,0,0,0-3.413-5.347c-3.214-3.811-16.126-6.371-21.16-7.224-1.223-.2-1.962-.313-2.019-.341-2.531-.91-4.892-2.133-5.83-3.7a14.266,14.266,0,0,1-1.507-4.92,38.994,38.994,0,0,1-.256-7.48H79.807a38.99,38.99,0,0,1-.256,7.48,13.336,13.336,0,0,1-1.507,4.92c-.939,1.564-3.271,2.787-5.83,3.7-.085,0-1.166.171-2.816.484a95.965,95.965,0,0,0-13.965,3.5c-2.816,1.024-5.2,2.218-6.371,3.584a20.341,20.341,0,0,0-1.308,1.763c-.8,1.195-1.593,2.588-2.418,4.124-.939,1.763-1.849,3.669-2.7,5.575-1.251,2.759-2.389,5.489-3.271,7.708-.4,1.024-.768,1.906-1.052,2.645-.512,1.308-.8,2.1-.8,2.1H133.02C133.077,135.324,131.854,131.968,130.063,127.645Z" fill="#965640"/><path d="M103.783,54.437C98.919,44.6,85.04,44.6,85.04,44.6s-13.851,0-18.743,9.841c-2.446,4.949-1.735,25.341,3.157,30.347,4.863,5.034,11.263,8.049,15.586,8.049s10.722-3.015,15.586-8.049C105.518,79.778,106.257,59.386,103.783,54.437Z" fill="#f4bd98"/><ellipse cx="1.706" cy="2.048" rx="1.706" ry="2.048" transform="translate(74.801 64.647)" fill="#3f3832"/><path d="M74.147,65.387c.228.171,1.621-.825,2.5-.6a3.582,3.582,0,0,1,1.195.6,1.633,1.633,0,0,0-1-.882,2.692,2.692,0,0,0-1.82.085C74.63,64.7,73.891,65.188,74.147,65.387Z" fill="#3f3832"/><path d="M73.919,64.306c.171.37.4.8.6.8s.2-.114.142-.142A3.7,3.7,0,0,1,74,64.107C73.919,63.879,73.834,64.107,73.919,64.306Z" fill="#3f3832"/><path d="M74.545,64.107c.171.37.4.8.6.8s.2-.114.142-.142a3.7,3.7,0,0,1-.654-.853C74.516,63.68,74.46,63.936,74.545,64.107Z" fill="#3f3832"/><path d="M72.867,61.519c.54-.085,3.413-1,4.266-1.081,1.223-.114,2.019.711,2.247.6s.228-.4.171-.626a5.366,5.366,0,0,0-2.162-.8c-1.337,0-3.783,1.109-4.664,1.451C71.9,61.377,72.355,61.633,72.867,61.519Z" fill="#3f3832"/><path d="M92.15,66.7a1.735,1.735,0,1,0,1.706-2.048A1.9,1.9,0,0,0,92.15,66.7Z" fill="#3f3832"/><path d="M96.246,65.387c-.228.171-1.621-.825-2.5-.6a3.582,3.582,0,0,0-1.195.6,1.633,1.633,0,0,1,1-.882,2.531,2.531,0,0,1,1.82.085C95.762,64.7,96.5,65.188,96.246,65.387Z" fill="#3f3832"/><path d="M96.473,64.306c-.171.37-.4.8-.6.8s-.2-.114-.142-.142a3.7,3.7,0,0,0,.654-.853C96.473,63.879,96.53,64.107,96.473,64.306Z" fill="#3f3832"/><path d="M95.848,64.107c-.171.37-.4.8-.6.8s-.2-.114-.142-.142a3.7,3.7,0,0,0,.654-.853C95.876,63.68,95.933,63.936,95.848,64.107Z" fill="#3f3832"/><path d="M97.526,61.519c-.54-.085-3.413-1-4.266-1.081-1.223-.114-2.019.711-2.247.6s-.228-.4-.171-.626a5.366,5.366,0,0,1,2.162-.8c1.337,0,3.783,1.109,4.664,1.451C98.493,61.377,98.038,61.633,97.526,61.519Z" fill="#3f3832"/><path d="M85.3,65.842c.91,0-2.73,5.148-2.019,9.215.2,1.166,2.474.853,3.157.91s-.228.512-.91.569-2.531-.028-2.816-.8C81.911,73.635,84.613,65.842,85.3,65.842Z" fill="#dd7f50" opacity="0.5"/><path d="M81.229,81.6c.114-.284,3.271,1.678,6.57,0,2.275-1.166.256.939-1.65,1.365C84.243,83.419,81.058,82,81.229,81.6Z" fill="#3f3832"/><g opacity="0.25"><ellipse cx="2.19" cy="0.825" rx="2.19" ry="0.825" transform="translate(70.848 71.615)" fill="#ff3b3b"/></g><ellipse cx="2.19" cy="0.825" rx="2.19" ry="0.825" transform="translate(95.535 71.615)" fill="#ff3b3b" opacity="0.25"/><path d="M99.232,51.65C98.265,48.322,85.04,41.212,85.04,41.212h0s-13.2,7.11-14.192,10.438a7.988,7.988,0,0,0,0,5.347S79.778,49.09,85.04,49.09C90.074,49.09,99.232,57,99.232,57A7.775,7.775,0,0,0,99.232,51.65Z" fill="#995f3f"/><path d="M104.551,101.28a4.384,4.384,0,0,1-1.934-7.082,29.6,29.6,0,0,0,6-9.727c4.152-12,3.3-24.858-2.56-35.353-4.579-8.191-14.107-13.794-20.705-13.794S68.658,40.9,64.107,49.118c-5.859,10.495-6.741,23.35-2.56,35.353a29.616,29.616,0,0,0,5.518,9.187,4.939,4.939,0,0,1-2.1,7.85,22.425,22.425,0,0,0-9.471,6.342,118.359,118.359,0,0,0,13.936,3.726,79.555,79.555,0,0,0,15.216,1.479,86.569,86.569,0,0,0,16.126-1.479A112.377,112.377,0,0,0,114.7,107.85,23.065,23.065,0,0,0,104.551,101.28ZM85.011,92.065c-2.844,0-5.973-1.564-10.1-4.295-3.129-2.048-5.6-6.115-6.826-10.068-1.195-3.953-.939-12.457,2.076-18.743,3.726-7.736,9.556-14.391,14.9-14.391s11.149,6.655,14.9,14.391c3.043,6.286,3.3,14.79,2.076,18.743-1.195,3.953-3.7,7.992-6.826,10.068C91.069,90.5,87.827,92.065,85.011,92.065Z" fill="#e5b155"/></g></g></svg>