<svg xmlns="http://www.w3.org/2000/svg" xmlns:xlink="http://www.w3.org/1999/xlink" width="100" height="100" viewBox="0 0 100 100"><defs><clipPath id="a"><circle cx="50" cy="50" r="50" transform="translate(-282 -20539)" fill="#fff" stroke="#707070" stroke-width="1"/></clipPath></defs><g transform="translate(282 20539)" clip-path="url(#a)"><g transform="translate(-310.144 -20567.156)"><path d="M109.115,59.858c2.657-1.146,5.157-5.418,3.022-10.393s-6.225-3.907-6.225-3.907,2.475-4.272-1.25-7.45c-2.553-2.188-7.267-.886-7.267-.886.365-7.111-11.539-10.471-17.4-8.518s-6.929,5.314-6.929,5.314-5.678-6.382-11.9-3.725-7.632,9.221-7.632,9.221A8.412,8.412,0,0,0,44.672,44.7a11.164,11.164,0,0,0-2.084,7.163c.156,2.865,1.25,4.663,3.282,5.574a5.554,5.554,0,0,0-2.006,3.777c-.13,2.084.391,3.647,1.875,4.558-1.98,1.433-5.184,4.663-3.543,9.95,2.318,7.45,9.065,6.225,9.065,6.225a5.915,5.915,0,0,0,1.25,6.564c4.116,4.428,13.7,1.928,16.905-.912,0,0,8.961-6.46,15.082-.495,3.438,3.36,7.554,2.865,9.794,2.475,7.684-1.407,5.7-5.236,5.7-5.236s6.1,3.438,7.866-2.24a6.625,6.625,0,0,0-.287-5.47c4.037-1.693,6.121-5.965,5.678-10.367C113.856,60.536,109.115,59.858,109.115,59.858Zm-65.2-12.321c-.026.208-.052.391-.078.625-.443,5.366,2.449,7.919,3.178,8.466a4.737,4.737,0,0,0-.6.391C42.823,55.456,42.484,51.21,43.917,47.538ZM44.438,60.9a5.332,5.332,0,0,1,1.276-2.6c-2.37,3.595,1.433,6.59,1.433,6.59s-.365.182-.912.521C44.724,64.547,44.125,62.932,44.438,60.9Zm62.828,15.238a4.67,4.67,0,0,0-1.354-1.3s4.663.313,6.72-5.939A8.841,8.841,0,0,1,107.266,76.138Z" fill="#35312f"/><path d="M97.081,102.5c-4.819,4.194-18.937,3.777-18.937,3.777s-14.118.417-18.937-3.751c0,0,10.5-1.537,12.581-5.079a12.049,12.049,0,0,0,1.3-4.3,34.93,34.93,0,0,0,.234-6.538h9.638a32.535,32.535,0,0,0,.234,6.538,12.249,12.249,0,0,0,1.3,4.3C86.583,100.962,97.081,102.5,97.081,102.5Z" fill="#a86642"/><g opacity="0.25"><path d="M83.2,93.148a13.579,13.579,0,0,1-5.053,1.146,13.689,13.689,0,0,1-5.053-1.146,34.93,34.93,0,0,0,.234-6.538h9.638A32.535,32.535,0,0,0,83.2,93.148Z" fill="#8e3f26"/></g><path d="M94.242,57.462c-4.272-8.6-16.384-8.6-16.384-8.6s-12.112,0-16.384,8.6c-2.136,4.324-1.511,22.141,2.761,26.517s9.82,7.033,13.623,7.033c3.777,0,9.377-2.631,13.623-7.033C95.752,79.6,96.378,61.812,94.242,57.462Z" fill="#a86642"/><path d="M71.945,68.168a1.512,1.512,0,1,1-1.485-1.8A1.674,1.674,0,0,1,71.945,68.168Z" fill="#3f3832"/><path d="M68.376,67.021c.208.156,1.407-.729,2.188-.521a3.253,3.253,0,0,1,1.042.521,1.4,1.4,0,0,0-.86-.781,2.239,2.239,0,0,0-1.589.078C68.793,66.448,68.168,66.865,68.376,67.021Z" fill="#3f3832"/><path d="M68.194,66.084c.156.339.339.7.521.7s.182-.078.1-.13a4.03,4.03,0,0,1-.573-.755C68.168,65.719,68.115,65.927,68.194,66.084Z" fill="#3f3832"/><path d="M68.715,65.927c.156.339.339.7.521.7s.182-.078.1-.13a4.03,4.03,0,0,1-.573-.755C68.715,65.537,68.662,65.771,68.715,65.927Z" fill="#3f3832"/><path d="M67.256,63.661c.469-.078,2.969-.886,3.725-.964,1.068-.1,1.771.625,1.98.521s.208-.339.156-.547a4.415,4.415,0,0,0-1.875-.7,14.792,14.792,0,0,0-4.09,1.276C66.422,63.531,66.813,63.739,67.256,63.661Z" fill="#3f3832"/><path d="M84.109,68.168a1.512,1.512,0,1,0,1.485-1.8A1.674,1.674,0,0,0,84.109,68.168Z" fill="#3f3832"/><path d="M87.678,67.021c-.208.156-1.407-.729-2.188-.521a3.253,3.253,0,0,0-1.042.521,1.4,1.4,0,0,1,.86-.781,2.239,2.239,0,0,1,1.589.078C87.261,66.448,87.912,66.865,87.678,67.021Z" fill="#3f3832"/><path d="M87.886,66.084c-.156.339-.339.7-.521.7s-.182-.078-.1-.13a4.03,4.03,0,0,0,.573-.755C87.912,65.719,87.938,65.927,87.886,66.084Z" fill="#3f3832"/><path d="M87.339,65.927c-.156.339-.339.7-.521.7s-.182-.078-.1-.13a4.03,4.03,0,0,0,.573-.755C87.365,65.563,87.417,65.771,87.339,65.927Z" fill="#3f3832"/><path d="M88.8,63.661c-.469-.078-2.969-.886-3.725-.964-1.068-.1-1.771.625-1.98.521s-.208-.339-.156-.547a4.415,4.415,0,0,1,1.875-.7,14.792,14.792,0,0,1,4.09,1.276C89.657,63.531,89.266,63.739,88.8,63.661Z" fill="#3f3832"/><path d="M78.118,67.438c.781,0-2.4,4.48-1.771,8.049.182,1.016,2.162.729,2.735.781.6.052-.208.443-.781.495-.6.052-2.214-.026-2.449-.677C75.174,74.237,77.519,67.438,78.118,67.438Z" fill="#8e3f26" opacity="0.5"/><path d="M74.549,81.218c.1-.26,2.865,1.459,5.731,0,1.98-1.016.234.807-1.433,1.2C77.206,82.78,74.419,81.556,74.549,81.218Z" fill="#3f3832"/><g opacity="0.25"><ellipse cx="1.902" cy="0.729" rx="1.902" ry="0.729" transform="translate(65.511 72.492)" fill="#ff3b3b"/><ellipse cx="1.902" cy="0.729" rx="1.902" ry="0.729" transform="translate(87.078 72.492)" fill="#ff3b3b"/></g><path d="M61.4,67.074c-.651-1.094-1.328-2.657-3.595-2.136-2.292.521-2.449,4.871-.521,6.825s4.037,1.693,4.558.7C62.333,71.424,61.4,67.074,61.4,67.074Z" fill="#a86642"/><path d="M94.163,67.074c.651-1.094,1.328-2.657,3.595-2.136s2.449,4.871.521,6.825-4.037,1.693-4.558.7C93.252,71.424,94.163,67.074,94.163,67.074Z" fill="#a86642"/><path d="M119.873,128.156H36.415s4.793-13.18,8.908-19.354c.391-.573.755-1.094,1.12-1.537.99-1.2,3.074-2.24,5.548-3.126a78.493,78.493,0,0,1,12.217-3.048c1.511-.26,2.475-.417,2.475-.417s5.913,4.142,11.435,4.037c7.554-.13,11.435-4.037,11.435-4.037s.677.1,1.771.287c4.4.755,15.681,3,18.468,6.3C114.116,112.371,119.873,128.156,119.873,128.156Z" fill="#d6d351"/><path d="M58.321,59.259l2.162,6.408s4.063-1.328,3.725-6.408c0,0,10.081,1.511,12.477-4.4,0,0,3.855,4.61,8.961,2.188,0,0,1.328,5.158,5.731,3.2,0,0-.1,5.731,4.09,5.079S95.049,47.928,92,46.548c-3.048-1.354-15.212-1.563-22.636,1.563C61.89,51.288,58.321,59.259,58.321,59.259Z" fill="#35312f"/><path d="M99.008,78.248a3.514,3.514,0,0,1-1.146-.182,3.624,3.624,0,0,1-2.292-4.584,3.68,3.68,0,0,1,1.667-2.032.228.228,0,0,1,.234.391,3.067,3.067,0,0,0-1.459,1.771,3.171,3.171,0,1,0,6.017,2.006,3.134,3.134,0,0,0-.182-2.422A3.184,3.184,0,0,0,100,71.606a.2.2,0,0,1-.13-.287.222.222,0,0,1,.287-.13,3.617,3.617,0,0,1-1.146,7.059Z" fill="#efbd41"/><circle cx="0.547" cy="0.547" r="0.547" transform="translate(97.055 70.798)" fill="#efbd41"/><path d="M56.706,78.248a3.622,3.622,0,0,1-1.146-7.059.232.232,0,0,1,.287.13.247.247,0,0,1-.13.287,3.171,3.171,0,0,0,2.006,6.017,3.184,3.184,0,0,0,1.849-1.589,3.134,3.134,0,0,0,.182-2.422A3.274,3.274,0,0,0,58.3,71.84a.228.228,0,1,1,.234-.391A3.68,3.68,0,0,1,60.2,73.481a3.517,3.517,0,0,1-.208,2.761,3.653,3.653,0,0,1-2.11,1.823A3.782,3.782,0,0,1,56.706,78.248Z" fill="#efbd41"/><circle cx="0.547" cy="0.547" r="0.547" transform="translate(57.592 70.798)" fill="#efbd41"/></g></g></svg>