<svg width="128" height="128" viewBox="0 0 128 128" fill="none" xmlns="http://www.w3.org/2000/svg">
<path d="M5.1084 90.1255H122.787L122.447 93.538C121.395 101.959 115.408 106.875 109.323 106.875H18.5724C11.6959 106.875 6.31315 100.955 5.4559 93.6005C5.4464 93.524 5.49365 93.9905 5.1084 90.1255Z" fill="black"/>
<path d="M127.919 38.7005L123.537 82.6255H4.36342L0.0839204 39.633C-1.06158 29.5513 9.81267 24.8915 14.8329 30.6605C26.9112 44.5875 28.2042 47.3368 32.2617 46.853C33.7867 46.6675 34.8764 45.9843 35.7814 45.1505C60.3722 21.558 58.7639 23.0858 59.0172 22.8855C62.3267 20.3395 66.5829 20.7595 69.0764 22.8355C93.9237 43.714 92.7724 42.7945 93.3272 43.1105C95.6472 44.4438 98.3832 44.274 100.722 41.9805C114.53 28.4125 113.654 29.258 113.911 29.053C120.227 24.135 128.93 29.85 127.919 38.7005Z" fill="black"/>
</svg>
