<svg xmlns="http://www.w3.org/2000/svg" width="395.221" height="96.734" viewBox="0 0 395.221 96.734">
  <g id="Group_24288" data-name="Group 24288" transform="translate(0 3)">
    <g id="SD_LOGO" data-name="SD LOGO" transform="translate(-797.965 -547.5)">
      <text id="screen_dollars" data-name="screen
dollars" transform="translate(902.842 588.5)" font-size="41" font-family="SegoeUI, Segoe UI"><tspan letter-spacing="0.13em"><tspan x="0" y="0">SCREEN</tspan></tspan><tspan x="0" y="41">DOLLARS</tspan></text>
      <g id="youtube_profile" data-name="youtube profile" transform="translate(797.965 547.5)">
        <circle id="Ellipse_8" data-name="Ellipse 8" cx="46.867" cy="46.867" r="46.867" transform="translate(0 0)" fill="#fff"/>
        <g id="Group_23420" data-name="Group 23420" transform="translate(0 0.434)">
          <path id="Path_19" data-name="Path 19" d="M567.789,196.334c-1.46-4.606-2.256-8.965-7.312-10.508-10.2-3.738-20.386-7.53-30.578-11.3l-.047-.016c-10.314-2.811-13.947-10.5-11.6-20.874,2.608-11.563,12.135-18.208,22.8-20.019V126.4a46.873,46.873,0,0,0,0,92.866v-7.253a36.583,36.583,0,0,1-12.263-4.581c-6.855-3.813-11.538-9.454-13.032-17.377-.583-3-.594-6.894,3.413-6.568,5.422-.039,10.845-.016,16.747-.013a.637.637,0,0,1,.6.834c-1.4,4.264-2.687,8.183-3.967,12.078a.633.633,0,0,0,.929.739l16.339-9.9a.636.636,0,0,1,.655,0l16.381,9.85A.632.632,0,0,0,567.789,196.334Z" transform="translate(-500.587 -126.396)" fill="#b88610"/>
          <path id="Path_20" data-name="Path 20" d="M742.83,126.4v7.329c10.623,1.986,20.11,8.74,22.74,20.181.7,2.983-.6,4.709-3.652,4.755-5.647.085-11.3.028-17.166.025a.637.637,0,0,1-.6-.429c-1.416-4.169-2.821-8.3-4.386-12.912a.634.634,0,0,0-1.2,0c-1.524,4.488-2.908,8.565-4.357,12.833a.636.636,0,0,1-.6.431H718.7a.633.633,0,0,0-.224,1.226c12.718,4.766,25.73,8.986,38.665,13.153a.5.5,0,0,1,.067.025c22.366,9.8,7.906,34.514-14.379,38.863v7.387a46.873,46.873,0,0,0,0-92.866Z" transform="translate(-689.563 -126.396)" fill="#b88610"/>
        </g>
      </g>
    </g>
    <g id="Group_24279" data-name="Group 24279" transform="translate(-676 -1035.886)">
      <rect id="Rectangle_3909" data-name="Rectangle 3909" width="98.72" height="36.864" rx="5" transform="translate(972.501 1085.412)" fill="#b88610"/>
      <path id="Path_53479" data-name="Path 53479" d="M13.776-27.552H2.624V0h6.56V-8.856h5.9c5.822,0,9.184-4.51,9.184-9.512C24.272-23.7,20.951-27.552,13.776-27.552ZM13.735-14.76H9.184v-6.888h4.551c2.173,0,3.977.984,3.977,3.444C17.712-16.031,15.908-14.76,13.735-14.76ZM50.512,0l-6.97-9.471a9.248,9.248,0,0,0,5.658-8.9c0-5.33-3.321-9.184-10.5-9.184H27.552V0h6.56V-8.856h2.706L42.968,0Zm-16.4-21.648h4.551c2.173,0,3.977.984,3.977,3.444,0,2.173-1.8,3.444-3.977,3.444H34.112Zm32.472-6.56a14.6,14.6,0,0,0-14.76,14.432A14.6,14.6,0,0,0,66.584.656a14.6,14.6,0,0,0,14.76-14.432A14.6,14.6,0,0,0,66.584-28.208Zm0,22.96a8.378,8.378,0,0,1-8.2-8.528,8.378,8.378,0,0,1,8.2-8.528,8.378,8.378,0,0,1,8.2,8.528A8.378,8.378,0,0,1,66.584-5.248Z" transform="translate(979.877 1117.62)" fill="#fff"/>
    </g>
  </g>
</svg>
