<?xml version="1.0" standalone="no"?>
<!DOCTYPE svg PUBLIC "-//W3C//DTD SVG 20010904//EN"
 "http://www.w3.org/TR/2001/REC-SVG-20010904/DTD/svg10.dtd">
<svg version="1.0" xmlns="http://www.w3.org/2000/svg"
 width="102.000000pt" height="99.000000pt" viewBox="0 0 102.000000 99.000000"
 preserveAspectRatio="xMidYMid meet">

<g transform="translate(0.000000,99.000000) scale(0.100000,-0.100000)"
fill="#000000" stroke="none">
<path d="M510 932 c-14 -2 -29 -8 -34 -13 -6 -5 -18 -9 -27 -9 -22 0 -46 -37
-60 -97 -7 -26 -18 -55 -26 -64 -12 -14 -12 -18 -1 -23 7 -3 3 -4 -9 -2 -26 5
-31 -11 -8 -20 21 -8 19 -24 -2 -24 -14 -1 -12 -4 7 -15 l25 -14 -25 -1 c-18
0 -21 -3 -11 -9 11 -7 11 -9 0 -14 -10 -4 -7 -8 8 -12 13 -4 20 -11 17 -17 -3
-5 -15 -6 -27 -2 -22 7 -22 6 -3 -15 11 -11 29 -21 40 -21 18 0 19 -2 6 -11
-12 -9 -10 -10 8 -6 13 3 36 1 52 -4 21 -8 27 -15 23 -30 -4 -14 6 -32 33 -60
l38 -39 -30 0 c-16 0 -46 -12 -67 -26 l-38 -26 7 61 c3 34 4 61 0 61 -14 0
-183 -89 -194 -102 -12 -15 -37 -145 -48 -252 l-7 -66 377 0 378 0 -6 38 c-3
20 -13 90 -22 154 -10 64 -20 121 -23 126 -3 5 -47 30 -97 55 l-91 45 8 -46
c12 -74 12 -75 -28 -47 -21 14 -51 25 -67 25 l-30 0 38 39 c26 27 36 45 32 58
-4 13 2 22 24 31 17 8 27 18 24 23 -3 6 4 7 18 4 17 -4 32 0 49 15 l24 20 -27
-6 c-34 -7 -38 11 -5 20 17 5 19 8 8 15 -11 7 -11 9 0 14 8 3 3 6 -10 6 -24 1
-24 1 -5 16 17 13 17 14 2 15 -10 0 -18 3 -18 6 0 4 8 13 18 21 13 10 13 13 2
11 -8 -2 -15 4 -16 12 0 8 -6 28 -12 43 -7 16 -12 37 -12 48 0 63 -97 123
-180 111z"/>
</g>
</svg>
