<?xml version="1.0" standalone="no"?>
<!DOCTYPE svg PUBLIC "-//W3C//DTD SVG 20010904//EN"
 "http://www.w3.org/TR/2001/REC-SVG-20010904/DTD/svg10.dtd">
<svg version="1.0" xmlns="http://www.w3.org/2000/svg"
 width="101.000000pt" height="97.000000pt" viewBox="0 0 101.000000 97.000000"
 preserveAspectRatio="xMidYMid meet">

<g transform="translate(0.000000,97.000000) scale(0.100000,-0.100000)"
fill="#000000" stroke="none">
<path d="M457 892 c-4 -5 -20 -12 -36 -15 -46 -9 -62 -50 -59 -149 1 -70 6
-91 35 -149 18 -37 33 -74 33 -81 0 -21 -47 -61 -120 -104 -101 -59 -107 -67
-114 -165 -4 -46 -9 -105 -12 -131 l-6 -48 375 0 c207 0 378 3 380 8 6 10 -9
152 -24 230 -14 78 -29 93 -133 132 -45 17 -89 35 -100 41 -11 7 -16 7 -12 0
4 -5 -5 -39 -20 -76 -20 -50 -29 -63 -39 -55 -10 8 -20 -16 -46 -107 l-34
-117 -3 110 c-2 75 1 117 10 133 10 19 10 25 1 28 -24 8 -13 28 37 71 30 26
55 40 63 36 9 -5 9 -4 0 7 -20 20 -15 84 8 124 26 43 32 174 10 213 -22 41
-177 92 -194 64z m18 -512 c-9 -10 -11 -20 -4 -31 5 -11 3 -55 -6 -120 -8 -57
-15 -108 -16 -114 -2 -22 -18 65 -25 137 -5 57 -10 75 -20 71 -9 -3 -14 9 -16
49 -2 42 1 58 17 76 l20 24 32 -39 c27 -32 30 -40 18 -53z"/>
</g>
</svg>
