<svg width="102" height="102" viewBox="0 0 102 102" fill="none" xmlns="http://www.w3.org/2000/svg">
<rect x="0.5" y="0.5" width="101" height="101" rx="4.5" stroke="#707070"/>
<path d="M86.575 25.3274C86.4421 25.1919 86.2867 25.0948 86.12 25.043C85.9533 24.9913 85.7794 24.9861 85.6109 25.0281C74.2157 27.8739 62.6227 29.316 51 29.3334C39.3773 29.316 27.7843 27.8739 16.389 25.0281C16.2206 24.9861 16.0467 24.9912 15.88 25.043C15.7133 25.0948 15.5579 25.1919 15.425 25.3274C15.2922 25.4629 15.1851 25.6334 15.1116 25.8266C15.0381 26.0197 15 26.2308 15 26.4445V75.5555C15 75.7692 15.0381 75.9803 15.1116 76.1734C15.1851 76.3666 15.2922 76.5371 15.425 76.6726C15.5579 76.8081 15.7133 76.9052 15.88 76.957C16.0467 77.0088 16.2206 77.0139 16.389 76.9719C27.7843 74.1261 39.3773 72.684 51 72.6666C62.6227 72.684 74.2157 74.1261 85.6109 76.9719C85.7794 77.0139 85.9533 77.0088 86.12 76.957C86.2867 76.9052 86.4421 76.8081 86.575 76.6726C86.7078 76.5371 86.8149 76.3666 86.8884 76.1734C86.9619 75.9803 87 75.7692 87 75.5555V26.4445C87 26.2308 86.9619 26.0197 86.8884 25.8266C86.8149 25.6334 86.7078 25.4629 86.575 25.3274ZM84.6774 73.8005C73.5788 71.1405 62.3027 69.7936 51 69.7777C39.6973 69.7936 28.4212 71.1405 17.3226 73.8005V28.1995C28.4212 30.8595 39.6973 32.2064 51 32.2223C62.3027 32.2064 73.5788 30.8595 84.6774 28.1995V73.8005Z" fill="black"/>
<path d="M35.8728 48.6232C35.8728 49.1986 35.6985 49.6879 35.3499 50.0912C35.0012 50.4944 34.5119 50.7716 33.8819 50.9228V50.9606C34.6253 51.053 35.1881 51.2798 35.5704 51.6411C35.9526 51.9981 36.1437 52.4811 36.1437 53.0902C36.1437 53.9764 35.8224 54.6674 35.1797 55.163C34.5371 55.6544 33.6193 55.9001 32.4265 55.9001C31.4268 55.9001 30.5405 55.7342 29.7677 55.4024V53.7454C30.1247 53.926 30.5174 54.073 30.9459 54.1864C31.3743 54.2998 31.7985 54.3565 32.2186 54.3565C32.8612 54.3565 33.3358 54.2473 33.6424 54.0289C33.9491 53.8105 34.1024 53.4598 34.1024 52.9768C34.1024 52.5441 33.926 52.2375 33.5731 52.0569C33.2203 51.8763 32.6575 51.786 31.8846 51.786H31.1853V50.2928H31.8972C32.6113 50.2928 33.1321 50.2004 33.4597 50.0156C33.7916 49.8266 33.9575 49.5052 33.9575 49.0516C33.9575 48.3544 33.5206 48.0057 32.647 48.0057C32.3446 48.0057 32.0358 48.0561 31.7208 48.1569C31.41 48.2578 31.0635 48.4321 30.6813 48.6799L29.7803 47.3379C30.6204 46.7331 31.6221 46.4306 32.7856 46.4306C33.7391 46.4306 34.4909 46.6238 35.0411 47.0103C35.5956 47.3967 35.8728 47.9343 35.8728 48.6232Z" fill="black"/>
<path d="M40.5162 49.8896C41.4066 49.8896 42.1144 50.1395 42.6394 50.6393C43.1687 51.1391 43.4333 51.8238 43.4333 52.6932C43.4333 53.7223 43.1162 54.5141 42.4819 55.0685C41.8477 55.6229 40.9404 55.9001 39.7601 55.9001C38.7353 55.9001 37.9078 55.7342 37.2778 55.4024V53.7202C37.6096 53.8966 37.996 54.0415 38.4371 54.1549C38.8781 54.2641 39.296 54.3187 39.6908 54.3187C40.8795 54.3187 41.4738 53.8315 41.4738 52.857C41.4738 51.9288 40.8585 51.4647 39.6278 51.4647C39.4052 51.4647 39.1595 51.4878 38.8907 51.534C38.6219 51.576 38.4035 51.6222 38.2354 51.6726L37.4605 51.2567L37.807 46.5629H42.8032V48.2136H39.5144L39.3443 50.0219L39.5648 49.9778C39.821 49.919 40.1382 49.8896 40.5162 49.8896Z" fill="black"/>
<path d="M54.6858 55.7741H52.7642V51.66C52.7642 51.1517 52.6781 50.7716 52.5059 50.5196C52.3378 50.2634 52.0711 50.1353 51.7057 50.1353C51.2143 50.1353 50.8572 50.3159 50.6346 50.6771C50.412 51.0383 50.3007 51.6327 50.3007 52.4601V55.7741H48.3791V48.7303H49.8471L50.1054 49.6312H50.2125C50.4015 49.3078 50.6745 49.0558 51.0316 48.8752C51.3886 48.6904 51.7981 48.598 52.2601 48.598C53.3144 48.598 54.0285 48.9424 54.4023 49.6312H54.5724C54.7614 49.3036 55.0386 49.0495 55.404 48.8689C55.7737 48.6883 56.1895 48.598 56.6515 48.598C57.4496 48.598 58.0523 48.8038 58.4597 49.2154C58.8714 49.6228 59.0772 50.2781 59.0772 51.1811V55.7741H57.1493V51.66C57.1493 51.1517 57.0631 50.7716 56.8909 50.5196C56.7229 50.2634 56.4562 50.1353 56.0908 50.1353C55.6204 50.1353 55.2675 50.3033 55.0323 50.6393C54.8013 50.9753 54.6858 51.5088 54.6858 52.2396V55.7741Z" fill="black"/>
<path d="M67.3622 55.7741H65.4406V51.66C65.4406 51.1517 65.3545 50.7716 65.1823 50.5196C65.0143 50.2634 64.7475 50.1353 64.3821 50.1353C63.8907 50.1353 63.5337 50.3159 63.311 50.6771C63.0884 51.0383 62.9771 51.6327 62.9771 52.4601V55.7741H61.0555V48.7303H62.5235L62.7818 49.6312H62.8889C63.0779 49.3078 63.3509 49.0558 63.708 48.8752C64.065 48.6904 64.4745 48.598 64.9365 48.598C65.9908 48.598 66.7049 48.9424 67.0787 49.6312H67.2488C67.4378 49.3036 67.715 49.0495 68.0805 48.8689C68.4501 48.6883 68.8659 48.598 69.3279 48.598C70.126 48.598 70.7287 48.8038 71.1361 49.2154C71.5478 49.6228 71.7536 50.2781 71.7536 51.1811V55.7741H69.8257V51.66C69.8257 51.1517 69.7396 50.7716 69.5673 50.5196C69.3993 50.2634 69.1326 50.1353 68.7672 50.1353C68.2968 50.1353 67.9439 50.3033 67.7087 50.6393C67.4777 50.9753 67.3622 51.5088 67.3622 52.2396V55.7741Z" fill="black"/>
</svg>
