<svg width="102" height="102" viewBox="0 0 102 102" fill="none" xmlns="http://www.w3.org/2000/svg">
<rect x="0.5" y="0.5" width="101" height="101" rx="4.5" fill="white"/>
<rect x="0.5" y="0.5" width="101" height="101" rx="4.5" stroke="#707070"/>
<path fill-rule="evenodd" clip-rule="evenodd" d="M48.333 79.4444C62.108 79.4672 75.8479 81.3604 89.3534 85.0965C89.5531 85.1516 89.7591 85.1449 89.9567 85.0769C90.1543 85.0089 90.3385 84.8814 90.4959 84.7035C90.6534 84.5257 90.7803 84.3018 90.8674 84.0482C90.9545 83.7946 90.9997 83.5176 90.9997 83.237V18.7631C90.9997 18.4825 90.9545 18.2054 90.8674 17.9518C90.7803 17.6982 90.6534 17.4744 90.4959 17.2965C90.3385 17.1187 90.1543 16.9911 89.9567 16.9232C89.7591 16.8552 89.5531 16.8485 89.3534 16.9035C75.8479 20.6397 62.108 22.5329 48.333 22.5557V26.3482C61.7288 26.3274 75.0931 24.5591 88.247 21.0671V80.933C75.0931 77.4409 61.7288 75.6727 48.333 75.6518V79.4444Z" fill="black"/>
<path d="M49.3999 23.2666L49.3999 78.7333" stroke="black" stroke-width="3.2"/>
<path d="M63.9729 49.2666L67.4042 41.7666H62.8979V40.1416H69.4542V41.3541L65.9979 49.2666H63.9729ZM76.7167 44.6979C76.7167 46.2937 76.4542 47.4749 75.9292 48.2416C75.4084 49.0083 74.6042 49.3916 73.5167 49.3916C72.4625 49.3916 71.6667 48.9958 71.1292 48.2041C70.5959 47.4124 70.3292 46.2437 70.3292 44.6979C70.3292 43.0854 70.5896 41.8979 71.1104 41.1354C71.6313 40.3687 72.4334 39.9854 73.5167 39.9854C74.5709 39.9854 75.3667 40.3854 75.9042 41.1854C76.4459 41.9854 76.7167 43.1562 76.7167 44.6979ZM72.2479 44.6979C72.2479 45.8187 72.3438 46.6229 72.5354 47.1104C72.7313 47.5937 73.0584 47.8354 73.5167 47.8354C73.9667 47.8354 74.2917 47.5895 74.4917 47.0979C74.6917 46.6062 74.7917 45.8062 74.7917 44.6979C74.7917 43.577 74.6896 42.7729 74.4854 42.2854C74.2854 41.7937 73.9625 41.5479 73.5167 41.5479C73.0625 41.5479 72.7375 41.7937 72.5417 42.2854C72.3459 42.7729 72.2479 43.577 72.2479 44.6979ZM64.5479 59.2666H62.6417V55.1854C62.6417 54.6812 62.5563 54.3041 62.3854 54.0541C62.2188 53.7999 61.9542 53.6729 61.5917 53.6729C61.1042 53.6729 60.75 53.852 60.5292 54.2104C60.3084 54.5687 60.1979 55.1583 60.1979 55.9791V59.2666H58.2917V52.2791H59.7479L60.0042 53.1729H60.1104C60.2979 52.852 60.5688 52.602 60.9229 52.4229C61.2771 52.2395 61.6834 52.1479 62.1417 52.1479C63.1875 52.1479 63.8959 52.4895 64.2667 53.1729H64.4354C64.6229 52.8479 64.8979 52.5958 65.2604 52.4166C65.6271 52.2374 66.0396 52.1479 66.4979 52.1479C67.2896 52.1479 67.8875 52.352 68.2917 52.7604C68.7 53.1645 68.9042 53.8145 68.9042 54.7104V59.2666H66.9917V55.1854C66.9917 54.6812 66.9063 54.3041 66.7354 54.0541C66.5688 53.7999 66.3042 53.6729 65.9417 53.6729C65.475 53.6729 65.125 53.8395 64.8917 54.1729C64.6625 54.5062 64.5479 55.0354 64.5479 55.7604V59.2666ZM77.1229 59.2666H75.2167V55.1854C75.2167 54.6812 75.1313 54.3041 74.9604 54.0541C74.7938 53.7999 74.5292 53.6729 74.1667 53.6729C73.6792 53.6729 73.325 53.852 73.1042 54.2104C72.8834 54.5687 72.7729 55.1583 72.7729 55.9791V59.2666H70.8667V52.2791H72.3229L72.5792 53.1729H72.6854C72.8729 52.852 73.1438 52.602 73.4979 52.4229C73.8521 52.2395 74.2584 52.1479 74.7167 52.1479C75.7625 52.1479 76.4709 52.4895 76.8417 53.1729H77.0104C77.1979 52.8479 77.4729 52.5958 77.8354 52.4166C78.2021 52.2374 78.6146 52.1479 79.073 52.1479C79.8646 52.1479 80.4625 52.352 80.8667 52.7604C81.275 53.1645 81.4792 53.8145 81.4792 54.7104V59.2666H79.5667V55.1854C79.5667 54.6812 79.4813 54.3041 79.3105 54.0541C79.1438 53.7999 78.8792 53.6729 78.5167 53.6729C78.05 53.6729 77.7 53.8395 77.4667 54.1729C77.2375 54.5062 77.1229 55.0354 77.1229 55.7604V59.2666Z" fill="black"/>
<path fill-rule="evenodd" clip-rule="evenodd" d="M49.4 27.8889C37.0025 27.8704 24.6366 26.3321 12.4817 23.2965C12.3019 23.2518 12.1165 23.2573 11.9387 23.3125C11.7608 23.3677 11.5951 23.4713 11.4534 23.6158C11.3116 23.7604 11.1974 23.9422 11.1191 24.1483C11.0407 24.3543 11 24.5794 11 24.8074V77.1925C11 77.4204 11.0407 77.6455 11.1191 77.8516C11.1974 78.0576 11.3116 78.2395 11.4534 78.384C11.5951 78.5286 11.7608 78.6322 11.9387 78.6874C12.1165 78.7426 12.3019 78.7481 12.4817 78.7033C24.6366 75.6677 37.0025 74.1295 49.4 74.111V71.0295C37.3438 71.0464 25.3159 72.4832 13.4774 75.3205V26.6794C25.3159 29.5167 37.3438 30.9534 49.4 30.9704V27.8889Z" fill="black"/>
<path d="M49.3999 28.6001L49.3999 74.4668" stroke="black" stroke-width="3.2"/>
<path d="M29.6312 43.2397C29.6312 43.8106 29.4582 44.296 29.1124 44.696C28.7666 45.096 28.2812 45.371 27.6562 45.521V45.5585C28.3937 45.6502 28.952 45.8752 29.3312 46.2335C29.7103 46.5877 29.8999 47.0668 29.8999 47.671C29.8999 48.5502 29.5812 49.2356 28.9437 49.7272C28.3062 50.2147 27.3957 50.4585 26.2124 50.4585C25.2207 50.4585 24.3416 50.2939 23.5749 49.9647V48.321C23.9291 48.5002 24.3187 48.646 24.7437 48.7585C25.1687 48.871 25.5895 48.9272 26.0062 48.9272C26.6437 48.9272 27.1145 48.8189 27.4187 48.6022C27.7228 48.3856 27.8749 48.0377 27.8749 47.5585C27.8749 47.1293 27.6999 46.8252 27.3499 46.646C26.9999 46.4668 26.4416 46.3772 25.6749 46.3772H24.9812V44.896H25.6874C26.3957 44.896 26.9124 44.8043 27.2374 44.621C27.5666 44.4335 27.7312 44.1147 27.7312 43.6647C27.7312 42.9731 27.2978 42.6272 26.4312 42.6272C26.1312 42.6272 25.8249 42.6772 25.5124 42.7772C25.2041 42.8772 24.8603 43.0502 24.4812 43.296L23.5874 41.9647C24.4207 41.3647 25.4145 41.0647 26.5687 41.0647C27.5145 41.0647 28.2603 41.2564 28.8062 41.6397C29.3562 42.0231 29.6312 42.5564 29.6312 43.2397ZM34.2374 44.496C35.1207 44.496 35.8228 44.7439 36.3437 45.2397C36.8687 45.7356 37.1312 46.4147 37.1312 47.2772C37.1312 48.2981 36.8166 49.0835 36.1874 49.6335C35.5582 50.1835 34.6582 50.4585 33.4874 50.4585C32.4707 50.4585 31.6499 50.2939 31.0249 49.9647V48.296C31.3541 48.471 31.7374 48.6147 32.1749 48.7272C32.6124 48.8356 33.027 48.8897 33.4187 48.8897C34.5978 48.8897 35.1874 48.4064 35.1874 47.4397C35.1874 46.5189 34.577 46.0585 33.3562 46.0585C33.1353 46.0585 32.8916 46.0814 32.6249 46.1272C32.3582 46.1689 32.1416 46.2147 31.9749 46.2647L31.2062 45.8522L31.5499 41.196H36.5062V42.8335H33.2437L33.0749 44.6272L33.2937 44.5835C33.5478 44.5252 33.8624 44.496 34.2374 44.496ZM25.0812 60.3335H23.1749V56.2522C23.1749 55.7481 23.0895 55.371 22.9187 55.121C22.752 54.8668 22.4874 54.7397 22.1249 54.7397C21.6374 54.7397 21.2832 54.9189 21.0624 55.2772C20.8416 55.6356 20.7312 56.2252 20.7312 57.046V60.3335H18.8249V53.346H20.2812L20.5374 54.2397H20.6437C20.8312 53.9189 21.102 53.6689 21.4562 53.4897C21.8103 53.3064 22.2166 53.2147 22.6749 53.2147C23.7207 53.2147 24.4291 53.5564 24.7999 54.2397H24.9687C25.1562 53.9147 25.4312 53.6627 25.7937 53.4835C26.1603 53.3043 26.5728 53.2147 27.0312 53.2147C27.8228 53.2147 28.4207 53.4189 28.8249 53.8272C29.2332 54.2314 29.4374 54.8814 29.4374 55.7772V60.3335H27.5249V56.2522C27.5249 55.7481 27.4395 55.371 27.2687 55.121C27.102 54.8668 26.8374 54.7397 26.4749 54.7397C26.0082 54.7397 25.6582 54.9064 25.4249 55.2397C25.1957 55.5731 25.0812 56.1022 25.0812 56.8272V60.3335ZM37.6562 60.3335H35.7499V56.2522C35.7499 55.7481 35.6645 55.371 35.4937 55.121C35.327 54.8668 35.0624 54.7397 34.6999 54.7397C34.2124 54.7397 33.8582 54.9189 33.6374 55.2772C33.4166 55.6356 33.3062 56.2252 33.3062 57.046V60.3335H31.3999V53.346H32.8562L33.1124 54.2397H33.2187C33.4062 53.9189 33.677 53.6689 34.0312 53.4897C34.3853 53.3064 34.7916 53.2147 35.2499 53.2147C36.2957 53.2147 37.0041 53.5564 37.3749 54.2397H37.5437C37.7312 53.9147 38.0062 53.6627 38.3687 53.4835C38.7353 53.3043 39.1478 53.2147 39.6062 53.2147C40.3978 53.2147 40.9957 53.4189 41.3999 53.8272C41.8082 54.2314 42.0124 54.8814 42.0124 55.7772V60.3335H40.0999V56.2522C40.0999 55.7481 40.0145 55.371 39.8437 55.121C39.677 54.8668 39.4124 54.7397 39.0499 54.7397C38.5832 54.7397 38.2332 54.9064 37.9999 55.2397C37.7707 55.5731 37.6562 56.1022 37.6562 56.8272V60.3335Z" fill="black"/>
</svg>
