<svg width="102" height="102" viewBox="0 0 102 102" fill="none" xmlns="http://www.w3.org/2000/svg">
<rect x="0.5" y="0.5" width="101" height="101" rx="4.5" stroke="#707070"/>
<path d="M28.2836 32.6554L32.3364 28.6943C33.7367 27.3258 35.6169 26.5596 37.5748 26.5596H41.4912C43.6422 26.5596 45.3858 28.3033 45.3858 30.4542C45.3858 31.4147 44.6072 32.1934 43.6465 32.1934H38.503C37.4233 32.1934 36.4155 32.7347 35.8191 33.6349L25.8893 48.625" stroke="black" stroke-width="3" stroke-miterlimit="10" stroke-linecap="round" stroke-linejoin="round"/>
<path d="M12.0405 48.5308L24.4703 36.3824" stroke="black" stroke-width="3" stroke-miterlimit="10" stroke-linecap="round" stroke-linejoin="round"/>
<path d="M90.0557 48.625L69.6635 28.6943C68.2632 27.3258 66.383 26.5596 64.4252 26.5596H60.5087C58.3577 26.5596 56.6141 28.3033 56.6141 30.4542C56.6141 31.4147 57.3927 32.1934 58.3534 32.1934H63.4969C64.5766 32.1934 65.5844 32.7347 66.1808 33.6349L76.1106 48.625" stroke="black" stroke-width="3" stroke-miterlimit="10" stroke-linecap="round" stroke-linejoin="round"/>
<path d="M89.4526 48.6249H12.5474C11.6928 48.6249 11 49.3155 11 50.1672V70.8398C11 71.6917 11.6928 72.382 12.5474 72.382H14.8865L15.9323 74.3663C16.1367 75.0059 16.7331 75.4404 17.4068 75.4404H39.6262C42.8514 75.4404 45.7646 73.5191 47.0254 70.5604L48.4432 67.2332C49.4127 64.958 52.6485 64.958 53.618 67.2332L55.0357 70.5604C56.2966 73.5191 59.2096 75.4404 62.435 75.4404H84.6546C85.3282 75.4404 85.9244 75.0059 86.129 74.3663L87.1748 72.382H89.4526C90.3072 72.382 91 71.6915 91 70.8398V50.1672C91 49.3153 90.3072 48.6249 89.4526 48.6249Z" stroke="black" stroke-width="3" stroke-miterlimit="10" stroke-linecap="round" stroke-linejoin="round"/>
<path d="M38.7222 69.2762H21.254C19.476 69.2762 18.0347 67.8349 18.0347 66.0569V58.0086C18.0347 56.2306 19.476 54.7893 21.254 54.7893H38.7222C40.5002 54.7893 41.9415 56.2306 41.9415 58.0086V66.0569C41.9415 67.8347 40.5002 69.2762 38.7222 69.2762Z" stroke="black" stroke-width="3" stroke-miterlimit="10" stroke-linecap="round" stroke-linejoin="round"/>
<path d="M78.8403 69.2762H80.746C82.524 69.2762 83.9653 67.8349 83.9653 66.0569V58.0086C83.9653 56.2306 82.524 54.7893 80.746 54.7893H63.2778C61.4998 54.7893 60.0585 56.2306 60.0585 58.0086V66.0569C60.0585 67.8349 61.4998 69.2762 63.2778 69.2762H74.0192" stroke="black" stroke-width="3" stroke-miterlimit="10" stroke-linecap="round" stroke-linejoin="round"/>
<path d="M21.8652 61.1672L24.159 58.8735" stroke="black" stroke-width="3" stroke-miterlimit="10" stroke-linecap="round" stroke-linejoin="round"/>
<path d="M25.0845 65.2719L31.4829 58.8735" stroke="black" stroke-width="3" stroke-miterlimit="10" stroke-linecap="round" stroke-linejoin="round"/>
<path d="M64.1451 61.1672L66.4389 58.8735" stroke="black" stroke-width="3" stroke-miterlimit="10" stroke-linecap="round" stroke-linejoin="round"/>
<path d="M67.3644 65.2719L73.7628 58.8735" stroke="black" stroke-width="3" stroke-miterlimit="10" stroke-linecap="round" stroke-linejoin="round"/>
</svg>
