<svg width="102" height="102" viewBox="0 0 102 102" fill="none" xmlns="http://www.w3.org/2000/svg">
<rect x="0.5" y="0.5" width="101" height="101" rx="4.5" stroke="#707070"/>
<path d="M66.4185 61.3125C67.0656 61.3125 67.5903 60.7878 67.5903 60.1406C67.5903 59.4934 67.0656 58.9688 66.4185 58.9688H64.0747C63.4275 58.9688 62.9028 59.4934 62.9028 60.1406C62.9028 60.7878 63.4275 61.3125 64.0747 61.3125H66.4185Z" fill="black"/>
<path d="M59.3872 61.3125C60.0344 61.3125 60.5591 60.7878 60.5591 60.1406C60.5591 59.4934 60.0344 58.9688 59.3872 58.9688H57.0435C56.3963 58.9688 55.8716 59.4934 55.8716 60.1406C55.8716 60.7878 56.3963 61.3125 57.0435 61.3125H59.3872Z" fill="black"/>
<path d="M52.356 61.3125C53.0031 61.3125 53.5278 60.7878 53.5278 60.1406C53.5278 59.4934 53.0031 58.9688 52.356 58.9688H50.0122C49.365 58.9688 48.8403 59.4934 48.8403 60.1406C48.8403 60.7878 49.365 61.3125 50.0122 61.3125H52.356Z" fill="black"/>
<path d="M74.2309 37.2811C74.8781 37.2811 75.4028 36.7564 75.4028 36.1092V22.7188H78.8906C79.5378 22.7188 80.0625 22.1941 80.0625 21.5469V12.1719C80.0625 11.5247 79.5378 11 78.8906 11H39.5017C38.8545 11 38.3298 11.5247 38.3298 12.1719C38.3298 12.8191 38.8545 13.3438 39.5017 13.3438H48.7178L55.7491 20.375H24.2812V13.3438H34.8142C35.4614 13.3438 35.9861 12.8191 35.9861 12.1719C35.9861 11.5247 35.4614 11 34.8142 11H23.1094C22.4622 11 21.9375 11.5247 21.9375 12.1719V21.5469C21.9375 22.1941 22.4622 22.7188 23.1094 22.7188H26.5972V55.1778L22.06 64.3064C21.9794 64.4686 21.9375 64.6472 21.9375 64.8281V77.3545C21.9375 78.0017 22.4622 78.5264 23.1094 78.5264C23.7566 78.5264 24.2812 78.0017 24.2812 77.3545V66H77.7188V88.6562H24.2812V82.042C24.2812 81.3948 23.7566 80.8702 23.1094 80.8702C22.4622 80.8702 21.9375 81.3948 21.9375 82.042V89.8281C21.9375 90.4753 22.4622 91 23.1094 91H78.8906C79.5378 91 80.0625 90.4753 80.0625 89.8281V64.8281C80.0625 64.6472 80.0205 64.4686 79.94 64.3066L75.4028 55.178V40.7967C75.4028 40.1495 74.8781 39.6248 74.2309 39.6248C73.5838 39.6248 73.0591 40.1495 73.0591 40.7967V54.2812H42.1731C42.6906 53.6689 43.0034 52.8783 43.0034 52.0156C43.0034 51.9536 43.0017 51.892 42.9986 51.8308C45.4797 51.9017 48.2328 51.9378 50.9989 51.9378C53.5511 51.9378 56.1142 51.9072 58.4808 51.8452C68.3763 51.5859 68.9744 50.9878 69.37 50.592C69.7648 50.1972 70.1744 49.5144 70.4609 45.962C70.625 43.9292 70.7153 41.2792 70.7153 38.5C70.7153 35.7208 70.625 33.0706 70.4609 31.038C70.1744 27.4856 69.7648 26.8028 69.37 26.408C68.9983 26.0361 68.5767 25.6147 62.7441 25.3147C59.5837 25.152 55.4128 25.0625 51 25.0625C46.5872 25.0625 42.4162 25.152 39.2559 25.3145C33.4233 25.6145 33.0019 26.0359 32.63 26.4078C32.2352 26.8027 31.8256 27.4855 31.5391 31.0378C31.375 33.0706 31.2847 35.7206 31.2847 38.4998C31.2847 41.2791 31.375 43.9292 31.5391 45.9619C31.8256 49.5142 32.2352 50.197 32.6298 50.5919C32.9673 50.9294 33.4631 51.2145 36.0166 51.4591C35.9877 51.6403 35.972 51.8261 35.972 52.0155C35.972 53.5433 36.9519 54.8458 38.3158 55.3295V58.9688H37.1439C36.4967 58.9688 35.972 59.4934 35.972 60.1406C35.972 60.7878 36.4967 61.3125 37.1439 61.3125H41.8314C42.4786 61.3125 43.0033 60.7878 43.0033 60.1406C43.0033 59.4934 42.4786 58.9688 41.8314 58.9688H40.6595V56.625H73.5047L76.9994 63.6562H25.0005L28.4952 56.625H33.5722C34.2194 56.625 34.7441 56.1003 34.7441 55.4531C34.7441 54.8059 34.2194 54.2812 33.5722 54.2812H28.9409V22.7188H73.0591V36.1092C73.0591 36.7564 73.5838 37.2811 74.2309 37.2811ZM39.4878 50.8438C40.1341 50.8438 40.6597 51.3694 40.6597 52.0156C40.6597 52.6619 40.1341 53.1875 39.4878 53.1875C38.8416 53.1875 38.3159 52.6619 38.3159 52.0156C38.3159 51.3694 38.8416 50.8438 39.4878 50.8438ZM33.6284 38.5C33.6284 32.6956 34.0031 29.1258 34.3067 28.1405C35.7375 27.7727 41.7975 27.4062 51 27.4062C60.2025 27.4062 66.2625 27.7727 67.6933 28.1405C67.9969 29.1258 68.3716 32.6956 68.3716 38.5C68.3716 44.3091 67.9964 47.8798 67.6927 48.8619C65.3558 49.487 51.9853 49.8008 41.8889 49.4511C41.26 48.8619 40.4156 48.5 39.4878 48.5C38.6883 48.5 37.9506 48.7688 37.3594 49.22C35.4694 49.0794 34.6433 48.9342 34.3048 48.8531C34.0014 47.8589 33.6284 44.2922 33.6284 38.5ZM68.4384 20.375L61.4072 13.3438H67.4677L74.4989 20.375H68.4384ZM77.7188 20.2803L70.7822 13.3438H77.7188V20.2803ZM52.0322 13.3438H58.0927L65.1239 20.375H59.0634L52.0322 13.3438Z" fill="black"/>
<path d="M69.5435 83.1875C71.8706 83.1875 73.3295 82.5691 74.1438 82.0505C74.9322 81.5483 75.4028 80.6873 75.4028 79.7478V71.7834C75.4028 70.8438 74.9322 69.983 74.1438 69.4808C73.3295 68.962 71.8705 68.3438 69.5435 68.3438C67.2163 68.3438 65.7572 68.9622 64.9431 69.4808C64.1549 69.983 63.6841 70.8438 63.6841 71.7834V79.7478C63.6841 80.6875 64.1547 81.5483 64.943 82.0505C65.7572 82.5691 67.2163 83.1875 69.5435 83.1875ZM66.0278 71.7834C66.0278 71.6489 66.093 71.527 66.2024 71.4575C66.7538 71.1063 67.781 70.6875 69.5435 70.6875C71.306 70.6875 72.3331 71.1063 72.8846 71.4575C72.9938 71.527 73.0591 71.6489 73.0591 71.7834V79.7478C73.0591 79.8823 72.9939 80.0042 72.8846 80.0737C72.3331 80.425 71.306 80.8438 69.5435 80.8438C67.781 80.8438 66.7538 80.425 66.2022 80.0737C66.093 80.0042 66.0278 79.8823 66.0278 79.7478V71.7834Z" fill="black"/>
<path d="M69.5435 78.5C70.1906 78.5 70.7153 77.9753 70.7153 77.3281V74.2031C70.7153 73.5559 70.1906 73.0312 69.5435 73.0312C68.8963 73.0312 68.3716 73.5559 68.3716 74.2031V77.3281C68.3716 77.9753 68.8963 78.5 69.5435 78.5Z" fill="black"/>
</svg>
