<svg width="102" height="102" viewBox="0 0 102 102" fill="none" xmlns="http://www.w3.org/2000/svg">
<rect x="0.5" y="0.5" width="101" height="101" rx="4.5" stroke="#707070"/>
<path d="M73.2459 77.1369C72.5987 77.1369 72.074 77.6616 72.074 78.3088C72.074 82.7205 69.235 86.6689 65.1706 87.9101L65.087 87.9354C60.3038 89.3694 55.0458 88.6472 49.8815 85.8465C40.9847 81.0214 33.4967 70.7293 29.851 58.3151C25.9194 44.927 27.1083 31.0995 32.954 22.2286C33.3101 21.6881 33.1607 20.9614 32.6202 20.6052C32.0796 20.2491 31.3529 20.3984 30.9968 20.9389C27.9775 25.5208 26.052 31.4165 25.4288 37.9888C24.7916 44.7071 25.5431 51.9641 27.6021 58.9754C31.4198 71.9753 39.3306 82.7907 48.7642 87.9067C52.5519 89.9608 56.4055 91.0001 60.142 91C62.0529 91 63.9337 90.728 65.7583 90.1809L65.8545 90.1517C70.8963 88.612 74.4174 83.7418 74.4174 78.3086C74.4177 77.6616 73.8931 77.1369 73.2459 77.1369Z" fill="black"/>
<path d="M74.2239 28.2348C70.0687 21.9425 65.022 17.0595 59.6295 14.1137C53.9293 10.9996 48.0858 10.2024 42.7313 11.8077C39.5433 12.7635 36.5198 14.5579 34.2176 16.8601C33.76 17.3178 33.76 18.0598 34.2176 18.5173C34.6753 18.975 35.4173 18.975 35.8748 18.5173C37.9075 16.4846 40.5816 14.899 43.4043 14.0527C48.1458 12.6312 53.3677 13.3635 58.5059 16.1704C63.5639 18.9336 68.3229 23.5519 72.2679 29.5262C73.9715 32.1061 74.7479 35.9719 74.3446 39.8674C73.9337 43.8367 72.3976 47.282 69.9972 49.6528C68.8079 48.7991 67.4635 48.1495 66.0138 47.7561C67.848 45.825 69.155 43.4004 69.7596 40.7483C70.5016 37.4932 70.079 34.2566 68.6002 31.8682C65.452 26.7844 61.515 22.7885 57.2148 20.3122C52.8999 17.8276 48.439 17.0848 44.6545 18.2206C39.23 19.8469 35.1462 24.9111 33.1554 32.4806C31.219 39.8435 31.5284 48.5828 34.0264 57.089C35.9794 63.7388 39.1035 69.7624 43.0612 74.5087C43.2929 74.7867 43.6262 74.9301 43.9618 74.9301C44.2263 74.9301 44.4926 74.8411 44.7117 74.6583C45.2087 74.2437 45.2757 73.5048 44.8612 73.0078C41.1074 68.506 38.1383 62.7731 36.2752 56.4287C33.8956 48.3261 33.5928 40.0329 35.4222 33.0769C37.1972 26.3273 40.715 21.8486 45.3279 20.4656C52.0078 18.46 60.7585 23.6569 66.6075 33.1022C68.858 36.7364 67.9324 43.4604 63.0169 47.3276C62.9306 47.3259 62.8451 47.3211 62.7584 47.3211C55.8963 47.3211 50.3137 52.9038 50.3137 59.7657C50.3137 60.8201 50.4467 61.8439 50.6947 62.8223C49.553 60.8089 48.9 58.4835 48.9 56.0082C48.9 48.3666 55.1169 42.1498 62.7584 42.1498C63.4056 42.1498 63.9303 41.6251 63.9303 40.9779C63.9303 40.3307 63.4056 39.806 62.7584 39.806C53.8244 39.806 46.5562 47.0744 46.5562 56.0082C46.5562 64.9421 53.8246 72.2106 62.7584 72.2106C69.6205 72.2106 75.2031 66.6278 75.2031 59.7657C75.2031 56.4451 73.8932 53.4266 71.7663 51.1928C74.4817 48.4458 76.2159 44.5525 76.6759 40.1085C77.1333 35.6914 76.2167 31.2526 74.2239 28.2348ZM62.7586 69.8669C57.1888 69.8669 52.6577 65.3356 52.6577 59.7659C52.6577 54.1961 57.189 49.665 62.7586 49.665C68.3282 49.665 72.8595 54.1961 72.8595 59.7659C72.8595 65.3356 68.3282 69.8669 62.7586 69.8669Z" fill="black"/>
<path d="M62.7585 52.3315C60.0404 52.3315 57.8291 54.5427 57.8291 57.2608C57.8291 59.9789 60.0404 62.1902 62.7585 62.1902C65.4766 62.1902 67.6878 59.9789 67.6878 57.2608C67.6878 54.5427 65.4766 52.3315 62.7585 52.3315ZM62.7585 59.8466C61.3327 59.8466 60.1729 58.6868 60.1729 57.261C60.1729 55.8352 61.3327 54.6754 62.7585 54.6754C64.1843 54.6754 65.3441 55.8352 65.3441 57.261C65.3441 58.6868 64.1843 59.8466 62.7585 59.8466Z" fill="black"/>
<path d="M64.011 64.8569H61.506C60.8588 64.8569 60.3341 65.3816 60.3341 66.0287C60.3341 66.6759 60.8588 67.2006 61.506 67.2006H64.011C64.6582 67.2006 65.1829 66.6759 65.1829 66.0287C65.1829 65.3816 64.6582 64.8569 64.011 64.8569Z" fill="black"/>
</svg>
