<svg width="102" height="102" viewBox="0 0 102 102" fill="none" xmlns="http://www.w3.org/2000/svg">
<rect x="0.5" y="0.5" width="101" height="101" rx="4.5" stroke="#707070"/>
<g clip-path="url(#clip0_1144_842)">
<path d="M76.3333 51C76.3411 39.5851 67.8593 29.9453 56.5362 28.5002C45.2131 27.0552 34.5821 34.2557 31.7227 45.3067C31.5567 46.0125 31.9852 46.7215 32.6872 46.9028C33.3892 47.0841 34.1074 46.6712 34.304 45.9733C36.6466 36.9767 44.8796 30.7805 54.1732 31.0196C63.4667 31.2588 71.3701 37.8703 73.2469 46.9755C75.1236 56.0808 70.4789 65.2786 62.0374 69.1733C61.4647 69.4342 61.1524 70.0599 61.2881 70.6744C61.4239 71.2888 61.9708 71.7247 62.6 71.72C62.7931 71.7205 62.9839 71.6782 63.1587 71.596C71.1768 67.8711 76.3134 59.8411 76.3333 51Z" fill="black"/>
<path d="M62.18 35.1907C61.3734 34.3649 60.3107 33.8371 59.1653 33.6933C58.0256 33.5242 56.8731 33.9049 56.0583 34.7197C55.2436 35.5344 54.8629 36.6869 55.032 37.8267C55.351 40.1708 57.1903 42.0167 59.5333 42.344C59.6901 42.361 59.8477 42.3694 60.0053 42.3693C60.9906 42.3849 61.9413 42.0067 62.6467 41.3187C63.4451 40.4914 63.8226 39.3451 63.672 38.2053C63.5299 37.0606 63.0039 35.9979 62.18 35.1907ZM60.7653 39.4307C60.5098 39.6547 60.1673 39.7525 59.832 39.6973C58.7242 39.5124 57.8575 38.6419 57.6773 37.5333C57.6229 37.198 57.7207 36.8559 57.944 36.6C58.1502 36.4154 58.4209 36.3195 58.6973 36.3333C58.7575 36.3331 58.8176 36.3366 58.8773 36.344C59.9828 36.5273 60.8494 37.3933 61.0333 38.4987C61.0868 38.8337 60.9886 39.1752 60.7653 39.4307Z" fill="black"/>
<path d="M62.3227 46.4667C62.6456 48.8116 64.4896 50.6551 66.8347 50.9773C66.991 50.9948 67.1481 51.0037 67.3054 51.004C68.2912 51.0195 69.2425 50.6408 69.948 49.952C70.7473 49.1252 71.1249 47.9786 70.9734 46.8387C70.6533 44.4933 68.8114 42.6476 66.4667 42.3227C65.3232 42.1495 64.1655 42.53 63.3478 43.3478C62.53 44.1655 62.1495 45.3232 62.3227 46.4667ZM65.236 45.2387C65.4407 45.0541 65.7101 44.9582 65.9854 44.972C66.0464 44.972 66.1073 44.9751 66.168 44.9813C67.2722 45.1648 68.1379 46.0294 68.3227 47.1333C68.4057 47.4685 68.3072 47.8228 68.063 48.067C67.8188 48.3112 67.4646 48.4097 67.1294 48.3267C66.0239 48.1434 65.1573 47.2774 64.9734 46.172C64.9168 45.836 65.0131 45.4923 65.236 45.2347V45.2387Z" fill="black"/>
<path d="M52.36 47.1653C52.6818 49.5091 54.5233 51.3528 56.8667 51.6773C57.0234 51.6943 57.181 51.7028 57.3387 51.7027C58.3239 51.7183 59.2747 51.3401 59.98 50.652C60.7784 49.8247 61.1559 48.6785 61.0053 47.5387C60.6825 45.1937 58.8384 43.3502 56.4933 43.028C55.3536 42.8589 54.2011 43.2396 53.3863 44.0543C52.5716 44.8691 52.1909 46.0216 52.36 47.1613V47.1653ZM55.2667 45.9333C55.4729 45.7487 55.7436 45.6529 56.02 45.6667C56.0802 45.6664 56.1403 45.67 56.2 45.6773C57.3055 45.8606 58.1721 46.7266 58.356 47.832C58.4102 48.1673 58.3125 48.5093 58.0893 48.7653C57.8328 48.9875 57.4912 49.0851 57.156 49.032C56.0514 48.8433 55.1891 47.973 55.0107 46.8667C54.9533 46.533 55.0471 46.1911 55.2667 45.9333Z" fill="black"/>
<path d="M45.9693 57.972C43.2795 56.1832 40.4499 54.6141 37.508 53.28C36.1484 52.664 34.8217 51.9777 33.5333 51.224L33.5186 51.2147C31.7264 50.1369 30.1835 48.6908 28.992 46.972C28.0657 45.6393 27.256 44.2292 26.572 42.7573C24.4386 38.304 21.888 35.7413 18.9906 35.1387C16.9721 34.7525 14.8871 35.2989 13.3173 36.6253C11.7754 37.9856 10.9286 39.9682 11.012 42.0227C11.1866 44.9747 13.3493 47.8707 17.4426 50.6307C23.776 54.8973 24.7106 57.9453 26.2626 62.992C27.1525 66.0962 28.2908 69.1238 29.6666 72.0453C34.9373 83.056 42.88 89.7787 52.0413 90.9787C52.1585 90.9935 52.2765 91.0011 52.3947 91.0013C53.0878 91.0013 53.7581 90.753 54.284 90.3013L60.432 84.992C61.0517 84.4576 61.4148 83.6848 61.4307 82.8667C61.584 73.6307 56.092 64.792 45.9693 57.972ZM24.2 52.8667L27.788 49.7693C28.6549 50.8106 29.6438 51.7439 30.7333 52.5493L26.5306 56.1787C25.8899 54.9849 25.1073 53.8728 24.2 52.8667ZM13.6666 41.868C13.6299 40.6414 14.1363 39.4611 15.0506 38.6427C15.8018 38.0328 16.7341 37.6895 17.7013 37.6667C17.9509 37.6669 18.1997 37.6928 18.444 37.744C20.456 38.1613 22.432 40.292 24.1613 43.904C24.7645 45.18 25.4476 46.4167 26.2066 47.6067L22.2986 50.9827C21.2313 50.0582 20.1069 49.2018 18.932 48.4187C15.6133 46.1813 13.8 43.916 13.6733 41.864L13.6666 41.868ZM58.6853 82.9747L52.536 88.2827C52.4896 88.3196 52.4312 88.3381 52.372 88.3347C44.0253 87.244 37.0053 81.2133 32.068 70.8987C30.7492 68.0952 29.6577 65.1903 28.804 62.212C28.4253 60.98 28.0693 59.8293 27.656 58.7253L33.0746 54.048C34.1053 54.6173 35.1907 55.1373 36.3547 55.692C39.1764 56.971 41.8909 58.4744 44.472 60.188C53.9573 66.5773 58.8973 74.4013 58.7587 82.8133C58.7577 82.8724 58.7338 82.9288 58.692 82.9707L58.6853 82.9747Z" fill="black"/>
<path d="M42.3773 77.0227C42.0631 76.6484 41.5694 76.476 41.0906 76.5733C40.6117 76.6706 40.2245 77.022 40.0813 77.4892C39.9381 77.9563 40.0619 78.4644 40.404 78.8133C43.1691 82.0426 46.8672 84.3354 50.9893 85.376C51.0877 85.3988 51.1883 85.4104 51.2893 85.4107C51.6091 85.4102 51.9182 85.2947 52.16 85.0853L55.584 82.1293C55.9575 81.822 56.1353 81.3364 56.0485 80.8605C55.9617 80.3846 55.6239 79.993 55.1659 79.8373C54.7079 79.6816 54.2015 79.7862 53.8426 80.1107L50.944 82.6133C47.6142 81.6037 44.6421 79.6641 42.3773 77.0227Z" fill="black"/>
<path d="M88.1906 40.128C87.7258 38.7124 87.335 37.2736 87.02 35.8173C87.0171 35.8068 87.0149 35.7961 87.0133 35.7853C86.5982 33.7411 86.6214 31.632 87.0813 29.5973V29.5827C87.4371 28.0009 87.9278 26.4526 88.548 24.9547C90.4026 20.344 90.5586 16.716 89.0133 14.1693C87.933 12.4131 86.1008 11.2555 84.0508 11.0341C82.0008 10.8126 79.9637 11.5523 78.5333 13.0373C76.5093 15.1707 75.852 18.7013 76.5773 23.5467C77.468 29.5227 76.6213 32.5933 74.856 35.88C74.517 36.5276 74.7626 37.3273 75.4065 37.6731C76.0505 38.0188 76.8528 37.7817 77.2053 37.1413C77.3106 36.944 77.4013 36.7413 77.5013 36.5507L84.6253 37.384C84.9026 38.5293 85.2533 39.6813 85.6306 40.9147C86.5999 43.8572 87.3298 46.8732 87.8133 49.9333C89.5186 61.2427 87.0893 70.1747 80.8186 75.744C80.7655 75.7935 80.6934 75.8173 80.6213 75.8093L72.5653 74.8667C72.5049 74.8615 72.4494 74.8316 72.412 74.784C71.766 73.8611 71.1953 72.8877 70.7053 71.8733C70.4969 71.4446 70.0756 71.1596 69.6001 71.1258C69.1246 71.0919 68.6672 71.3143 68.4001 71.7091C68.133 72.1039 68.0969 72.6113 68.3053 73.04C68.8586 74.1815 69.5015 75.2774 70.228 76.3173C70.7004 76.9841 71.4327 77.42 72.244 77.5173L80.3 78.4627C80.415 78.4771 80.5307 78.4842 80.6466 78.484C81.3509 78.4791 82.0305 78.2239 82.564 77.764C89.468 71.6307 92.268 61.6107 90.4506 49.5413C89.952 46.3478 89.1962 43.1998 88.1906 40.128ZM80.4746 14.8667C81.3627 13.996 82.59 13.5622 83.828 13.6813C85.0297 13.8501 86.0974 14.536 86.7506 15.5587C87.8173 17.324 87.5813 20.2253 86.084 23.9507C85.5492 25.2585 85.0981 26.599 84.7333 27.964L79.5933 27.3627C79.5609 25.9513 79.4376 24.5435 79.224 23.148C78.6346 19.2147 79.0666 16.3533 80.4746 14.8667ZM78.608 33.9853C79.0536 32.7056 79.3463 31.3778 79.48 30.0293L84.2066 30.5827C84.0217 31.9253 83.9998 33.2854 84.1413 34.6333L78.608 33.9853Z" fill="black"/>
<path d="M73.492 70.9453C73.4068 71.6765 73.9302 72.3384 74.6613 72.424L79.1667 72.9573C79.218 72.9638 79.2696 72.9669 79.3213 72.9667C79.6912 72.966 80.0444 72.8125 80.2973 72.5427C82.7536 69.8267 84.4075 66.482 85.0747 62.8813C85.197 62.1741 84.7375 61.4969 84.035 61.3493C83.3326 61.2017 82.6394 61.6367 82.4667 62.3333C81.9289 65.2312 80.6646 67.9453 78.792 70.2213L74.976 69.7733C74.6236 69.7309 74.2688 69.8308 73.9903 70.0508C73.7117 70.2707 73.5324 70.5927 73.492 70.9453Z" fill="black"/>
<path d="M46.3866 25.7613C46.4432 25.845 46.507 25.9235 46.5773 25.996C47.0755 26.4801 47.862 26.5005 48.3847 26.043C48.9074 25.5855 48.9912 24.8032 48.5773 24.2453C48.5533 24.2107 48.5266 24.1773 48.5066 24.152C40.7466 14.7253 31.432 10.096 22.244 11.1413C21.4304 11.2451 20.6966 11.6828 20.2186 12.3493L15.516 18.9893C15.0494 19.6572 14.889 20.4921 15.0746 21.2853C16.7426 28.556 21.8613 34.672 29.8746 38.9733C30.0677 39.0784 30.2841 39.1335 30.504 39.1333C31.1153 39.1339 31.6487 38.7186 31.7981 38.1258C31.9475 37.533 31.6746 36.9146 31.136 36.6253C23.82 32.6973 19.164 27.188 17.6666 20.6733C17.6573 20.6192 17.6687 20.5635 17.6986 20.5173L22.384 13.9053C22.4235 13.8487 22.4823 13.8084 22.5493 13.792C30.8666 12.8493 39.064 16.96 46.3866 25.7613Z" fill="black"/>
<path d="M24.8667 16.3333H24.6307C24.1978 16.3329 23.7916 16.5427 23.5414 16.896L20.9267 20.5747C20.6514 20.9636 20.6044 21.4699 20.8036 21.9028C21.0028 22.3357 21.4178 22.6295 21.8923 22.6735C22.3668 22.7174 22.8287 22.5049 23.104 22.116L25.3107 19C27.2777 19.0713 29.2159 19.4949 31.0334 20.2507C31.7111 20.511 32.4726 20.1812 32.7464 19.5088C33.0202 18.8363 32.7056 18.0684 32.0387 17.7813C29.7647 16.8378 27.3287 16.346 24.8667 16.3333Z" fill="black"/>
<path d="M60.3333 25.6667C60.8018 25.667 61.2361 25.4216 61.4773 25.02L65.4773 18.3533C65.8405 17.7235 65.6322 16.9189 65.009 16.5445C64.3859 16.17 63.5777 16.3637 63.192 16.98L59.192 23.6467C58.9447 24.0583 58.9378 24.5711 59.1741 24.9892C59.4103 25.4073 59.8531 25.6661 60.3333 25.6667Z" fill="black"/>
<path d="M55 25.6667C55.0737 25.667 55.1473 25.6608 55.22 25.648C55.9458 25.5269 56.4364 24.8407 56.316 24.1147L54.9826 16.1147C54.9174 15.6331 54.5953 15.2252 54.1421 15.05C53.6888 14.8748 53.1761 14.9601 52.804 15.2726C52.4318 15.5851 52.2592 16.0753 52.3533 16.552L53.6866 24.552C53.7934 25.1944 54.3487 25.6657 55 25.6667Z" fill="black"/>
</g>
<defs>
<clipPath id="clip0_1144_842">
<rect width="80" height="80" fill="white" transform="translate(11 11)"/>
</clipPath>
</defs>
</svg>
