<svg width="102" height="102" viewBox="0 0 102 102" fill="none" xmlns="http://www.w3.org/2000/svg">
<path d="M97 0H5C2.23858 0 0 2.23858 0 5V97C0 99.7614 2.23858 102 5 102H97C99.7614 102 102 99.7614 102 97V5C102 2.23858 99.7614 0 97 0Z" fill="white"/>
<path d="M46.4255 49.6783C46.1067 49.7843 45.4684 49.891 43.6597 49.891H41.9577L39.8301 52.2301H43.7664C45.8939 52.2301 46.5316 52.3362 46.7449 52.4423C46.851 52.4423 47.0638 52.6551 47.0638 53.3994C47.0638 53.931 46.7449 54.2499 46.5322 54.4626C46.3194 54.5687 45.7872 54.7814 44.1913 54.7814H38.9786C39.1913 52.4423 39.5107 50.1032 39.8296 47.7646H44.8296C46.4255 47.7646 47.1704 47.8707 47.0638 48.5084C46.9577 48.8272 46.9577 49.4655 46.4255 49.6783ZM51.5322 47.9768C51.5322 46.9136 51.1061 46.2759 50.3612 45.7443C49.5107 45.3188 47.9148 45.1067 45.5745 45.1067H35.4678L34.9362 49.7849H32.5959L30.3617 52.1235H34.7235L34.1913 57.2272H44.9362C47.1704 57.2272 48.7658 56.9084 49.7235 56.4829C50.8939 55.8452 51.5322 54.6754 51.5322 53.2933C51.5322 52.1235 50.6806 51.273 49.6168 50.8475C50.8939 50.4226 51.5322 49.3594 51.5322 47.9768ZM91 45.1061H85.5745L81.3194 48.9339L77.9148 45.1061H72.4893L78.0214 51.0603L70.5745 57.2272H76.1067L80.7872 53.1867L84.6168 57.2272H90.149L84.0852 51.0603L91 45.1067V45.1061ZM67.2765 51.0603C67.0638 53.3994 66.6388 53.931 66.3194 54.2499C66.1061 54.4626 65.2551 54.7814 62.2765 54.7814C59.1913 54.7814 58.447 54.5693 58.1275 54.3565C58.0214 54.2499 57.5959 53.8249 57.8087 51.6986C58.1275 48.8278 58.553 48.2957 58.7658 48.0835C58.9786 47.8707 59.8296 47.5519 63.0209 47.5519C66.2128 47.5519 66.9571 47.8707 67.0638 47.9768C67.3826 48.1896 67.5959 48.6139 67.2765 51.0603ZM70.6806 46.0632C69.6168 45.3188 67.3832 45 63.6597 45C59.5101 45 56.851 45.3188 55.6812 46.0632C54.5101 46.8075 53.6597 47.9768 53.3403 51.4858C53.1275 54.0371 53.553 55.5264 54.6168 56.2701C55.6806 57.0145 58.0214 57.3333 61.7449 57.3333C65.7872 57.3333 68.4464 57.0145 69.6168 56.2701C70.8933 55.5258 71.6383 53.8249 71.9577 51.0603C72.2765 48.5084 71.7449 46.9136 70.6806 46.0632ZM24.0852 54.0377C23.7664 54.3565 22.9148 54.6759 20.7872 54.6759H15.7872C15.8933 54.0383 16.5322 48.1901 16.5322 47.6586H21.851C23.9786 47.6586 24.7235 47.9774 24.8296 48.1901C25.8933 49.1467 24.9362 53.4 24.0852 54.0377ZM28.3403 46.1699C27.2765 45.4255 25.3617 45.1061 22.3832 45.1061H12.3832L11 57.2272H21.3188C24.6174 57.2272 26.6383 56.8017 27.8087 55.8446C28.8725 54.9942 29.4041 54.1438 29.9362 50.1032C30.0423 48.2962 29.5107 47.0209 28.3403 46.1699Z" fill="black"/>
<path d="M97 0.5H5C2.51472 0.5 0.5 2.51472 0.5 5V97C0.5 99.4853 2.51472 101.5 5 101.5H97C99.4853 101.5 101.5 99.4853 101.5 97V5C101.5 2.51472 99.4853 0.5 97 0.5Z" stroke="#707070"/>
</svg>
