<svg width="102" height="102" viewBox="0 0 102 102" fill="none" xmlns="http://www.w3.org/2000/svg">
<rect x="0.5" y="0.5" width="101" height="101" rx="4.5" fill="white"/>
<rect x="0.5" y="0.5" width="101" height="101" rx="4.5" stroke="#707070"/>
<path d="M78.5 62.25H78.0875L73.575 51.725C74.3401 52.0603 75.1647 52.2388 76 52.25C76.3315 52.25 76.6495 52.1183 76.8839 51.8839C77.1183 51.6494 77.25 51.3315 77.25 51V41C77.25 40.6684 77.1183 40.3505 76.8839 40.1161C76.6495 39.8817 76.3315 39.75 76 39.75C74.6983 39.757 73.4312 40.1704 72.3758 40.9323C71.3203 41.6942 70.529 42.7667 70.1125 44C69.7447 43.4864 69.2753 43.0539 68.7334 42.7292C68.1916 42.4045 67.5888 42.1946 66.9625 42.1125C66.1685 42.0099 65.3623 42.0608 64.5875 42.2625H63.5C61.3875 42.2625 60.45 41.0125 58.975 38.975L58.2375 37.9375C58.9939 37.8989 59.7268 37.6618 60.3625 37.25C60.8448 36.8999 61.2532 36.4579 61.5643 35.9495C61.8753 35.4411 62.0829 34.8763 62.175 34.2875C62.5813 34.0534 62.9366 33.7404 63.22 33.3668C63.5033 32.9933 63.7091 32.5668 63.825 32.1125C63.8778 31.7541 63.8428 31.3883 63.7231 31.0465C63.6033 30.7047 63.4024 30.397 63.1375 30.15C62.6271 29.2761 62.3475 28.2867 62.325 27.275C62.6477 27.2556 62.9504 27.112 63.1695 26.8743C63.3886 26.6366 63.507 26.3232 63.5 26C63.5001 24.6751 63.237 23.3634 62.7259 22.1411C62.2147 20.9188 61.4658 19.8102 60.5226 18.8798C59.5794 17.9494 58.4607 17.2157 57.2316 16.7213C56.0024 16.227 54.6872 15.9818 53.3625 16C50.7628 16.0511 48.2839 17.1067 46.4453 18.9453C44.6067 20.7839 43.5512 23.2628 43.5 25.8625C43.4766 27.1878 43.719 28.5045 44.2128 29.7346C44.7066 30.9648 45.4418 32.0836 46.375 33.025C46.6516 33.2999 46.9437 33.5586 47.25 33.8C42.425 34.975 39.8875 39.5 38.5875 43.425C38.2176 43.0522 37.7775 42.7565 37.2926 42.5548C36.8077 42.3531 36.2877 42.2495 35.7625 42.25H22.4875C21.8209 42.2489 21.1647 42.4154 20.5793 42.7343C19.9939 43.0532 19.4981 43.5143 19.1375 44.075C18.9568 44.3534 18.8942 44.6923 18.9633 45.017C19.0325 45.3416 19.2278 45.6255 19.5062 45.8062C19.7847 45.9869 20.1236 46.0496 20.4482 45.9804C20.7729 45.9112 21.0568 45.7159 21.2375 45.4375C21.3722 45.2288 21.5574 45.0576 21.7759 44.9396C21.9944 44.8216 22.2392 44.7607 22.4875 44.7625H24.75V48.5125C24.75 48.844 24.8817 49.1619 25.1161 49.3964C25.3505 49.6308 25.6685 49.7625 26 49.7625H32.25C32.5815 49.7625 32.8995 49.6308 33.1339 49.3964C33.3683 49.1619 33.5 48.844 33.5 48.5125V44.75H35.7625C35.9578 44.75 36.1513 44.7884 36.3317 44.8632C36.5122 44.938 36.6762 45.0475 36.8143 45.1856C36.9524 45.3238 37.062 45.4878 37.1368 45.6682C37.2115 45.8487 37.25 46.0421 37.25 46.2375V55.775C37.2467 56.1673 37.0885 56.5425 36.8099 56.8187C36.5313 57.095 36.1549 57.25 35.7625 57.25H22.4875C22.1295 57.2599 21.7803 57.1381 21.5062 56.9077C21.232 56.6773 21.0519 56.3543 21 56H23.5C23.8315 56 24.1495 55.8683 24.3839 55.6339C24.6183 55.3994 24.75 55.0815 24.75 54.75C24.75 54.4184 24.6183 54.1005 24.3839 53.8661C24.1495 53.6317 23.8315 53.5 23.5 53.5H21V51H22.25C22.5815 51 22.8995 50.8683 23.1339 50.6339C23.3683 50.3994 23.5 50.0815 23.5 49.75C23.5 49.4184 23.3683 49.1005 23.1339 48.8661C22.8995 48.6317 22.5815 48.5 22.25 48.5H16C15.6685 48.5 15.3505 48.6317 15.1161 48.8661C14.8817 49.1005 14.75 49.4184 14.75 49.75C14.75 50.0815 14.8817 50.3994 15.1161 50.6339C15.3505 50.8683 15.6685 51 16 51H18.5V53.5H13.5C13.1685 53.5 12.8505 53.6317 12.6161 53.8661C12.3817 54.1005 12.25 54.4184 12.25 54.75C12.25 55.0815 12.3817 55.3994 12.6161 55.6339C12.8505 55.8683 13.1685 56 13.5 56H18.5C18.5574 57.0126 18.9997 57.9649 19.7364 58.6621C20.473 59.3592 21.4483 59.7484 22.4625 59.75H28.7125C28.1341 60.3172 27.6414 60.9657 27.25 61.675C25.5807 64.9485 24.7233 68.5755 24.75 72.25C24.75 72.5815 24.8817 72.8994 25.1161 73.1339C25.3505 73.3683 25.6685 73.5 26 73.5H29.8375C30.1574 75.9023 31.3388 78.1067 33.1621 79.7033C34.9854 81.2999 37.3265 82.18 39.75 82.18C42.1735 82.18 44.5146 81.2999 46.3379 79.7033C48.1612 78.1067 49.3426 75.9023 49.6625 73.5H68.5875C68.8281 75.4097 69.6148 77.2095 70.8531 78.6831C72.0914 80.1568 73.7287 81.2418 75.5684 81.8078C77.4082 82.3739 79.3722 82.3969 81.2247 81.8742C83.0772 81.3514 84.7395 80.3052 86.0121 78.8609C87.2846 77.4167 88.1133 75.6359 88.3986 73.7323C88.6839 71.8287 88.4138 69.8832 87.6206 68.1294C86.8275 66.3755 85.545 64.8879 83.9272 63.845C82.3093 62.802 80.4249 62.2482 78.5 62.25ZM31 47.25H27.25V44.75H31V47.25ZM74.75 42.4625V49.5375C74.0175 49.2798 73.3831 48.8011 72.9343 48.1674C72.4855 47.5338 72.2444 46.7765 72.2444 46C72.2444 45.2235 72.4855 44.4661 72.9343 43.8325C73.3831 43.1988 74.0175 42.7201 74.75 42.4625ZM66.6 44.575C67.09 44.6483 67.5453 44.8715 67.9034 45.2139C68.2615 45.5564 68.5048 46.0012 68.6 46.4875L68.925 47.25C67.1846 48.1446 65.2429 48.5752 63.2875 48.5C63.1153 47.7574 63.2055 46.9782 63.5428 46.2946C63.88 45.611 64.4435 45.0652 65.1375 44.75C65.6089 44.5971 66.1065 44.5418 66.6 44.5875V44.575ZM60.4375 32.375C60.2295 32.4798 60.0548 32.6407 59.9334 32.8395C59.8119 33.0382 59.7484 33.267 59.75 33.5C59.7408 33.8147 59.6659 34.1239 59.5303 34.4081C59.3947 34.6922 59.2013 34.9449 58.9625 35.15C58.25 35.625 56.925 35.5125 55.2125 34.8375C55.1211 34.8274 55.0289 34.8274 54.9375 34.8375L54.75 34.675V29.8875C54.75 29.188 55.0279 28.5171 55.5225 28.0225C56.0171 27.5278 56.688 27.25 57.3875 27.25H59.75C59.7893 28.8681 60.2974 30.44 61.2125 31.775C60.9864 32.0169 60.7251 32.2233 60.4375 32.3875V32.375ZM46 25.8875C46.0625 23.948 46.8609 22.1051 48.233 20.733C49.6051 19.3609 51.4481 18.5625 53.3875 18.5H53.5C55.2732 18.4988 56.9895 19.126 58.3443 20.2702C59.699 21.4143 60.6045 23.0015 60.9 24.75H57.3875C56.026 24.7533 54.7211 25.2956 53.7584 26.2584C52.7956 27.2211 52.2533 28.5259 52.25 29.8875V33.4C50.4845 33.1017 48.8839 32.1817 47.7376 30.8061C46.5913 29.4306 45.975 27.6903 46 25.9V25.8875ZM49.75 36C53.8375 36 55.3375 38.1375 56.925 40.3875C58.075 42.0375 59.425 43.8375 61.675 44.475C60.9672 45.6186 60.6472 46.96 60.7625 48.3C59.211 47.961 57.7477 47.301 56.4668 46.3624C55.1858 45.4237 54.1156 44.2272 53.325 42.85C53.2569 42.6848 53.1542 42.5361 53.0237 42.4139C52.8933 42.2918 52.7382 42.199 52.5689 42.1419C52.3995 42.0848 52.2199 42.0646 52.0422 42.0828C51.8644 42.101 51.6926 42.1571 51.5383 42.2473C51.3841 42.3375 51.2509 42.4597 51.1479 42.6058C51.0449 42.7518 50.9744 42.9182 50.9412 43.0938C50.9079 43.2694 50.9127 43.45 50.9552 43.6236C50.9977 43.7972 51.0769 43.9596 51.1875 44.1C51.6406 44.8604 52.1593 45.5798 52.7375 46.25L52.625 46.325C51.4598 47.6653 50.6401 49.2702 50.2375 51H39.75V49.75C39.8375 48.9875 41.2625 36 49.75 36ZM39.75 55.7625V53.5H51C51.25 53.5 57.25 53.575 57.25 59.75V66H52.25V63.5C52.2816 62.6707 52.1415 61.8439 51.8386 61.0713C51.5357 60.2987 51.0765 59.5971 50.4897 59.0103C49.9029 58.4235 49.2012 57.9643 48.4286 57.6613C47.6561 57.3584 46.8292 57.2184 46 57.25H39.4625C39.6534 56.7773 39.751 56.2722 39.75 55.7625ZM39.75 79.75C37.9789 79.7482 36.2656 79.1197 34.9135 77.9757C33.5613 76.8318 32.6577 75.2463 32.3625 73.5H34.925C35.2129 74.5592 35.8413 75.4942 36.7132 76.1609C37.5852 76.8275 38.6524 77.1887 39.75 77.1887C40.8476 77.1887 41.9148 76.8275 42.7868 76.1609C43.6587 75.4942 44.2871 74.5592 44.575 73.5H47.1375C46.8423 75.2463 45.9387 76.8318 44.5865 77.9757C43.2344 79.1197 41.5211 79.7482 39.75 79.75ZM37.6 73.5H41.9C41.6786 73.873 41.364 74.1821 40.9871 74.3967C40.6101 74.6114 40.1838 74.7242 39.75 74.7242C39.3162 74.7242 38.8899 74.6114 38.5129 74.3967C38.136 74.1821 37.8214 73.873 37.6 73.5ZM27.25 71C27.4095 68.1229 28.1853 65.3136 29.525 62.7625C30.0226 61.8373 30.765 61.0669 31.6712 60.5356C32.5773 60.0042 33.6122 59.7325 34.6625 59.75H46C46.4996 59.7229 46.9992 59.8014 47.4665 59.9802C47.9337 60.1591 48.358 60.4344 48.7118 60.7882C49.0656 61.142 49.3408 61.5663 49.5197 62.0335C49.6986 62.5007 49.7771 63.0004 49.75 63.5V67.25C49.75 68.6023 50.1886 69.9181 51 71H27.25ZM56 71C55.2263 70.9978 54.4722 70.7564 53.8412 70.3088C53.2101 69.8612 52.7329 69.2294 52.475 68.5H58.5C58.8263 68.479 59.1534 68.5263 59.4604 68.6389C59.7674 68.7516 60.0475 68.927 60.2828 69.1541C60.5181 69.3812 60.7034 69.6548 60.8269 69.9576C60.9504 70.2604 61.0094 70.5856 61 70.9125C60.5856 70.9677 60.1681 70.997 59.75 71H56ZM64.0125 69.5375C63.8319 69.7418 63.6261 69.9224 63.4 70.075C63.2628 69.1299 62.8394 68.2496 62.1868 67.5523C61.5343 66.8551 60.6839 66.3744 59.75 66.175V59.75C59.8628 57.7104 59.2102 55.7022 57.9201 54.1184C56.63 52.5347 54.7952 51.4895 52.775 51.1875C53.0954 50.0663 53.6445 49.0236 54.3875 48.125C54.4198 48.0812 54.449 48.0353 54.475 47.9875C56.4153 49.5613 58.7499 50.573 61.225 50.9125L64.75 66.2375C64.9479 67.3917 64.683 68.5774 64.0125 69.5375ZM67.25 65.725L63.8125 51C65.9276 51.0195 68.0175 50.5398 69.9125 49.6L75.8125 63.35L70.3625 71H66C66.5486 70.248 66.9417 69.3941 67.1564 68.4884C67.371 67.5826 67.4028 66.6432 67.25 65.725ZM78.5 71H76.35C76.6252 70.5234 77.0499 70.1509 77.5584 69.9403C78.0668 69.7297 78.6305 69.6927 79.1621 69.8352C79.6937 69.9776 80.1634 70.2915 80.4984 70.7281C80.8335 71.1647 81.0151 71.6996 81.0151 72.25C81.0151 72.8003 80.8335 73.3353 80.4984 73.7719C80.1634 74.2085 79.6937 74.5223 79.1621 74.6648C78.6305 74.8072 78.0668 74.7703 77.5584 74.5597C77.0499 74.3491 76.6252 73.9766 76.35 73.5H78.5C78.8315 73.5 79.1495 73.3683 79.3839 73.1339C79.6183 72.8994 79.75 72.5815 79.75 72.25C79.75 71.9184 79.6183 71.6005 79.3839 71.3661C79.1495 71.1317 78.8315 71 78.5 71ZM73.425 71L73.8625 70.3875C73.787 70.5874 73.7243 70.792 73.675 71H73.425ZM78.5 79.75C76.7289 79.7482 75.0156 79.1197 73.6635 77.9757C72.3114 76.8318 71.4077 75.2463 71.1125 73.5H73.675C73.9488 74.5544 74.5594 75.4905 75.414 76.166C76.2686 76.8415 77.3204 77.2195 78.4095 77.2424C79.4986 77.2652 80.5654 76.9318 81.4476 76.2928C82.3299 75.6538 82.9792 74.7441 83.297 73.7021C83.6148 72.6602 83.5837 71.5429 83.2082 70.5203C82.8328 69.4977 82.1337 68.6257 81.2172 68.0368C80.3007 67.448 79.217 67.1746 78.1308 67.2582C77.0447 67.3418 76.0156 67.7778 75.2 68.5L77.8625 64.75C78.075 64.75 78.2875 64.75 78.5 64.75C80.4891 64.75 82.3968 65.5401 83.8033 66.9467C85.2098 68.3532 86 70.2608 86 72.25C86 74.2391 85.2098 76.1467 83.8033 77.5533C82.3968 78.9598 80.4891 79.75 78.5 79.75Z" fill="black"/>
</svg>
