<svg width="102" height="102" viewBox="0 0 102 102" fill="none" xmlns="http://www.w3.org/2000/svg">
<rect x="0.5" y="0.5" width="101" height="101" rx="4.5" fill="white"/>
<rect x="0.5" y="0.5" width="101" height="101" rx="4.5" stroke="#707070"/>
<g clip-path="url(#clip0_3211_1875)">
<path d="M11 43.9328V51.7388L12.7682 51.7118C14.6819 51.6849 14.8706 51.6633 15.8248 51.3398C16.9461 50.9625 17.9542 50.3264 18.8167 49.4638C19.4798 48.8008 19.9488 48.1377 20.3531 47.2913C20.8706 46.2186 21.0809 45.2482 21.0809 43.9652C21.0809 42.6822 20.8706 41.7118 20.3531 40.639C19.9488 39.7927 19.4798 39.1296 18.8167 38.4665C17.6631 37.3075 16.2453 36.5743 14.6119 36.2779C14.3046 36.2186 13.6415 36.1862 12.5795 36.1646L11 36.1323V43.9328Z" fill="black"/>
<path d="M30.1644 36.2078C28.3046 36.3533 26.6874 37.108 25.3343 38.4611C24.1806 39.6202 23.5229 40.8385 23.1779 42.4558C23.0809 42.9194 23.0593 43.1943 23.0593 43.9652C23.0593 44.7361 23.0809 45.011 23.1779 45.4746C23.8194 48.4989 25.9488 50.7307 28.9515 51.5285L29.5715 51.6956L31.3666 51.7172L33.1564 51.7388V43.9436V36.1485L31.9326 36.1539C31.2534 36.1593 30.4609 36.1808 30.1644 36.2078Z" fill="black"/>
<path d="M37.7925 43.9329V51.728H41.0162C44.5634 51.728 44.7574 51.7119 45.7709 51.3938C46.9246 51.0272 47.9326 50.4234 48.8113 49.5717C49.9866 48.4342 50.7197 47.1135 51.0647 45.5124C51.2318 44.7199 51.2318 43.2105 51.0647 42.4181C50.4663 39.6418 48.531 37.4531 45.9057 36.5852C44.7251 36.197 44.6281 36.1862 41.0162 36.1593L37.7925 36.1377V43.9329ZM44.2345 38.6553C46.8706 39.0811 48.7952 41.3291 48.7898 43.9868C48.7844 46.4935 47.0593 48.6175 44.531 49.2321C44.2561 49.2968 43.7547 49.3237 42.2022 49.3399L40.2184 49.3668V43.9706V38.5744H41.9866C43.275 38.5744 43.8787 38.596 44.2345 38.6553Z" fill="black"/>
<path d="M64.6389 43.992V51.7817H65.8519H67.0648V43.992V36.2022H65.8519H64.6389V43.992Z" fill="black"/>
<path d="M68.9514 43.992V51.7817H70.1644H71.3773V51.3235C71.3773 51.0701 71.3881 50.8653 71.4042 50.8653C71.415 50.8653 71.539 50.9354 71.6792 51.027C72.0404 51.2534 72.6441 51.496 73.194 51.6308C73.9002 51.8033 75.0323 51.7925 75.7493 51.6038C77.9811 51.0162 79.5282 49.2373 79.7924 46.9569C80.0511 44.7629 78.8867 42.5688 76.9299 41.5715C76.0511 41.1241 75.4042 40.9731 74.3692 40.9785C73.415 40.9893 72.8059 41.1348 71.9595 41.5607L71.3773 41.8518V39.027V36.2022H70.1644H68.9514V43.992ZM75.2263 43.2427C76.5848 43.5715 77.6307 44.9246 77.6307 46.337C77.6307 47.2265 77.318 47.9489 76.6549 48.6065C76.1751 49.0917 75.69 49.3505 75.0323 49.4852C74.5148 49.5931 74.3369 49.5931 73.814 49.4852C72.5633 49.2319 71.5714 48.2561 71.291 47.0055C70.9892 45.6362 71.6846 44.1645 72.9406 43.5122C73.7115 43.1133 74.3746 43.0324 75.2263 43.2427Z" fill="black"/>
<path d="M56.903 41.0218C54.8868 41.3507 53.2103 42.8062 52.6011 44.7469C51.6739 47.6957 53.4097 50.8116 56.4178 51.5986C57.1563 51.7927 58.2776 51.8089 58.9946 51.631C60.9138 51.1566 62.4555 49.6849 62.9623 47.8466C63.3989 46.2833 63.1186 44.6067 62.213 43.2967C61.8895 42.8331 61.1941 42.1431 60.7413 41.8466C59.6685 41.135 58.1644 40.8116 56.903 41.0218ZM58.5687 43.2482C59.6954 43.5285 60.6496 44.5312 60.8976 45.6795C61.2318 47.2752 60.3154 48.8601 58.7574 49.3776C57.9326 49.6525 57.151 49.5986 56.3477 49.2159C55.5553 48.8331 54.8437 47.949 54.6388 47.0865C54.5472 46.6768 54.5364 46.0784 54.6173 45.6795C54.7736 44.9302 55.3989 44.0299 56.0351 43.6471C56.8814 43.1404 57.6523 43.0164 58.5687 43.2482Z" fill="black"/>
<path d="M79.6955 41.0112C79.7117 41.049 80.6928 43.2592 81.8788 45.9223L84.0405 50.7633L83.4745 52.0409C82.9839 53.146 82.8761 53.3455 82.6767 53.5395C82.2831 53.9061 81.8626 53.9708 81.329 53.7498C81.1511 53.6797 81.0001 53.6258 80.9947 53.6312C80.957 53.6689 80.0567 55.7282 80.0567 55.7713C80.0567 55.836 80.6443 56.111 81.1726 56.2889C81.6308 56.4452 82.4341 56.4668 82.9139 56.3374C83.6362 56.1433 84.3748 55.6042 84.7306 55.0112C84.9192 54.6878 91.0001 41.1137 91.0001 41.0112C91.0001 40.9627 90.6767 40.9465 89.6955 40.9573L88.3963 40.9735L86.9246 44.2889C86.1106 46.111 85.4314 47.6474 85.4098 47.7013C85.3775 47.7713 84.957 46.8819 83.8519 44.3859L82.3316 40.9735L81.0001 40.9573C79.9381 40.9465 79.674 40.9573 79.6955 41.0112Z" fill="black"/>
<path d="M31.0702 58.7956C30.2346 58.8927 29.5069 59.2593 28.9462 59.8522C28.3101 60.5315 28.0352 61.2646 28.0352 62.2943C28.0352 64.0248 29.0163 65.3401 30.6012 65.7444C31.3936 65.9493 32.4287 65.8684 33.0756 65.5504C33.426 65.3779 33.9112 65.0005 34.0675 64.7795L34.1861 64.6177L33.798 64.3428L33.4098 64.0733L33.0972 64.3698C32.5742 64.8711 31.9381 65.0598 31.205 64.9412C29.9435 64.7417 29.1133 63.7013 29.1133 62.3213C29.1133 61.2161 29.6308 60.3374 30.5527 59.8846C30.957 59.6851 30.9839 59.6797 31.5608 59.6797C32.1214 59.6797 32.1807 59.6905 32.5149 59.8469C32.709 59.9385 32.957 60.1056 33.0648 60.2134C33.1726 60.3213 33.275 60.4075 33.2966 60.4075C33.3182 60.4075 33.4961 60.2835 33.7009 60.1272C34.116 59.8091 34.116 59.793 33.7387 59.4641C33.1133 58.9358 32.0729 58.6717 31.0702 58.7956Z" fill="black"/>
<path d="M36.5525 62.3211V65.8521H37.0916H37.6307V62.3211V58.7901H37.0916H36.5525V62.3211Z" fill="black"/>
<path d="M40.7573 62.3211V65.8521H41.2695H41.7816L41.7924 63.0219L41.8085 60.1863L43.6414 63.0219L45.4743 65.8521H46.1374H46.7951V62.3211V58.7901H46.256H45.7169L45.7061 61.534L45.6899 64.2725L43.9056 61.5448L42.1266 58.817L41.442 58.8008L40.7573 58.7847V62.3211Z" fill="black"/>
<path d="M49.9219 62.3211V65.8521H52.2938H54.6658V65.3938V64.9356H52.806H50.9461V63.8035V62.6715H52.6173H54.2885V62.2132V61.755H52.6173H50.9461V60.7308V59.7065H52.7251H54.5041V59.2483V58.7901H52.213H49.9219V62.3211Z" fill="black"/>
<path d="M57.3074 62.321V65.852H57.8195H58.3316L58.3424 63.0111L58.3586 60.1647L58.8923 61.5124C59.1834 62.2563 59.6901 63.534 60.0136 64.3588L60.6066 65.8574L60.957 65.8412L61.3074 65.8251L62.4502 62.9464L63.5877 60.0731L63.6039 62.9625L63.6147 65.852H64.1268H64.6389V62.321V58.79H63.8411H63.0378L62.0136 61.4639L60.9839 64.1377L60.612 63.1728C60.4017 62.6445 59.9327 61.4423 59.5661 60.4989L58.9031 58.79H58.1052H57.3074V62.321Z" fill="black"/>
<path d="M69.8249 59.2859C68.7198 61.8142 67.0486 65.6848 67.027 65.7603C67.0001 65.8465 67.0432 65.8519 67.5769 65.8411L68.1537 65.825L68.364 65.3128C68.4826 65.0325 68.6389 64.6498 68.7144 64.4611L68.8545 64.1268H70.488H72.1214L72.3424 64.6498C72.461 64.9409 72.6227 65.3236 72.6928 65.5015L72.8222 65.825L73.426 65.8411C73.9058 65.8519 74.0244 65.8411 74.0028 65.7872C73.9866 65.7495 73.3074 64.1646 72.488 62.267L71.0055 58.8169L70.5257 58.8007L70.0405 58.7845L69.8249 59.2859ZM71.1295 63.1996C70.7952 63.205 70.2292 63.205 69.8788 63.1996L69.2319 63.1834L69.8626 61.6093L70.488 60.0352L71.1133 61.6093L71.7332 63.1834L71.1295 63.1996Z" fill="black"/>
</g>
<defs>
<clipPath id="clip0_3211_1875">
<rect width="80" height="29.7035" fill="white" transform="translate(11 36.1484)"/>
</clipPath>
</defs>
</svg>
