<svg width="102" height="102" viewBox="0 0 102 102" fill="none" xmlns="http://www.w3.org/2000/svg">
<rect x="0.5" y="0.5" width="101" height="101" rx="4.5" fill="white"/>
<rect x="0.5" y="0.5" width="101" height="101" rx="4.5" stroke="#707070"/>
<g clip-path="url(#clip0_3211_1827)">
<path d="M82.0119 66.5999C81.7706 66.5999 81.5172 66.6145 81.2506 66.6305L78.4252 66.8612C78.1867 66.0564 77.9004 65.2666 77.5679 64.4959C76.7047 62.6382 76.2822 60.6063 76.3332 58.5585C76.2819 56.511 76.7035 54.4792 77.5652 52.6212C78.4877 50.6053 78.9726 48.4168 78.9879 46.1999L80.7212 47.9332C81.2444 48.4385 82.076 48.4313 82.5903 47.917C83.1046 47.4027 83.1119 46.571 82.6066 46.0479L78.6066 42.0479C78.0859 41.5274 77.2419 41.5274 76.7212 42.0479L72.7212 46.0479C72.2159 46.571 72.2232 47.4027 72.7375 47.917C73.2518 48.4313 74.0834 48.4385 74.6066 47.9332L76.3159 46.2239C76.2905 48.0787 75.8757 49.9075 75.0986 51.5919C74.0965 53.7746 73.6067 56.1575 73.6666 58.5585C73.6091 60.9558 74.0998 63.3344 75.1012 65.5132C75.3119 66.0239 75.5172 66.5292 75.6999 67.0799L65.3452 67.9239C65.094 66.7447 64.7204 65.5949 64.2306 64.4932C63.3692 62.636 62.948 60.6051 62.9999 58.5585C62.9485 56.511 63.3701 54.4792 64.2319 52.6212C65.1539 50.6052 65.6383 48.4167 65.6532 46.1999L67.3866 47.9332C67.9097 48.4385 68.7413 48.4313 69.2557 47.917C69.77 47.4027 69.7772 46.571 69.2719 46.0479L65.2719 42.0479C64.7512 41.5274 63.9072 41.5274 63.3866 42.0479L59.3866 46.0479C58.8813 46.571 58.8885 47.4027 59.4028 47.917C59.9171 48.4313 60.7487 48.4385 61.2719 47.9332L62.9812 46.2239C62.9558 48.0787 62.5411 49.9075 61.7639 51.5919C60.7623 53.7747 60.273 56.1576 60.3332 58.5585C60.2757 60.9558 60.7664 63.3344 61.7679 65.5132C62.1425 66.3622 62.4419 67.2425 62.6626 68.1439L52.1866 68.9972C51.9819 67.4404 51.5474 65.9225 50.8972 64.4932C50.0359 62.636 49.6147 60.6051 49.6666 58.5585C49.6152 56.511 50.0368 54.4792 50.8986 52.6212C51.8201 50.6051 52.3041 48.4166 52.3186 46.1999L54.0519 47.9332C54.5751 48.4385 55.4067 48.4313 55.921 47.917C56.4353 47.4027 56.4425 46.571 55.9372 46.0479L51.9372 42.0479C51.4166 41.5274 50.5726 41.5274 50.0519 42.0479L46.0519 46.0479C45.5466 46.571 45.5538 47.4027 46.0681 47.917C46.5825 48.4313 47.4141 48.4385 47.9372 47.9332L49.6466 46.2239C49.6211 48.0787 49.2064 49.9075 48.4292 51.5919C47.4281 53.7748 46.9392 56.1577 46.9999 58.5585C46.9424 60.9558 47.4331 63.3344 48.4346 65.5132C48.9694 66.6897 49.3357 67.9358 49.5226 69.2145L42.8252 69.7612C42.294 67.5117 40.6251 65.7038 38.4252 64.9945L32.4252 36.6625C31.8085 33.8899 29.1269 32.0872 26.3266 32.5625L25.5332 28.6665C26.399 28.2582 27.1367 27.621 27.6666 26.8239C28.4337 25.6648 28.7023 24.2458 28.4119 22.8865L26.7759 15.1892C26.1496 12.3315 23.3382 10.5117 20.4746 11.1105L15.2532 12.1772C13.8602 12.4535 12.6368 13.2785 11.8586 14.4665C11.0895 15.6263 10.8207 17.0473 11.1132 18.4079L13.2839 28.6745C13.4819 29.5953 14.1541 30.3416 15.0492 30.6345L15.9292 34.9305C15.6774 35.1136 15.4595 35.3392 15.2852 35.5972C14.8993 36.1785 14.7625 36.8902 14.9052 37.5732L23.7052 80.1319C24.0881 81.8819 25.3266 83.3214 26.9999 83.9612V86.9999C26.9999 89.209 28.7908 90.9999 30.9999 90.9999H78.9999C81.209 90.9999 82.9999 89.209 82.9999 86.9999V84.2319C87.4117 83.711 90.7975 80.0723 90.9999 75.6345C91.0478 73.2679 90.1336 70.9831 88.4666 69.3025C86.7692 67.5655 84.4405 66.5905 82.0119 66.5999ZM76.2506 69.7132C76.308 70.2892 76.3364 70.8677 76.3359 71.4465C76.3874 73.4919 75.9658 75.5216 75.1039 77.3772C74.4873 78.7415 74.0641 80.1852 73.8466 81.6665H63.2092C63.4174 80.5412 63.7612 79.4452 64.2332 78.4025C65.2343 76.2246 65.7246 73.8468 65.6666 71.4505C65.6666 71.1399 65.6546 70.8599 65.6439 70.5759L76.2506 69.7132ZM62.9999 71.4505C63.0514 73.4959 62.6298 75.5256 61.7679 77.3812C61.1521 78.7443 60.7293 80.1867 60.5119 81.6665H49.8746C50.0834 80.5413 50.4272 79.4454 50.8986 78.4025C51.8688 76.2909 52.3588 73.9903 52.3332 71.6665L62.9892 70.7972C62.9919 71.0079 62.9999 71.2172 62.9999 71.4505ZM40.3332 71.2065C40.3712 72.8323 39.421 74.3193 37.9297 74.9679C36.4385 75.6166 34.7029 75.2978 33.5395 74.1615C32.3761 73.0252 32.0164 71.2977 32.6296 69.7915C33.2429 68.2853 34.707 67.3003 36.3332 67.2999C38.5152 67.2776 40.304 69.0247 40.3332 71.2065ZM18.4906 34.1439L17.7346 30.4532L22.9586 29.3865L23.7066 33.0772L18.4906 34.1439ZM13.7226 17.8559C13.5815 17.1921 13.7126 16.4995 14.0866 15.9332C14.4773 15.3391 15.0903 14.9269 15.7879 14.7892L21.0092 13.7225C22.4368 13.4179 23.844 14.3176 24.1666 15.7412L25.7999 23.4385C25.9406 24.1025 25.809 24.7951 25.4346 25.3612C25.0439 25.9548 24.4316 26.3669 23.7346 26.5052C21.5212 26.9585 23.0772 26.6385 15.8959 28.1052L13.7226 17.8559ZM26.3186 79.5892L17.5186 37.0692L17.6919 37.0332H17.7266L17.7426 37.0252L25.5292 35.4332H25.5506L25.5719 35.4252L26.6612 35.2012C28.0897 34.8958 29.498 35.7964 29.8199 37.2212L35.6359 64.7092C32.2957 65.1162 29.8042 67.9831 29.8669 71.3474C29.9297 74.7117 32.5263 77.4837 35.8793 77.7659C39.2324 78.0481 42.2558 75.749 42.8799 72.4425L49.6612 71.8892C49.6532 73.7893 49.2366 75.6655 48.4399 77.3905C47.8231 78.7506 47.3982 80.1896 47.1772 81.6665H28.9319C27.676 81.6844 26.5822 80.8132 26.3186 79.5852V79.5892ZM80.3332 86.9999C80.3332 87.7363 79.7363 88.3332 78.9999 88.3332H30.9999C30.2635 88.3332 29.6666 87.7363 29.6666 86.9999V84.3332H46.9999C46.9999 85.0696 47.5969 85.6665 48.3332 85.6665C49.0696 85.6665 49.6666 85.0696 49.6666 84.3332H60.3332C60.3332 85.0696 60.9302 85.6665 61.6666 85.6665C62.4029 85.6665 62.9999 85.0696 62.9999 84.3332H73.6666C73.6666 85.0696 74.2635 85.6665 74.9999 85.6665C75.7363 85.6665 76.3332 85.0696 76.3332 84.3332H80.3332V86.9999ZM81.6799 81.6665H76.5439C76.7521 80.5412 77.0959 79.4452 77.5679 78.4025C78.5685 76.2245 79.0583 73.8467 78.9999 71.4505C78.9999 70.7239 78.9626 70.0865 78.9052 69.4945L81.4386 69.2879C83.3401 69.1399 85.2119 69.8266 86.5666 71.1692C87.7286 72.341 88.3661 73.9339 88.3332 75.5839C88.1216 79.0758 85.1767 81.7687 81.6799 81.6665Z" fill="black"/>
</g>
<defs>
<clipPath id="clip0_3211_1827">
<rect width="80" height="80" fill="white" transform="translate(11 11)"/>
</clipPath>
</defs>
</svg>
