<svg width="102" height="102" viewBox="0 0 102 102" fill="none" xmlns="http://www.w3.org/2000/svg">
<rect x="0.5" y="0.5" width="101" height="101" rx="4.5" stroke="#707070"/>
<path d="M85.4212 44.2289H84.096C81.4267 38.1089 75.3241 33.8163 68.2325 33.8163C58.7001 33.8163 50.9456 41.5785 50.9456 51.1193C50.9456 60.66 58.7001 68.4222 68.2325 68.4222C77.7732 68.4222 85.536 60.66 85.536 51.1193C85.536 49.5727 85.3129 48.0807 84.9305 46.6531H85.4212C87.16 46.6531 88.5758 48.0688 88.5758 49.8089V67.9345C88.5758 69.6745 87.16 71.0897 85.4212 71.0897C70.9651 71.0897 30.915 71.0897 16.58 71.0897C14.84 71.0897 13.4242 69.6745 13.4242 67.9345V49.8089C13.4242 48.0688 14.84 46.6531 16.58 46.6531H46.3208C46.9908 46.6531 47.5329 46.1104 47.5329 45.441C47.5329 44.7716 46.9908 44.2289 46.3208 44.2289H16.58C13.5036 44.2289 11 46.7318 11 49.8089V67.9345C11 71.0109 13.5036 73.5139 16.58 73.5139H19.0907V75.3131C19.0907 77.5746 20.9302 79.4147 23.1922 79.4147H36.6617C38.7427 79.4147 40.4934 77.8581 40.7348 75.7943C40.813 75.1297 40.3371 74.5272 39.6719 74.4496C39.0066 74.3679 38.4053 74.8485 38.3272 75.5126C38.2289 76.3548 37.5128 76.9905 36.6617 76.9905H23.1922C22.2677 76.9905 21.5149 76.2382 21.5149 75.3131V73.5139H39.5511H80.4863V75.3131C80.4863 76.2382 79.7334 76.9905 78.8089 76.9905H65.3383C64.5784 76.9905 63.9119 76.4785 63.7178 75.7458C63.5473 75.0977 62.8797 74.7154 62.2358 74.8834C61.5895 75.0545 61.2036 75.718 61.374 76.3649C61.8487 78.1606 63.4787 79.4147 65.3383 79.4147H78.8089C81.071 79.4147 82.9105 77.5746 82.9105 75.3131V73.5139H85.4212C88.4976 73.5139 91 71.0109 91 67.9344V49.8089C91 46.7318 88.4976 44.2289 85.4212 44.2289ZM68.2325 65.9979C60.0377 65.9979 53.3698 59.3236 53.3698 51.1193C53.3698 42.9149 60.0377 36.2406 68.2325 36.2406C76.4368 36.2406 83.1117 42.9149 83.1117 51.1193C83.1117 59.3236 76.4368 65.9979 68.2325 65.9979Z" fill="black"/>
<path d="M21.2249 63.0339H22.6051C23.2751 63.0339 23.8172 62.4912 23.8172 61.8218C23.8172 61.1524 23.2751 60.6097 22.6051 60.6097H21.2249C19.196 60.6097 17.5459 62.2598 17.5459 64.2887C17.5459 66.317 19.196 67.9671 21.2249 67.9671H44.0989C46.1278 67.9671 47.7779 66.317 47.7779 64.2887C47.7779 62.2598 46.1278 60.6097 44.0989 60.6097H30.8591C30.1891 60.6097 29.647 61.1524 29.647 61.8218C29.647 62.4912 30.1891 63.0339 30.8591 63.0339H44.0989C44.7902 63.0339 45.3537 63.5968 45.3537 64.2887C45.3537 64.9799 44.7902 65.5428 44.0989 65.5428H21.2249C20.5336 65.5428 19.9701 64.9799 19.9701 64.2887C19.9701 63.5968 20.5336 63.0339 21.2249 63.0339Z" fill="black"/>
<path d="M27.1304 63.0339C27.8004 63.0339 28.3426 62.4912 28.3426 61.8218C28.3426 61.1524 27.8004 60.6097 27.1304 60.6097H26.0166C25.3466 60.6097 24.8044 61.1524 24.8044 61.8218C24.8044 62.4912 25.3466 63.0339 26.0166 63.0339H27.1304Z" fill="black"/>
<path d="M44.0989 49.5532H31.8878C31.2178 49.5532 30.6756 50.0959 30.6756 50.7653C30.6756 51.4347 31.2178 51.9775 31.8878 51.9775H44.0989C44.7902 51.9775 45.3537 52.5403 45.3537 53.2322C45.3537 53.9241 44.7902 54.4869 44.0989 54.4869H21.2249C20.5336 54.4869 19.9701 53.9241 19.9701 53.2322C19.9701 52.5403 20.5336 51.9775 21.2249 51.9775H22.9957C23.6657 51.9775 24.2078 51.4347 24.2078 50.7653C24.2078 50.0959 23.6657 49.5532 22.9957 49.5532H21.2249C19.196 49.5532 17.5459 51.2033 17.5459 53.2322C17.5459 55.2611 19.196 56.9112 21.2249 56.9112H44.0989C46.1278 56.9112 47.7779 55.2611 47.7779 53.2322C47.7779 51.2033 46.1278 49.5532 44.0989 49.5532Z" fill="black"/>
<path d="M28.7142 51.9775C29.3842 51.9775 29.9264 51.4347 29.9264 50.7653C29.9264 50.0959 29.3842 49.5532 28.7142 49.5532H27.0866C26.4167 49.5532 25.8745 50.0959 25.8745 50.7653C25.8745 51.4347 26.4167 51.9775 27.0866 51.9775H28.7142Z" fill="black"/>
<path d="M68.2384 44.3792C64.5251 44.3792 61.5031 47.403 61.5031 51.1193C61.5031 54.8355 64.5251 57.8593 68.2384 57.8593C71.9552 57.8593 74.9784 54.8355 74.9784 51.1193C74.9784 47.403 71.9552 44.3792 68.2384 44.3792ZM68.2384 55.4351C65.8615 55.4351 63.9273 53.4991 63.9273 51.1193C63.9273 48.7394 65.8615 46.8035 68.2384 46.8035C70.6176 46.8035 72.5542 48.7394 72.5542 51.1193C72.5542 53.4991 70.6176 55.4351 68.2384 55.4351Z" fill="black"/>
<path d="M72.7981 40.454C72.1826 40.193 71.47 40.4753 71.2072 41.0914C70.9432 41.707 71.2285 42.4196 71.844 42.6829C73.6693 43.4642 75.2188 44.8462 76.206 46.575C76.5414 47.1614 77.2839 47.3552 77.8597 47.026C78.4409 46.6945 78.6433 45.9541 78.3106 45.3723C77.0642 43.1884 75.1063 41.4418 72.7981 40.454Z" fill="black"/>
<path d="M68.236 41.9461C68.4988 41.9461 68.7604 41.9579 69.0185 41.9792C69.6738 42.0357 70.2708 41.5477 70.3265 40.8719C70.3821 40.2048 69.8873 39.6189 69.2197 39.5633C68.8954 39.536 68.5675 39.5218 68.236 39.5218C67.5661 39.5218 67.0239 40.0646 67.0239 40.734C67.0239 41.4034 67.5661 41.9461 68.236 41.9461Z" fill="black"/>
<path d="M68.2408 30.5055C68.9108 30.5055 69.4529 29.9628 69.4529 29.2934V23.7974C69.4529 23.128 68.9108 22.5853 68.2408 22.5853C67.5708 22.5853 67.0287 23.128 67.0287 23.7974V29.2934C67.0287 29.9628 67.5708 30.5055 68.2408 30.5055Z" fill="black"/>
<path d="M76.6274 30.3688L80.5135 26.4827C80.987 26.0092 80.987 25.2421 80.5135 24.7687C80.04 24.2952 79.2729 24.2952 78.7995 24.7687L74.9133 28.6548C74.4399 29.1283 74.4399 29.8953 74.9133 30.3688C75.3868 30.8423 76.1539 30.8423 76.6274 30.3688Z" fill="black"/>
<path d="M59.8542 30.3688C60.3276 30.8422 61.0947 30.8423 61.5682 30.3688C62.0417 29.8953 62.0417 29.1282 61.5682 28.6548L57.682 24.7686C57.2085 24.2952 56.4415 24.2952 55.968 24.7686C55.4945 25.2421 55.4945 26.0092 55.968 26.4827L59.8542 30.3688Z" fill="black"/>
</svg>
