<svg width="102" height="102" viewBox="0 0 102 102" fill="none" xmlns="http://www.w3.org/2000/svg">
<rect x="0.5" y="0.5" width="101" height="101" rx="4.5" fill="white"/>
<rect x="0.5" y="0.5" width="101" height="101" rx="4.5" stroke="#707070"/>
<path d="M45.6666 74.7573H43.3635" stroke="black" stroke-width="1.81818" stroke-miterlimit="10" stroke-linecap="round" stroke-linejoin="round"/>
<path d="M70.7575 69.1816L83.3636 61.424C84.9394 60.4543 87.1212 60.9392 88.0909 62.5149C89.0606 64.0907 88.5757 66.1513 87 67.2422L56.3333 86.6361C53.5454 88.4543 50.0303 88.6967 47 87.4846L33.6666 82.0301C32.8181 81.6664 31.9697 81.5452 31 81.5452H25.5454V59.7271H33.6666C35.4848 59.7271 37.303 60.4543 38.6363 61.7877L41.4242 64.5755C42.7575 65.9089 44.4545 66.6361 46.3939 66.6361H61.303C63.606 66.6361 65.303 68.4543 65.303 70.6361C65.303 72.9392 63.4848 74.6361 61.303 74.6361H50.3939" stroke="black" stroke-width="1.81818" stroke-miterlimit="10" stroke-linecap="round" stroke-linejoin="round"/>
<path d="M13.4243 84.2119H25.4243V57.1816H13.4243" stroke="black" stroke-width="1.81818" stroke-miterlimit="10" stroke-linecap="round" stroke-linejoin="round"/>
<path d="M20.5757 79.485V79.3638" stroke="black" stroke-width="1.81818" stroke-miterlimit="10" stroke-linecap="round" stroke-linejoin="round"/>
<path d="M35.8484 27.2422H88.5757V32.8179H35.8484V27.2422Z" stroke="black" stroke-width="1.81818" stroke-miterlimit="10" stroke-linecap="round" stroke-linejoin="round"/>
<path d="M88.5757 25.4242V51.9697C88.5757 54.0303 86.8787 55.8484 84.6969 55.8484H39.7272C37.6666 55.8484 35.8484 54.1515 35.8484 51.9697V25.4242C35.8484 23.3636 37.5454 21.5454 39.7272 21.5454H84.8181C86.8787 21.5454 88.5757 23.3636 88.5757 25.4242Z" stroke="black" stroke-width="1.81818" stroke-miterlimit="10" stroke-linecap="round" stroke-linejoin="round"/>
<path d="M82.1514 46.7577C82.1514 48.4547 80.6969 49.9092 78.9999 49.9092C78.0302 49.9092 77.1817 49.5456 76.5757 48.8183C77.0605 48.2122 77.4242 47.485 77.4242 46.7577C77.4242 45.9092 77.1817 45.1819 76.5757 44.6971C77.1817 44.091 78.0302 43.6062 78.9999 43.6062C80.6969 43.485 82.1514 44.9395 82.1514 46.7577Z" stroke="black" stroke-width="1.81818" stroke-miterlimit="10" stroke-linecap="round" stroke-linejoin="round"/>
<path d="M77.4241 46.7575C77.4241 48.4544 75.9696 49.909 74.2726 49.909C72.5756 49.909 71.1211 48.4544 71.1211 46.7575C71.1211 45.0605 72.5756 43.606 74.2726 43.606C75.9696 43.606 77.4241 44.9393 77.4241 46.7575Z" stroke="black" stroke-width="1.81818" stroke-miterlimit="10" stroke-linecap="round" stroke-linejoin="round"/>
<path d="M42.2727 44.5757H54.8788" stroke="black" stroke-width="1.81818" stroke-miterlimit="10" stroke-linecap="round" stroke-linejoin="round"/>
<path d="M61.303 49.9092H42.2727" stroke="black" stroke-width="1.81818" stroke-miterlimit="10" stroke-linecap="round" stroke-linejoin="round"/>
<path d="M72.8181 17.0607C72.3333 13.9092 68.4545 12.5759 66.1515 14.7577L61.0605 21.6668H68.8181C71.3636 21.5456 73.1818 19.485 72.8181 17.0607Z" stroke="black" stroke-width="1.81818" stroke-miterlimit="10" stroke-linecap="round" stroke-linejoin="round"/>
<path d="M49.4243 17.0607C49.9091 13.9092 53.7879 12.5759 56.0909 14.7577L61.1818 21.6668H53.4243C50.8788 21.5456 49.0606 19.485 49.4243 17.0607Z" stroke="black" stroke-width="1.81818" stroke-miterlimit="10" stroke-linecap="round" stroke-linejoin="round"/>
<path d="M61.1817 21.5454C61.1817 21.5454 55.9696 25.0606 55.606 29.303" stroke="black" stroke-width="1.81818" stroke-miterlimit="10" stroke-linecap="round" stroke-linejoin="round"/>
<path d="M61.1819 21.5454C61.1819 21.5454 66.394 25.0606 66.7576 29.303" stroke="black" stroke-width="1.81818" stroke-miterlimit="10" stroke-linecap="round" stroke-linejoin="round"/>
</svg>
