<svg xmlns="http://www.w3.org/2000/svg" width="102" height="102" viewBox="0 0 102 102"><g transform="translate(-355 -758)"><g transform="translate(355 758)" fill="#fff" stroke="#707070" stroke-width="1"><rect width="102" height="102" rx="5" stroke="none"/><rect x="0.5" y="0.5" width="101" height="101" rx="4.5" fill="none"/></g><g transform="translate(18200 17637)"><rect width="80" height="80" transform="translate(-17834 -16868)" fill="none"/><g transform="translate(-17834 -16868)"><g transform="translate(0 0)"><path d="M20.39,31.4h24.6a2.189,2.189,0,0,0,2.186-2.186V4.609a2.189,2.189,0,0,0-2.186-2.186H20.39A2.189,2.189,0,0,0,18.2,4.609V5.12h-4.2V4.166a4.166,4.166,0,0,0-8.332,0V47.239a1.172,1.172,0,1,0,2.344,0V4.166a1.822,1.822,0,0,1,3.644,0V71H8.017V52.585a1.172,1.172,0,1,0-2.344,0V71H4.494A4.5,4.5,0,0,0,0,75.493v2.644a1.852,1.852,0,0,0,1.85,1.85H17.83a1.854,1.854,0,0,0,1.854-1.85V75.493A4.5,4.5,0,0,0,15.19,71H14.005V28.7h4.2v.511A2.189,2.189,0,0,0,20.39,31.4ZM17.34,75.493v2.15h-15v-2.15a2.15,2.15,0,0,1,2.15-2.146h10.7A2.15,2.15,0,0,1,17.34,75.493ZM14.006,13.111h4.2v7.6h-4.2Zm6.542-8.345H44.836V29.055H20.547V4.766ZM18.2,7.464v3.3h-4.2v-3.3Zm-4.2,18.894v-3.3h4.2v3.3Z" transform="translate(0 0)"/><path d="M205.279,247.715a4.787,4.787,0,0,0-4.768-4.795h-4.48l-1.534-3.237c-.926-1.954-1.626-3.287-2.87-3.984-1.148-.644-2.458-.64-4.843-.633H166.97c-2.381-.008-3.692-.011-4.839.633-1.243.7-1.943,2.03-2.869,3.984l-1.534,3.237h-4.48a4.795,4.795,0,0,0-.065,9.588l-1.357,2.862a5.547,5.547,0,0,0-.8,3.357c0,.136,0,10.66,0,10.66,0,.886,0,2.249,1.262,2.752v3.267a2.933,2.933,0,0,0,2.93,2.93h5.435a2.931,2.931,0,0,0,2.926-2.93v-3.072h10.667a1.172,1.172,0,1,0,0-2.344H153.381c-.012-.2-.012-11.135-.013-11.274a3.641,3.641,0,0,1,.575-2.341l1.832-3.865h42.207l1.833,3.867a3.6,3.6,0,0,1,.57,2.319c0,.145,0,11.1-.013,11.294H179.578a1.172,1.172,0,0,0,0,2.344h10.6v3.071a2.933,2.933,0,0,0,2.93,2.93h5.435a2.934,2.934,0,0,0,2.93-2.93v-3.268c1.257-.5,1.258-1.867,1.258-2.752,0,0,0-10.538,0-10.679a5.56,5.56,0,0,0-.8-3.336l-1.357-2.863A4.787,4.787,0,0,0,205.279,247.715Zm-54.456,0a2.441,2.441,0,0,1,2.425-2.451h3.369l-2.324,4.9h-1.045A2.441,2.441,0,0,1,150.823,247.715Zm10.412,24.62v3.071a.592.592,0,0,1-.582.586h-5.435a.594.594,0,0,1-.586-.586v-3.071Zm.145-31.647c.822-1.734,1.316-2.617,1.9-2.944.61-.342,1.766-.339,3.685-.333h19.828c1.92-.006,3.079-.01,3.689.333.583.327,1.076,1.21,1.9,2.944l4.493,9.479H156.886Zm37.747,34.719a.594.594,0,0,1-.587.586h-5.435a.594.594,0,0,1-.586-.586v-3.072h6.607Zm1.384-25.24h-1.045l-2.324-4.9h3.369a2.451,2.451,0,0,1,0,4.9Z" transform="translate(-125.279 -198.336)"/><path d="M285.885,386.78h11.883a1.172,1.172,0,0,0,0-2.344H285.885a1.172,1.172,0,0,0,0,2.344Z" transform="translate(-240.226 -324.368)"/><path d="M285.885,420.682h11.883a1.172,1.172,0,0,0,0-2.344H285.885a1.172,1.172,0,0,0,0,2.344Z" transform="translate(-240.226 -352.973)"/><path d="M402.981,375.243a4.921,4.921,0,1,0-4.919,4.923A4.927,4.927,0,0,0,402.981,375.243Zm-7.5,0a2.577,2.577,0,1,1,2.58,2.58A2.582,2.582,0,0,1,395.482,375.243Z" transform="translate(-331.711 -312.457)"/><path d="M204.35,375.243a4.921,4.921,0,1,0,4.919-4.923A4.927,4.927,0,0,0,204.35,375.243Zm7.5,0a2.577,2.577,0,1,1-2.58-2.58A2.583,2.583,0,0,1,211.848,375.243Z" transform="translate(-172.42 -312.457)"/></g><path d="M179.011,45.459H174.2a1.184,1.184,0,0,0-1.172,1.172V63.9a1.172,1.172,0,0,0,2.344,0V57.566c1.126-.006,2.8-.015,3.637-.015a6.047,6.047,0,1,0,0-12.092Zm0,9.748c-.829,0-2.482.008-3.611.015-.006-1.157-.015-2.872-.015-3.717,0-.712,0-2.5-.008-3.7h3.634a3.7,3.7,0,1,1,0,7.4Z" transform="translate(-145.994 -38.356)"/></g></g></g></svg>