<svg xmlns="http://www.w3.org/2000/svg" width="102" height="102" viewBox="0 0 102 102"><g transform="translate(-971 -758)"><g transform="translate(971 758)" fill="#fff" stroke="#707070" stroke-width="1"><rect width="102" height="102" rx="5" stroke="none"/><rect x="0.5" y="0.5" width="101" height="101" rx="4.5" fill="none"/></g><g transform="translate(18524 17378)"><rect width="80" height="80" transform="translate(-17542 -16609)" fill="none"/><g transform="translate(-17542 -16598.775)"><path d="M76.531,42.751,61.185,37.165V32.441a4.433,4.433,0,0,0,8.363-2.053,9.132,9.132,0,0,0-3.564-7.225,1.172,1.172,0,0,0-1.425,1.86A6.783,6.783,0,0,1,67.2,30.388a2.09,2.09,0,1,1-4.18,0,2.583,2.583,0,0,0-2.731-2.579L23.933,29.89a2.067,2.067,0,0,1-1.5-.521A2.1,2.1,0,0,1,23.7,25.717l36.357-2.081a6.751,6.751,0,0,1,.868.007,1.172,1.172,0,1,0,.17-2.338,9.155,9.155,0,0,0-1.172-.009L23.563,23.377a4.419,4.419,0,0,0-.753.108L19.221,17.9A11.488,11.488,0,0,0,18.04,6.137a1.172,1.172,0,0,0-1.877,1.4,9.155,9.155,0,0,1,1.48,7.906L10.272,3.982c1.89.3,2.448.908,3.044.908a1.172,1.172,0,0,0,.51-2.228A11.507,11.507,0,0,0,8.584,1.529,4.987,4.987,0,0,0,.8,7.682L17.889,34.271l5.783,22.507a3.709,3.709,0,0,0,.137.427H20.242a1.172,1.172,0,1,0,0,2.344H64.169a1.172,1.172,0,0,0,0-2.344H60.931a3.668,3.668,0,0,0,.255-1.346V51.388l6.44-3.23,8.4,3.058a2.85,2.85,0,0,0,3.654-1.7,5.282,5.282,0,0,0-3.152-6.76ZM2.407,4.425a2.642,2.642,0,0,1,4.7-1.016l.018.024c.029.04.058.082.085.125L20.746,24.608a4.425,4.425,0,0,0-1.356,3.449q.01.174.033.345a3.685,3.685,0,0,0-1.37,1.154q-.111.154-.205.316L2.767,6.414a2.622,2.622,0,0,1-.359-1.99ZM20.126,33.558a.963.963,0,0,0-.026-.1l-.361-1.406a1.349,1.349,0,0,1,.607-1.484,4.527,4.527,0,0,0,.525.553,4.395,4.395,0,0,0,3.2,1.11l34.772-1.99v25.62A1.347,1.347,0,0,1,57.5,57.206H27.245a1.344,1.344,0,0,1-1.3-1.011ZM61.185,48.766V45.814L64.6,47.055Zm16.3-.057a.512.512,0,0,1-.477.336.534.534,0,0,1-.176-.032L61.185,43.319v-3.66l14.544,5.295a2.934,2.934,0,0,1,1.752,3.755Zm0,0" transform="translate(-0.001 0)"/><path d="M269.977,271.516a4.217,4.217,0,0,0,3.694-6.255l5.15-5.15a1.172,1.172,0,0,0-1.657-1.658l-5.15,5.151a4.218,4.218,0,1,0-2.037,7.912Zm0-6.094A1.875,1.875,0,1,1,268.1,267.3,1.877,1.877,0,0,1,269.977,265.422Zm0,0" transform="translate(-224.234 -217.78)"/></g></g></g></svg>