<svg width="102" height="102" viewBox="0 0 102 102" fill="none" xmlns="http://www.w3.org/2000/svg">
<rect x="0.5" y="0.5" width="101" height="101" rx="4.5" fill="white"/>
<rect x="0.5" y="0.5" width="101" height="101" rx="4.5" stroke="#707070"/>
<path d="M28.6001 17.6338C28.6001 15.7375 27.0628 14.2002 25.1663 14.2002H16.5138C14.6172 14.2002 13.0801 15.7375 13.0801 17.6338V26.2866C13.0801 28.1829 14.6172 29.7202 16.5138 29.7202H25.1663C27.0628 29.7202 28.6001 28.1829 28.6001 26.2866V17.6338ZM26.0401 26.3679C26.0401 26.8055 25.6854 27.1602 25.2478 27.1602H16.5924C16.1548 27.1602 15.8001 26.8055 15.8001 26.3679V17.7125C15.8001 17.2749 16.1548 16.9202 16.5924 16.9202H25.2478C25.6854 16.9202 26.0401 17.2749 26.0401 17.7125V26.3679Z" fill="#333333"/>
<path d="M45.56 17.6338C45.56 15.7375 44.0228 14.2002 42.1263 14.2002H33.4738C31.5772 14.2002 30.04 15.7375 30.04 17.6338V26.2866C30.04 28.1829 31.5772 29.7202 33.4738 29.7202H42.1263C44.0228 29.7202 45.56 28.1829 45.56 26.2866V17.6338ZM43 26.3679C43 26.8055 42.6453 27.1602 42.2077 27.1602H33.5524C33.1148 27.1602 32.76 26.8055 32.76 26.3679V17.7125C32.76 17.2749 33.1148 16.9202 33.5524 16.9202H42.2077C42.6453 16.9202 43 17.2749 43 17.7125V26.3679Z" fill="#333333"/>
<path d="M28.6001 36.9937C28.6001 35.0973 27.0628 33.5601 25.1663 33.5601H16.5138C14.6172 33.5601 13.0801 35.0973 13.0801 36.9937V45.6465C13.0801 47.5428 14.6172 49.0801 16.5138 49.0801H25.1663C27.0628 49.0801 28.6001 47.5428 28.6001 45.6465V36.9937ZM26.0401 45.7277C26.0401 46.1653 25.6854 46.5201 25.2478 46.5201H16.5924C16.1548 46.5201 15.8001 46.1653 15.8001 45.7277V37.0724C15.8001 36.6348 16.1548 36.2801 16.5924 36.2801H25.2478C25.6854 36.2801 26.0401 36.6348 26.0401 37.0724V45.7277Z" fill="#333333"/>
<path d="M28.6001 56.1939C28.6001 54.2975 27.0628 52.7603 25.1663 52.7603H16.5138C14.6172 52.7603 13.0801 54.2975 13.0801 56.1939V64.8467C13.0801 66.743 14.6172 68.2803 16.5138 68.2803H25.1663C27.0628 68.2803 28.6001 66.743 28.6001 64.8467V56.1939ZM26.0401 64.9279C26.0401 65.3655 25.6854 65.7203 25.2478 65.7203H16.5924C16.1548 65.7203 15.8001 65.3655 15.8001 64.9279V56.2726C15.8001 55.835 16.1548 55.4803 16.5924 55.4803H25.2478C25.6854 55.4803 26.0401 55.835 26.0401 56.2726V64.9279Z" fill="#333333"/>
<path d="M28.6001 75.3936C28.6001 73.4972 27.0628 71.96 25.1663 71.96H16.5138C14.6172 71.96 13.0801 73.4972 13.0801 75.3936V84.0464C13.0801 85.9427 14.6172 87.48 16.5138 87.48H25.1663C27.0628 87.48 28.6001 85.9427 28.6001 84.0464V75.3936ZM26.0401 84.1276C26.0401 84.5652 25.6854 84.92 25.2478 84.92H16.5924C16.1548 84.92 15.8001 84.5652 15.8001 84.1276V75.4723C15.8001 75.0347 16.1548 74.68 16.5924 74.68H25.2478C25.6854 74.68 26.0401 75.0347 26.0401 75.4723V84.1276Z" fill="#333333"/>
<path d="M71.9602 17.6338C71.9602 15.7375 70.4229 14.2002 68.5264 14.2002H59.8739C57.9773 14.2002 56.4402 15.7375 56.4402 17.6338V26.2866C56.4402 28.1829 57.9773 29.7202 59.8739 29.7202H68.5264C70.4229 29.7202 71.9602 28.1829 71.9602 26.2866V17.6338ZM69.4002 26.3679C69.4002 26.8055 69.0455 27.1602 68.6079 27.1602H59.9525C59.5149 27.1602 59.1602 26.8055 59.1602 26.3679V17.7125C59.1602 17.2749 59.5149 16.9202 59.9525 16.9202H68.6079C69.0455 16.9202 69.4002 17.2749 69.4002 17.7125V26.3679Z" fill="#333333"/>
<path d="M88.9201 17.6338C88.9201 15.7375 87.3829 14.2002 85.4864 14.2002H76.8339C74.9373 14.2002 73.4001 15.7375 73.4001 17.6338V26.2866C73.4001 28.1829 74.9373 29.7202 76.8339 29.7202H85.4864C87.3829 29.7202 88.9201 28.1829 88.9201 26.2866V17.6338ZM86.2001 26.3679C86.2001 26.8055 85.8454 27.1602 85.4078 27.1602H76.7525C76.3149 27.1602 75.9601 26.8055 75.9601 26.3679V17.7125C75.9601 17.2749 76.3149 16.9202 76.7525 16.9202H85.4078C85.8454 16.9202 86.2001 17.2749 86.2001 17.7125V26.3679Z" fill="#333333"/>
<path d="M88.9201 36.9937C88.9201 35.0973 87.3829 33.5601 85.4864 33.5601H76.8339C74.9373 33.5601 73.4001 35.0973 73.4001 36.9937V45.6465C73.4001 47.5428 74.9373 49.0801 76.8339 49.0801H85.4864C87.3829 49.0801 88.9201 47.5428 88.9201 45.6465V36.9937ZM86.2001 45.7277C86.2001 46.1653 85.8454 46.5201 85.4078 46.5201H76.7525C76.3149 46.5201 75.9601 46.1653 75.9601 45.7277V37.0724C75.9601 36.6348 76.3149 36.2801 76.7525 36.2801H85.4078C85.8454 36.2801 86.2001 36.6348 86.2001 37.0724V45.7277Z" fill="#333333"/>
<path d="M88.9201 75.3936C88.9201 73.4972 87.3829 71.96 85.4864 71.96H76.8339C74.9373 71.96 73.4001 73.4972 73.4001 75.3936V84.0464C73.4001 85.9427 74.9373 87.48 76.8339 87.48H85.4864C87.3829 87.48 88.9201 85.9427 88.9201 84.0464V75.3936ZM86.2001 84.1276C86.2001 84.5652 85.8454 84.92 85.4078 84.92H76.7525C76.3149 84.92 75.9601 84.5652 75.9601 84.1276V75.4723C75.9601 75.0347 76.3149 74.68 76.7525 74.68H85.4078C85.8454 74.68 86.2001 75.0347 86.2001 75.4723V84.1276Z" fill="#333333"/>
<path d="M62.7584 47.1301C61.8239 46.9141 60.4288 46.8642 58.9175 47.7538C58.5952 47.6277 58.2692 47.5321 57.9396 47.4674C56.5631 47.1997 55.1706 47.4881 54.0146 48.2789C53.8408 48.3973 53.6748 48.5212 53.5176 48.6487C52.2224 48.4458 50.9114 48.6831 49.676 49.341L46.3247 44.4282C46.0703 44.0564 45.8802 43.7181 45.5602 43.4093V37.0173C45.5602 35.1209 44.0042 33.5601 42.1079 33.5601H33.4797C31.5834 33.5601 30.04 35.121 30.04 37.0173V45.6455C30.04 47.542 31.5834 49.0801 33.4796 49.0801H36.8898C37.1615 49.7201 37.4616 50.1098 37.6736 50.4007L44.1053 59.8223C43.7194 60.4461 43.3655 61.193 43.1312 62.0634C42.6247 63.9433 42.5413 66.9447 45.022 70.5708C47.4376 74.1025 50.926 76.4458 54.8455 77.17C58.261 77.801 61.8082 77.1469 64.3335 75.4193C66.1077 74.2058 69.0764 72.1749 70.942 69.0879C72.6152 66.3188 73.9141 61.7903 70.5983 55.9378C67.1514 49.8557 65.7834 47.8311 62.7584 47.1301ZM62.6506 72.9585C59.1136 75.3777 51.8751 75.3089 47.4826 68.8876C45.6914 66.2692 45.5994 64.1863 46.0581 62.6769L48.6584 66.4778C49.1232 67.158 50.0509 67.3313 50.73 66.8666C51.409 66.4018 51.5839 65.4746 51.1191 64.7946L40.1061 48.6762C40.0306 48.5729 38.1191 46.0545 40.1253 44.6825C41.3013 43.878 42.2132 43.7109 43.8551 46.1116L49.3746 54.1797C49.4989 53.4356 49.8842 52.7551 50.6407 52.2375C51.4813 51.6621 52.3284 51.4522 53.1586 51.6125C53.6538 51.7077 54.0855 51.9229 54.4559 52.1937C54.6392 51.7148 55.0109 51.2093 55.6976 50.7397C56.1976 50.3978 56.7746 50.278 57.3661 50.3933C58.0796 50.5332 58.7525 50.9921 59.3453 51.5674C59.5016 51.1269 59.8 50.7445 60.2357 50.4465C60.8535 50.0241 61.4578 49.8897 62.085 50.0345C63.7052 50.41 64.5437 51.3017 68.005 57.4079C72.8597 65.9749 65.9644 70.6916 62.6506 72.9585Z" fill="#333333"/>
<path d="M69.1597 75.0728C69.2327 75.1977 69.24 75.3368 69.24 75.4756V84.0854C69.24 84.5152 68.8989 84.7604 68.4695 84.7604H59.8595C59.4299 84.7604 59.1602 84.5152 59.1602 84.0854V79.9614C58.5202 80.0177 58.0071 80.0472 57.4421 80.0472C57.1213 80.0472 56.7602 80.0345 56.4402 80.0163V84.0856C56.4402 85.9788 57.9664 87.4806 59.8595 87.4806H68.4695C70.3626 87.4806 71.96 85.9788 71.96 84.0856V75.4758C71.96 74.6284 71.6184 73.839 71.0967 73.2236C70.4698 73.9086 69.7999 74.5232 69.1597 75.0728Z" fill="#333333"/>
<path d="M42.8951 72.0966C42.6407 72.0363 42.3767 71.96 42.1039 71.96H33.4941C31.6008 71.96 30.04 73.5822 30.04 75.4753V84.0851C30.04 85.9784 31.6008 87.4801 33.4941 87.4801H42.1039C43.9972 87.4801 45.5602 85.9784 45.5602 84.0851V75.4753C45.5602 75.3875 45.5423 75.2808 45.5359 75.1945C44.572 74.282 43.6794 73.2318 42.8951 72.0966ZM43 84.1276C43 84.5652 42.6453 84.92 42.2077 84.92H33.5524C33.1148 84.92 32.76 84.5652 32.76 84.1276V75.4723C32.76 75.0347 33.1148 74.68 33.5524 74.68H42.2077C42.6453 74.68 43 75.0347 43 75.4723V84.1276Z" fill="#333333"/>
<path d="M33.4941 68.2803H40.8975C40.5751 67.3203 40.3802 66.5203 40.282 65.5603H33.4941C33.0645 65.5603 32.76 65.2428 32.76 64.8132V56.2035C32.76 55.7739 33.0645 55.4803 33.4941 55.4803H37.9013L36.0983 52.7603H33.4941C31.6008 52.7603 30.04 54.3103 30.04 56.2035V64.8134C30.04 66.7065 31.6008 68.2803 33.4941 68.2803Z" fill="#333333"/>
<path d="M68.4696 46.2001H67.0434C67.8573 47.0001 68.6298 47.7657 69.3781 48.7895C70.8455 48.3993 71.9602 47.1297 71.9602 45.541V36.9311C71.9602 35.0378 70.3627 33.5601 68.4696 33.5601H59.8597C57.9664 33.5601 56.4402 35.0378 56.4402 36.9311V44.7468C56.6002 44.7359 56.7715 44.729 56.9421 44.729C57.4455 44.729 57.9498 44.7781 58.4519 44.8757C58.5323 44.8917 58.6576 44.9087 58.7381 44.9269C58.8632 44.8764 59.0003 44.8295 59.1603 44.7855V36.9311C59.1603 36.5015 59.4303 36.2801 59.8597 36.2801H68.4696C68.8992 36.2801 69.2402 36.5017 69.2402 36.9311V45.541C69.2402 45.9705 68.8991 46.2001 68.4696 46.2001Z" fill="#333333"/>
<path d="M85.3806 52.7603H76.7707C75.0919 52.7603 73.6932 53.9769 73.3972 55.571C74.7905 58.3359 75.4249 61.1043 75.2788 63.8092C75.2113 65.0582 74.9787 66.2955 74.5873 67.4767C75.1812 67.9671 75.9422 68.2801 76.7707 68.2801H85.3806C87.2739 68.2801 88.9201 66.7063 88.9201 64.8131V56.2035C88.9201 54.3103 87.2739 52.7603 85.3806 52.7603ZM86.2001 64.9279C86.2001 65.3655 85.8454 65.7203 85.4078 65.7203H76.7524C76.3148 65.7203 75.9601 65.3655 75.9601 64.9279V56.2726C75.9601 55.835 76.3148 55.4803 76.7524 55.4803H85.4078C85.8454 55.4803 86.2001 55.835 86.2001 56.2726V64.9279Z" fill="#333333"/>
</svg>
