<svg width="102" height="102" viewBox="0 0 102 102" fill="none" xmlns="http://www.w3.org/2000/svg">
<rect x="0.5" y="0.5" width="101" height="101" rx="4.5" fill="white"/>
<rect x="0.5" y="0.5" width="101" height="101" rx="4.5" stroke="#707070"/>
<g clip-path="url(#clip0_3271_412)">
<path d="M83.9296 27.4136V28.9751H84.9968C85.0684 28.9708 85.1391 28.9923 85.1962 29.0358C85.3276 29.1359 85.3529 29.3236 85.2529 29.4551C85.2304 29.487 82.2929 32.9414 82.256 32.9751C82.2191 33.0087 82.1952 33.0006 82.1681 32.9639C82.1409 32.927 79.2385 29.4551 79.2385 29.4551C79.0337 29.2039 79.1937 28.9751 79.4337 28.9751H80.4737V27.4136H71.8496V28.9784H73.3776C74.0448 28.9784 74.4832 29.3992 74.7327 29.6711C74.9327 29.8951 79.3327 34.8839 79.4384 35.0151C79.544 35.1462 79.544 35.1478 79.544 35.2311V37.7031C79.5437 37.8164 79.5324 37.9295 79.5104 38.0406C79.447 38.1859 79.3229 38.2959 79.1712 38.3414C79.0268 38.3595 78.8815 38.3686 78.736 38.3686L77.2065 38.367V39.932H85.7857V38.3672H84.1713C84.027 38.3679 83.8826 38.3589 83.7393 38.34C83.5877 38.2948 83.464 38.1845 83.4016 38.0392C83.379 37.9281 83.3673 37.815 83.3665 37.7015V35.2312C83.357 35.15 83.3774 35.0681 83.4241 35.0009L88.1841 29.5704C88.621 29.084 88.8482 28.9786 89.4209 28.9786H90.9999V27.4137H83.9296V27.4136Z" fill="black"/>
<path d="M24.92 32.8472C24.4188 32.6207 23.8983 32.4393 23.3649 32.3049C22.3505 32.0569 20.072 31.7465 18.9825 31.6377C17.8402 31.5193 15.8577 31.3546 15.0656 31.1097C14.8256 31.0344 14.3361 30.8026 14.3361 30.2344C14.3361 29.8297 14.5602 29.4872 15.0017 29.2105C15.7041 28.7705 17.1217 28.4969 18.6002 28.4969C20.0313 28.4796 21.4505 28.7568 22.7697 29.3113C23.1242 29.4657 23.4575 29.6646 23.7617 29.9033C24.2577 30.3269 24.6009 30.9013 24.7394 31.5385H26.3186V27.249H24.5584V27.7465C24.5584 27.9065 24.3984 28.1177 24.0784 27.9433C23.2849 27.5305 21.0544 26.6377 18.32 26.6265C16.7697 26.6265 15.008 26.9177 13.52 27.5865C12.1313 28.2072 11 29.2041 11 30.8569C10.998 31.7224 11.327 32.556 11.92 33.1865C12.3216 33.5577 12.9695 34.188 14.6624 34.5593C15.4191 34.7193 17.0367 34.9769 18.648 35.1465C20.2592 35.3161 21.8208 35.4665 22.4608 35.6377C22.9695 35.7672 23.8256 35.9433 23.8256 36.9033C23.8256 37.8633 22.9249 38.1513 22.7681 38.2138C22.6113 38.2763 21.5297 38.7722 19.5874 38.7722C18.3005 38.7365 17.0252 38.5172 15.8002 38.121C15.0753 37.8618 14.3153 37.521 13.6066 36.6555C13.3205 36.2479 13.1619 35.7644 13.1506 35.2666H11.3905V40.1946H13.3456V39.5274C13.3447 39.3737 13.4686 39.2483 13.6224 39.2472C13.6738 39.2469 13.7242 39.2608 13.7681 39.2874C14.6892 39.6882 15.6475 39.998 16.6289 40.2122C17.6561 40.4266 18.3202 40.5818 19.5969 40.5818C20.9442 40.6074 22.2869 40.4179 23.5745 40.0202C24.4295 39.7858 25.2317 39.3899 25.9377 38.8538C26.7427 38.2355 27.2113 37.2754 27.2033 36.2602C27.21 35.309 26.8428 34.3932 26.1809 33.7097C25.8128 33.3524 25.3864 33.0608 24.92 32.8472Z" fill="black"/>
<path d="M46.9007 29.1016C45.0238 27.3993 42.5679 26.6265 39.5007 26.6265C36.7279 26.6265 33.784 27.5865 32.1199 29.0985C30.8373 30.2665 30.1079 31.9221 30.112 33.6569C30.092 35.3997 30.8237 37.0666 32.1199 38.2313C33.912 39.8426 36.5999 40.7065 39.5007 40.7065C42.4063 40.7065 45.152 39.8521 46.9007 38.2313C48.1573 37.0405 48.8729 35.388 48.8815 33.6569C48.8988 31.926 48.1785 30.2694 46.9007 29.1016ZM43.4623 37.3304C42.4654 38.3224 41.0382 38.8537 39.5007 38.8537C37.9743 38.8537 36.5167 38.3113 35.5328 37.3304C34.5823 36.3443 34.064 35.0197 34.0928 33.6504C34.0928 32.2391 34.584 30.9096 35.5328 29.9704C36.5168 28.9976 37.984 28.4568 39.5007 28.4568C41.0174 28.4568 42.4784 29.0024 43.4623 29.9704C44.4143 30.908 44.9118 32.2327 44.9118 33.6504C44.912 35.1354 44.4592 36.3385 43.4623 37.3304Z" fill="black"/>
<path d="M62.979 28.977H64.595C65.3373 28.977 65.4621 29.2634 65.4717 29.9498L65.5596 35.1755L56.9581 27.4139H50.8076V28.9787H52.1771C53.1659 28.9787 53.2331 29.529 53.2331 30.009V37.3322C53.2331 37.7706 53.2587 38.3722 52.6282 38.3722H50.9387V39.9353H58.1531V38.3722H56.3931C55.6907 38.3722 55.6587 38.0504 55.6507 37.3673V31.0937L65.5595 39.9353H68.0795L67.9467 29.9497C67.9595 29.22 68.0043 28.9769 68.7595 28.9769H70.3387V27.4136H62.9787V28.977H62.979Z" fill="black"/>
</g>
<g clip-path="url(#clip1_3271_412)">
<path d="M70.2015 50.9019H31.7986C31.3575 50.9019 31 51.2593 31 51.7004V74.6328C31 75.0738 31.3575 75.4314 31.7986 75.4314H70.2015C70.6425 75.4314 71.0001 75.0739 71.0001 74.6328V51.7004C71 51.2593 70.6425 50.9019 70.2015 50.9019ZM69.4029 73.8342H32.5971V52.4989H69.4029V73.8342Z" fill="black"/>
<path d="M43.3152 71.095H46.9326V67.5459H48.6876V64.4228H46.9326V55.3247H42.0046L36.1016 64.4228V67.5424H43.3151L43.3152 71.095ZM43.3134 59.8107V64.4246L39.4271 64.4228L42.3409 59.9864C42.5864 59.6037 42.7935 59.257 42.962 58.9465C43.1305 58.6359 43.2841 58.3254 43.4225 58.0148C43.3817 58.2567 43.3544 58.5009 43.3408 58.7459C43.3225 59.0312 43.3134 59.386 43.3134 59.8107Z" fill="black"/>
<path d="M55.338 63.9784L60.5046 71.0952H65.8983L59.5294 62.9713L65.389 55.2388H60.3528L55.338 62.4407V55.2388H51.0596V71.0952H55.338V63.9784Z" fill="black"/>
</g>
<defs>
<clipPath id="clip0_3271_412">
<rect width="80" height="15" fill="white" transform="translate(11 26.1665)"/>
</clipPath>
<clipPath id="clip1_3271_412">
<rect width="40" height="24.6667" fill="white" transform="translate(31 51.1665)"/>
</clipPath>
</defs>
</svg>
