<svg xmlns="http://www.w3.org/2000/svg" width="102" height="102" viewBox="0 0 102 102"><g transform="translate(-1094 -758)"><g transform="translate(1094 758)" fill="#fff" stroke="#707070" stroke-width="1"><rect width="102" height="102" rx="5" stroke="none"/><rect x="0.5" y="0.5" width="101" height="101" rx="4.5" fill="none"/></g><g transform="translate(18959 17443)"><rect width="80" height="80" transform="translate(-17854 -16674)" fill="none"/><g transform="translate(-17847.826 -16674)"><g transform="translate(0)"><path d="M67.834,219.013a28.373,28.373,0,0,1-20.97-9.309,1.174,1.174,0,1,1,1.74-1.578,25.943,25.943,0,0,0,40.2-2.111,2.471,2.471,0,0,0-3.988-2.917,21.024,21.024,0,1,1-26.189-31.3,2.471,2.471,0,1,0-2.167-4.44,25.956,25.956,0,0,0-10.576,37.194,1.174,1.174,0,0,1-1.984,1.256,28.308,28.308,0,0,1,11.529-40.561,4.819,4.819,0,0,1,4.228,8.661,18.677,18.677,0,1,0,23.263,27.8A4.819,4.819,0,1,1,90.7,207.4a28.279,28.279,0,0,1-22.863,11.611Z" transform="translate(-39.523 -139.013)"/><path d="M212.405,15a7.5,7.5,0,1,1,7.5-7.5A7.511,7.511,0,0,1,212.405,15Zm0-12.656A5.154,5.154,0,1,0,217.559,7.5,5.159,5.159,0,0,0,212.405,2.348Z" transform="translate(-179.062)"/><path d="M243.52,153.438a1.175,1.175,0,0,1-1.1-.764l-2.365-6.341a4.811,4.811,0,0,0-4.5-3.149H220.323a1.174,1.174,0,0,1-1.174-1.174V130.894a1.174,1.174,0,0,1,1.174-1.174h14.23a2.478,2.478,0,0,0,0-4.955h-14.23a1.174,1.174,0,0,1-1.174-1.174v-2.406a4.792,4.792,0,1,0-9.585,0v12.691a1.174,1.174,0,1,1-2.348,0V121.184a7.141,7.141,0,1,1,14.282,0v1.232h13.056a4.826,4.826,0,0,1,0,9.652H221.5v8.768h14.057a7.165,7.165,0,0,1,6.7,4.683l2.363,6.335a1.175,1.175,0,0,1-1.1,1.585Z" transform="translate(-181.013 -96.224)"/><path d="M243.832,294.5a4.836,4.836,0,0,1-4.528-3.167l-4.349-11.579a4.812,4.812,0,0,0-4.5-3.151h-16.1a7.149,7.149,0,0,1-7.141-7.141v-4.775a1.174,1.174,0,1,1,2.348,0v4.775a4.8,4.8,0,0,0,4.793,4.793h16.1a7.165,7.165,0,0,1,6.7,4.682l4.349,11.579a2.478,2.478,0,1,0,4.655-1.7l-2.095-5.617a1.174,1.174,0,0,1,2.2-.821l2.1,5.623a4.832,4.832,0,0,1-4.532,6.5Z" transform="translate(-181.014 -222.337)"/></g></g></g></g></svg>