<svg width="102" height="102" viewBox="0 0 102 102" fill="none" xmlns="http://www.w3.org/2000/svg">
<rect x="0.5" y="0.5" width="101" height="101" rx="4.5" fill="white"/>
<rect x="0.5" y="0.5" width="101" height="101" rx="4.5" stroke="#707070"/>
<path d="M86.748 45.3106H84.9994V35.7958C84.9994 31.727 81.6891 28.4167 77.6203 28.4167H67.0495V19.7853C67.0495 15.7166 63.7392 12.4062 59.6705 12.4062H58.0312C57.1684 12.4062 56.4688 13.1059 56.4688 13.9688C56.4688 14.8316 57.1684 15.5312 58.0312 15.5312H59.6705C62.0162 15.5312 63.9245 17.4395 63.9245 19.7853V28.4167H60.2794C56.2106 28.4167 52.9003 31.727 52.9003 35.7958V45.3327C52.7575 45.3181 52.6125 45.3106 52.4659 45.3106H49.5341C49.3875 45.3106 49.2425 45.3181 49.0997 45.3327V35.7959C49.0997 31.7272 45.7895 28.4169 41.7206 28.4169H38.0755V19.7855C38.0755 17.4397 39.9838 15.5314 42.3295 15.5314H43.9688C44.8317 15.5314 45.5312 14.8317 45.5312 13.9689C45.5312 13.1061 44.8317 12.4064 43.9688 12.4064H42.3295C38.2608 12.4064 34.9505 15.7167 34.9505 19.7855V28.4169H24.3795C20.3108 28.4169 17.0006 31.7272 17.0006 35.7959V45.3108H15.2519C12.9075 45.3106 11 47.218 11 49.5625V66.185C11 67.0478 11.6995 67.7475 12.5625 67.7475H22.9256V73.9689C22.9256 74.8317 23.6252 75.5314 24.4881 75.5314H43.2298C44.0928 75.5314 44.7923 74.8317 44.7923 73.9689V67.7475H57.2077V73.9689C57.2077 74.8317 57.9073 75.5314 58.7702 75.5314H77.5119C78.3747 75.5314 79.0744 74.8317 79.0744 73.9689V67.7475H89.4375C90.3003 67.7475 91 67.0478 91 66.185V49.5625C91 47.218 89.0925 45.3106 86.748 45.3106ZM60.2794 31.5419H77.6203C79.9661 31.5419 81.8744 33.4502 81.8744 35.7959V45.7819C80.5041 46.4886 79.5642 47.9173 79.5642 49.5625V54.7297C78.8923 54.4233 78.1469 54.2511 77.3616 54.2511H58.9206C58.1353 54.2511 57.3897 54.4233 56.7178 54.7297V49.5625C56.7178 48.7063 56.4625 47.9089 56.0252 47.2408V35.7958C56.0253 33.4502 57.9336 31.5419 60.2794 31.5419ZM24.3795 31.5419H41.7206C44.0662 31.5419 45.9747 33.4502 45.9747 35.7959V47.2408C45.5373 47.9089 45.282 48.7063 45.282 49.5625V54.7297C44.6102 54.4233 43.8647 54.2511 43.0794 54.2511H24.6386C23.8533 54.2511 23.1077 54.4233 22.4358 54.7297V49.5625C22.4358 47.9173 21.4959 46.4886 20.1256 45.7819V35.7959C20.1256 33.4502 22.0341 31.5419 24.3795 31.5419ZM14.125 49.5625C14.125 48.9411 14.6305 48.4356 15.2519 48.4356H18.1838C18.8052 48.4356 19.3106 48.9411 19.3106 49.5625V64.6225H14.125V49.5625ZM22.4358 59.5786C22.4358 58.3642 23.4239 57.3759 24.6386 57.3759H43.0794C44.2939 57.3759 45.282 58.3641 45.282 59.5786V64.6223H22.4358V59.5786ZM41.6673 72.4064H26.0506V67.7475H41.6673V72.4064ZM48.407 49.5625C48.407 48.9411 48.9125 48.4356 49.5339 48.4356H52.4658C53.0873 48.4356 53.5928 48.9411 53.5928 49.5625V64.6225H48.407V49.5625ZM56.718 59.5786C56.718 58.3642 57.7061 57.3759 58.9208 57.3759H77.3616C78.5759 57.3759 79.5642 58.3641 79.5642 59.5786V64.6223H56.718V59.5786ZM75.9495 72.4064H60.3328V67.7475H75.9495V72.4064ZM87.875 64.6225H82.6892V49.5625C82.6892 48.9411 83.1947 48.4356 83.8162 48.4356H86.7481C87.3697 48.4356 87.8752 48.9411 87.8752 49.5625V64.6225H87.875Z" fill="black"/>
<path d="M51 15.5312C51.8629 15.5312 52.5625 14.8317 52.5625 13.9688C52.5625 13.1058 51.8629 12.4062 51 12.4062C50.1371 12.4062 49.4375 13.1058 49.4375 13.9688C49.4375 14.8317 50.1371 15.5312 51 15.5312Z" fill="black"/>
<path d="M27.641 81.6989L29.9326 85.5718H30.0214L32.324 81.6989H35.0373L31.5694 87.3807L35.115 93.0625H32.3518L30.0214 89.184H29.9326L27.6021 93.0625H24.85L28.4067 87.3807L24.9166 81.6989H27.641ZM41.0465 84.5398V86.3153H35.914V84.5398H41.0465ZM37.0792 82.4979H39.443V90.4435C39.443 90.6618 39.4763 90.8319 39.5428 90.954C39.6094 91.0724 39.7019 91.1556 39.8203 91.2037C39.9423 91.2518 40.0829 91.2758 40.242 91.2758C40.3529 91.2758 40.4639 91.2666 40.5749 91.2481C40.6859 91.2259 40.7709 91.2093 40.8301 91.1982L41.2019 92.9571C41.0835 92.9941 40.9171 93.0366 40.7025 93.0847C40.488 93.1365 40.2272 93.1679 39.9201 93.179C39.3505 93.2012 38.8511 93.1254 38.422 92.9515C37.9966 92.7777 37.6655 92.5076 37.4288 92.1414C37.1921 91.7752 37.0755 91.3128 37.0792 90.7543V82.4979ZM42.5863 93.0625V84.5398H44.8779V86.0268H44.9666C45.122 85.4978 45.3828 85.0983 45.749 84.8283C46.1152 84.5546 46.5369 84.4177 47.0141 84.4177C47.1325 84.4177 47.2601 84.4251 47.397 84.4399C47.5338 84.4547 47.654 84.475 47.7576 84.5009V86.5983C47.6466 86.565 47.4931 86.5354 47.2971 86.5095C47.101 86.4836 46.9216 86.4707 46.7589 86.4707C46.4111 86.4707 46.1004 86.5465 45.8267 86.6982C45.5567 86.8462 45.3421 87.0533 45.183 87.3196C45.0277 87.586 44.95 87.893 44.95 88.2407V93.0625H42.5863ZM52.467 93.229C51.5903 93.229 50.8357 93.0514 50.2032 92.6963C49.5743 92.3375 49.0898 91.8307 48.7494 91.176C48.4091 90.5175 48.239 89.7389 48.239 88.84C48.239 87.9633 48.4091 87.1939 48.7494 86.5317C49.0898 85.8696 49.5688 85.3536 50.1865 84.9837C50.808 84.6138 51.5367 84.4288 52.3727 84.4288C52.935 84.4288 53.4584 84.5194 53.943 84.7007C54.4313 84.8782 54.8567 85.1464 55.2192 85.5052C55.5854 85.8641 55.8702 86.3153 56.0737 86.8591C56.2771 87.3992 56.3788 88.0317 56.3788 88.7567V89.4059H49.1822V87.9411H54.1538C54.1538 87.6008 54.0798 87.2993 53.9319 87.0367C53.7839 86.774 53.5786 86.5687 53.316 86.4208C53.057 86.2691 52.7556 86.1933 52.4115 86.1933C52.0527 86.1933 51.7346 86.2765 51.4572 86.443C51.1834 86.6057 50.9689 86.8258 50.8135 87.1032C50.6582 87.377 50.5786 87.6822 50.5749 88.0188V89.4115C50.5749 89.8332 50.6526 90.1975 50.808 90.5046C50.9671 90.8116 51.1908 91.0483 51.4794 91.2148C51.7679 91.3813 52.1101 91.4645 52.5059 91.4645C52.7685 91.4645 53.009 91.4275 53.2272 91.3535C53.4454 91.2795 53.6323 91.1686 53.7876 91.0206C53.943 90.8726 54.0613 90.6914 54.1427 90.4768L56.3289 90.6211C56.2179 91.1464 55.9904 91.6051 55.6464 91.9972C55.3061 92.3856 54.8659 92.6889 54.3258 92.9071C53.7895 93.1217 53.1699 93.229 52.467 93.229ZM57.9214 93.0625V84.5398H60.1741V86.0435H60.274C60.4515 85.5441 60.7475 85.1501 61.1618 84.8616C61.5761 84.5731 62.0717 84.4288 62.6488 84.4288C63.2333 84.4288 63.7308 84.5749 64.1414 84.8671C64.552 85.1557 64.8257 85.5478 64.9626 86.0435H65.0514C65.2252 85.5552 65.5397 85.1649 65.9946 84.8727C66.4533 84.5768 66.9953 84.4288 67.6204 84.4288C68.4157 84.4288 69.0612 84.6822 69.5569 85.189C70.0563 85.692 70.3059 86.406 70.3059 87.3307V93.0625H67.9478V87.7968C67.9478 87.3233 67.822 86.9682 67.5705 86.7315C67.3189 86.4947 67.0045 86.3764 66.6272 86.3764C66.1981 86.3764 65.8633 86.5132 65.6229 86.787C65.3824 87.057 65.2622 87.414 65.2622 87.8579V93.0625H62.9706V87.7469C62.9706 87.3289 62.8504 86.996 62.61 86.7481C62.3732 86.5003 62.0607 86.3764 61.6722 86.3764C61.4096 86.3764 61.1729 86.443 60.962 86.5761C60.7549 86.7056 60.5903 86.8887 60.4682 87.1254C60.3461 87.3585 60.2851 87.6322 60.2851 87.9466V93.0625H57.9214ZM76.0571 93.229C75.1804 93.229 74.4258 93.0514 73.7933 92.6963C73.1644 92.3375 72.6798 91.8307 72.3395 91.176C71.9992 90.5175 71.8291 89.7389 71.8291 88.84C71.8291 87.9633 71.9992 87.1939 72.3395 86.5317C72.6798 85.8696 73.1589 85.3536 73.7766 84.9837C74.3981 84.6138 75.1268 84.4288 75.9628 84.4288C76.5251 84.4288 77.0485 84.5194 77.5331 84.7007C78.0213 84.8782 78.4467 85.1464 78.8093 85.5052C79.1755 85.8641 79.4603 86.3153 79.6637 86.8591C79.8672 87.3992 79.9689 88.0317 79.9689 88.7567V89.4059H72.7723V87.9411H77.7439C77.7439 87.6008 77.6699 87.2993 77.522 87.0367C77.374 86.774 77.1687 86.5687 76.9061 86.4208C76.6471 86.2691 76.3457 86.1933 76.0016 86.1933C75.6428 86.1933 75.3247 86.2765 75.0473 86.443C74.7735 86.6057 74.559 86.8258 74.4036 87.1032C74.2483 87.377 74.1687 87.6822 74.165 88.0188V89.4115C74.165 89.8332 74.2427 90.1975 74.3981 90.5046C74.5571 90.8116 74.7809 91.0483 75.0695 91.2148C75.358 91.3813 75.7002 91.4645 76.096 91.4645C76.3586 91.4645 76.599 91.4275 76.8173 91.3535C77.0355 91.2795 77.2223 91.1686 77.3777 91.0206C77.5331 90.8726 77.6514 90.6914 77.7328 90.4768L79.919 90.6211C79.808 91.1464 79.5805 91.6051 79.2365 91.9972C78.8962 92.3856 78.456 92.6889 77.9159 92.9071C77.3796 93.1217 76.76 93.229 76.0571 93.229Z" fill="black"/>
</svg>
