<svg width="102" height="102" viewBox="0 0 102 102" fill="none" xmlns="http://www.w3.org/2000/svg">
<rect x="0.5" y="0.5" width="101" height="101" rx="4.5" stroke="#707070"/>
<path d="M66.424 69.2253C66.1704 69.2253 65.9272 69.1246 65.7478 68.9452C65.5685 68.7659 65.4678 68.5227 65.4678 68.2691V62.693C65.4678 62.4406 65.5676 62.1984 65.7455 62.0192C65.9234 61.8401 66.165 61.7386 66.4174 61.7369C68.1797 61.7241 69.8656 61.0151 71.1072 59.7644C72.3489 58.5137 73.0457 56.8228 73.0457 55.0604C73.0457 53.298 72.3489 51.6071 71.1072 50.3564C69.8656 49.1057 68.1797 48.3967 66.4174 48.3839C66.165 48.3822 65.9234 48.2807 65.7455 48.1015C65.5676 47.9224 65.4678 47.6802 65.4678 47.4277V41.8516C65.4678 41.7257 65.4926 41.6011 65.5409 41.4848C65.5892 41.3686 65.66 41.263 65.7492 41.1742C65.8384 41.0853 65.9442 41.015 66.0607 40.9672C66.1771 40.9193 66.3018 40.895 66.4277 40.8955C70.1741 40.9113 73.7616 42.4107 76.4051 45.0654C79.0485 47.7202 80.5327 51.314 80.5327 55.0604C80.5327 58.8068 79.0485 62.4006 76.4051 65.0553C73.7616 67.71 70.1741 69.2094 66.4277 69.2253H66.424ZM67.3801 63.5902V67.2718C70.4442 67.0179 73.3009 65.6214 75.3833 63.3593C77.4657 61.0973 78.6216 58.135 78.6216 55.0604C78.6216 51.9858 77.4657 49.0236 75.3833 46.7615C73.3009 44.4994 70.4442 43.1029 67.3801 42.849V46.5307C69.4687 46.778 71.3939 47.783 72.7908 49.3552C74.1877 50.9273 74.9593 52.9573 74.9593 55.0605C74.9593 57.1636 74.1877 59.1936 72.7908 60.7658C71.3939 62.3379 69.4687 63.3429 67.3801 63.5902Z" fill="black"/>
<path d="M66.424 85.1393H26.6025C26.3489 85.1393 26.1057 85.0385 25.9264 84.8592C25.7471 84.6799 25.6464 84.4367 25.6464 84.1831V45.5807C25.6464 45.3271 25.7471 45.0839 25.9264 44.9046C26.1057 44.7252 26.3489 44.6245 26.6025 44.6245C26.8561 44.6245 27.0993 44.7252 27.2787 44.9046C27.458 45.0839 27.5587 45.3271 27.5587 45.5807V83.2269H65.4678V33.8883H27.5587V38.1226C27.5587 38.3762 27.458 38.6194 27.2787 38.7987C27.0993 38.978 26.8561 39.0788 26.6025 39.0788C26.3489 39.0788 26.1057 38.978 25.9264 38.7987C25.7471 38.6194 25.6464 38.3762 25.6464 38.1226V32.9322C25.6464 32.6786 25.7471 32.4354 25.9264 32.2561C26.1057 32.0767 26.3489 31.976 26.6025 31.976H66.424C66.6776 31.976 66.9208 32.0767 67.1001 32.2561C67.2794 32.4354 67.3802 32.6786 67.3802 32.9322V84.1831C67.3802 84.4367 67.2794 84.6799 67.1001 84.8592C66.9208 85.0385 66.6776 85.1393 66.424 85.1393Z" fill="black"/>
<path d="M26.6025 43.5249C26.3489 43.5249 26.1057 43.4242 25.9264 43.2449C25.7471 43.0655 25.6464 42.8223 25.6464 42.5687V41.1345C25.6464 40.8809 25.7471 40.6377 25.9264 40.4584C26.1057 40.2791 26.3489 40.1783 26.6025 40.1783C26.8561 40.1783 27.0993 40.2791 27.2787 40.4584C27.458 40.6377 27.5587 40.8809 27.5587 41.1345V42.5687C27.5587 42.8223 27.458 43.0655 27.2787 43.2449C27.0993 43.4242 26.8561 43.5249 26.6025 43.5249Z" fill="black"/>
<path d="M35.3674 77.0983C34.135 77.0969 32.9535 76.6067 32.082 75.7352C31.2106 74.8638 30.7204 73.6822 30.719 72.4498V44.6648C30.719 43.4319 31.2087 42.2496 32.0805 41.3778C32.9522 40.5061 34.1346 40.0163 35.3674 40.0163C36.6003 40.0163 37.7826 40.5061 38.6544 41.3778C39.5261 42.2496 40.0159 43.4319 40.0159 44.6648V72.4498C40.0145 73.6822 39.5243 74.8638 38.6528 75.7352C37.7814 76.6067 36.5998 77.0969 35.3674 77.0983ZM35.3674 41.9287C34.642 41.9295 33.9466 42.218 33.4336 42.731C32.9207 43.2439 32.6322 43.9394 32.6313 44.6648V72.4498C32.6322 73.1752 32.9207 73.8707 33.4336 74.3836C33.9466 74.8966 34.642 75.1851 35.3674 75.1859C36.0928 75.1851 36.7883 74.8966 37.3012 74.3836C37.8142 73.8707 38.1027 73.1752 38.1035 72.4498V44.6648C38.1027 43.9394 37.8142 43.2439 37.3012 42.731C36.7883 42.218 36.0928 41.9295 35.3674 41.9287Z" fill="black"/>
<path d="M46.5138 77.0983C45.2814 77.0969 44.0998 76.6067 43.2284 75.7352C42.3569 74.8638 41.8667 73.6822 41.8654 72.4498V44.6648C41.8676 43.4334 42.3584 42.2533 43.2299 41.3834C44.1014 40.5135 45.2824 40.0249 46.5138 40.0249C47.7451 40.0249 48.9262 40.5135 49.7977 41.3834C50.6692 42.2533 51.1599 43.4334 51.1622 44.6648V72.4498C51.1608 73.6822 50.6706 74.8638 49.7992 75.7352C48.9277 76.6067 47.7462 77.0969 46.5138 77.0983ZM46.5138 41.9287C45.7884 41.9295 45.0929 42.218 44.58 42.731C44.0671 43.2439 43.7785 43.9393 43.7777 44.6648V72.4498C43.7795 73.1743 44.0685 73.8686 44.5814 74.3803C45.0943 74.892 45.7893 75.1793 46.5138 75.1793C47.2383 75.1793 47.9332 74.892 48.4462 74.3803C48.9591 73.8686 49.2481 73.1743 49.2499 72.4498V44.6648C49.2491 43.9394 48.9605 43.2439 48.4476 42.731C47.9346 42.218 47.2392 41.9295 46.5138 41.9287Z" fill="black"/>
<path d="M57.6603 77.0983C56.4279 77.0969 55.2463 76.6067 54.3749 75.7352C53.5034 74.8638 53.0132 73.6822 53.0118 72.4498V44.6648C53.0141 43.4334 53.5049 42.2533 54.3764 41.3834C55.2479 40.5135 56.4289 40.0249 57.6603 40.0249C58.8916 40.0249 60.0727 40.5135 60.9442 41.3834C61.8157 42.2533 62.3064 43.4334 62.3087 44.6648V72.4498C62.3073 73.6822 61.8171 74.8638 60.9457 75.7352C60.0742 76.6067 58.8927 77.0969 57.6603 77.0983ZM57.6603 41.9287C56.9349 41.9295 56.2394 42.218 55.7265 42.731C55.2135 43.2439 54.925 43.9393 54.9242 44.6648V72.4498C54.9259 73.1743 55.215 73.8686 55.7279 74.3803C56.2408 74.892 56.9358 75.1793 57.6603 75.1793C58.3848 75.1793 59.0797 74.892 59.5926 74.3803C60.1056 73.8686 60.3946 73.1743 60.3964 72.4498V44.6648C60.3955 43.9394 60.107 43.2439 59.5941 42.731C59.0811 42.218 58.3857 41.9295 57.6603 41.9287Z" fill="black"/>
<path d="M65.8761 91H27.1516C26.6394 91.0027 26.1317 90.9042 25.6578 90.7101C25.1838 90.516 24.7528 90.2301 24.3897 89.8689C24.0266 89.5077 23.7384 89.0783 23.5418 88.6054C23.3451 88.1325 23.2439 87.6253 23.2439 87.1132C23.2439 86.601 23.3451 86.0939 23.5418 85.6209C23.7384 85.148 24.0266 84.7186 24.3897 84.3574C24.7528 83.9962 25.1838 83.7103 25.6578 83.5162C26.1317 83.3221 26.6394 83.2236 27.1516 83.2264H65.8761C66.3882 83.2236 66.8959 83.3221 67.3699 83.5162C67.8438 83.7103 68.2748 83.9962 68.6379 84.3574C69.0011 84.7186 69.2892 85.148 69.4859 85.6209C69.6825 86.0939 69.7837 86.601 69.7837 87.1132C69.7837 87.6253 69.6825 88.1325 69.4859 88.6054C69.2892 89.0783 69.0011 89.5077 68.6379 89.8689C68.2748 90.2301 67.8438 90.516 67.3699 90.7101C66.8959 90.9042 66.3882 91.0027 65.8761 91ZM27.1516 85.1387C26.891 85.1368 26.6327 85.1864 26.3914 85.2847C26.1501 85.3831 25.9307 85.5282 25.7458 85.7118C25.5609 85.8953 25.4141 86.1136 25.3139 86.3541C25.2138 86.5947 25.1622 86.8526 25.1622 87.1132C25.1622 87.3737 25.2138 87.6317 25.3139 87.8722C25.4141 88.1127 25.5609 88.3311 25.7458 88.5146C25.9307 88.6981 26.1501 88.8433 26.3914 88.9416C26.6327 89.04 26.891 89.0896 27.1516 89.0876H65.8761C66.1366 89.0896 66.3949 89.04 66.6362 88.9416C66.8775 88.8433 67.0969 88.6981 67.2818 88.5146C67.4667 88.3311 67.6135 88.1127 67.7137 87.8722C67.8138 87.6317 67.8654 87.3737 67.8654 87.1132C67.8654 86.8526 67.8138 86.5947 67.7137 86.3541C67.6135 86.1136 67.4667 85.8953 67.2818 85.7118C67.0969 85.5282 66.8775 85.3831 66.6362 85.2847C66.3949 85.1864 66.1366 85.1368 65.8761 85.1387H27.1516Z" fill="black"/>
<path d="M66.1399 33.846H26.8878C25.4501 33.846 24.0714 33.2749 23.0548 32.2583C22.0383 31.2418 21.4672 29.863 21.4672 28.4254C21.4672 26.9877 22.0383 25.609 23.0548 24.5924C24.0714 23.5759 25.4501 23.0048 26.8878 23.0048H27.3734C27.3516 22.7684 27.3407 22.5312 27.3407 22.2931C27.343 20.2527 28.1545 18.2965 29.5973 16.8537C31.0401 15.411 32.9963 14.5994 35.0367 14.5971C35.9244 14.595 36.8057 14.7482 37.6407 15.0497C38.1916 14.0929 38.942 13.2658 39.8408 12.6247C40.7397 11.9835 41.7659 11.5432 42.85 11.3337C43.934 11.1242 45.0504 11.1504 46.1234 11.4105C47.1965 11.6706 48.2009 12.1585 49.0687 12.8411C50.9034 11.6338 53.053 10.9935 55.2492 11C58.2433 11.0034 61.1137 12.1943 63.2308 14.3115C65.348 16.4286 66.5388 19.299 66.5422 22.2931C66.5422 22.5334 66.5343 22.7749 66.5185 23.0178C67.9199 23.116 69.2285 23.7543 70.1684 24.7984C71.1084 25.8425 71.6063 27.2107 71.5572 28.6147C71.5081 30.0187 70.9159 31.3488 69.9053 32.3246C68.8947 33.3005 67.5448 33.846 66.1399 33.846ZM26.8878 24.9172C25.9573 24.9172 25.065 25.2868 24.4071 25.9447C23.7491 26.6026 23.3795 27.495 23.3795 28.4254C23.3795 29.3559 23.7491 30.2482 24.4071 30.9061C25.065 31.5641 25.9573 31.9337 26.8878 31.9337H66.1399C67.0704 31.9337 67.9627 31.5641 68.6207 30.9061C69.2786 30.2482 69.6482 29.3559 69.6482 28.4254C69.6482 27.495 69.2786 26.6026 68.6207 25.9447C67.9627 25.2868 67.0704 24.9172 66.1399 24.9172H65.4502C65.3117 24.9172 65.1748 24.8871 65.0491 24.829C64.9234 24.7708 64.8117 24.6861 64.722 24.5806C64.6322 24.4751 64.5664 24.3514 64.5292 24.2179C64.492 24.0845 64.4842 23.9446 64.5064 23.8079C64.588 23.3071 64.6293 22.8005 64.6299 22.2931C64.6271 19.8061 63.6379 17.4217 61.8793 15.6631C60.1207 13.9044 57.7363 12.9152 55.2492 12.9124C53.2026 12.9064 51.2113 13.576 49.5841 14.8174C49.402 14.9557 49.1762 15.0241 48.9479 15.0103C48.7196 14.9964 48.5039 14.9011 48.3398 14.7417C47.6641 14.0851 46.8382 13.6036 45.9339 13.339C45.0297 13.0744 44.0745 13.0347 43.1514 13.2235C42.2283 13.4122 41.3653 13.8237 40.6375 14.422C39.9098 15.0203 39.3392 15.7874 38.9755 16.6566C38.9246 16.7779 38.8492 16.8875 38.7541 16.9784C38.6589 17.0693 38.546 17.1396 38.4225 17.1848C38.2989 17.2301 38.1673 17.2493 38.036 17.2414C37.9046 17.2335 37.7763 17.1985 37.6591 17.1387C36.8477 16.7229 35.9485 16.5071 35.0367 16.5094C34.1554 16.5101 33.2859 16.712 32.4944 17.0997C31.703 17.4875 31.0106 18.0508 30.47 18.7468C29.9294 19.4428 29.5548 20.2531 29.3749 21.1158C29.195 21.9786 29.2145 22.871 29.4319 23.7251C29.4678 23.8662 29.471 24.0137 29.4413 24.1563C29.4115 24.2989 29.3496 24.4328 29.2602 24.5478C29.1708 24.6628 29.0563 24.7558 28.9255 24.8198C28.7947 24.8838 28.6509 24.9171 28.5053 24.9171L26.8878 24.9172Z" fill="black"/>
</svg>
